<?xml version="1.0" encoding="UTF-8"?> <svg xmlns="http://www.w3.org/2000/svg" width="120" height="120" viewBox="0 0 120 120" fill="none"> <g clip-path="url(#clip0)"> <path d="M60 1L0 0.999997M60 8.71429L-3.37202e-07 8.71428M60 16.4286L-6.74404e-07 16.4286M60 24.1429L-1.01161e-06 24.1429M60 31.8571L-1.34881e-06 31.8571M60 39.5714L-1.68601e-06 39.5714M60 47.2857L-2.02321e-06 47.2857M60 55L-2.36041e-06 55" stroke="#FFAEB6" stroke-width="2"></path> <path d="M60 62V44.5" stroke="#210E3E" stroke-width="3"></path> <path d="M78.5 57L60 62L70 76.5" stroke="#210E3E" stroke-width="3"></path> <path d="M49.5 77L60 62L42.5 57" stroke="#210E3E" stroke-width="3"></path> <circle cx="34" cy="54" r="9" stroke="#210E3E" stroke-width="3" stroke-linejoin="round"></circle> <circle cx="60" cy="36" r="9" fill="white" stroke="#210E3E" stroke-width="3" stroke-linejoin="round"></circle> <circle cx="87" cy="54" r="9" stroke="#210E3E" stroke-width="3" stroke-linejoin="round"></circle> <circle cx="75" cy="84" r="9" stroke="#210E3E" stroke-width="3" stroke-linejoin="round"></circle> <circle cx="45" cy="84" r="9" stroke="#210E3E" stroke-width="3" stroke-linejoin="round"></circle> </g> <defs> <clipPath id="clip0"> <rect width="120" height="120" fill="white"></rect> </clipPath> </defs> </svg> 