<?xml version="1.0" encoding="UTF-8"?> <svg xmlns="http://www.w3.org/2000/svg" width="120" height="120" viewBox="0 0 120 120" fill="none"> <path d="M65 60V120M72.7143 60V120M80.4286 60V120M88.1429 60V120M95.8571 60V120M103.571 60V120M111.286 60V120M119 60V120" stroke="#27CEAA" stroke-width="2"></path> <path d="M65.5 79.5C65.5 78.6716 64.8284 78 64 78C63.1716 78 62.5 78.6716 62.5 79.5H65.5ZM64 95.5H62.5C62.5 96.1067 62.8655 96.6536 63.426 96.8858C63.9865 97.118 64.6317 96.9897 65.0607 96.5607L64 95.5ZM80.5 79L81.5607 80.0607C81.842 79.7794 82 79.3978 82 79H80.5ZM82 70.5C82 69.6716 81.3284 69 80.5 69C79.6716 69 79 69.6716 79 70.5H82ZM62.5 79.5V95.5H65.5V79.5H62.5ZM65.0607 96.5607L81.5607 80.0607L79.4393 77.9393L62.9393 94.4393L65.0607 96.5607ZM82 79V70.5H79V79H82Z" fill="#210E3E"></path> <path d="M41 56.5L42.0769 57.5442C41.7943 57.8356 41.4058 58 41 58L41 56.5ZM25 56.5L25 58C24.3933 58 23.8464 57.6345 23.6142 57.074C23.382 56.5135 23.5103 55.8683 23.9393 55.4393L25 56.5ZM41.5 40L40.4393 38.9393C40.7206 38.658 41.1022 38.5 41.5 38.5L41.5 40ZM57 40L57 38.5C57.6025 38.5 58.1465 38.8605 58.3814 39.4153C58.6162 39.9702 58.4963 40.6117 58.0768 41.0442L57 40ZM41 58L25 58L25 55L41 55L41 58ZM23.9393 55.4393L40.4393 38.9393L42.5607 41.0607L26.0607 57.5607L23.9393 55.4393ZM41.5 38.5L57 38.5L57 41.5L41.5 41.5L41.5 38.5ZM58.0768 41.0442L42.0769 57.5442L39.9231 55.4558L55.9231 38.9558L58.0768 41.0442Z" fill="#210E3E"></path> <path fill-rule="evenodd" clip-rule="evenodd" d="M44.6853 61.8694C38.844 62.0838 33.3058 64.5237 29.2053 68.6894C16.9553 81.0894 26.6053 95.2394 26.7053 95.3794C26.8881 95.6412 27.1496 95.8379 27.4519 95.9408C27.7542 96.0437 28.0814 96.0475 28.386 95.9515C28.6906 95.8556 28.9566 95.6649 29.1453 95.4074C29.334 95.1498 29.4356 94.8387 29.4353 94.5194C29.4353 89.7094 33.9453 85.1494 38.7053 85.1494C40.9906 85.1626 43.1774 86.0818 44.7859 87.7053C46.3944 89.3288 47.2933 91.524 47.2853 93.8094C47.29 94.0805 47.368 94.3453 47.5112 94.5756C47.6544 94.8059 47.8573 94.9931 48.0984 95.1172C48.3395 95.2413 48.6097 95.2978 48.8804 95.2806C49.151 95.2634 49.4119 95.1731 49.6353 95.0194C52.518 92.7822 54.8548 89.9194 56.4693 86.647C58.0839 83.3747 58.9339 79.7783 58.9553 76.1294V73.0194L48.0984 61.8694H44.6853ZM45.7756 84.5966C47.8017 86.1686 49.2503 88.3673 49.8953 90.8494C52.146 88.5051 53.8446 85.6877 54.8671 82.6029C55.8896 79.5181 56.2101 76.2439 55.8053 73.0194L47.8053 65.0194C44.7957 64.6678 41.7456 65.0085 38.8877 66.0154C36.0298 67.0223 33.4398 68.6689 31.3153 70.8294C24.1553 78.0594 25.5653 85.7894 27.3153 90.1594C29.1953 85.6194 33.7753 82.1594 38.6953 82.1594C41.2598 82.1675 43.7494 83.0245 45.7756 84.5966Z" fill="#210E3E"></path> <path fill-rule="evenodd" clip-rule="evenodd" d="M95.8451 25.1294C95.105 24.3909 94.2147 23.8203 93.2347 23.4563C92.2546 23.0922 91.2078 22.9432 90.1651 23.0194C77.9909 23.9308 66.5542 29.2035 57.9551 37.8694L40.8251 55.0194C40.05 55.3462 39.6524 56.854 40.8351 58.0194C53.4997 70.5 53.4997 70.5 62.9551 80.1294C64.2351 81.4329 65.4884 80.6858 65.9551 80.1494L83.1051 63.0194C91.7709 54.4203 97.0437 42.9835 97.9551 30.8094C98.0312 29.7667 97.8822 28.7198 97.5181 27.7398C97.1541 26.7597 96.5835 25.8695 95.8451 25.1294ZM79.3951 62.4794L80.9551 60.9194V60.8794C89.1134 52.7996 94.0841 42.0485 94.9551 30.5994C95.0102 29.9841 94.9296 29.3642 94.719 28.7835C94.5083 28.2027 94.1727 27.6753 93.7359 27.2385C93.2991 26.8017 92.7717 26.4661 92.191 26.2554C91.6102 26.0448 90.9903 25.9642 90.3751 26.0194C78.9259 26.8903 68.1749 31.861 60.0951 40.0194L58.5351 41.5594L58.4851 41.6094L43.5751 56.5194L64.4551 77.3994L79.3451 62.5294L79.3951 62.4794Z" fill="#210E3E"></path> <path d="M75.455 37.0193C73.2572 37.0205 71.1278 37.7836 69.4295 39.1788C67.7313 40.5739 66.5693 42.5147 66.1416 44.6705C65.7139 46.8263 66.0469 49.0637 67.0838 51.0015C68.1208 52.9393 69.7975 54.4577 71.8284 55.2978C73.8593 56.138 76.1187 56.248 78.2216 55.6091C80.3245 54.9702 82.1408 53.6219 83.3611 51.794C84.5814 49.9661 85.1301 47.7716 84.9139 45.5845C84.6976 43.3973 83.7297 41.3528 82.175 39.7993C81.2943 38.9147 80.2469 38.2134 79.0935 37.7363C77.94 37.2591 76.7033 37.0154 75.455 37.0193V37.0193ZM80.055 51.1193C78.9926 52.1835 77.5941 52.8464 76.0978 52.9951C74.6014 53.1438 73.0998 52.7691 71.8487 51.9348C70.5977 51.1005 69.6746 49.8583 69.2367 48.4197C68.7988 46.9812 68.8733 45.4353 69.4473 44.0455C70.0214 42.6557 71.0595 41.5079 72.385 40.7977C73.7104 40.0874 75.241 39.8587 76.7162 40.1505C78.1913 40.4422 79.5197 41.2364 80.4749 42.3977C81.4302 43.559 81.9532 45.0156 81.955 46.5193C81.9582 47.3736 81.7919 48.2201 81.4658 49.0097C81.1396 49.7992 80.6601 50.5163 80.055 51.1193V51.1193Z" fill="#210E3E"></path> </svg> 