<?xml version="1.0" encoding="UTF-8"?> <svg xmlns="http://www.w3.org/2000/svg" width="120" height="120" viewBox="0 0 120 120" fill="none"> <path d="M103.653 60H105.713C103.35 50.5213 102.145 39.9404 102.145 29.6667C102.145 19.4679 103.284 9.27876 105.52 1.84467e-06L103.464 1.75479e-06C101.261 9.3219 100.145 19.4989 100.145 29.6667C100.145 39.9094 101.325 50.4699 103.653 60Z" fill="#EFCE86"></path> <path d="M90.2708 60H92.3308C89.9684 50.5213 88.7631 39.9404 88.7631 29.6667C88.7631 19.4679 89.9023 9.27876 92.1379 1.25973e-06L90.0817 1.16986e-06C87.8792 9.3219 86.7631 19.4989 86.7631 29.6667C86.7631 39.9094 87.9433 50.4699 90.2708 60Z" fill="#EFCE86"></path> <path d="M76.8892 60H78.9492C76.5868 50.5213 75.3815 39.9404 75.3815 29.6667C75.3815 19.4679 76.5207 9.27876 78.7563 6.74804e-07L76.7001 5.84928e-07C74.4976 9.3219 73.3815 19.4989 73.3815 29.6667C73.3815 39.9094 74.5617 50.4699 76.8892 60Z" fill="#EFCE86"></path> <path d="M63.5077 60H65.5676C63.2052 50.5213 61.9999 39.9404 62 29.6667C61.9999 19.4679 63.1391 9.27876 65.3747 8.98767e-08L63.3186 0C61.1265 9.27734 60.0106 19.4016 60 29.5209V29.8093C60.0109 40.0074 61.1909 50.5142 63.5077 60Z" fill="#EFCE86"></path> <path d="M116.845 2.33972e-06C114.643 9.3219 113.527 19.4989 113.527 29.6667C113.527 39.9094 114.707 50.4699 117.034 60H119.094C116.732 50.5213 115.527 39.9404 115.527 29.6667C115.527 19.4679 116.666 9.27877 118.901 2.4296e-06L116.845 2.33972e-06Z" fill="#EFCE86"></path> <circle cx="60" cy="42" r="16" fill="white"></circle> <path d="M60.8152 62.293C52.9296 62.293 45.367 65.4255 39.791 71.0015C34.2151 76.5774 31.0825 84.14 31.0825 92.0256C31.0825 92.3841 31.2249 92.7278 31.4784 92.9813C31.7318 93.2347 32.0756 93.3771 32.434 93.3771H89.1964C89.5548 93.3771 89.8986 93.2347 90.152 92.9813C90.4055 92.7278 90.5479 92.3841 90.5479 92.0256C90.5479 84.14 87.4153 76.5774 81.8394 71.0015C76.2634 65.4255 68.7008 62.293 60.8152 62.293ZM33.8125 90.6832C34.1478 83.7485 37.1386 77.2088 42.165 72.4195C47.1914 67.6302 53.8679 64.9587 60.8107 64.9587C67.7534 64.9587 74.43 67.6302 79.4564 72.4195C84.4828 77.2088 87.4736 83.7485 87.8088 90.6832H33.8125Z" fill="#210E3E"></path> <path d="M60.32 24.8478C56.9342 24.8478 53.6245 25.8518 50.8093 27.7329C47.9941 29.6139 45.8 32.2875 44.5043 35.4156C43.2086 38.5436 42.8696 41.9856 43.5301 45.3064C44.1906 48.6271 45.8211 51.6774 48.2152 54.0715C50.6093 56.4656 53.6596 58.096 56.9803 58.7565C60.301 59.4171 63.743 59.0781 66.8711 57.7824C69.9991 56.4867 72.6727 54.2925 74.5538 51.4774C76.4348 48.6622 77.4388 45.3524 77.4388 41.9667C77.4222 37.4316 75.6133 33.087 72.4065 29.8802C69.1997 26.6734 64.8551 24.8645 60.32 24.8478V24.8478ZM60.32 56.4456C57.4688 56.4456 54.6817 55.6001 52.311 54.0161C49.9403 52.432 48.0926 50.1806 47.0015 47.5464C45.9104 44.9123 45.6249 42.0137 46.1811 39.2173C46.7374 36.4209 48.1104 33.8523 50.1265 31.8362C52.1425 29.8201 54.7112 28.4471 57.5076 27.8909C60.304 27.3346 63.2025 27.6201 65.8367 28.7112C68.4709 29.8023 70.7223 31.65 72.3063 34.0207C73.8904 36.3914 74.7358 39.1785 74.7358 42.0297C74.7192 45.8479 73.1951 49.505 70.4952 52.2049C67.7953 54.9048 64.1382 56.429 60.32 56.4456V56.4456Z" fill="#210E3E"></path> <path d="M37.9934 51.0396H39.7954C40.1507 51.0348 40.4898 50.8904 40.7394 50.6374C40.9889 50.3845 41.1289 50.0434 41.1288 49.6881V33.4703C41.1385 33.3774 41.1385 33.2838 41.1288 33.191C42.847 29.4552 45.6171 26.3014 49.1 24.1156C52.5829 21.9298 56.6276 20.8069 60.7388 20.8844C64.85 20.9618 68.8495 22.2363 72.2476 24.5516C75.6458 26.867 78.2951 30.1229 79.8714 33.9208V49.6881C79.8611 49.7839 79.8611 49.8806 79.8714 49.9764C78.8369 52.5475 77.3061 54.8896 75.3664 56.869C75.2343 56.9934 75.1286 57.1431 75.0555 57.3092C74.9825 57.4753 74.9437 57.6544 74.9414 57.8358C74.9391 58.0173 74.9733 58.1973 75.0421 58.3653C75.1108 58.5332 75.2127 58.6855 75.3416 58.8132C75.4705 58.9409 75.6238 59.0414 75.7924 59.1086C75.961 59.1757 76.1413 59.2083 76.3227 59.2043C76.5042 59.2002 76.6829 59.1597 76.8483 59.0851C77.0137 59.0105 77.1624 58.9034 77.2856 58.7701C79.4821 56.554 81.2211 53.9272 82.4032 51.0396H83.0068C85.5159 51.0396 87.9222 50.0429 89.6964 48.2687C91.4705 46.4945 92.4672 44.0882 92.4672 41.5792C92.4672 39.0701 91.4705 36.6638 89.6964 34.8897C87.9222 33.1155 85.5159 32.1188 83.0068 32.1188H82.0248C80.1298 27.9533 77.0761 24.4212 73.2281 21.9443C69.3802 19.4674 64.9007 18.1503 60.3244 18.1503C55.7482 18.1503 51.2686 19.4674 47.4207 21.9443C43.5727 24.4212 40.519 27.9533 38.6241 32.1188H38.0024C35.4933 32.1188 33.087 33.1155 31.3129 34.8897C29.5387 36.6638 28.542 39.0701 28.542 41.5792C28.542 44.0882 29.5387 46.4945 31.3129 48.2687C33.087 50.0429 35.4933 51.0396 38.0024 51.0396H37.9934ZM89.7823 41.5792C89.7799 43.3706 89.0672 45.088 87.8004 46.3548C86.5337 47.6215 84.8163 48.3342 83.0249 48.3366H82.5744V34.8218H83.0068C83.8954 34.8206 84.7755 34.9944 85.5969 35.3334C86.4183 35.6723 87.1649 36.1697 87.7941 36.7972C88.4232 37.4247 88.9226 38.17 89.2638 38.9905C89.6049 39.811 89.7811 40.6906 89.7823 41.5792V41.5792ZM37.9934 34.8218H38.4259V48.3366H37.9934C36.2012 48.3366 34.4824 47.6247 33.2152 46.3574C31.9479 45.0901 31.236 43.3714 31.236 41.5792C31.236 39.787 31.9479 38.0682 33.2152 36.801C34.4824 35.5337 36.2012 34.8218 37.9934 34.8218V34.8218Z" fill="#210E3E"></path> </svg> 