<?xml version="1.0" encoding="UTF-8"?> <svg xmlns="http://www.w3.org/2000/svg" width="120" height="120" viewBox="0 0 120 120" fill="none"> <path d="M62 120L60 120C60 86.8629 86.8629 60 120 60V62C87.9675 62 62 87.9675 62 120Z" fill="#4430BF"></path> <path d="M70 120C70 92.3858 92.3858 70 120 70V72C93.4903 72 72 93.4903 72 120L70 120Z" fill="#4430BF"></path> <path d="M80 120C80 97.9086 97.9086 80 120 80V82C99.0132 82 82 99.0132 82 120L80 120Z" fill="#4430BF"></path> <path d="M90 120C90 103.431 103.431 90 120 90V92C104.536 92 92 104.536 92 120L90 120Z" fill="#4430BF"></path> <path d="M100 120C100 108.954 108.954 100 120 100V102C110.059 102 102 110.059 102 120L100 120Z" fill="#4430BF"></path> <path d="M109 120C109 113.925 113.925 109 120 109V111C115.029 111 111 115.029 111 120L109 120Z" fill="#4430BF"></path> <rect x="31" y="33" width="53" height="68" fill="white"></rect> <rect x="43" y="20" width="53" height="61" fill="white"></rect> <path d="M84.0356 62.6772V100.568H31.0117V32.8799H84.0356V45.6025V62.6772Z" stroke="#210E3E" stroke-width="3" stroke-miterlimit="10" stroke-linecap="round" stroke-linejoin="round"></path> <path d="M43.4033 26.6567V20.2873H96.4255V35.7729V54.0677V80.8985H89.9716" stroke="#210E3E" stroke-width="3" stroke-miterlimit="10" stroke-linecap="round" stroke-linejoin="round"></path> <path d="M64.5498 75.0213L52.9253 86.6459V63.3966L64.5498 75.0213Z" stroke="#210E3E" stroke-width="3" stroke-miterlimit="10" stroke-linecap="round" stroke-linejoin="round"></path> <path d="M49.7915 49.3984H66.5081" stroke="#210E3E" stroke-width="3" stroke-miterlimit="10" stroke-linecap="round" stroke-linejoin="round"></path> </svg> 