<?xml version="1.0" encoding="UTF-8"?> <svg xmlns="http://www.w3.org/2000/svg" width="120" height="120" viewBox="0 0 120 120" fill="none"> <path d="M99.55 37.53L95 26C94.9609 25.7519 94.8597 25.5177 94.7059 25.3192C94.5521 25.1207 94.3506 24.9643 94.1201 24.8645C93.8896 24.7647 93.6376 24.7248 93.3876 24.7485C93.1376 24.7722 92.8976 24.8587 92.69 25L80.45 29.52C80.1168 29.6807 79.8548 29.9589 79.7143 30.3011C79.5738 30.6433 79.5646 31.0253 79.6886 31.3739C79.8127 31.7224 80.0611 32.0128 80.3862 32.1892C80.7113 32.3657 81.0902 32.4158 81.45 32.33L90.59 28.93L75.33 62.5L67.54 49.24C67.4018 49.0047 67.2019 48.8116 66.9621 48.6814C66.7222 48.5513 66.4514 48.489 66.1788 48.5014C65.9062 48.5137 65.6421 48.6002 65.415 48.7515C65.1879 48.9028 65.0064 49.1132 64.89 49.36L53.68 73.28L44.66 56C44.5376 55.7444 44.342 55.531 44.0981 55.3868C43.8542 55.2426 43.5729 55.1741 43.29 55.19C43.0222 55.1975 42.7614 55.2766 42.5345 55.419C42.3077 55.5615 42.1231 55.7621 42 56L28 86.61V26.5C28 26.1022 27.8419 25.7206 27.5606 25.4393C27.2793 25.158 26.8978 25 26.5 25C26.1022 25 25.7206 25.158 25.4393 25.4393C25.158 25.7206 25 26.1022 25 26.5V93.5C25 93.5 25 93.57 25 93.6C24.9967 93.6566 24.9967 93.7134 25 93.77C25 93.77 25 93.86 25 93.91C25 93.96 25 94 25 94.05L25.07 94.19L25.14 94.31L25.23 94.43L25.32 94.54L25.43 94.64L25.54 94.73L25.69 94.82L25.78 94.87L26.01 94.95H26.07H26.36H93.36C93.7578 94.95 94.1393 94.7919 94.4206 94.5106C94.702 94.2293 94.86 93.8478 94.86 93.45C94.86 93.0521 94.702 92.6706 94.4206 92.3893C94.1393 92.108 93.7578 91.95 93.36 91.95H28.83L43.42 60.08L52.42 77.36C52.5494 77.6083 52.7457 77.8154 52.9867 77.9579C53.2277 78.1004 53.5037 78.1726 53.7836 78.1664C54.0636 78.1601 54.3361 78.0757 54.5705 77.9226C54.8049 77.7695 54.9918 77.5538 55.11 77.3L66.4 53.22L74.21 66.51C74.3491 66.7471 74.5507 66.9414 74.7928 67.0717C75.0348 67.202 75.308 67.2632 75.5826 67.2488C75.8571 67.2343 76.1223 67.1447 76.3494 66.9897C76.5764 66.8348 76.7565 66.6204 76.87 66.37L93.4 30.11L96.76 38.63C96.9127 38.9901 97.2001 39.2763 97.5609 39.4276C97.9216 39.5788 98.3272 39.5832 98.6911 39.4397C99.055 39.2962 99.3485 39.0163 99.5089 38.6595C99.6694 38.3028 99.6841 37.8974 99.55 37.53V37.53Z" fill="#210E3E"></path> <path d="M120 77.1285V74.3001L105.7 60H102.871L120 77.1285Z" fill="#27CEAA"></path> <path d="M120 94.0991V91.2707L88.7293 60H86.2268L86.0639 60.163L120 94.0991Z" fill="#27CEAA"></path> <path d="M120 111.07V108.241L78.9928 67.234L77.5786 68.6482L120 111.07Z" fill="#27CEAA"></path> <path d="M111.96 120H114.788L70.5075 75.7193L69.0933 77.1335L111.96 120Z" fill="#27CEAA"></path> <path d="M94.9892 120H97.8176L62.0222 84.2046L60.608 85.6188L94.9892 120Z" fill="#27CEAA"></path> <path d="M78.0187 120H80.8471L60 99.1529V101.981L78.0187 120Z" fill="#27CEAA"></path> <path d="M61.0481 120H63.8765L60 116.123V118.952L61.0481 120Z" fill="#27CEAA"></path> <path d="M119.842 60L120 60.158V60H119.842Z" fill="#27CEAA"></path> </svg> 