<?xml version="1.0" encoding="UTF-8"?> <svg xmlns="http://www.w3.org/2000/svg" width="120" height="120" viewBox="0 0 120 120" fill="none"> <g clip-path="url(#clip0)"> <path d="M60 1L0 0.999997M60 8.71429L-3.37202e-07 8.71428M60 16.4286L-6.74404e-07 16.4286M60 24.1429L-1.01161e-06 24.1429M60 31.8571L-1.34881e-06 31.8571M60 39.5714L-1.68601e-06 39.5714M60 47.2857L-2.02321e-06 47.2857M60 55L-2.36041e-06 55" stroke="#FFAEB6" stroke-width="2"></path> <path d="M94.5 24H25.5C25.1022 24 24.7206 24.158 24.4393 24.4393C24.158 24.7206 24 25.1022 24 25.5V94.5C24.0002 94.7941 24.0868 95.0817 24.2492 95.327C24.4115 95.5723 24.6424 95.7644 24.9131 95.8795C25.1837 95.9946 25.4823 96.0275 25.7715 95.9743C26.0608 95.921 26.328 95.7839 26.54 95.58C26.867 95.575 27.1832 95.4625 27.44 95.26L34.68 89.47L42.09 95.39C42.3556 95.6018 42.6853 95.7171 43.025 95.7171C43.3647 95.7171 43.6944 95.6018 43.96 95.39L51.21 89.59L58.58 95.48C58.8456 95.6918 59.1753 95.8071 59.515 95.8071C59.8547 95.8071 60.1844 95.6918 60.45 95.48L67.99 89.48L75.41 95.41C75.6756 95.6218 76.0053 95.7371 76.345 95.7371C76.6847 95.7371 77.0144 95.6218 77.28 95.41L84.74 89.41L92.56 95.66C92.7573 95.8203 92.9932 95.926 93.2442 95.9663C93.4952 96.0067 93.7524 95.9804 93.99 95.89C94.2159 95.9723 94.4583 95.9987 94.6967 95.967C94.935 95.9353 95.1621 95.8463 95.3586 95.7078C95.5551 95.5693 95.7151 95.3852 95.8251 95.1714C95.935 94.9576 95.9916 94.7204 95.99 94.48V25.48C95.9848 25.0874 95.8258 24.7125 95.5472 24.4357C95.2686 24.159 94.8926 24.0026 94.5 24V24ZM93 51H34.24L93 27.32V51ZM85.77 27L27 50.68V27H85.77ZM85.68 86.33C85.4144 86.1182 85.0847 86.0029 84.745 86.0029C84.4053 86.0029 84.0756 86.1182 83.81 86.33L76.35 92.33L68.93 86.4C68.6644 86.1882 68.3347 86.0729 67.995 86.0729C67.6553 86.0729 67.3256 86.1882 67.06 86.4L59.52 92.4L52.15 86.5C51.8844 86.2882 51.5547 86.1729 51.215 86.1729C50.8753 86.1729 50.5456 86.2882 50.28 86.5L43 92.3L35.59 86.38C35.3244 86.1682 34.9947 86.0529 34.655 86.0529C34.3153 86.0529 33.9856 86.1682 33.72 86.38L27 91.76V54H93V92.18L85.68 86.33Z" fill="#191C2E"></path> <path d="M78.5 61H41.5C41.1022 61 40.7206 61.158 40.4393 61.4393C40.158 61.7206 40 62.1022 40 62.5C40 62.8978 40.158 63.2794 40.4393 63.5607C40.7206 63.842 41.1022 64 41.5 64H78.5C78.8978 64 79.2794 63.842 79.5607 63.5607C79.842 63.2794 80 62.8978 80 62.5C80 62.1022 79.842 61.7206 79.5607 61.4393C79.2794 61.158 78.8978 61 78.5 61Z" fill="#191C2E"></path> <path d="M78.5 68H41.5C41.1022 68 40.7206 68.158 40.4393 68.4393C40.158 68.7206 40 69.1022 40 69.5C40 69.8978 40.158 70.2794 40.4393 70.5607C40.7206 70.842 41.1022 71 41.5 71H78.5C78.8978 71 79.2794 70.842 79.5607 70.5607C79.842 70.2794 80 69.8978 80 69.5C80 69.1022 79.842 68.7206 79.5607 68.4393C79.2794 68.158 78.8978 68 78.5 68Z" fill="#191C2E"></path> <path d="M69.5 75H50.5C50.1022 75 49.7206 75.158 49.4393 75.4393C49.158 75.7206 49 76.1022 49 76.5C49 76.8978 49.158 77.2794 49.4393 77.5607C49.7206 77.842 50.1022 78 50.5 78H69.5C69.8978 78 70.2794 77.842 70.5607 77.5607C70.842 77.2794 71 76.8978 71 76.5C71 76.1022 70.842 75.7206 70.5607 75.4393C70.2794 75.158 69.8978 75 69.5 75Z" fill="#191C2E"></path> </g> <defs> <clipPath id="clip0"> <rect width="120" height="120" fill="white"></rect> </clipPath> </defs> </svg> 