<?xml version="1.0" encoding="UTF-8"?> <svg xmlns="http://www.w3.org/2000/svg" width="120" height="120" viewBox="0 0 120 120" fill="none"> <g clip-path="url(#clip0)"> <path d="M62 2.14186e-06L60 2.22928e-06C60 33.1371 86.8629 60 120 60V58C87.9675 58 62 32.0325 62 2.14186e-06Z" fill="#EFCE86"></path> <path d="M70 1.79217e-06C70 27.6142 92.3858 50 120 50V48C93.4903 48 72 26.5097 72 1.70474e-06L70 1.79217e-06Z" fill="#EFCE86"></path> <path d="M80 1.35505e-06C80 22.0914 97.9086 40 120 40V38C99.0132 38 82 20.9868 82 1.26763e-06L80 1.35505e-06Z" fill="#EFCE86"></path> <path d="M90 9.17939e-07C90 16.5685 103.431 30 120 30V28C104.536 28 92 15.464 92 8.30516e-07L90 9.17939e-07Z" fill="#EFCE86"></path> <path d="M100 4.80825e-07C100 11.0457 108.954 20 120 20V18C110.059 18 102 9.94113 102 3.93403e-07L100 4.80825e-07Z" fill="#EFCE86"></path> <path d="M109 8.74228e-08C109 6.07513 113.925 11 120 11V9C115.029 9 111 4.97056 111 0L109 8.74228e-08Z" fill="#EFCE86"></path> <path d="M94.2602 31.57C94.2561 31.3686 94.2116 31.17 94.1291 30.9862C94.0466 30.8023 93.928 30.637 93.7802 30.5C93.6324 30.364 93.459 30.2585 93.2702 30.1899C93.0814 30.1212 92.8809 30.0907 92.6802 30.1C67.9102 31.51 61.9302 14.74 61.6902 14C61.5865 13.7066 61.3941 13.4528 61.1396 13.2736C60.8852 13.0944 60.5814 12.9988 60.2702 13H59.7302C59.4193 13.0003 59.1162 13.0965 58.862 13.2754C58.6079 13.4544 58.4152 13.7074 58.3102 14C58.0702 14.71 52.0702 31.49 27.3102 30.09C27.1099 30.0793 26.9095 30.1088 26.7208 30.1768C26.5321 30.2449 26.359 30.3501 26.2117 30.4862C26.0644 30.6223 25.9459 30.7866 25.8632 30.9693C25.7805 31.152 25.7352 31.3495 25.7302 31.55C25.7302 32.44 25.2002 53.48 25.7302 60.71C26.8702 76 31.6302 93.4 58.3202 105.86C58.5327 105.96 58.7657 106.008 59.0002 106H61.0002C61.2179 106 61.4329 105.952 61.6302 105.86C88.3702 93.4 93.1302 76 94.2602 60.73C94.7902 53.5 94.2802 32.46 94.2602 31.57ZM91.2602 60.5C90.2002 74.9 85.7302 91.2 60.7102 103H59.2902C34.2902 91.2 29.8002 74.9 28.7302 60.51C28.2902 54.51 28.5902 38.25 28.7302 33.18H30.1802C49.1802 33.18 57.3002 22.43 60.0302 17.44C62.8202 22.55 71.2302 33.71 91.3302 33.16C91.4102 38.24 91.7102 54.53 91.2702 60.5H91.2602Z" fill="#210E3E"></path> <path d="M66.5 54.5L73 42.5H51L45.5 63" stroke="#210E3E" stroke-width="3" stroke-linecap="round" stroke-linejoin="round"></path> <path d="M65 59.5H76.5L54.5 87V69.5H44" stroke="#210E3E" stroke-width="3" stroke-linecap="round" stroke-linejoin="round"></path> </g> <defs> <clipPath id="clip0"> <rect width="120" height="120" fill="white"></rect> </clipPath> </defs> </svg> 