<?xml version="1.0" encoding="UTF-8"?> <svg xmlns="http://www.w3.org/2000/svg" width="120" height="120" viewBox="0 0 120 120" fill="none"> <g clip-path="url(#clip0)"> <path d="M16.3473 60H14.2874C16.6498 50.5213 17.855 39.9404 17.855 29.6667C17.855 19.4679 16.7159 9.27876 14.4803 1.84467e-06L16.5364 1.75479e-06C18.739 9.3219 19.855 19.4989 19.855 29.6667C19.855 39.9094 18.6749 50.4699 16.3473 60Z" fill="#4430BF"></path> <path d="M29.7292 60H27.6692C30.0316 50.5213 31.2369 39.9404 31.2369 29.6667C31.2369 19.4679 30.0977 9.27876 27.8621 1.25973e-06L29.9183 1.16986e-06C32.1208 9.3219 33.2369 19.4989 33.2369 29.6667C33.2369 39.9094 32.0567 50.4699 29.7292 60Z" fill="#4430BF"></path> <path d="M43.1108 60H41.0508C43.4132 50.5213 44.6185 39.9404 44.6185 29.6667C44.6185 19.4679 43.4793 9.27876 41.2437 6.74804e-07L43.2999 5.84928e-07C45.5024 9.3219 46.6185 19.4989 46.6185 29.6667C46.6185 39.9094 45.4383 50.4699 43.1108 60Z" fill="#4430BF"></path> <path d="M56.4923 60H54.4324C56.7948 50.5213 58.0001 39.9404 58 29.6667C58.0001 19.4679 56.8609 9.27876 54.6253 8.98767e-08L56.6814 0C58.8735 9.27734 59.9894 19.4016 60 29.5209V29.8093C59.9891 40.0074 58.8091 50.5142 56.4923 60Z" fill="#4430BF"></path> <path d="M3.15484 2.33972e-06C5.3574 9.3219 6.47345 19.4989 6.47344 29.6667C6.47344 39.9094 5.29327 50.4699 2.96573 60H0.905762C3.26819 50.5213 4.47344 39.9404 4.47344 29.6667C4.47345 19.4679 3.33429 9.27877 1.0987 2.4296e-06L3.15484 2.33972e-06Z" fill="#4430BF"></path> <mask id="path-2-inside-1" fill="white"> <rect x="21" y="69" width="22" height="22" rx="2"></rect> </mask> <rect x="21" y="69" width="22" height="22" rx="2" stroke="#210E3E" stroke-width="6" mask="url(#path-2-inside-1)"></rect> <mask id="path-3-inside-2" fill="white"> <rect x="49" y="69" width="22" height="22" rx="2"></rect> </mask> <rect x="49" y="69" width="22" height="22" rx="2" fill="white" stroke="#210E3E" stroke-width="6" mask="url(#path-3-inside-2)"></rect> <mask id="path-4-inside-3" fill="white"> <rect x="77" y="69" width="22" height="22" rx="2"></rect> </mask> <rect x="77" y="69" width="22" height="22" rx="2" fill="white" stroke="#210E3E" stroke-width="6" mask="url(#path-4-inside-3)"></rect> <path fill-rule="evenodd" clip-rule="evenodd" d="M43 36H33C31.8954 36 31 36.8954 31 38V69H34V39H43V36ZM77 39H86V69H89V38C89 36.8954 88.1046 36 87 36H77V39Z" fill="#210E3E"></path> <rect x="59" y="51" width="3" height="18" fill="#210E3E"></rect> <mask id="path-7-inside-4" fill="white"> <rect x="43" y="20" width="34" height="34" rx="2"></rect> </mask> <rect x="43" y="20" width="34" height="34" rx="2" fill="white" stroke="#210E3E" stroke-width="6" mask="url(#path-7-inside-4)"></rect> </g> <defs> <clipPath id="clip0"> <rect width="120" height="120" fill="white"></rect> </clipPath> </defs> </svg> 