<?xml version="1.0" encoding="UTF-8"?> <svg xmlns="http://www.w3.org/2000/svg" width="80" height="80" viewBox="0 0 80 80" fill="none"> <circle cx="40" cy="40" r="39" fill="white" stroke="#EFCE86" stroke-width="2"></circle> <path d="M61.395 25.9524L53.6754 18.2328C53.3846 17.9419 52.9137 17.9419 52.6228 18.2328L38.8883 31.9668L30.597 23.8089C30.5906 23.8025 30.5821 23.798 30.5752 23.7921C30.5479 23.7673 30.5186 23.7449 30.4874 23.7241C30.4725 23.7142 30.4586 23.7032 30.4432 23.6943C30.4065 23.6735 30.3673 23.6571 30.3266 23.6422C30.3161 23.6387 30.3072 23.6323 30.2968 23.6288L19.067 20.1201C18.804 20.0382 18.5146 20.1087 18.3186 20.3042C18.1226 20.5003 18.0516 20.7886 18.1345 21.0526L21.6437 32.2819C21.665 32.3499 21.6978 32.4124 21.737 32.471C21.7494 32.4898 21.7643 32.5052 21.7782 32.5226C21.7965 32.5454 21.8114 32.5702 21.8323 32.5906L30.1151 40.74L18.2328 52.6228C17.9419 52.9137 17.9419 53.3846 18.2328 53.6754L25.9529 61.396C26.0923 61.5355 26.2819 61.6139 26.4794 61.6139C26.6769 61.6139 26.866 61.5355 27.006 61.396L39.0109 49.3911L48.7241 58.8308C48.8481 58.9504 49.004 59.0084 49.1633 59.0258C50.2898 60.0705 51.7429 60.6486 53.2883 60.6486C54.9122 60.6486 56.4392 60.0164 57.5871 58.868C59.9261 56.529 59.9524 52.7449 57.6749 50.3677C57.6387 50.2442 57.5742 50.13 57.4799 50.0392L47.7385 40.663L61.3955 27.0055C61.6859 26.7142 61.6859 26.2432 61.395 25.9524ZM29.1544 24.8323L28.598 26.7231L26.0045 27.4859C25.7618 27.5573 25.5717 27.7469 25.5003 27.9901L24.738 30.5831L22.8467 31.1395L19.9797 21.9653L29.1544 24.8323ZM26.4789 59.8169L19.8114 53.1489L22.6164 50.3439L25.9499 53.6774C26.0953 53.8228 26.2859 53.8953 26.4764 53.8953C26.667 53.8953 26.8576 53.8228 27.003 53.6774C27.2938 53.3866 27.2938 52.9156 27.003 52.6248L23.6695 49.2913L26.401 46.5598L29.7345 49.8933C29.8799 50.0387 30.0705 50.1112 30.2611 50.1112C30.4516 50.1112 30.6422 50.0387 30.7876 49.8933C31.0784 49.6025 31.0784 49.1315 30.7876 48.8407L27.4541 45.5072L31.1807 41.7807L37.9434 48.3534L26.4789 59.8169ZM56.533 57.8149C54.867 59.4799 52.2313 59.5936 50.4308 58.1598L56.8784 51.7122C58.3122 53.5132 58.1985 56.1499 56.533 57.8149ZM49.2347 57.2511L31.6457 40.1568L23.7787 32.4169L25.5479 31.8968C25.7906 31.8253 25.9807 31.6357 26.0521 31.3926L26.8149 28.7995L29.4084 28.0367C29.6511 27.9653 29.8412 27.7757 29.9127 27.5325L30.4397 25.7414L46.1449 41.1936L55.9012 50.5851L49.2347 57.2511ZM46.671 39.6248L39.9494 33.0109L43.7702 29.1901L47.1037 32.5236C47.2491 32.669 47.4397 32.7414 47.6303 32.7414C47.8209 32.7414 48.0114 32.669 48.1568 32.5236C48.4476 32.2333 48.4476 31.7613 48.1568 31.471L44.8233 28.1375L47.9271 25.0338L51.2606 28.3673C51.406 28.5127 51.5965 28.5851 51.7871 28.5851C51.9777 28.5851 52.1682 28.5127 52.3137 28.3673C52.6045 28.0769 52.6045 27.605 52.3137 27.3146L48.9802 23.9811L53.1499 19.8114L59.8164 26.4789L46.671 39.6248Z" fill="#191C2E"></path> </svg> 