<?xml version="1.0" encoding="UTF-8"?> <svg xmlns="http://www.w3.org/2000/svg" width="80" height="80" viewBox="0 0 80 80" fill="none"> <circle cx="40" cy="40" r="39" fill="white" stroke="#27CEAA" stroke-width="2"></circle> <path d="M58.8513 20.3168H21.7028C21.4822 20.3168 21.2707 20.4045 21.1147 20.5604C20.9587 20.7164 20.8711 20.9279 20.8711 21.1485V58.297C20.8711 58.5176 20.9587 58.7291 21.1147 58.8851C21.2707 59.0411 21.4822 59.1287 21.7028 59.1287H58.8513C59.0719 59.1287 59.2834 59.0411 59.4394 58.8851C59.5954 58.7291 59.683 58.5176 59.683 58.297V21.1485C59.683 20.9279 59.5954 20.7164 59.4394 20.5604C59.2834 20.4045 59.0719 20.3168 58.8513 20.3168ZM58.0196 57.4653H22.5345V21.9802H58.0196V57.4653Z" fill="#191C2E"></path> <path d="M34.4552 38.6139H45.5443C45.7649 38.6139 45.9764 38.5262 46.1324 38.3703C46.2884 38.2143 46.376 38.0028 46.376 37.7822V26.6931C46.376 26.4725 46.2884 26.261 46.1324 26.105C45.9764 25.949 45.7649 25.8614 45.5443 25.8614H34.4552C34.2346 25.8614 34.0231 25.949 33.8671 26.105C33.7112 26.261 33.6235 26.4725 33.6235 26.6931V37.7822C33.6235 38.0028 33.7112 38.2143 33.8671 38.3703C34.0231 38.5262 34.2346 38.6139 34.4552 38.6139ZM35.2869 27.5248H39.1681V29.4654C39.1681 29.6859 39.2557 29.8975 39.4117 30.0534C39.5677 30.2094 39.7792 30.297 39.9998 30.297C40.2203 30.297 40.4319 30.2094 40.5879 30.0534C40.7438 29.8975 40.8315 29.6859 40.8315 29.4654V27.5248H44.7126V36.9505H35.2869V27.5248Z" fill="#191C2E"></path> <path d="M41.3862 41.6633V52.7525C41.3862 52.973 41.4739 53.1846 41.6298 53.3406C41.7858 53.4965 41.9973 53.5841 42.2179 53.5841H53.307C53.5276 53.5841 53.7391 53.4965 53.8951 53.3406C54.0511 53.1846 54.1387 52.973 54.1387 52.7525V41.6633C54.1387 41.4428 54.0511 41.2312 53.8951 41.0753C53.7391 40.9193 53.5276 40.8317 53.307 40.8317H42.2179C41.9973 40.8317 41.7858 40.9193 41.6298 41.0753C41.4739 41.2312 41.3862 41.4428 41.3862 41.6633V41.6633ZM43.0496 42.495H46.9308V44.4356C46.9308 44.6562 47.0184 44.8677 47.1744 45.0237C47.3304 45.1797 47.5419 45.2673 47.7625 45.2673C47.983 45.2673 48.1946 45.1797 48.3506 45.0237C48.5065 44.8677 48.5942 44.6562 48.5942 44.4356V42.495H52.4753V51.9208H43.0496V42.495Z" fill="#191C2E"></path> <path d="M26.693 53.5841H37.7821C38.0027 53.5841 38.2142 53.4965 38.3702 53.3406C38.5262 53.1846 38.6138 52.973 38.6138 52.7525V41.6633C38.6138 41.4428 38.5262 41.2312 38.3702 41.0753C38.2142 40.9193 38.0027 40.8317 37.7821 40.8317H26.693C26.4724 40.8317 26.2609 40.9193 26.1049 41.0753C25.949 41.2312 25.8613 41.4428 25.8613 41.6633V52.7525C25.8613 52.973 25.949 53.1846 26.1049 53.3406C26.2609 53.4965 26.4724 53.5841 26.693 53.5841V53.5841ZM27.5247 42.495H31.4059V44.4356C31.4059 44.6562 31.4935 44.8677 31.6495 45.0237C31.8054 45.1797 32.017 45.2673 32.2376 45.2673C32.4581 45.2673 32.6697 45.1797 32.8257 45.0237C32.9816 44.8677 33.0692 44.6562 33.0692 44.4356V42.495H36.9504V51.9208H27.5247V42.495Z" fill="#191C2E"></path> </svg> 