<?xml version="1.0" encoding="UTF-8"?> <svg xmlns="http://www.w3.org/2000/svg" width="80" height="80" viewBox="0 0 80 80" fill="none"> <circle cx="40" cy="40" r="39" fill="white" stroke="#FFAEB6" stroke-width="2"></circle> <path d="M59.8131 39.3246C60.9496 38.593 61.6965 37.3816 61.6965 36.0114C61.6965 33.7891 59.7257 31.9816 57.3034 31.9816H45.5982C46.1515 30.9444 46.7118 29.2446 46.5838 26.7136C46.3322 21.525 43.1838 18.8332 41.363 18.0605C40.289 17.6049 39.1203 17.7131 38.2374 18.3499C37.351 18.9891 36.3505 20.4571 36.618 23.8218C36.895 27.3186 32.4438 31.1116 30.2751 32.7414V31.4104C30.2751 30.999 29.9421 30.666 29.5307 30.666H19.6731C19.2617 30.666 18.9287 30.999 18.9287 31.4104V58.2997C18.9287 58.7107 19.2617 59.0442 19.6731 59.0442H29.5307C29.9421 59.0442 30.2751 58.7107 30.2751 58.2997V56.9414C33.0811 57.9504 40.9714 60.669 44.8706 60.7965L52.7004 60.8511C55.1198 60.8511 57.088 58.9628 57.088 56.6422C57.088 55.5737 56.6692 54.6 55.9848 53.8561C58.0731 53.531 59.6741 51.7975 59.6741 49.7077C59.6741 48.5945 59.217 47.5836 58.4776 46.8303C60.3312 46.336 61.6969 44.7072 61.6969 42.7747C61.6965 41.3474 60.95 40.0858 59.8131 39.3246ZM20.4175 57.5548V32.1543H28.7863V34.1494C28.7853 34.1692 28.7858 34.1891 28.7863 34.2089V55.8635C28.7858 55.8839 28.7848 55.9042 28.7863 55.9245V57.5553H20.4175V57.5548ZM57.3034 45.4982H53.4875C53.486 45.4982 53.4845 45.4987 53.4826 45.4987H52.7004C52.2895 45.4987 51.956 45.8322 51.956 46.2432C51.956 46.6541 52.2895 46.9876 52.7004 46.9876H55.2786C56.8811 46.9876 58.1848 48.2079 58.1848 49.7072C58.1848 51.2064 56.8811 52.4263 55.2786 52.4263H52.7103C52.7069 52.4263 52.7039 52.4258 52.7004 52.4258H49.9639C49.553 52.4258 49.2195 52.7593 49.2195 53.1702C49.2195 53.5811 49.553 53.9146 49.9639 53.9146H52.6955C52.6969 53.9146 52.6984 53.9151 52.7004 53.9151H52.7103C54.3039 53.9206 55.5987 55.1409 55.5987 56.6417C55.5987 58.1414 54.2984 59.3618 52.7054 59.3618L44.8999 59.3077C41.018 59.1801 32.4091 56.133 30.2751 55.3568V34.5811C31.8875 33.4719 38.4915 28.6134 38.1019 23.7042C37.9362 21.6174 38.2935 20.1449 39.1079 19.5578C39.7853 19.07 40.56 19.3384 40.7818 19.4317C42.2826 20.069 44.8811 22.335 45.0969 26.7881C45.293 30.658 43.7257 32.1057 43.6657 32.1593C43.428 32.3618 43.3416 32.6903 43.4488 32.9836C43.557 33.2764 43.8354 33.471 44.1476 33.471H57.3029C58.9044 33.471 60.2071 34.6109 60.2071 36.0119C60.2071 37.4198 58.9044 38.5657 57.3029 38.5657H54.1203C53.7094 38.5657 53.3759 38.8987 53.3759 39.3102C53.3759 39.7216 53.7094 40.0546 54.1203 40.0546H57.3029C58.9044 40.0546 60.2071 41.2744 60.2071 42.7747C60.2076 44.2759 58.9049 45.4982 57.3034 45.4982Z" fill="#191C2E"></path> </svg> 