<?xml version="1.0" encoding="UTF-8"?> <svg xmlns="http://www.w3.org/2000/svg" width="80" height="80" viewBox="0 0 80 80" fill="none"> <circle cx="40" cy="40" r="39" fill="white" stroke="#27CEAA" stroke-width="2"></circle> <path d="M43.473 55.5399L44.8472 60.2164C44.478 60.6511 44.2462 61.2059 44.2462 61.8193C44.2462 63.1935 45.3658 64.3111 46.742 64.3111C47.9623 64.3111 48.9747 63.4233 49.1832 62.259H54.0025C54.1445 63.4987 55.1881 64.4685 56.4656 64.4685C57.8408 64.4685 58.9594 63.3508 58.9594 61.9771C58.9594 60.6015 57.8408 59.4819 56.4656 59.4819C55.5311 59.4819 54.7251 60.0059 54.2988 60.7702H48.9886C48.5921 59.9206 47.7375 59.327 46.742 59.327C46.5405 59.327 46.3475 59.3573 46.1599 59.4025L45.3589 56.6769H57.8015V56.6774C58.1604 56.6774 58.4675 56.4218 58.5336 56.0695L60.7857 44.0094C60.8264 43.792 60.7678 43.5672 60.6269 43.3975C60.4854 43.2268 60.2755 43.1285 60.0541 43.1285H40.8899L40.071 40.6799C39.9693 40.3767 39.6854 40.1717 39.3653 40.1717H36.3167C35.9053 40.1717 35.5723 40.5047 35.5723 40.9161C35.5723 41.3275 35.9053 41.6605 36.3167 41.6605H38.8293L43.473 55.5399ZM59.1579 44.6173L57.1832 55.1886H44.9251L44.8939 55.0953L44.8303 54.8799C44.8179 54.8372 44.8006 54.7975 44.7812 54.7593L41.3877 44.6173H59.1579V44.6173ZM56.4656 60.9717C57.0199 60.9717 57.4705 61.4233 57.4705 61.9781C57.4705 62.5305 57.0199 62.9806 56.4656 62.9806C55.9127 62.9806 55.4626 62.531 55.4626 61.9781C55.4626 61.4233 55.9122 60.9717 56.4656 60.9717ZM47.7385 61.8198C47.7385 62.3727 47.2914 62.8228 46.7415 62.8228C46.1862 62.8228 45.7345 62.3727 45.7345 61.8198C45.7345 61.267 46.1862 60.8169 46.7415 60.8169C47.2909 60.8164 47.7385 61.2665 47.7385 61.8198Z" fill="#191C2E"></path> <path d="M36.1507 51.5752H20.3189V28.7539H55.2971V39.4298C55.2971 39.8412 55.6306 40.1742 56.0415 40.1742C56.4524 40.1742 56.7859 39.8412 56.7859 39.4298V19.9027C56.7859 19.4913 56.4524 19.1583 56.0415 19.1583H19.5745C19.1631 19.1583 18.8301 19.4913 18.8301 19.9027V52.3196C18.8301 52.7305 19.1631 53.064 19.5745 53.064H36.1507C36.5621 53.064 36.8951 52.7305 36.8951 52.3196C36.8951 51.9087 36.5621 51.5752 36.1507 51.5752ZM55.2971 20.6472V27.265H20.3189V20.6472H55.2971Z" fill="#191C2E"></path> <path d="M29.5501 24.5419H32.5208C32.9322 24.5419 33.2652 24.2089 33.2652 23.7975C33.2652 23.3861 32.9322 23.0531 32.5208 23.0531H29.5501C29.1387 23.0531 28.8057 23.3861 28.8057 23.7975C28.8057 24.2089 29.1387 24.5419 29.5501 24.5419Z" fill="#191C2E"></path> <path d="M23.4412 24.5419H26.4119C26.8233 24.5419 27.1563 24.2089 27.1563 23.7975C27.1563 23.3861 26.8233 23.0531 26.4119 23.0531H23.4412C23.0298 23.0531 22.6968 23.3861 22.6968 23.7975C22.6968 24.2089 23.0298 24.5419 23.4412 24.5419Z" fill="#191C2E"></path> </svg> 