<?xml version="1.0" encoding="UTF-8"?> <svg xmlns="http://www.w3.org/2000/svg" width="80" height="80" viewBox="0 0 80 80" fill="none"> <circle cx="40" cy="40" r="39" fill="white" stroke="#4430BF" stroke-width="2"></circle> <path d="M55.8021 47.4851C54.1342 47.4863 52.5277 48.1137 51.3006 49.2433C50.0735 50.3729 49.3153 51.9221 49.1763 53.5841H29.2492C28.9638 53.5832 28.685 53.4985 28.4473 53.3407C28.2095 53.1828 28.0233 52.9586 27.9118 52.696C27.8002 52.4333 27.7682 52.1436 27.8196 51.8629C27.8711 51.5822 28.0038 51.3228 28.2013 51.1168L52.9577 28.9829C53.3993 28.5494 53.7017 27.9941 53.8265 27.388C53.9513 26.7819 53.8929 26.1524 53.6585 25.5796C53.4242 25.0069 53.0246 24.5169 52.5108 24.172C51.9969 23.8272 51.392 23.6432 50.7732 23.6435H33.0306C32.8917 21.9568 32.1153 20.3864 30.8594 19.252C29.6035 18.1175 27.9625 17.5043 26.2704 17.5372C24.5783 17.5701 22.9623 18.2465 21.7514 19.4288C20.5405 20.6112 19.8256 22.2105 19.7523 23.9014C19.6791 25.5922 20.2529 27.2474 21.357 28.5301C22.4611 29.8127 24.0125 30.6264 25.6954 30.8055C27.3783 30.9846 29.0662 30.5157 30.4156 29.4941C31.7649 28.4726 32.6743 26.9753 32.9585 25.3069H50.7732C51.0586 25.3078 51.3374 25.3925 51.5751 25.5503C51.8129 25.7082 51.9991 25.9324 52.1106 26.195C52.2222 26.4577 52.2542 26.7474 52.2028 27.0281C52.1513 27.3088 52.0186 27.5682 51.8211 27.7742L27.0647 49.9081C26.6231 50.3416 26.3207 50.8969 26.1958 51.503C26.071 52.1091 26.1295 52.7386 26.3639 53.3114C26.5982 53.8841 26.9978 54.3741 27.5116 54.7189C28.0255 55.0638 28.6304 55.2477 29.2492 55.2475H49.2484C49.4599 56.4985 50.0247 57.6631 50.8762 58.6037C51.7277 59.5444 52.8304 60.2219 54.0543 60.5565C55.2782 60.8911 56.5722 60.8688 57.7839 60.4921C58.9955 60.1155 60.0741 59.4003 60.8927 58.4308C61.7112 57.4613 62.2354 56.278 62.4036 55.0204C62.5718 53.7627 62.3768 52.4833 61.8418 51.3328C61.3067 50.1823 60.4538 49.2088 59.3837 48.5271C58.3136 47.8454 57.0709 47.4838 55.8021 47.4851V47.4851ZM26.4159 29.1881C25.429 29.1881 24.4642 28.8954 23.6436 28.3471C22.823 27.7988 22.1834 27.0194 21.8057 26.1076C21.428 25.1958 21.3292 24.1924 21.5217 23.2245C21.7143 22.2565 22.1895 21.3673 22.8874 20.6694C23.5853 19.9716 24.4744 19.4963 25.4424 19.3038C26.4104 19.1112 27.4138 19.21 28.3256 19.5877C29.2374 19.9654 30.0167 20.605 30.5651 21.4256C31.1134 22.2462 31.406 23.211 31.406 24.198C31.406 25.5214 30.8803 26.7907 29.9445 27.7265C29.0087 28.6623 27.7394 29.1881 26.4159 29.1881V29.1881ZM55.8021 59.1287C54.8151 59.1287 53.8504 58.836 53.0297 58.2877C52.2091 57.7394 51.5695 56.96 51.1918 56.0482C50.8141 55.1364 50.7153 54.133 50.9079 53.165C51.1004 52.1971 51.5757 51.3079 52.2736 50.61C52.9714 49.9122 53.8606 49.4369 54.8286 49.2444C55.7965 49.0518 56.7999 49.1506 57.7117 49.5283C58.6235 49.906 59.4029 50.5456 59.9512 51.3662C60.4995 52.1868 60.7922 53.1516 60.7922 54.1386C60.7922 55.462 60.2664 56.7313 59.3306 57.6671C58.3948 58.6029 57.1255 59.1287 55.8021 59.1287V59.1287Z" fill="#191C2E"></path> <path d="M58.5134 51.7545C58.3574 51.5987 58.1461 51.5112 57.9257 51.5112C57.7053 51.5112 57.4939 51.5987 57.3379 51.7545L55.9074 53.185L54.4714 51.7545C54.3137 51.6075 54.1052 51.5276 53.8898 51.5314C53.6743 51.5352 53.4687 51.6225 53.3163 51.7748C53.164 51.9272 53.0767 52.1328 53.0729 52.3483C53.0691 52.5637 53.1491 52.7722 53.296 52.9299L54.7265 54.3604L53.296 55.802C53.2142 55.8781 53.1487 55.9699 53.1032 56.072C53.0578 56.174 53.0333 56.2841 53.0314 56.3958C53.0294 56.5074 53.05 56.6184 53.0918 56.7219C53.1336 56.8255 53.1959 56.9196 53.2748 56.9985C53.3538 57.0775 53.4479 57.1398 53.5515 57.1816C53.655 57.2234 53.7659 57.244 53.8776 57.242C53.9893 57.24 54.0994 57.2156 54.2014 57.1701C54.3034 57.1247 54.3953 57.0591 54.4714 56.9774L55.9019 55.5469L57.3324 56.9774C57.4883 57.134 57.7 57.2223 57.9209 57.2228C58.1419 57.2233 58.354 57.1361 58.5106 56.9802C58.6672 56.8243 58.7555 56.6126 58.756 56.3917C58.7565 56.1707 58.6693 55.9586 58.5134 55.802L57.0829 54.3715L58.5134 52.941C58.5922 52.8636 58.6548 52.7713 58.6975 52.6694C58.7402 52.5675 58.7622 52.4582 58.7622 52.3477C58.7622 52.2373 58.7402 52.1279 58.6975 52.0261C58.6548 51.9242 58.5922 51.8319 58.5134 51.7545V51.7545Z" fill="#191C2E"></path> <path d="M26.4157 26.1386C27.4875 26.1386 28.3563 25.2698 28.3563 24.198C28.3563 23.1263 27.4875 22.2574 26.4157 22.2574C25.3439 22.2574 24.4751 23.1263 24.4751 24.198C24.4751 25.2698 25.3439 26.1386 26.4157 26.1386Z" fill="#191C2E"></path> </svg> 