<?xml version="1.0" encoding="UTF-8"?> <svg xmlns="http://www.w3.org/2000/svg" width="520" height="382" viewBox="0 0 520 382" fill="none"> <g opacity="0.1" clip-path="url(#clip0)"> <mask id="path-1-inside-1" fill="white"> <path fill-rule="evenodd" clip-rule="evenodd" d="M105.21 0.869442C114.909 2.30629 122.811 9.84971 124.607 19.5484C124.966 21.3445 124.966 23.1405 124.966 24.9366C124.248 32.48 126.763 40.3826 132.151 45.7708C137.898 51.8774 145.442 59.78 151.907 66.605C158.373 73.43 167.713 76.6629 176.693 74.5076C180.644 73.43 185.314 73.43 189.624 74.1484C203.634 76.3037 214.41 87.7984 216.565 101.448C217.284 106.118 216.924 110.429 215.847 114.739C213.332 124.079 215.488 134.137 221.953 140.962L230.934 150.66C233.807 153.534 238.477 154.612 242.069 152.816C247.817 149.942 253.923 148.505 260.748 148.505C267.573 148.505 273.68 149.942 279.427 152.816C283.019 154.612 287.689 153.893 290.563 150.66L299.543 140.962C306.009 133.777 308.164 124.079 305.65 114.739C304.572 110.429 304.213 106.118 304.931 101.448C306.727 87.4392 317.863 76.3037 331.872 74.1484C336.542 73.43 340.852 73.7892 344.803 74.5076C353.784 76.6629 363.482 73.43 369.589 66.605L384.317 50.7997C391.86 42.5379 394.734 34.6353 393.297 26.7326C392.938 24.2181 392.938 21.7037 393.297 18.83C395.093 9.4905 402.996 1.94707 412.335 0.510231C427.063 -1.64503 439.994 10.9273 437.839 26.0142C436.402 35.7129 428.5 43.9747 418.801 45.0524C418.082 45.0524 417.364 45.0524 416.646 45.4116C409.461 45.7708 402.636 48.6445 397.607 53.6734L374.977 77.7405C369.23 83.8471 367.075 92.109 368.511 100.371C369.23 103.604 369.23 107.196 368.511 110.788C366.356 124.438 355.58 135.573 342.289 137.729C339.056 138.447 335.823 138.447 332.95 138.088C324.688 137.01 316.067 140.243 310.319 146.35L300.261 157.126C295.951 161.796 295.232 166.466 297.388 170.058C300.98 176.164 302.776 183.349 302.776 190.892C302.776 198.435 300.98 205.62 297.388 211.726C295.232 215.318 295.951 219.988 298.825 222.862L310.319 235.075C316.067 241.181 324.328 244.055 332.95 243.337C335.823 242.977 339.056 242.977 342.289 243.696C355.939 245.851 366.715 256.987 368.511 270.637C368.871 274.229 368.871 277.821 368.511 281.054C367.075 289.316 369.23 297.578 374.977 303.684C381.802 311.228 390.782 320.567 397.607 327.751C402.636 333.139 409.461 335.654 416.646 336.013C417.364 336.013 418.082 336.013 419.16 336.372C428.859 337.809 436.761 346.071 438.198 355.77C439.994 370.497 427.422 383.07 412.694 380.914C403.355 379.478 395.452 372.293 393.656 362.954C393.297 360.08 393.297 357.566 393.656 355.051C395.093 347.149 392.219 338.887 386.472 333.139L369.589 315.179C363.123 308.354 353.784 305.121 344.803 307.276C340.852 308.354 336.182 308.354 331.872 307.635C317.863 305.48 307.086 293.985 304.931 280.335C304.213 275.666 304.572 271.355 305.65 267.045C308.164 257.705 306.009 247.647 299.543 240.822L290.563 231.124C287.689 228.25 283.019 227.172 279.427 228.968C273.68 231.842 267.573 233.279 260.748 233.279C254.282 233.279 247.817 231.842 242.069 228.968C238.477 227.172 233.807 227.891 230.934 231.124L221.953 240.822C215.488 248.006 213.332 257.705 215.847 267.045C216.924 271.355 217.284 275.666 216.565 280.335C214.769 294.345 203.634 305.48 189.624 307.635C184.955 308.354 180.644 307.995 176.693 307.276C167.713 305.121 158.014 308.354 151.907 315.179L132.151 336.013C126.763 341.76 124.248 349.304 124.966 356.847C124.966 358.643 124.966 360.439 124.607 362.235C123.17 371.934 115.268 379.837 105.21 380.914C90.4823 382.71 77.9099 370.138 79.7059 355.41C80.7836 346.789 89.4046 337.809 98.0257 336.372C99.4625 336.013 100.899 336.013 102.336 336.013C110.239 336.013 117.782 333.499 123.17 327.751L145.801 303.684C151.548 297.578 153.703 289.316 152.267 281.054C151.548 277.821 151.548 274.229 152.267 270.637C154.422 256.987 165.198 245.851 178.489 243.696C181.722 242.977 184.955 242.977 187.828 243.337C196.09 244.414 204.711 241.181 210.459 235.075L220.517 224.299C224.827 219.629 225.546 214.959 223.39 211.367C219.798 205.26 218.002 198.076 218.002 190.533C218.002 182.989 219.798 175.805 223.39 169.698C225.546 166.106 224.827 161.437 221.953 158.563L210.459 146.35C204.711 140.243 196.449 137.37 187.828 138.088C184.955 138.447 181.722 138.447 178.489 137.729C164.839 135.573 154.063 124.438 152.267 110.788C151.907 107.196 151.907 103.604 152.267 100.371C153.703 92.109 151.548 83.8471 145.801 77.7405C138.976 70.5563 129.995 60.8576 123.17 53.6734C117.782 47.9261 110.239 45.4116 102.336 45.4116C100.899 45.4116 99.4625 45.4116 98.0257 45.0524C89.4046 43.6155 81.1428 34.6353 79.7059 26.0142C77.5507 11.2866 90.123 -1.28582 105.21 0.869442ZM45.9401 107.196C46.2993 102.885 45.2217 97.8563 42.348 93.5458C39.1151 88.5169 33.7269 84.9248 27.9796 83.8471C13.6111 80.9734 1.03877 92.109 1.03877 106.118C1.03877 106.837 1.03877 107.914 1.03877 108.633C2.47561 119.768 11.8151 128.748 23.3098 128.748H23.669C31.9309 128.748 39.8335 131.981 45.2217 138.088L68.5704 162.873C74.3178 168.98 76.473 177.601 74.677 185.863C74.3178 187.659 74.3178 189.096 74.3178 190.892C74.3178 192.688 74.3178 194.484 74.677 195.921C76.1138 204.183 74.3178 212.804 68.5704 218.91L44.1441 244.774C38.7559 250.521 31.2125 253.035 23.3098 253.035C21.873 253.035 20.4362 253.035 18.9993 253.395C10.3782 254.831 2.1164 263.812 0.679558 272.433C-1.47571 287.16 11.0967 299.733 26.1835 297.937C35.8822 296.5 43.7849 288.956 45.5809 279.258C45.9401 277.462 45.9401 275.666 45.9401 273.87C45.2217 266.326 47.7362 258.783 53.1243 253.035C60.3085 245.492 70.0072 235.075 77.1915 227.531C82.9388 221.425 91.5599 218.91 99.8217 219.988C102.336 220.347 104.851 220.347 107.365 219.988C119.938 218.192 130.355 207.775 131.792 194.843C133.947 177.601 120.297 162.873 103.414 162.873C101.977 162.873 100.899 162.873 99.4625 163.233C91.2007 164.31 82.5796 161.077 76.8322 154.971L56.3572 133.059C48.4546 124.438 45.5809 116.895 45.9401 108.633V107.196ZM419.879 219.27C418.801 219.27 418.082 219.27 417.005 219.27C401.2 219.27 388.268 206.338 388.268 190.533C388.268 174.727 401.2 161.796 417.005 161.796H417.364C418.082 161.796 419.16 161.796 419.879 161.796C428.859 162.873 437.839 159.641 443.946 152.816L466.935 128.389C472.323 122.642 474.838 115.098 474.119 107.555C474.119 105.759 474.119 103.963 474.479 102.167C475.915 92.4682 483.818 84.5655 493.876 83.4879C508.963 81.6919 521.176 94.2642 519.38 108.992C518.302 117.613 509.681 126.234 501.419 128.03C499.983 128.389 498.546 128.389 497.109 128.389C489.206 128.389 481.663 130.904 476.275 136.651C469.09 144.195 459.392 154.612 451.848 162.514C446.101 168.621 443.946 177.242 445.742 185.504C446.101 187.3 446.101 188.737 446.101 190.533C446.101 192.329 446.101 194.125 445.742 195.562C444.305 203.824 446.101 212.445 451.848 218.551L476.275 244.414C481.663 250.162 489.206 252.676 497.109 252.676C498.546 252.676 499.983 252.676 501.419 253.035C510.04 254.472 518.302 263.453 519.739 272.074C521.894 286.801 509.322 299.374 494.235 297.578C484.536 296.141 476.634 288.597 474.838 278.899C474.479 277.103 474.479 275.306 474.479 273.51C475.197 265.967 472.683 258.424 467.294 252.676C460.469 245.133 451.13 235.434 444.305 228.25C438.198 221.425 429.218 218.192 419.879 219.27Z"></path> </mask> <path fill-rule="evenodd" clip-rule="evenodd" d="M105.21 0.869442C114.909 2.30629 122.811 9.84971 124.607 19.5484C124.966 21.3445 124.966 23.1405 124.966 24.9366C124.248 32.48 126.763 40.3826 132.151 45.7708C137.898 51.8774 145.442 59.78 151.907 66.605C158.373 73.43 167.713 76.6629 176.693 74.5076C180.644 73.43 185.314 73.43 189.624 74.1484C203.634 76.3037 214.41 87.7984 216.565 101.448C217.284 106.118 216.924 110.429 215.847 114.739C213.332 124.079 215.488 134.137 221.953 140.962L230.934 150.66C233.807 153.534 238.477 154.612 242.069 152.816C247.817 149.942 253.923 148.505 260.748 148.505C267.573 148.505 273.68 149.942 279.427 152.816C283.019 154.612 287.689 153.893 290.563 150.66L299.543 140.962C306.009 133.777 308.164 124.079 305.65 114.739C304.572 110.429 304.213 106.118 304.931 101.448C306.727 87.4392 317.863 76.3037 331.872 74.1484C336.542 73.43 340.852 73.7892 344.803 74.5076C353.784 76.6629 363.482 73.43 369.589 66.605L384.317 50.7997C391.86 42.5379 394.734 34.6353 393.297 26.7326C392.938 24.2181 392.938 21.7037 393.297 18.83C395.093 9.4905 402.996 1.94707 412.335 0.510231C427.063 -1.64503 439.994 10.9273 437.839 26.0142C436.402 35.7129 428.5 43.9747 418.801 45.0524C418.082 45.0524 417.364 45.0524 416.646 45.4116C409.461 45.7708 402.636 48.6445 397.607 53.6734L374.977 77.7405C369.23 83.8471 367.075 92.109 368.511 100.371C369.23 103.604 369.23 107.196 368.511 110.788C366.356 124.438 355.58 135.573 342.289 137.729C339.056 138.447 335.823 138.447 332.95 138.088C324.688 137.01 316.067 140.243 310.319 146.35L300.261 157.126C295.951 161.796 295.232 166.466 297.388 170.058C300.98 176.164 302.776 183.349 302.776 190.892C302.776 198.435 300.98 205.62 297.388 211.726C295.232 215.318 295.951 219.988 298.825 222.862L310.319 235.075C316.067 241.181 324.328 244.055 332.95 243.337C335.823 242.977 339.056 242.977 342.289 243.696C355.939 245.851 366.715 256.987 368.511 270.637C368.871 274.229 368.871 277.821 368.511 281.054C367.075 289.316 369.23 297.578 374.977 303.684C381.802 311.228 390.782 320.567 397.607 327.751C402.636 333.139 409.461 335.654 416.646 336.013C417.364 336.013 418.082 336.013 419.16 336.372C428.859 337.809 436.761 346.071 438.198 355.77C439.994 370.497 427.422 383.07 412.694 380.914C403.355 379.478 395.452 372.293 393.656 362.954C393.297 360.08 393.297 357.566 393.656 355.051C395.093 347.149 392.219 338.887 386.472 333.139L369.589 315.179C363.123 308.354 353.784 305.121 344.803 307.276C340.852 308.354 336.182 308.354 331.872 307.635C317.863 305.48 307.086 293.985 304.931 280.335C304.213 275.666 304.572 271.355 305.65 267.045C308.164 257.705 306.009 247.647 299.543 240.822L290.563 231.124C287.689 228.25 283.019 227.172 279.427 228.968C273.68 231.842 267.573 233.279 260.748 233.279C254.282 233.279 247.817 231.842 242.069 228.968C238.477 227.172 233.807 227.891 230.934 231.124L221.953 240.822C215.488 248.006 213.332 257.705 215.847 267.045C216.924 271.355 217.284 275.666 216.565 280.335C214.769 294.345 203.634 305.48 189.624 307.635C184.955 308.354 180.644 307.995 176.693 307.276C167.713 305.121 158.014 308.354 151.907 315.179L132.151 336.013C126.763 341.76 124.248 349.304 124.966 356.847C124.966 358.643 124.966 360.439 124.607 362.235C123.17 371.934 115.268 379.837 105.21 380.914C90.4823 382.71 77.9099 370.138 79.7059 355.41C80.7836 346.789 89.4046 337.809 98.0257 336.372C99.4625 336.013 100.899 336.013 102.336 336.013C110.239 336.013 117.782 333.499 123.17 327.751L145.801 303.684C151.548 297.578 153.703 289.316 152.267 281.054C151.548 277.821 151.548 274.229 152.267 270.637C154.422 256.987 165.198 245.851 178.489 243.696C181.722 242.977 184.955 242.977 187.828 243.337C196.09 244.414 204.711 241.181 210.459 235.075L220.517 224.299C224.827 219.629 225.546 214.959 223.39 211.367C219.798 205.26 218.002 198.076 218.002 190.533C218.002 182.989 219.798 175.805 223.39 169.698C225.546 166.106 224.827 161.437 221.953 158.563L210.459 146.35C204.711 140.243 196.449 137.37 187.828 138.088C184.955 138.447 181.722 138.447 178.489 137.729C164.839 135.573 154.063 124.438 152.267 110.788C151.907 107.196 151.907 103.604 152.267 100.371C153.703 92.109 151.548 83.8471 145.801 77.7405C138.976 70.5563 129.995 60.8576 123.17 53.6734C117.782 47.9261 110.239 45.4116 102.336 45.4116C100.899 45.4116 99.4625 45.4116 98.0257 45.0524C89.4046 43.6155 81.1428 34.6353 79.7059 26.0142C77.5507 11.2866 90.123 -1.28582 105.21 0.869442ZM45.9401 107.196C46.2993 102.885 45.2217 97.8563 42.348 93.5458C39.1151 88.5169 33.7269 84.9248 27.9796 83.8471C13.6111 80.9734 1.03877 92.109 1.03877 106.118C1.03877 106.837 1.03877 107.914 1.03877 108.633C2.47561 119.768 11.8151 128.748 23.3098 128.748H23.669C31.9309 128.748 39.8335 131.981 45.2217 138.088L68.5704 162.873C74.3178 168.98 76.473 177.601 74.677 185.863C74.3178 187.659 74.3178 189.096 74.3178 190.892C74.3178 192.688 74.3178 194.484 74.677 195.921C76.1138 204.183 74.3178 212.804 68.5704 218.91L44.1441 244.774C38.7559 250.521 31.2125 253.035 23.3098 253.035C21.873 253.035 20.4362 253.035 18.9993 253.395C10.3782 254.831 2.1164 263.812 0.679558 272.433C-1.47571 287.16 11.0967 299.733 26.1835 297.937C35.8822 296.5 43.7849 288.956 45.5809 279.258C45.9401 277.462 45.9401 275.666 45.9401 273.87C45.2217 266.326 47.7362 258.783 53.1243 253.035C60.3085 245.492 70.0072 235.075 77.1915 227.531C82.9388 221.425 91.5599 218.91 99.8217 219.988C102.336 220.347 104.851 220.347 107.365 219.988C119.938 218.192 130.355 207.775 131.792 194.843C133.947 177.601 120.297 162.873 103.414 162.873C101.977 162.873 100.899 162.873 99.4625 163.233C91.2007 164.31 82.5796 161.077 76.8322 154.971L56.3572 133.059C48.4546 124.438 45.5809 116.895 45.9401 108.633V107.196ZM419.879 219.27C418.801 219.27 418.082 219.27 417.005 219.27C401.2 219.27 388.268 206.338 388.268 190.533C388.268 174.727 401.2 161.796 417.005 161.796H417.364C418.082 161.796 419.16 161.796 419.879 161.796C428.859 162.873 437.839 159.641 443.946 152.816L466.935 128.389C472.323 122.642 474.838 115.098 474.119 107.555C474.119 105.759 474.119 103.963 474.479 102.167C475.915 92.4682 483.818 84.5655 493.876 83.4879C508.963 81.6919 521.176 94.2642 519.38 108.992C518.302 117.613 509.681 126.234 501.419 128.03C499.983 128.389 498.546 128.389 497.109 128.389C489.206 128.389 481.663 130.904 476.275 136.651C469.09 144.195 459.392 154.612 451.848 162.514C446.101 168.621 443.946 177.242 445.742 185.504C446.101 187.3 446.101 188.737 446.101 190.533C446.101 192.329 446.101 194.125 445.742 195.562C444.305 203.824 446.101 212.445 451.848 218.551L476.275 244.414C481.663 250.162 489.206 252.676 497.109 252.676C498.546 252.676 499.983 252.676 501.419 253.035C510.04 254.472 518.302 263.453 519.739 272.074C521.894 286.801 509.322 299.374 494.235 297.578C484.536 296.141 476.634 288.597 474.838 278.899C474.479 277.103 474.479 275.306 474.479 273.51C475.197 265.967 472.683 258.424 467.294 252.676C460.469 245.133 451.13 235.434 444.305 228.25C438.198 221.425 429.218 218.192 419.879 219.27Z" stroke="#170237" stroke-width="2" mask="url(#path-1-inside-1)"></path> </g> <defs> <clipPath id="clip0"> <rect width="520" height="381.425" fill="white"></rect> </clipPath> </defs> </svg> 