<?xml version="1.0" encoding="UTF-8"?> <svg xmlns="http://www.w3.org/2000/svg" width="158" height="55" viewBox="0 0 158 55" fill="none"> <path d="M74.9378 36.975C74.9378 36.9501 74.9128 36.9251 74.9128 36.9251C74.9128 30.6878 74.7633 24.4255 74.9876 18.2131C75.1371 13.6723 79.0996 8.75723 85.3049 9.63046C88.2705 10.0546 90.7128 11.327 92.233 14.0216C94.9992 18.9615 93.1052 26.6709 86.3516 28.2677C84.0589 28.8166 81.8658 28.3924 79.8223 27.2198C79.0747 26.7707 78.4516 26.1719 77.8785 25.2488C77.8785 29.2657 77.8785 33.1328 77.8785 37C76.9065 36.975 75.9097 36.975 74.9378 36.975ZM83.8844 12.7741C82.8876 12.7242 81.8907 12.9238 80.9687 13.4228C78.2273 14.9197 77.6791 18.6622 78.2523 21.0074C78.9999 24.0013 81.9655 25.8476 85.0806 25.4234C87.5977 25.0742 89.3421 23.8017 90.0399 21.2319C90.2891 20.3088 90.3639 19.3358 90.3141 18.3877C90.1645 15.7181 88.744 13.822 86.3516 13.0984C85.5791 12.8489 84.7567 12.7491 83.8844 12.7741Z" fill="#E33528"></path> <path d="M0 27.5941C0.523344 26.7708 0.747634 25.8227 1.09653 24.9245C3.81293 17.8638 6.50442 10.7782 9.1959 3.71752C9.37035 3.26843 9.56972 3.11873 10.0432 3.14368C10.8407 3.19358 11.6382 3.16863 12.4356 3.14368C12.7098 3.14368 12.8842 3.21853 12.9839 3.51792C16.0243 11.5516 19.0647 19.5854 22.105 27.6191C22.13 27.669 22.13 27.7438 22.13 27.8436C21.2328 27.8436 20.3606 27.8436 19.4883 27.8436C19.1644 27.8436 19.1394 27.6191 19.0647 27.3945C18.4666 25.7479 17.8435 24.1262 17.2703 22.4795C17.1208 22.0553 16.8965 21.9306 16.4729 21.9306C12.9341 21.9555 9.42019 21.9555 5.88139 21.9306C5.43281 21.9306 5.23344 22.0803 5.08391 22.5044C4.53565 24.1012 3.91262 25.673 3.36435 27.2448C3.18991 27.7438 2.96562 27.8686 2.46719 27.8436C1.64479 27.7937 0.822397 27.8436 0 27.8436C0 27.7438 0 27.669 0 27.5941ZM11.0401 6.7364C10.9653 6.86115 10.9155 6.93599 10.8656 7.01084C9.49495 10.8281 8.12429 14.6454 6.72871 18.4377C6.55426 18.8868 6.72871 18.9117 7.10252 18.9117C9.81893 18.9117 12.5104 18.8868 15.2268 18.9117C15.7003 18.9117 15.7751 18.8119 15.6006 18.3628C14.7782 16.3419 14.0057 14.2961 13.2082 12.2752C12.5104 10.4539 11.7877 8.60761 11.0401 6.7364Z" fill="#F6971F"></path> <path d="M33.3944 0C33.6935 2.61969 35.1887 4.04181 37.7556 4.41605C37.5313 4.74039 37.2572 4.66554 37.0329 4.71544C35.1638 5.11463 33.8181 6.48685 33.4692 8.38301C33.4442 8.50776 33.4193 8.6325 33.3944 8.75725C33.3695 8.882 33.3196 9.00674 33.1701 8.9818C33.0206 8.9818 32.9458 8.882 32.9209 8.75725C32.8711 8.50776 32.8711 8.25826 32.7963 8.00877C32.273 6.23736 31.1515 5.11463 29.3572 4.71544C29.1329 4.66554 28.7092 4.79029 28.7092 4.46595C28.7092 4.21645 29.108 4.2913 29.3323 4.26635C31.1764 3.94201 32.7714 2.19555 32.8711 0.299393C32.8711 0.199596 32.8461 0.0997977 32.8461 0C33.0704 0 33.2449 0 33.3944 0Z" fill="#F6971F"></path> <path d="M157.751 10.0297C157.377 10.0048 157.178 9.83013 157.252 9.40599C157.302 9.13154 157.252 8.83215 157.252 8.43296C156.879 8.907 156.854 9.48083 156.555 9.95487C156.156 9.53073 156.181 8.93195 155.807 8.40801C155.807 8.88205 155.807 9.28124 155.807 9.65548C155.807 9.78023 155.832 9.92992 155.657 9.92992C155.433 9.95487 155.458 9.78023 155.458 9.63053C155.458 9.08165 155.458 8.55771 155.458 8.00882C155.458 7.85912 155.433 7.65953 155.682 7.65953C155.857 7.65953 156.056 7.63458 156.131 7.85912C156.281 8.25831 156.43 8.68245 156.604 9.10659C156.829 8.83215 156.928 8.50781 157.003 8.18347C157.128 7.75933 157.352 7.55973 157.801 7.63458C157.751 8.45791 157.751 9.23134 157.751 10.0297Z" fill="#E33528"></path> <path d="M39.3504 15.4188C39.3504 11.5267 39.3504 7.65951 39.3504 3.7674C39.3504 3.24346 39.4999 3.11871 39.9983 3.11871C44.3595 3.14366 48.7456 3.14366 53.1068 3.11871C53.6302 3.11871 53.7797 3.26841 53.7299 3.79235C53.68 4.36618 53.68 4.96497 53.7299 5.53881C53.8046 6.16254 53.5305 6.23739 53.0072 6.23739C49.6926 6.21244 46.4031 6.23739 43.0886 6.21244C42.4655 6.21244 42.316 6.38709 42.316 7.01082C42.3658 9.08163 42.3409 11.1524 42.316 13.2232C42.316 13.6973 42.4157 13.847 42.9141 13.847C45.9296 13.822 48.945 13.847 51.9605 13.822C52.4091 13.822 52.5835 13.9218 52.5337 14.3959C52.4838 15.0445 52.4838 15.6932 52.5337 16.3419C52.5586 16.8658 52.3592 16.9656 51.9106 16.9407C48.945 16.9157 45.9545 16.9407 42.9889 16.9157C42.4655 16.9157 42.2911 17.0155 42.316 17.5894C42.3409 19.735 42.3409 21.8807 42.316 24.0513C42.316 24.5503 42.4655 24.675 42.939 24.675C46.5775 24.6501 50.216 24.675 53.8296 24.6501C54.328 24.6501 54.5274 24.7499 54.4775 25.2988C54.4277 25.9225 54.4277 26.5462 54.4775 27.17C54.5024 27.644 54.3778 27.7687 53.9043 27.7687C51.4371 27.7438 48.9699 27.7687 46.5027 27.7687C44.3097 27.7687 42.1166 27.7438 39.9236 27.7687C39.4501 27.7687 39.3005 27.644 39.3005 27.145C39.3504 23.228 39.3504 19.3109 39.3504 15.4188Z" fill="#E33528"></path> <path d="M116.058 20.5833C113.914 20.5833 111.796 20.5833 109.653 20.5833C109.204 20.5833 109.105 20.708 109.154 21.1571C109.429 23.3527 111.422 25.2488 113.815 25.5981C116.008 25.9225 117.977 25.3985 119.596 23.8267C119.846 23.6022 119.97 23.6022 120.17 23.8517C120.618 24.3756 121.092 24.8496 121.565 25.3486C121.765 25.5482 121.79 25.6979 121.54 25.8975C118.699 28.4174 115.46 29.2657 111.871 28.0681C108.382 26.8955 106.463 24.2758 105.94 20.6332C105.441 17.3399 106.239 14.3709 108.581 11.9508C111.771 8.68241 116.88 9.15645 119.472 10.9029C121.59 12.325 122.462 14.4707 122.836 16.9157C123.011 17.9885 122.961 19.0863 122.986 20.1591C122.986 20.5583 122.861 20.6332 122.487 20.6332C120.369 20.5833 118.226 20.5833 116.058 20.5833ZM114.488 17.789C116.108 17.789 117.727 17.764 119.347 17.8139C119.896 17.8388 119.945 17.6393 119.896 17.1652C119.497 14.321 117.354 12.5496 114.313 12.5496C111.821 12.5496 109.578 14.5705 109.204 17.1652C109.13 17.6393 109.179 17.8139 109.728 17.8139C111.298 17.764 112.893 17.789 114.488 17.789Z" fill="#E33528"></path> <path d="M73.0688 27.8185C71.9224 27.8185 70.9505 27.7936 69.9536 27.8185C69.6047 27.8185 69.4552 27.6189 69.2808 27.3944C67.8852 25.5481 66.4896 23.6769 65.094 21.8307C64.9694 21.656 64.8697 21.4315 64.6205 21.3067C63.1003 23.3276 61.5801 25.3485 60.06 27.3695C59.8107 27.7187 59.5366 27.8435 59.1379 27.8185C58.2158 27.7936 57.2937 27.8185 56.3716 27.8185C56.3218 27.569 56.4962 27.4692 56.6208 27.3196C58.5896 24.7248 60.5584 22.1301 62.577 19.5852C62.9508 19.1112 62.876 18.8617 62.5521 18.4376C60.4836 15.8179 58.4152 13.1982 56.3716 10.5535C56.247 10.3789 56.0476 10.2541 55.9978 9.92981C57.194 9.92981 58.3902 9.92981 59.5615 9.92981C59.8606 9.92981 59.9603 10.1793 60.1098 10.3789C61.6051 12.4746 63.1003 14.5704 64.5956 16.6412C64.8448 16.5414 64.9196 16.3169 65.0691 16.1422C66.4647 14.2211 67.8852 12.3 69.2808 10.3539C69.5051 10.0546 69.7044 9.90486 70.1032 9.92981C71.1748 9.95476 72.2215 9.92981 73.4426 9.92981C73.2432 10.2042 73.1186 10.3789 72.994 10.5535C71.0252 13.2231 69.0565 15.8927 67.0379 18.5374C66.7637 18.9116 66.7887 19.1361 67.0379 19.4854C68.882 22.0053 70.7262 24.5502 72.5704 27.0701C72.7199 27.3196 72.8445 27.5191 73.0688 27.8185Z" fill="#E33528"></path> <path d="M131.683 28.4174C129.341 28.4174 127.247 27.6939 125.503 26.0722C125.204 25.7977 124.63 25.673 124.68 25.2488C124.73 24.9494 125.204 24.6999 125.503 24.4255C125.877 24.0762 126.25 23.5273 126.674 23.4525C127.123 23.3776 127.397 24.0762 127.795 24.4006C129.615 25.8975 131.608 25.9973 133.702 25.1989C134.624 24.8496 135.122 24.1012 135.222 23.1032C135.322 22.0803 134.823 21.3817 134.026 20.8577C133.178 20.2839 132.182 20.0594 131.21 19.7849C130.088 19.4855 128.942 19.1861 127.895 18.6871C126.176 17.8389 125.154 16.5165 125.154 14.5206C125.154 12.5246 126.101 11.0776 127.845 10.2542C130.387 9.03171 132.929 9.13151 135.446 10.354C136.343 10.7782 136.917 11.6015 137.639 12.2502C137.864 12.4498 137.739 12.5496 137.565 12.6743C137.041 13.0985 136.493 13.5226 135.97 13.9717C135.695 14.2212 135.546 14.1463 135.322 13.8968C133.876 12.2502 132.007 12.0506 130.013 12.4248C129.64 12.4997 129.266 12.6743 128.942 12.8989C127.795 13.7222 127.795 15.1693 128.967 15.9677C130.013 16.6912 131.259 16.8658 132.431 17.1652C133.502 17.4397 134.574 17.7141 135.571 18.2131C137.265 19.0863 138.113 20.5084 138.237 22.4046C138.362 24.4505 137.739 26.147 135.995 27.2947C134.724 28.1679 133.228 28.3925 131.683 28.4174Z" fill="#E33528"></path> <path d="M153.614 22.4794C153.614 25.6979 151.969 27.644 149.078 28.2178C145.888 28.8416 142.998 28.2178 140.58 25.8975C139.907 25.2488 139.882 25.2738 140.605 24.65C141.054 24.2509 141.452 23.6022 141.951 23.5273C142.474 23.4275 142.823 24.201 143.247 24.6001C144.593 25.8476 147.583 26.0472 149.128 25.2239C150.848 24.3008 150.972 22.1302 149.377 20.9825C148.53 20.3587 147.508 20.1342 146.536 19.8598C145.465 19.5604 144.393 19.3109 143.371 18.8368C141.577 18.0135 140.431 16.6912 140.431 14.6204C140.431 12.5246 141.452 11.0526 143.322 10.2043C145.764 9.10655 148.231 9.20635 150.648 10.354C151.57 10.7782 152.169 11.6015 152.916 12.2751C153.116 12.4498 153.091 12.5496 152.891 12.7242C152.318 13.1733 151.745 13.6224 151.197 14.0964C150.922 14.321 150.823 14.1463 150.648 13.9717C149.203 12.325 147.359 12.1005 145.34 12.4747C144.941 12.5496 144.568 12.7242 144.219 12.9737C143.097 13.797 143.097 15.2192 144.244 16.0175C145.315 16.766 146.561 16.9407 147.782 17.2401C148.705 17.4646 149.602 17.7141 150.474 18.0883C152.617 18.9366 153.564 20.6082 153.614 22.4794Z" fill="#E33528"></path> <path d="M24.1487 15.4687C24.1487 11.5766 24.1487 7.65952 24.1238 3.76741C24.1238 3.24347 24.2733 3.09377 24.7717 3.11872C25.4197 3.16862 26.0925 3.14367 26.7405 3.11872C27.0894 3.09377 27.2389 3.24347 27.1891 3.59276C27.1891 3.69256 27.1891 3.79236 27.1891 3.9171C27.1891 11.6514 27.1891 19.3608 27.214 27.0951C27.214 27.7438 27.0395 27.9185 26.4165 27.8686C25.8184 27.8187 25.2203 27.8187 24.6222 27.8686C24.1238 27.9185 24.1238 27.644 24.1238 27.2698C24.1487 23.3028 24.1487 19.3857 24.1487 15.4687Z" fill="#F6971F"></path> <path d="M98.9617 11.851C100.582 10.2044 102.5 9.68042 104.569 9.63052C104.918 9.63052 105.042 9.68042 105.042 10.0547C105.018 10.853 105.018 11.6514 105.042 12.4249C105.042 12.7243 104.968 12.824 104.669 12.824C101.853 12.849 100.233 14.5456 99.0365 16.8908C98.9368 17.1154 98.9617 17.3399 98.9617 17.5644C98.9617 20.8079 98.9368 24.0263 98.9617 27.2698C98.9617 27.7688 98.8371 27.9185 98.3636 27.8935C97.7406 27.8436 97.0926 27.8686 96.4447 27.8935C96.1207 27.8935 95.9712 27.8436 95.9712 27.4444C95.9712 21.7559 95.9712 16.0924 95.9712 10.404C95.9712 10.0297 96.0958 9.92992 96.4447 9.95487C97.1425 9.97981 97.8403 9.97981 98.5381 9.95487C98.862 9.95487 98.9866 10.0297 98.9617 10.379C98.9368 10.8031 98.9617 11.2522 98.9617 11.851Z" fill="#E33528"></path> <path d="M34.7899 19.0614C34.7899 21.8058 34.7899 24.5253 34.7899 27.2697C34.7899 27.7438 34.6653 27.8935 34.1918 27.8436C33.5688 27.7937 32.9706 27.7937 32.3476 27.8436C31.8492 27.8935 31.7495 27.6939 31.7495 27.2198C31.7744 23.2279 31.7495 19.2111 31.7495 15.2191C31.7495 13.7721 31.7744 12.35 31.7495 10.9029C31.7495 10.4538 31.8741 10.3291 32.2978 10.354C32.9208 10.379 33.5688 10.4039 34.1918 10.354C34.6653 10.3291 34.765 10.5037 34.765 10.9528C34.765 13.6224 34.7899 16.3419 34.7899 19.0614Z" fill="#F6971F"></path> <path d="M153.988 9.0317C153.988 8.882 153.988 8.73231 153.988 8.60756C153.988 8.30817 154.037 8.00877 153.564 8.05867C153.439 8.08362 153.315 8.03372 153.34 7.85908C153.365 7.73433 153.464 7.70938 153.564 7.70938C153.988 7.70938 154.411 7.70938 154.86 7.70938C154.984 7.70938 155.059 7.75928 155.059 7.88403C155.084 8.05867 154.959 8.10857 154.835 8.08362C154.436 8.00877 154.411 8.25827 154.436 8.55766C154.461 8.9319 154.436 9.30614 154.436 9.68038C154.436 9.83008 154.461 9.97978 154.237 10.0047C154.012 10.0297 153.963 9.87998 153.963 9.68038C153.988 9.43089 153.988 9.2313 153.988 9.0317Z" fill="#E33528"></path> <path d="M52.3737 51.2785V55H49.7295V44.0312H54.1064C54.9452 44.0312 55.686 44.1869 56.3288 44.4983C56.9767 44.8047 57.4764 45.2441 57.828 45.8167C58.1846 46.3842 58.3629 47.0296 58.3629 47.7528C58.3629 48.8225 57.9787 49.6789 57.2102 50.3217C56.4468 50.9595 55.3972 51.2785 54.0612 51.2785H52.3737ZM52.3737 49.2369H54.1064C54.6187 49.2369 55.008 49.1088 55.2741 48.8527C55.5453 48.5965 55.6809 48.2349 55.6809 47.7679C55.6809 47.2556 55.5428 46.8463 55.2666 46.5399C54.9904 46.2335 54.6137 46.0778 54.1366 46.0728H52.3737V49.2369Z" fill="black"></path> <path d="M63.6577 52.966H68.2607V55H61.0134V44.0312H63.6577V52.966Z" fill="black"></path> <path d="M76.9908 52.9509H73.3671L72.7343 55H69.9093L73.9322 44.0312H76.4182L80.4712 55H77.6311L76.9908 52.9509ZM74 50.9093H76.3579L75.1752 47.1049L74 50.9093Z" fill="black"></path> <path d="M85.4798 52.966H90.7231V55H82.1801V53.6063L87.4084 46.0728H82.15V44.0312H90.6703V45.3873L85.4798 52.966Z" fill="black"></path> <path d="M99.4984 52.9509H95.8748L95.242 55H92.4169L96.4398 44.0312H98.9258L102.979 55H100.139L99.4984 52.9509ZM96.5076 50.9093H98.8656L97.6828 47.1049L96.5076 50.9093Z" fill="black"></path> </svg> 