<?xml version="1.0" encoding="UTF-8"?> <svg xmlns="http://www.w3.org/2000/svg" width="200" height="44" viewBox="0 0 200 44" fill="none"> <path d="M4.92147 34.1523C4.92147 35.8285 3.03665 35.8285 3.03665 35.8285H1.98953C1.15183 35.8285 0.104712 35.5143 0.104712 34.3619C0.104712 33.9428 0.314136 33.7333 0.628272 33.7333H1.04712V34.1523C1.04712 34.4666 1.25654 35.0952 1.98953 35.0952H3.03665C3.97906 35.0952 3.97906 34.1523 3.97906 34.1523V32.7904H1.46597V31.8476H3.87435V30.4857C3.87435 30.4857 3.87435 29.5428 2.93194 29.5428H1.88482C1.36126 29.5428 0.942409 29.8571 0.942409 30.3809V30.9047H0.52356C0.104712 30.9047 0 30.5904 0 30.3809C0 29.019 1.15183 28.8095 1.88482 28.8095H2.82723C2.82723 28.8095 4.71204 28.8095 4.71204 30.4857V34.0476H4.92147V34.1523ZM11.7277 29.3333V35.4095C11.7277 35.4095 11.7277 35.8285 11.3089 35.8285H10.8901V29.7523H10.2618C9.84293 29.7523 9.73822 29.9619 9.63351 30.2762L8.48168 33.8381C8.48168 33.9428 8.37696 34.1523 8.37696 34.4666V35.8285H7.8534C7.64398 35.8285 7.43456 35.7238 7.43456 35.4095V34.1523L8.79581 29.8571C9.00524 29.2285 9.31937 28.8095 10.2618 28.8095H11.4136C11.5183 29.019 11.7277 29.1238 11.7277 29.3333ZM15.6021 35.0952H18.8482V35.4095C18.8482 35.4095 18.8482 35.8285 18.4293 35.8285H15.1832C15.1832 35.8285 14.7644 35.8285 14.7644 35.4095V29.6476C14.7644 29.1238 14.9738 29.019 15.6021 29.019H18.534C18.9529 29.019 18.9529 29.4381 18.9529 29.4381V29.8571H15.7068V31.9523H18.534V32.7904H15.7068C15.6021 32.7904 15.6021 35.0952 15.6021 35.0952V35.0952ZM22.3037 35.8285H21.8848C21.8848 35.8285 21.466 35.8285 21.466 35.4095V29.5428C21.466 29.2285 21.5707 29.019 21.9895 29.019H22.3037V32.0571H23.2461C23.5602 31.5333 24.5026 30.0666 24.5026 30.0666V29.6476C24.5026 29.1238 24.8168 29.1238 25.0262 29.1238H25.445V30.0666C25.445 30.3809 25.3403 30.5904 25.2356 30.6952L24.0838 32.2666L24.5026 32.5809C24.9215 32.7904 25.5497 33.419 25.5497 34.1523V35.8285H25.1309C25.1309 35.8285 24.712 35.8285 24.712 35.4095V34.3619C24.712 33.9428 24.6073 33.419 23.8743 33.1047L23.3508 32.7904H22.3037V35.8285V35.8285ZM32.356 29.7523H30.2618V35.8285H29.3194V29.7523H27.1204V29.3333C27.1204 29.3333 27.1204 28.9142 27.5393 28.9142H31.9372C32.356 28.9142 32.356 29.3333 32.356 29.3333V29.7523ZM36.3351 32.3714C37.1728 32.3714 37.4869 31.9523 37.4869 31.3238V30.6952C37.4869 29.8571 37.0681 29.6476 36.4398 29.6476H35.1832V32.2666H36.3351V32.3714ZM35.1832 35.8285H34.7644C34.3456 35.8285 34.3456 35.4095 34.3456 35.4095V29.6476C34.3456 29.019 34.7644 28.8095 35.1832 28.8095H36.6492C38.1152 28.8095 38.4293 29.6476 38.4293 30.3809V31.3238C38.4293 32.6857 37.3822 33.1047 36.4398 33.1047H35.288V35.8285H35.1832ZM44.0838 30.5904C44.0838 30.5904 44.0838 29.6476 43.1414 29.6476H42.3037C41.2565 29.6476 41.2565 30.5904 41.2565 30.5904V33.9428C41.2565 34.2571 41.3613 35.0952 42.3037 35.0952H43.2461C44.1885 35.0952 44.1885 34.1523 44.1885 34.1523V30.5904H44.0838V30.5904ZM45.0262 30.6952V34.1523C45.0262 35.9333 43.2461 35.9333 43.2461 35.9333H42.199C41.6754 35.9333 40.4188 35.619 40.4188 34.0476V30.6952C40.4188 28.9142 42.3037 28.9142 42.3037 28.9142H43.2461C43.1414 28.9142 45.0262 28.9142 45.0262 30.6952V30.6952ZM52.1466 29.019C52.1466 29.019 52.5654 29.019 52.5654 29.4381V35.5142C52.5654 35.9333 52.1466 35.9333 52.1466 35.9333H51.7278V32.7904H48.9005V35.9333H48.4817C48.4817 35.9333 48.0628 35.9333 48.0628 35.5142V29.4381C48.0628 29.019 48.4817 29.019 48.4817 29.019H48.9005V31.9523H51.7278V29.019H52.1466ZM59.6859 29.019C59.6859 29.019 60.1047 29.019 60.1047 29.4381V35.5142C60.1047 35.9333 59.6859 35.9333 59.6859 35.9333H59.267V32.7904H56.4398V35.9333H56.0209C56.0209 35.9333 55.6021 35.9333 55.6021 35.5142V29.4381C55.6021 29.019 56.0209 29.019 56.0209 29.019H56.4398V31.9523H59.267V29.019H59.6859ZM68.0628 35.8285V28.8095H68.377C68.7958 28.8095 68.9005 29.019 68.9005 29.3333V35.2C68.9005 35.5142 68.7958 35.7238 68.377 35.7238H68.0628V35.8285ZM66.3874 33.7333C66.3874 32.7904 65.445 32.7904 65.445 32.7904H64.0838V34.8857H65.445C66.3874 34.8857 66.3874 33.9428 66.3874 33.9428V33.7333V33.7333ZM67.3298 34.1523C67.3298 35.8285 65.445 35.8285 65.445 35.8285H63.6649C63.2461 35.8285 63.2461 35.4095 63.2461 35.4095V29.4381C63.2461 29.019 63.5602 28.9142 63.8743 28.9142H64.1885V31.9523H65.445C67.3298 31.9523 67.3298 33.6285 67.3298 33.6285V34.1523V34.1523ZM76.2304 28.9142C75.9162 28.9142 75.9162 28.9142 75.7068 29.1238L72.7749 34.1523C72.7749 33.8381 72.8796 33 72.8796 32.1619V28.8095H72.5655C72.0419 28.8095 72.0419 29.1238 72.0419 29.4381V35.5142C72.0419 35.7238 72.1466 35.8285 72.4607 35.8285C72.5654 35.8285 72.7749 35.8285 72.8796 35.619L75.8115 30.5904C75.7068 31.0095 75.7068 31.9523 75.7068 32.5809V35.8285H76.1257C76.5445 35.8285 76.6492 35.5142 76.6492 35.2V29.3333C76.5445 29.1238 76.4398 28.9142 76.2304 28.9142V28.9142ZM75.288 28.4952C75.6021 28.4952 75.7068 28.2857 75.7068 28.0762V27.6571L74.555 27.7619H73.7173C73.4031 27.7619 73.2984 27.9714 73.2984 28.1809V28.6H75.288V28.4952ZM86.3874 35.0952V29.6476H85.7592C85.3403 29.6476 85.2356 30.1714 85.2356 30.1714L84.2932 33.5238V34.9904H86.3874V35.0952ZM87.644 35.0952C87.9581 35.0952 88.2723 35.2 88.2723 35.619V36.4571C88.2723 36.8762 88.0628 36.8761 87.8534 36.8761H87.4346V35.8285H83.2461V36.8761H82.7225C82.5131 36.8761 82.3037 36.7714 82.3037 36.4571V35.8285C82.3037 35.4095 82.5131 35.2 82.9319 35.2H83.2461V33.9428L84.2932 30.0666C84.5026 29.2285 84.8168 28.9142 85.9686 28.9142H86.911C87.2251 28.9142 87.3298 29.1238 87.3298 29.3333V35.0952H87.644V35.0952ZM95.0785 35.2C95.0785 35.619 94.9738 35.8285 94.555 35.8285H94.1361V32.5809C94.1361 32.0571 94.2408 31.0095 94.2408 30.5904L91.2042 35.619C91.0995 35.8285 90.8901 35.8285 90.7853 35.8285C90.5759 35.8285 90.3665 35.619 90.3665 35.5142V29.5428C90.3665 29.3333 90.3665 28.9142 90.8901 28.9142H91.2042V32.2666C91.2042 33.1047 91.0995 33.9428 91.0995 34.2571L94.0314 29.2285C94.1361 29.019 94.2408 29.019 94.555 29.019C94.8691 29.019 94.9738 29.2285 94.9738 29.3333V35.2H95.0785ZM100.838 28.9142C101.361 28.9142 102.304 29.2285 102.304 30.2762V30.4857C102.304 30.9047 102.094 30.9047 101.78 30.9047H101.361V30.4857C101.361 29.9619 101.257 29.6476 100.419 29.6476H99.5812C98.6387 29.6476 98.6387 30.5904 98.6387 30.5904V33.9428C98.6387 34.2571 98.6387 34.9904 99.5812 34.9904H100.524C101.047 34.9904 101.466 34.6762 101.466 34.3619V33.7333H101.885C102.199 33.7333 102.304 33.8381 102.304 34.1523V34.4666C102.304 35.0952 101.675 35.8285 100.628 35.8285H99.4764C99.1623 35.8285 97.8011 35.8285 97.8011 34.0476V30.5904C97.8011 28.9142 99.5812 28.8095 99.5812 28.8095H100.838V28.9142V28.9142ZM106.073 35.8285H105.654C105.654 35.8285 105.236 35.8285 105.236 35.4095V29.5428C105.236 29.2285 105.445 29.019 105.759 29.019H106.073V32.0571H107.016C107.33 31.5333 108.272 30.0666 108.272 30.0666V29.6476C108.272 29.1238 108.482 29.1238 108.796 29.1238H109.215V30.0666C109.215 30.3809 109.11 30.5904 109.005 30.6952L107.853 32.3714L108.272 32.6857C108.691 32.8952 109.319 33.5238 109.319 34.2571V35.9333H108.901C108.901 35.9333 108.482 35.9333 108.482 35.5142V34.4666C108.482 34.0476 108.377 33.5238 107.644 33.2095L107.12 32.8952H106.073V35.8285V35.8285ZM114.869 33.2095L113.822 30.1714L112.775 33.2095H114.869ZM116.126 35.4095C116.126 35.4095 116.126 35.8285 115.707 35.8285H115.288V34.5714L115.079 34.0476H112.565L112.461 34.5714V35.8285H112.042C111.623 35.8285 111.623 35.4095 111.623 35.4095V34.3619L113.403 29.2285C113.508 29.1238 113.613 28.9142 113.822 28.9142C114.031 28.9142 114.241 29.1238 114.241 29.2285L116.021 34.3619V35.4095H116.126V35.4095ZM120.419 35.4095C120.314 35.7238 120.209 35.8285 119.895 35.8285H119.372C118.953 35.8285 118.743 35.7238 118.743 35.4095V34.9904H119.791L120.105 34.1523L118.22 29.4381C118.22 29.2285 118.325 28.9142 118.534 28.9142H118.953L120.628 33.3143L120.838 32.2666L122.199 29.019H122.618C122.827 29.019 123.037 29.2285 122.932 29.5428L120.419 35.4095ZM129.529 29.019C129.529 29.019 129.948 29.019 129.948 29.4381V35.5142C129.948 35.9333 129.529 35.9333 129.529 35.9333H129.11V32.7904H126.283V35.9333H125.864C125.864 35.9333 125.445 35.9333 125.445 35.5142V29.4381C125.445 29.019 125.864 29.019 125.864 29.019H126.283V31.9523H129.11V29.019H129.529ZM137.173 29.7523H135.079V35.8285H134.136V29.7523H131.937V29.3333C131.937 29.3333 131.937 28.9142 132.356 28.9142H136.754C137.173 28.9142 137.173 29.3333 137.173 29.3333V29.7523ZM140.105 35.0952H143.351V35.4095C143.351 35.4095 143.351 35.8285 142.932 35.8285H139.686C139.686 35.8285 139.267 35.8285 139.267 35.4095V29.6476C139.267 29.1238 139.476 29.019 140.105 29.019H143.037C143.456 29.019 143.456 29.4381 143.456 29.4381V29.8571H140.209V31.9523H143.037V32.7904H140.209L140.105 35.0952V35.0952ZM148.272 32.3714C149.11 32.3714 149.424 31.9523 149.424 31.3238V30.6952C149.424 29.8571 149.005 29.6476 148.377 29.6476H147.12V32.2666H148.272V32.3714ZM147.12 35.8285H146.702C146.283 35.8285 146.283 35.4095 146.283 35.4095V29.6476C146.283 29.019 146.702 28.8095 147.12 28.8095H148.586C150.052 28.8095 150.367 29.6476 150.367 30.3809V31.3238C150.367 32.6857 149.319 33.1047 148.377 33.1047H147.225L147.12 35.8285Z" fill="#191C2E"></path> <path d="M53.822 7.12378H40.733C39.7906 7.12378 39.0576 7.96187 39.0576 8.79997C39.0576 9.63806 39.8953 10.3714 40.733 10.3714H45.6544V20.1142C45.6544 21.0571 46.4921 21.7904 47.4345 21.7904C48.377 21.7904 49.2146 20.9523 49.2146 20.1142V10.3714H53.9267C54.8691 10.3714 55.6021 9.74283 55.6021 8.79997C55.7068 7.96187 54.7644 7.12378 53.822 7.12378V7.12378ZM35.6021 7.12378C35.0785 7.12378 34.7644 7.22854 34.4503 7.43806L23.6649 16.7619V8.90473C23.6649 7.85711 22.8272 7.12378 21.9895 7.12378C21.1518 7.12378 20.2094 7.96187 20.2094 8.90473V20.219C20.2094 21.1619 21.0471 21.8952 21.9895 21.8952C22.5131 21.8952 22.9319 21.6857 23.2461 21.4762L34.0314 12.3619V20.219C34.0314 21.1619 34.8691 21.8952 35.7068 21.8952C36.5445 21.8952 37.3822 21.0571 37.3822 20.219V8.90473C37.3822 7.96187 36.5445 7.12378 35.6021 7.12378ZM14.3455 7.12378H3.87433C1.8848 7.12378 0.209412 8.79997 0.209412 10.7904V18.2285C0.209412 20.3238 1.78009 21.8952 3.87433 21.8952H14.3455C16.4398 21.8952 17.9057 20.3238 17.9057 18.3333V17.2857C17.9057 16.2381 17.0681 15.5047 16.2304 15.5047C15.3927 15.5047 14.6597 16.3428 14.6597 17.3904V18.3333C14.6597 18.4381 14.555 18.6476 14.4502 18.6476H3.97905C3.87433 18.6476 3.76962 18.5428 3.76962 18.3333V10.7904C3.76962 10.5809 3.87433 10.4762 3.97905 10.4762H14.4502C14.555 10.4762 14.6597 10.6857 14.6597 10.7904V11.7333C14.6597 12.7809 15.4974 13.5143 16.3351 13.5143C17.3822 13.5143 18.0105 12.6762 18.0105 11.7333V10.6857C18.0105 8.6952 16.4398 7.12378 14.3455 7.12378V7.12378ZM135.497 7.12378C134.555 7.12378 133.717 7.96187 133.717 8.90473V20.219C133.717 21.1619 134.555 21.8952 135.497 21.8952C136.44 21.8952 137.173 21.0571 137.173 20.219V8.90473C137.173 7.96187 136.44 7.12378 135.497 7.12378ZM109.633 7.12378C109.11 7.12378 108.796 7.22854 108.482 7.43806L97.5916 16.7619V8.90473C97.5916 7.85711 96.7539 7.12378 95.8115 7.12378C94.8691 7.12378 94.1361 7.96187 94.1361 8.90473V20.219C94.1361 21.1619 94.9738 21.8952 95.8115 21.8952C96.3351 21.8952 96.8586 21.6857 97.0681 21.4762L107.853 12.3619V20.219C107.853 21.1619 108.691 21.8952 109.633 21.8952C110.576 21.8952 111.414 21.0571 111.414 20.219V8.90473C111.414 7.96187 110.681 7.12378 109.633 7.12378ZM129.319 7.12378C128.377 7.12378 127.539 7.96187 127.539 8.90473V12.9904H117.487V8.90473C117.487 7.96187 116.649 7.12378 115.707 7.12378C114.764 7.12378 113.927 7.96187 113.927 8.90473V20.219C113.927 21.1619 114.764 21.8952 115.707 21.8952C116.649 21.8952 117.487 21.0571 117.487 20.219V16.2381H127.539V20.3238C127.539 21.2666 128.377 22 129.319 22C130.262 22 130.995 21.1619 130.995 20.3238V8.79997C130.995 7.96187 130.262 7.12378 129.319 7.12378V7.12378ZM149.529 18.9619L142.827 14.5619L149.529 10.1619C149.948 9.95234 150.366 9.21902 150.366 8.69521C150.366 7.64759 149.529 7.12378 148.796 7.12378C148.482 7.12378 148.168 7.22854 147.749 7.43806L138.848 13.2C138.429 13.5143 138.01 14.0381 138.01 14.6666C138.01 15.1904 138.325 15.819 138.848 16.1333L147.749 21.8952C148.063 22.1047 148.377 22.1047 148.796 22.1047C149.738 22.1047 150.471 21.4762 150.471 20.5333C150.366 19.9047 150.157 19.2762 149.529 18.9619ZM85.9686 8.06663C85.6544 7.54282 85.0262 7.12378 84.3979 7.12378C83.8743 7.12378 83.2461 7.43806 82.9319 8.06663L76.0209 19.5904C75.8115 19.8 75.7068 20.1142 75.7068 20.5333C75.7068 21.4762 76.5445 22.2095 77.2775 22.2095C77.9058 22.2095 78.534 21.8952 78.8482 21.3714L84.3979 12.2571L89.9476 21.3714C90.2618 21.8952 90.89 22.3143 91.5183 22.3143C92.4607 22.3143 93.1937 21.4762 93.1937 20.6381C93.1937 20.3238 93.089 20.1143 92.9843 19.6952L85.9686 8.06663V8.06663ZM72.5654 7.12378C72.1466 7.12378 71.7277 7.22854 71.4136 7.43806L60.5235 16.7619V8.90473C60.5235 7.85711 59.6859 7.12378 58.7434 7.12378C57.801 7.12378 57.0681 7.96187 57.0681 8.90473V20.219C57.0681 21.1619 57.9057 21.8952 58.7434 21.8952C59.267 21.8952 59.6859 21.6857 60 21.4762L70.7853 12.3619V20.219C70.7853 21.1619 71.623 21.8952 72.4607 21.8952C73.5078 21.8952 74.2408 21.0571 74.2408 20.219V8.90473C74.2408 7.96187 73.4031 7.12378 72.5654 7.12378Z" fill="#191C2E"></path> <path d="M193.298 0.838135H161.885C157.696 0.838135 156.23 3.87622 156.23 6.49527V23.781C156.23 26.4 157.696 29.4381 161.885 29.4381H167.749L165.236 26.0858H161.885C160.524 26.0858 159.791 25.2477 159.791 23.9905V6.49527C159.791 5.13337 160.628 4.40003 161.885 4.40003H193.298C194.66 4.40003 195.393 5.23813 195.393 6.49527V10.6857C195.393 11.7334 196.23 12.3619 197.068 12.3619C198.115 12.3619 198.848 11.5238 198.848 10.6857V6.49527C198.953 3.87622 197.487 0.838135 193.298 0.838135V0.838135ZM197.173 17.9143C196.126 17.9143 195.497 18.7524 195.497 19.6953V23.8858C195.497 25.2477 194.66 25.981 193.403 25.981H187.644L187.539 29.3334H193.403C197.592 29.3334 199.058 26.2953 199.058 23.6762V19.5905C198.953 18.7524 198.115 17.9143 197.173 17.9143Z" fill="#191C2E"></path> <path d="M189.215 20.7429C188.272 19.8001 186.806 19.381 185.654 19.6953C185.55 19.4858 185.34 19.2763 185.236 19.1715C184.607 18.5429 183.56 18.0191 182.513 18.0191C182.094 18.0191 181.675 18.1239 181.361 18.2287L181.152 18.0191C180.314 17.3906 179.476 16.8667 178.429 16.8667H178.22V12.0477C178.22 9.95246 176.544 8.17151 174.346 8.17151C172.147 8.17151 170.471 9.8477 170.471 12.0477V23.0477C169.215 22.0001 167.644 21.581 166.387 21.8953C164.817 22.3144 163.56 23.781 163.455 25.4572C163.351 26.4001 163.665 27.3429 164.084 28.2858L164.503 28.9144C164.607 29.1239 164.817 29.3334 165.026 29.7525L173.298 40.5429C173.822 41.1715 174.45 41.9048 175.183 42.4287C176.23 42.9525 177.173 43.0572 178.115 43.0572H183.77C184.712 43.0572 185.445 42.8477 185.969 42.5334C186.911 42.1144 187.435 41.2763 187.853 40.1239C188.168 39.0763 188.691 38.0287 189.005 36.981L189.11 36.562C189.424 35.5144 189.633 34.6763 189.948 33.8382C190.157 32.7906 190.157 31.7429 190.157 30.5906V23.4667C190.262 22.4191 189.948 21.581 189.215 20.7429V20.7429ZM187.225 30.6953C187.225 31.6382 187.12 32.4763 187.016 33.4191C186.911 34.2572 186.702 34.8858 186.492 35.6191L185.236 39.0763C185.131 39.4953 185.026 39.7048 184.712 39.9144C184.503 40.0191 184.188 40.0191 183.874 40.0191H178.22C177.801 40.0191 177.173 40.0191 176.859 39.8096C176.544 39.6001 176.23 39.181 175.811 38.762L166.806 26.9239C166.492 26.5048 166.387 26.2953 166.387 25.7715C166.387 25.562 166.492 25.2477 166.702 25.1429C166.911 25.0382 167.016 24.9334 167.225 24.9334C167.539 24.9334 168.063 25.1429 168.377 25.4572L171.204 28.0763C171.414 28.2858 171.728 28.3906 172.147 28.3906C172.775 28.3906 173.403 27.8667 173.403 27.1334V12.0477C173.403 11.5239 173.822 11.2096 174.241 11.2096C174.66 11.2096 175.079 11.4191 175.079 12.0477V23.5715C175.079 24.2001 175.602 24.8286 176.335 24.8286C176.963 24.8286 177.592 24.3048 177.592 23.5715V20.8477C177.592 20.6382 177.696 20.4287 177.801 20.3239C178.115 20.0096 178.639 20.0096 178.953 20.3239C179.058 20.4287 179.162 20.6382 179.162 20.8477V23.5715C179.162 24.2001 179.686 24.8286 180.419 24.8286C181.152 24.8286 181.675 24.3048 181.675 23.5715V21.8953C181.675 21.7906 181.78 21.581 181.885 21.4763C182.199 21.162 182.722 21.2667 183.037 21.4763C183.141 21.581 183.246 21.7906 183.246 22.0001V24.2001C183.246 24.8286 183.77 25.4572 184.503 25.4572C185.236 25.4572 185.759 24.9334 185.759 24.2001V23.362C185.759 23.1525 185.864 22.9429 185.969 22.8382C186.283 22.5239 186.806 22.5239 187.12 22.8382C187.225 22.9429 187.33 23.1525 187.33 23.362V30.5906H187.225V30.6953Z" fill="#191C2E"></path> </svg> 