<?xml version="1.0" encoding="UTF-8"?> <svg xmlns="http://www.w3.org/2000/svg" width="24" height="24" viewBox="0 0 24 24" fill="none"> <path fill-rule="evenodd" clip-rule="evenodd" d="M12 24C18.6274 24 24 18.6274 24 12C24 5.37259 18.6274 0 12 0C5.37256 0 0 5.37259 0 12C0 18.6274 5.37256 24 12 24ZM10.9067 8.27136C11.314 8.03204 11.7927 7.94455 12.2582 8.02441C12.7238 8.10425 13.146 8.34628 13.4502 8.70761C13.7543 9.06894 13.9208 9.52628 13.9201 9.9986V10.0001C13.9201 10.4692 13.555 10.9583 12.8654 11.418C12.551 11.6276 12.2296 11.7891 11.9827 11.8988C11.8607 11.953 11.7604 11.993 11.6931 12.0187C11.6594 12.0315 11.6342 12.0407 11.6188 12.0461L11.6028 12.0518C11.0796 12.2268 10.7969 12.7927 10.9714 13.3163C11.1461 13.8402 11.7124 14.1234 12.2363 13.9488L11.9201 13.0001C12.2363 13.9488 12.2373 13.9485 12.2376 13.9483L12.2391 13.9478L12.243 13.9465L12.2541 13.9427L12.2888 13.9306C12.3174 13.9204 12.3566 13.9061 12.405 13.8877C12.5016 13.8509 12.6357 13.7972 12.795 13.7264C13.1107 13.5861 13.5392 13.3726 13.9748 13.0821C14.785 12.542 15.9197 11.5313 15.9201 10.001C15.9214 9.05655 15.5884 8.14212 14.9802 7.41962C14.3719 6.69693 13.5274 6.21289 12.5964 6.05319C11.6653 5.89349 10.7078 6.06845 9.89337 6.54709C9.07898 7.02573 8.46027 7.77713 8.14679 8.66824C7.9635 9.18924 8.2373 9.76013 8.7583 9.94342C9.27924 10.1267 9.85016 9.85291 10.0334 9.33194C10.1902 8.88638 10.4996 8.51065 10.9067 8.27136ZM12.0002 16C11.448 16 11.0002 16.4477 11.0002 17C11.0002 17.5523 11.448 18 12.0002 18H12.0103C12.5626 18 13.0103 17.5523 13.0103 17C13.0103 16.4477 12.5626 16 12.0103 16H12.0002Z" fill="#170237"></path> </svg> 