<?xml version="1.0" encoding="UTF-8"?> <svg xmlns="http://www.w3.org/2000/svg" width="123" height="60" viewBox="0 0 123 60" fill="none"> <path fill-rule="evenodd" clip-rule="evenodd" d="M40.2302 48.5252C40.2302 34.7111 40.2302 20.8969 40.2302 7.08281C42.7883 7.1131 45.3769 6.93134 47.9047 7.44634C51.5287 8.11281 55.031 10.0213 57.1932 13.0507C59.2946 15.959 60.1168 19.6246 60.0864 23.169C60.1473 28.016 57.8023 32.7722 53.9955 35.7411C51.1937 37.9828 47.6306 39.1946 44.037 39.2552C44.037 42.3452 44.037 45.4352 44.037 48.5252C42.7579 48.5252 41.5092 48.5555 40.2302 48.5252ZM103.027 53.5237C103.453 53.5237 103.849 53.5237 104.276 53.5237C105.007 55.3716 105.737 57.2196 106.468 59.0675C106.072 59.0675 105.707 59.0675 105.311 59.0675C105.159 58.7343 105.037 58.3708 104.915 58.0072C104.062 58.0072 103.24 58.0072 102.418 58.0072C102.296 58.3405 102.144 58.704 102.022 59.0675C101.626 59.0675 101.261 59.0675 100.865 59.0675C101.565 57.2196 102.296 55.3716 103.027 53.5237ZM87.6475 53.5843C88.6525 53.2511 89.9012 53.4328 90.6625 54.1902C91.5762 55.0687 91.7284 56.5531 91.1802 57.674C90.8148 58.4011 90.0839 58.9464 89.2616 59.0978C88.5612 59.0978 87.7998 59.219 87.1603 58.7949C85.6071 57.9769 85.333 55.6746 86.4598 54.3719C86.7948 54.0084 87.1907 53.7358 87.6475 53.5843ZM71.0804 53.5237C71.5068 53.5237 71.9027 53.5237 72.329 53.5237C73.0599 55.3716 73.7908 57.2196 74.5217 59.0675C74.1258 59.0675 73.7604 59.0675 73.3645 59.0675C73.2427 58.7343 73.0904 58.3708 72.9686 58.0072C72.1158 58.0072 71.2936 58.0072 70.4409 58.0072C70.319 58.3405 70.1668 58.704 70.0449 59.0675C69.649 59.0675 69.2836 59.0675 68.9181 59.0675C69.6186 57.2196 70.3799 55.3716 71.0804 53.5237ZM55.2746 53.5237C56.1882 53.5237 57.1019 53.4934 58.0155 53.5237C58.8073 53.554 59.5078 54.2508 59.5382 55.0384C59.66 55.8866 59.0814 56.7046 58.2591 56.8864C58.7159 57.5831 59.1423 58.3102 59.5991 59.0069C59.2032 59.0069 58.8378 59.0069 58.4418 59.0069C58.0155 58.3405 57.6196 57.6437 57.1932 56.9469C56.8887 56.9469 56.5841 56.9469 56.2796 56.9469C56.2796 57.6437 56.2796 58.3102 56.2796 59.0069C55.9446 59.0069 55.6096 59.0069 55.2746 59.0069C55.2441 57.2196 55.2746 55.3716 55.2746 53.5237ZM11.4204 11.0513C15.8362 8.26428 21.1048 6.87075 26.343 6.93134C26.343 8.1734 26.343 9.41546 26.343 10.6575C23.328 10.6575 20.2826 11.1725 17.4503 12.2328C13.6435 13.6566 10.2022 16.1105 7.82676 19.3822C5.63405 22.3813 4.32451 25.9561 3.89815 29.6216C3.50225 32.8934 3.68497 36.2258 4.50724 39.4369C5.6036 43.6781 7.91812 47.6466 11.2681 50.4943C14.4049 53.2208 18.4249 54.8869 22.5971 55.2202C22.5667 44.4052 22.5971 33.5902 22.5971 22.7752C20.8308 22.7752 19.034 22.7752 17.2676 22.7752C17.8158 21.5028 18.364 20.2608 18.9121 18.9884C21.3789 18.9884 23.8762 18.9884 26.343 18.9884C26.343 32.3481 26.343 45.6775 26.343 59.0372C24.6375 59.0372 22.9321 59.0372 21.2267 58.8252C18.5771 58.4919 15.9885 57.7346 13.5826 56.5531C9.98902 54.7658 6.88268 52.0393 4.62906 48.7372C1.79681 44.5566 0.304543 39.5278 0 34.5293C0 33.469 0 32.4087 0 31.3484C0.243635 27.3799 1.18772 23.381 3.10634 19.8669C5.05542 16.2922 7.97903 13.2325 11.4204 11.0513ZM117.554 0.811924C118.681 0.478689 119.99 0.751336 120.843 1.59957C122 2.65987 122.152 4.5684 121.208 5.84075C120.295 7.1434 118.406 7.59781 117.006 6.84046C115.879 6.26487 115.148 4.99251 115.239 3.75045C115.3 2.41751 116.305 1.17545 117.554 0.811924ZM117.066 1.93281C117.95 1.9631 118.894 1.75104 119.716 2.17516C120.447 2.69016 120.203 3.90193 119.411 4.23516C119.746 4.68957 119.99 5.23487 120.325 5.68928C120.264 5.78016 120.234 5.84075 120.173 5.93163C119.868 5.90134 119.533 5.96193 119.259 5.84075C118.955 5.44693 118.802 4.99251 118.528 4.5684C118.376 4.50781 118.224 4.47751 118.071 4.44722C118.041 4.93193 118.071 5.41663 118.041 5.93163C117.706 5.93163 117.371 5.93163 117.036 5.90134C117.066 4.59869 117.066 3.26575 117.066 1.93281ZM118.041 2.65987C118.041 3.05369 118.041 3.41722 118.041 3.81104C118.315 3.78075 118.62 3.81104 118.894 3.72016C119.198 3.56869 119.198 3.14457 119.046 2.87193C118.802 2.59928 118.376 2.69016 118.041 2.65987ZM117.919 1.26634C116.792 1.53898 115.94 2.59928 115.909 3.72016C115.818 4.81075 116.457 5.93163 117.462 6.38604C118.346 6.77987 119.472 6.65869 120.203 5.99222C121.117 5.29545 121.421 3.96251 121.025 2.93251C120.599 1.75104 119.198 0.933101 117.919 1.26634ZM108.539 53.5237C108.874 53.5237 109.179 53.5237 109.514 53.5237C109.514 55.0687 109.514 56.6137 109.514 58.189C110.336 58.189 111.158 58.189 111.95 58.189C111.95 58.4919 111.95 58.7646 111.95 59.0675C110.793 59.0675 109.666 59.0675 108.509 59.0675C108.539 57.2196 108.539 55.3716 108.539 53.5237ZM102.692 57.0984C103.332 57.0984 103.971 57.0984 104.611 57.0984C104.306 56.2805 104.002 55.4322 103.667 54.6446C103.271 55.4625 102.997 56.2805 102.692 57.0984ZM93.9211 53.5237C94.2561 53.554 94.652 53.4631 94.9566 53.554C95.9007 54.7961 96.8143 56.0684 97.7279 57.2802C97.7279 56.0078 97.7279 54.7658 97.7279 53.4934C98.0629 53.4934 98.3675 53.4934 98.7025 53.4934C98.7025 55.3414 98.7025 57.1893 98.7025 59.0372C98.3979 59.0372 98.0629 59.0372 97.7584 59.0372C96.7838 57.7649 95.8702 56.4622 94.8957 55.1596C94.8957 56.4622 94.8957 57.7346 94.8957 59.0372C94.5607 59.0372 94.2257 59.0372 93.8907 59.0372C93.9211 57.2196 93.9211 55.3716 93.9211 53.5237ZM87.8912 54.4931C86.6426 55.0687 86.4903 57.0075 87.5257 57.8861C88.1957 58.4314 89.2921 58.4011 89.9012 57.7649C90.693 56.9772 90.6625 55.5231 89.8403 54.7658C89.3225 54.2811 88.5307 54.2205 87.8912 54.4931ZM82.4094 53.5237C82.7444 53.5237 83.0489 53.5237 83.3839 53.5237C83.3839 55.3716 83.3839 57.2196 83.3839 59.0675C83.0489 59.0675 82.7444 59.0675 82.4094 59.0675C82.4094 57.2196 82.379 55.3716 82.4094 53.5237ZM75.7095 53.5237C77.1713 53.5237 78.6026 53.5237 80.0644 53.5237C80.0644 53.8266 80.0644 54.0993 80.0644 54.4022C79.5162 54.4022 78.9681 54.4022 78.3894 54.4022C78.3894 55.9472 78.3894 57.5225 78.3894 59.0675C78.0544 59.0675 77.7194 59.0675 77.3844 59.0675C77.3844 57.5225 77.3844 55.9472 77.3844 54.4022C76.8363 54.4022 76.2881 54.4022 75.7095 54.4022C75.7095 54.0993 75.7095 53.8266 75.7095 53.5237ZM70.7454 57.0984C71.3849 57.0984 72.0245 57.0984 72.664 57.0984C72.3595 56.2502 72.0245 55.4322 71.7199 54.6143C71.3545 55.4322 71.0804 56.2805 70.7454 57.0984ZM62.005 53.5237C62.34 53.5237 62.7055 53.5237 63.0405 53.5237C63.9541 54.7658 64.8982 56.0078 65.8118 57.2802C65.8118 56.0381 65.8118 54.7658 65.8118 53.5237C66.1468 53.5237 66.4818 53.5237 66.8168 53.5237C66.8168 55.3716 66.8168 57.2196 66.8168 59.0675C66.4818 59.0675 66.1772 59.0675 65.8423 59.0675C64.8982 57.7649 63.9236 56.4925 62.9795 55.1899C62.9795 56.4925 62.9795 57.7952 62.9795 59.0675C62.6445 59.0675 62.34 59.0675 62.005 59.0675C62.005 57.2196 62.005 55.3716 62.005 53.5237ZM56.2796 54.4022C56.2796 54.9778 56.2796 55.5534 56.2796 56.0987C56.8582 56.0987 57.4369 56.1896 57.985 56.0078C58.5941 55.7958 58.6855 54.8263 58.1069 54.5234C57.5587 54.2811 56.8887 54.4325 56.2796 54.4022ZM48.9401 53.5237C50.2192 53.5237 51.4983 53.5237 52.7773 53.5237C52.7773 53.8266 52.7773 54.0993 52.7773 54.4022C51.8333 54.4022 50.8892 54.4022 49.9451 54.4022C49.9451 54.8566 49.9451 55.3111 49.9451 55.7958C50.8587 55.7958 51.7724 55.7958 52.686 55.7958C52.686 56.0987 52.686 56.4016 52.686 56.7046C51.7724 56.7046 50.8587 56.7046 49.9451 56.7046C49.9451 57.1893 49.9451 57.7043 49.9451 58.189C50.8892 58.189 51.8333 58.189 52.7773 58.189C52.7773 58.4919 52.7773 58.7646 52.7773 59.0675C51.4983 59.0675 50.2192 59.0675 48.9401 59.0675C48.9401 57.2196 48.9401 55.3716 48.9401 53.5237ZM42.2706 53.5237C43.7324 53.5237 45.1942 53.5237 46.656 53.5237C46.656 53.8266 46.656 54.0993 46.656 54.4022C46.0774 54.4022 45.5292 54.4022 44.9506 54.4022C44.9506 55.9472 44.9506 57.4922 44.9506 59.0675C44.6156 59.0675 44.2806 59.0675 43.976 59.0675C43.976 57.5225 43.976 55.9775 43.976 54.4022C43.3974 54.4022 42.8492 54.4022 42.2706 54.4022C42.2706 54.0993 42.2706 53.8266 42.2706 53.5237ZM35.1443 53.5237C35.5097 53.5237 35.8447 53.5237 36.1797 53.554C37.0629 54.7961 38.007 56.0381 38.9206 57.2802C38.9206 56.0381 38.9206 54.7961 38.9206 53.554C39.2556 53.554 39.5906 53.554 39.9561 53.554C39.9561 55.4019 39.9561 57.2499 39.9561 59.0978C39.6515 59.0978 39.3165 59.0978 39.012 59.0978C38.0375 57.7952 37.0934 56.4925 36.1188 55.1899C36.1188 56.4925 36.1188 57.7952 36.1188 59.0978C35.7838 59.0978 35.4488 59.0978 35.1443 59.0978C35.1443 57.2196 35.1443 55.3716 35.1443 53.5237ZM31.4593 53.5237C31.7943 53.5237 32.1293 53.5237 32.4643 53.5237C32.4643 55.3716 32.4643 57.2196 32.4643 59.0675C32.1293 59.0675 31.7943 59.0675 31.4593 59.0675C31.4593 57.2196 31.4593 55.3716 31.4593 53.5237ZM31.4593 18.9884C32.7384 18.9884 33.987 18.9884 35.2661 18.9884C35.2661 28.834 35.2661 38.7099 35.2661 48.5555C33.987 48.5555 32.7384 48.5555 31.4593 48.5555C31.4593 38.6796 31.4593 28.834 31.4593 18.9884ZM100.652 7.08281C101.931 7.08281 103.179 7.08281 104.458 7.08281C104.458 19.5337 104.458 32.0149 104.458 44.4658C104.458 44.5264 104.489 44.6475 104.489 44.7081C107.961 44.7384 111.432 44.7081 114.935 44.7081C114.386 45.9805 113.838 47.2225 113.29 48.4949C109.087 48.4949 104.885 48.4949 100.652 48.4949C100.652 34.7111 100.652 20.8969 100.652 7.08281ZM81.2826 7.08281C86.0335 7.08281 90.7843 7.08281 95.5352 7.08281C95.5352 8.35516 95.5352 9.59722 95.5352 10.8696C92.033 10.8696 88.5307 10.8696 85.0589 10.8696C85.0589 13.5658 85.0589 16.2619 85.0589 18.9581C88.5612 18.9581 92.0634 18.9581 95.5657 18.9581C95.0175 20.2305 94.4693 21.4725 93.9211 22.7449C90.9671 22.7449 88.013 22.7449 85.0589 22.7449C85.0589 30.076 85.0589 37.4072 85.0589 44.7384C88.5612 44.7384 92.0634 44.7384 95.5657 44.7384C94.987 45.9805 94.4693 47.2831 93.8907 48.5252C89.688 48.4949 85.4853 48.5252 81.2826 48.5252C81.2826 39.9216 81.2826 31.3484 81.2826 22.7449C80.1558 22.7449 78.9985 22.7449 77.8717 22.7449C78.4199 21.4725 78.9376 20.2002 79.5162 18.9581C80.0949 18.9581 80.6735 18.9581 81.2521 18.9581C81.2826 15.0199 81.2826 11.0513 81.2826 7.08281ZM63.0405 7.08281C67.7913 7.08281 72.5422 7.08281 77.3235 7.08281C76.7754 8.35516 76.2272 9.59722 75.679 10.8696C72.7249 10.8696 69.8013 10.8696 66.8472 10.8696C66.8472 13.5658 66.8472 16.2619 66.8472 18.9581C70.1059 18.9581 73.3645 18.9581 76.6535 18.9581C76.1054 20.2002 75.5572 21.4725 75.009 22.7146C72.2986 22.7146 69.5577 22.7146 66.8472 22.7146C66.8472 31.3181 66.8472 39.8913 66.8472 48.4949C65.5986 48.4949 64.3195 48.4949 63.0405 48.4949C63.0405 34.7111 63.0405 20.8969 63.0405 7.08281ZM44.037 35.4684C46.7474 35.4381 49.4578 34.4687 51.5896 32.8025C53.5387 31.2575 55.031 29.1369 55.7619 26.7437C56.4928 24.411 56.4319 21.8663 55.9446 19.5034C55.4573 17.0496 54.1478 14.7169 52.1074 13.2325C49.7928 11.536 46.8997 10.8696 44.0674 10.8393C44.037 19.0793 44.037 27.289 44.037 35.4684ZM31.4593 7.08281C32.7384 7.08281 33.987 7.08281 35.2661 7.08281C35.2661 9.83957 35.2661 12.5963 35.2661 15.3531C33.987 15.8984 32.7384 16.4437 31.4593 16.989C31.4593 13.6869 31.4593 10.3849 31.4593 7.08281Z" fill="#191C2E"></path> </svg> 