<?xml version="1.0" encoding="UTF-8"?> <svg xmlns="http://www.w3.org/2000/svg" width="170" height="93" viewBox="0 0 170 93" fill="none"> <g clip-path="url(#clip0)"> <path d="M139.9 52L142.7 55.2C141.8 56.2 141 56.6 140.1 56.6C138.8 56.6 137.9 55.8 137.9 54.7C137.9 53.8 138.2 53.3 139.9 52Z" fill="#191C2E"></path> <path d="M140.2 50.3C139.5 49.5 139.2 48.9 139.2 48.2C139.2 47.3 139.7 46.9 140.5 46.9C141.2 46.9 141.7 47.3 141.7 48.1C141.7 48.8 141.3 49.5 140.2 50.3Z" fill="#191C2E"></path> <path fill-rule="evenodd" clip-rule="evenodd" d="M140.8 60.3C145.4 60.3 149 56.6 149 52.1C149 47.6 145.3 44 140.8 43.9C136.2 43.9 132.6 47.5 132.6 52.1C132.6 56.7 136.2 60.3 140.8 60.3ZM146.1 57.2C146.1 57 146 56.8 145.9 56.7L144.6 55.2C145 54.6 145.4 54 145.9 53.2C146.1 52.9 146.2 52.7 146.2 52.5C146.2 52.1 145.8 51.8 145.5 51.8C145.3 51.8 145 52 144.9 52.2C144.78 52.3917 144.666 52.5777 144.556 52.7565C144.208 53.324 143.904 53.8198 143.6 54.2L141 51.3C142.5 50.2 143.1 49.2 143.1 48.1C143.1 46.6 142 45.6 140.5 45.6C138.9 45.6 137.8 46.6 137.8 48.2C137.8 49.2 138.2 50 139.1 51.1C137.1 52.5 136.4 53.5 136.4 54.8C136.4 56.6 137.9 57.9 140 57.9C141.4 57.9 142.5 57.4 143.6 56.2L144.9 57.6C145 57.8 145.2 57.9 145.4 57.9C145.8 57.9 146.1 57.6 146.1 57.2Z" fill="#191C2E"></path> <path fill-rule="evenodd" clip-rule="evenodd" d="M170 36.8V3.7C170 2.4 169.1 1.5 167.9 1.4C166.7 1.4 165.8 2.4 165.8 3.6V15.6C163.7 12.8 160.1 11 155.9 11C148.4 11 142.7 17 142.7 25C142.7 32.9 148.4 38.9 155.9 38.9C160.2 38.9 163.7 37.2 165.8 34.4V36.8C165.8 38 166.6 39 167.9 39C169.1 39 170 38.1 170 36.8ZM156.5 15C162 15 165.8 19.1 165.8 25.1C165.8 31.1 162.1 35.1 156.5 35.1C151 35.1 147 30.8 147 25C147 19.3 151 15 156.5 15Z" fill="#191C2E"></path> <path fill-rule="evenodd" clip-rule="evenodd" d="M73.9 35.9V15.2C73.9 13.9 73 13 71.7 12.9C70.5 12.9 69.6 13.8 69.6 15.1V15.7C67.5 12.9 63.9 11.1 59.7 11.1C52.2 11.1 46.6 16.8 46.6 24.6C46.6 32.4 52.2 38.1 59.7 38.1C63.9 38.1 67.5 36.4 69.6 33.7V36.1C69.6 41.8 66.3 45 60.7 45C57.6 45 54.8 43.9 51.7 41.5C51.4 41.3 50.9 41.1 50.5 41.1C49.3 41.1 48.5 42 48.5 43.1C48.5 43.6 48.7 44.1 49.2 44.6C52.4 47.4 56.6 48.9 60.9 48.9C68.9 48.9 73.9 43.9 73.9 35.9ZM60.5 15.2C66.1 15.2 69.8 19 69.8 24.7C69.8 30.4 66 34.3 60.5 34.3C54.9 34.3 51 30.3 51 24.8C51 19.2 55 15.2 60.5 15.2Z" fill="#191C2E"></path> <path fill-rule="evenodd" clip-rule="evenodd" d="M92.3 39C100.1 39 106.3 32.8 106.3 25.1C106.3 17.3 100.1 11.1 92.4 11.2C84.5 11.2 78.4 17.3 78.4 25.1C78.4 32.8 84.5 38.9 92.3 39ZM92.3 35.1C86.8 35.1 82.7 30.8 82.7 25.1C82.6 19.4 86.8 15 92.4 15C97.8 15 102 19.4 102 25.1C102 30.8 97.8 35.1 92.3 35.1Z" fill="#191C2E"></path> <path fill-rule="evenodd" clip-rule="evenodd" d="M138.4 25.1C138.4 32.8 132.2 39 124.4 39C116.6 38.9 110.5 32.8 110.5 25.1C110.5 17.3 116.6 11.2 124.5 11.2C132.2 11.1 138.4 17.3 138.4 25.1ZM114.8 25.1C114.8 30.8 118.9 35.1 124.4 35.1C129.9 35.1 134.1 30.8 134.1 25.1C134.1 19.4 129.9 15 124.5 15C118.9 15 114.7 19.4 114.8 25.1Z" fill="#191C2E"></path> <path fill-rule="evenodd" clip-rule="evenodd" d="M128 78.7V48C128 45.8 126.4 44.2 124.3 44.2C122.2 44.2 120.6 45.9 120.6 48V57.2C118.7 55.2 115.9 54 112.5 54C104.9 54 99.4 60 99.4 68.2C99.4 76.4 104.9 82.4 112.5 82.4C116 82.4 118.9 81.2 120.8 79C120.9 80.9 122.5 82.4 124.4 82.4C126.5 82.4 128 80.8 128 78.7ZM113.9 60.8C117.9 60.8 120.7 63.9 120.7 68.3C120.7 72.7 118 75.7 113.9 75.7C109.8 75.7 106.9 72.6 106.9 68.2C106.9 64 109.8 60.8 113.9 60.8Z" fill="#191C2E"></path> <path fill-rule="evenodd" clip-rule="evenodd" d="M28.9 78.8V57.8C28.9 55.7 27.4 54.1 25.2 54C23.3 54 21.7 55.4 21.6 57.4C19.8 55.3 16.9 54 13.2 54C5.59995 54 0.199951 59.5 0.199951 67.4C0.199951 75.3 5.59995 80.9 13.2 80.9C16.7 80.9 19.6 79.8 21.5 77.7V79.2C21.5 83.2 18.8 85.6 14.3 85.6C11.7 85.6 9.39995 84.8 6.99995 83.2C6.29995 82.8 5.69995 82.5 4.99995 82.5C3.19995 82.5 1.69995 83.9 1.69995 85.8C1.69995 86.8 2.19995 87.8 3.19995 88.5C6.39995 91 10.5 92.3 14.9 92.3C23.7 92.3 28.9 87.3 28.9 78.8ZM14.8 60.4C18.9 60.4 21.6 63.2 21.6 67.4C21.6 71.8 18.9 74.8 14.8 74.8C10.8 74.8 7.79995 71.7 7.79995 67.5C7.79995 63.3 10.7 60.4 14.8 60.4Z" fill="#191C2E"></path> <path fill-rule="evenodd" clip-rule="evenodd" d="M47.2 82.4C55.2999 82.4 61.7999 76.1 61.7999 68.2C61.7999 60.4 55.4 54.1 47.2 54.1C39.1 54.1 32.7 60.2 32.7 68.2C32.7 76.2 39.1 82.4 47.2 82.4ZM47.2999 75.6C43.2999 75.6 40.2999 72.6 40.2999 68.3C40.2999 64 43.2 60.8 47.2999 60.9C51.2999 60.9 54.2999 64 54.2999 68.3C54.2999 72.5 51.2999 75.6 47.2999 75.6Z" fill="#191C2E"></path> <path fill-rule="evenodd" clip-rule="evenodd" d="M95.0999 68.2C95.0999 76.1 88.5999 82.4 80.4999 82.4C72.3999 82.4 65.9999 76.2 65.9999 68.2C65.9999 60.2 72.3999 54.1 80.4999 54.1C88.6999 54.1 95.0999 60.4 95.0999 68.2ZM73.5999 68.3C73.5999 72.6 76.5999 75.6 80.5999 75.6C84.5999 75.6 87.5999 72.5 87.5999 68.3C87.5999 64 84.5999 60.9 80.5999 60.9C76.4999 60.8 73.5999 64 73.5999 68.3Z" fill="#191C2E"></path> </g> <defs> <clipPath id="clip0"> <rect width="170" height="92.3" fill="white"></rect> </clipPath> </defs> </svg> 