<?xml version="1.0" encoding="UTF-8"?> <svg xmlns="http://www.w3.org/2000/svg" width="170" height="170" viewBox="0 0 170 170" fill="none"> <path fill-rule="evenodd" clip-rule="evenodd" d="M0 85V0H85H170V85V170H85H0V85ZM31.2353 137.338C33.6707 136.709 35.5322 135.474 36.4835 133.856C36.9008 133.146 36.9683 132.831 36.9683 131.593C36.9683 129.82 36.4815 128.681 35.3859 127.887C34.1539 126.994 33.1692 126.797 29.5026 126.708C27.6722 126.664 25.9935 126.59 25.7721 126.544C25.5507 126.498 25.2355 126.255 25.0715 126.005C24.8214 125.623 24.8067 125.439 24.9801 124.86C25.2888 123.829 25.4521 123.756 26.947 123.978C30.7021 124.535 34.3604 122.709 35.1876 119.863C35.4764 118.87 35.4706 117.029 35.1765 116.347C35.0542 116.063 35.1734 116.032 36.3886 116.032H37.7363L37.8618 115.027C37.9309 114.475 37.9326 113.625 37.8656 113.138C37.751 112.305 37.7129 112.254 37.2109 112.254C36.2101 112.254 35.1011 112.651 34.3829 113.265L33.6655 113.879L33.0097 113.434C31.9346 112.705 30.4153 112.223 28.8729 112.123C25.494 111.903 22.6611 113.333 21.5296 115.83C21.2465 116.454 21.1534 117.02 21.1554 118.101C21.1586 119.782 21.5773 120.845 22.703 122.028L23.3948 122.755L22.6794 123.486C21.0603 125.14 20.9668 127.295 22.4537 128.693L23.0046 129.21L22.0383 130.094C20.8179 131.209 20.4372 132.13 20.5386 133.722C20.6816 135.969 22.1749 137.154 25.455 137.623C26.8856 137.827 29.9187 137.678 31.2353 137.338H31.2353ZM25.5886 134.035C24.4425 133.5 24.1062 132.184 24.8175 131.018C25.3277 130.181 26.1178 130.007 29.0231 130.092C31.8092 130.173 32.3387 130.387 32.6331 131.547C32.8641 132.457 32.3639 133.262 31.2086 133.839C30.4458 134.221 30.0171 134.295 28.3333 134.34C26.6629 134.384 26.2351 134.337 25.5886 134.035V134.035ZM27.0741 120.897C26.014 120.459 25.4288 118.865 25.734 117.247C26.0393 115.629 26.8237 115.023 28.5567 115.066C30.2644 115.108 30.9418 115.971 30.9418 118.104C30.9418 120.142 30.1518 121.077 28.444 121.057C27.8884 121.051 27.272 120.979 27.0741 120.897V120.897ZM92.4241 133.559L92.4726 129.769L93.9532 129.842C98.7053 130.078 102.256 127.665 103.353 123.453C103.668 122.246 103.704 119.157 103.42 117.795C103.132 116.415 102.296 114.755 101.446 113.879C98.9926 111.352 94.5449 111.512 92.5772 114.199C92.0839 114.873 92.0191 114.827 91.8536 113.693C91.6602 112.368 91.6215 112.344 89.6391 112.344H87.8783L87.8321 124.897L87.7859 137.45L90.0808 137.4L92.3757 137.349L92.4241 133.559ZM92.6005 126.001C92.5263 125.927 92.4656 124.197 92.4656 122.156C92.4656 118.667 92.4896 118.399 92.8704 117.645C93.44 116.518 94.2392 116.032 95.5238 116.032C96.828 116.032 97.5799 116.508 98.2116 117.736C98.6304 118.55 98.672 118.826 98.672 120.794C98.672 122.808 98.6366 123.03 98.1595 124.001C97.3813 125.586 96.6437 126 94.4583 126.076C93.5107 126.109 92.6747 126.076 92.6005 126.001ZM61.1713 129.702C64.2155 129.125 66.3796 126.987 67.2129 123.735C67.6115 122.179 67.4746 118.921 66.9409 117.26C66.2698 115.172 64.5808 113.354 62.6032 112.591C61.3431 112.105 58.5548 111.932 57.1826 112.256C53.3378 113.162 51.1947 116.284 51.1947 120.979C51.1947 123.714 51.7772 125.575 53.1734 127.297C54.8096 129.315 58.0591 130.293 61.1713 129.702V129.702ZM58.2857 126.262C56.4193 125.713 55.4493 122.955 55.9103 119.51C56.2729 116.8 57.2573 115.672 59.2596 115.672C60.82 115.672 61.4819 116.063 62.1446 117.375C62.6216 118.32 62.6831 118.64 62.7504 120.529C62.8572 123.523 62.2779 125.347 61.0125 126.001C60.329 126.355 59.0255 126.479 58.2857 126.262ZM82.8413 129.308L84.4603 128.894L84.5071 120.721C84.5439 114.301 84.5053 112.516 84.3272 112.403C84.0633 112.236 81.0532 112.208 80.4577 112.367L80.0529 112.476V119.19V125.904L79.2247 126.028C78.0795 126.2 76.5525 126.015 75.863 125.62C75.5161 125.422 75.1063 124.933 74.836 124.394C74.3902 123.505 74.3857 123.449 74.3258 117.983C74.2658 112.505 74.2628 112.467 73.8761 112.363C73.359 112.225 70.4448 112.225 70.0835 112.363C69.8325 112.459 69.7989 113.127 69.7989 118.021C69.7989 124.012 69.8894 124.85 70.7117 126.487C71.6223 128.3 73.1825 129.325 75.6252 129.717C77.2663 129.979 81.0558 129.765 82.8413 129.308V129.308ZM44.0352 129.595L44.581 129.485L44.6488 124.423C44.7228 118.903 44.789 118.513 45.8376 117.41C46.5799 116.63 46.9187 116.505 48.5713 116.399L50.1003 116.302L50.2425 115.222C50.3206 114.629 50.3351 113.718 50.2746 113.198L50.1646 112.254H48.9536C47.4338 112.254 46.191 112.827 45.1533 114.006C44.7552 114.458 44.4061 114.795 44.3775 114.755C44.3489 114.715 44.2302 114.205 44.1139 113.622C43.9975 113.039 43.8614 112.521 43.8115 112.471C43.6586 112.318 41.0719 112.201 40.5793 112.325L40.1164 112.441V120.97V129.499L40.5212 129.577C41.1711 129.702 43.4408 129.713 44.0352 129.595V129.595ZM44.2744 93.5428C44.8073 93.4427 45.6769 93.2356 46.2067 93.0826L47.17 92.8044L47.0448 91.9699C46.976 91.511 46.7813 90.7669 46.6122 90.3164C46.2598 89.3779 46.3142 89.3878 44.0915 89.8538C40.9537 90.5117 38.2968 89.8264 37.4784 88.1481C37.2612 87.7029 37.031 87.0755 36.9667 86.754L36.8497 86.1693H42.4407H48.0317L48.047 85.1349C48.09 82.2406 47.8172 80.8564 46.8932 79.2798C45.8089 77.4295 43.5859 76.1262 41.2406 75.9659C35.3218 75.5613 31.5286 80.4163 32.566 87.0688C32.814 88.6595 33.7939 90.6108 34.8194 91.5561C35.7358 92.4008 37.4879 93.2929 38.6967 93.5303C39.8189 93.7507 43.1283 93.7581 44.2743 93.5428L44.2744 93.5428ZM37.0582 82.7272C37.0582 81.9471 37.5106 80.8718 38.0772 80.3052C39.1676 79.2148 41.3043 79.1091 42.5441 80.0844C43.1449 80.557 43.7049 81.7297 43.7103 82.5265L43.7143 83.1111H40.3863C37.1085 83.1111 37.0582 83.1053 37.0582 82.7272H37.0582ZM73.8915 93.2009L75.5556 92.7954V86.9828C75.5556 81.702 75.523 81.0649 75.2001 80.0194C74.0508 76.2982 69.5488 74.9903 63.5241 76.6272L62.7361 76.8413L62.841 77.7274C62.8988 78.2147 63.1029 78.9682 63.2947 79.4018L63.6435 80.1902L64.6074 79.9178C66.0275 79.5166 69.1855 79.5169 69.9229 79.9184C70.726 80.3556 71.0582 80.9068 71.0582 81.8019V82.5714H69.1172C66.9414 82.5714 65.5293 82.8668 64.1711 83.606C62.3394 84.603 61.3933 86.4166 61.5683 88.5959C61.7744 91.1641 63.2243 92.7614 65.978 93.4541C67.5635 93.8529 71.7681 93.7184 73.8915 93.2009V93.2009ZM67.0014 89.8512C65.474 89.0882 65.4541 86.6645 66.9686 85.8705C67.7578 85.4568 68.975 85.2742 70.1189 85.3978L71.0686 85.5005L71.0184 87.7688L70.9683 90.037L69.2593 90.0812C68.0152 90.1134 67.4009 90.0508 67.0014 89.8512ZM25.9064 88.328C25.9905 83.6203 26.0287 83.1344 26.3737 82.3856C27.0633 80.8891 28.2421 80.2358 30.2566 80.2338C30.8197 80.2333 31.3309 80.1511 31.3926 80.0512C31.4543 79.9513 31.5127 79.0939 31.5223 78.1459C31.542 76.2024 31.4823 76.1024 30.2998 76.098C28.9096 76.0928 27.7844 76.5719 26.6996 77.6309C26.146 78.1715 25.6689 78.6138 25.6394 78.6138C25.6099 78.6138 25.5282 78.2292 25.4577 77.7593C25.3872 77.2893 25.2579 76.7709 25.1704 76.6072C24.9672 76.2276 23.504 76.0166 22.2023 76.1792L21.2275 76.301V84.8181C21.2275 91.4619 21.277 93.3557 21.4524 93.4286C21.5761 93.4801 22.6082 93.5071 23.746 93.4886L25.8148 93.455L25.9064 88.328ZM59.6137 93.2669C59.9162 93.1432 59.9419 92.9831 59.8547 91.7626C59.7094 89.7287 59.7252 89.748 58.3116 89.8791C56.72 90.0268 55.8714 89.688 55.4562 88.7393C55.2162 88.1908 55.1437 87.2617 55.0836 83.9656L55.0091 79.873H57.0764H59.1437L59.2665 78.8906C59.334 78.3503 59.3341 77.5407 59.2665 77.0916L59.144 76.2751H57.0956H55.0473V73.7566C55.0473 71.8163 54.9938 71.2381 54.8145 71.2381C54.6865 71.2381 53.6708 71.7347 52.5573 72.3416L50.5329 73.4451L50.5913 81.4712C50.6576 90.5744 50.6624 90.6088 52.0909 92.0372C53.2523 93.1986 54.5659 93.5684 57.206 93.477C58.3438 93.4376 59.4271 93.3431 59.6134 93.2669H59.6137ZM83.6058 93.4316L84.0106 93.3231V84.7952V76.2672L80.6376 76.3161L77.2645 76.3651V78.0741V79.7831L78.3889 79.8366L79.5132 79.8902V86.6144C79.5132 92.8672 79.5353 93.3445 79.828 93.421C80.3082 93.5464 83.1475 93.5544 83.6058 93.4316V93.4316ZM94.8492 93.4295L95.5238 93.318L95.5025 92.1272C95.4908 91.4723 95.4299 90.6969 95.3671 90.404C95.2561 89.8862 95.2224 89.8711 94.148 89.8571C93.463 89.8481 92.9228 89.7429 92.7265 89.5801C91.9486 88.9349 91.9259 88.6278 91.9259 78.7287C91.9259 70.2949 91.8958 69.2862 91.6414 69.1886C91.2713 69.0465 87.9033 69.0465 87.5332 69.1886C87.2788 69.2862 87.2488 70.2898 87.2497 78.678C87.2497 83.946 87.328 88.5302 87.4271 89.1349C87.7722 91.2426 88.8308 92.5574 90.7035 93.2042C91.6713 93.5385 93.5668 93.6415 94.8492 93.4295V93.4295ZM82.4365 73.4595L83.6508 73.3448V71.1481V68.9515L82.4384 68.8383C81.7716 68.776 80.6876 68.7751 80.0295 68.8363L78.8329 68.9475L78.7253 69.5981C78.5866 70.4366 78.5878 71.8664 78.7278 72.7133C78.8342 73.3563 78.8662 73.3812 79.6703 73.4454C80.1281 73.482 80.6646 73.5259 80.8625 73.543C81.0604 73.5601 81.7687 73.5226 82.4366 73.4595L82.4365 73.4595ZM73.1278 57.3747C73.8847 57.2695 74.9631 57.0415 75.5244 56.8682L76.545 56.5531L76.5005 55.8342C76.437 54.8054 75.8342 53.1532 75.5341 53.1851C75.3975 53.1996 74.8032 53.3412 74.2135 53.4999C72.8107 53.8773 69.9332 53.8832 68.8778 53.5109C67.7895 53.1269 66.9652 52.2723 66.6459 51.1971C66.5002 50.7065 66.381 50.2388 66.381 50.1578C66.381 50.0768 68.8905 50.0106 71.9577 50.0106H77.5344V48.1595C77.5344 45.131 76.8285 43.1901 75.1591 41.6286C74.6782 41.1788 73.8219 40.5939 73.2562 40.3287C72.3121 39.8862 72.0422 39.8466 69.9751 39.8466C67.7744 39.8466 67.6938 39.8607 66.473 40.4617C63.5487 41.9013 61.8961 44.8603 61.8867 48.6733C61.8709 55.0953 66.0817 58.3548 73.1278 57.3747V57.3747ZM66.5851 46.034C67.0191 44.1024 68.1307 43.1746 70.0109 43.1746C71.3307 43.1746 72.3 43.8135 72.8769 45.0635C73.0596 45.4593 73.2108 46.0057 73.213 46.2778L73.2169 46.7725H69.8181H66.4192L66.5851 46.034V46.034ZM146.673 57.0509C147.448 56.8629 148.169 56.6228 148.274 56.5173C148.496 56.296 148.239 54.7619 147.808 53.7314L147.545 53.1015L146.237 53.4449C144.391 53.9295 141.603 53.9145 140.497 53.414C139.096 52.7797 138.631 52.1747 138.261 50.5053L138.152 50.0106H143.732H149.312L149.347 49.0661C149.474 45.5943 148.787 43.4041 147.034 41.6994C145.705 40.4077 144.381 39.8774 142.261 39.7886C140.859 39.7299 140.276 39.7888 139.286 40.0894C135.974 41.0954 133.963 43.9986 133.721 48.1217C133.552 50.9963 134.342 53.5149 135.924 55.1423C136.856 56.1017 138.852 57.1155 140.317 57.3745C141.717 57.6218 145.011 57.4541 146.673 57.0509V57.0509ZM138.339 46.317C138.339 45.7586 138.784 44.6584 139.2 44.1902C139.695 43.6329 140.876 43.1826 141.847 43.1815C143.524 43.1797 144.707 44.2751 144.945 46.0516L145.042 46.7725H141.69H138.339V46.317ZM24.9603 57.2697L25.9048 57.1562V48.6363V40.1164H22.5112H19.1177L19.0094 40.9062C18.9499 41.3406 18.9502 42.1097 19.0094 42.6152L19.1183 43.5344H20.2625H21.4068V50.3595V57.1846L22.0814 57.2552C23.2891 57.3815 23.9988 57.3851 24.9597 57.2697H24.9603ZM32.1747 57.2708L33.2804 57.1552L33.2822 51.9189C33.2822 48.6536 33.358 46.4133 33.4819 45.9671C33.7834 44.8812 34.8078 43.9572 35.8903 43.7948C37.1216 43.6102 38.0998 43.9735 38.5796 44.7937C38.927 45.3876 38.951 45.7567 39.0019 51.2925L39.0559 57.1617L40.2968 57.284C40.9794 57.3513 42.033 57.3503 42.6383 57.2818L43.7387 57.1573L43.679 50.5708C43.6222 44.3108 43.6 43.9369 43.2307 43.0291C42.68 41.6758 42.1027 40.9949 40.9933 40.3904C40.1901 39.9528 39.7653 39.8515 38.473 39.7893C36.3254 39.6861 35.3403 40.0305 33.9687 41.3644C32.8462 42.456 32.8665 42.4605 32.6507 41.0713C32.5862 40.6565 32.4266 40.2283 32.2959 40.1199C32.15 39.9988 31.4083 39.9427 30.3761 39.9746L28.6938 40.0265L28.6471 48.6054L28.6004 57.1844L29.2768 57.2551C30.5134 57.3843 31.0601 57.3872 32.1754 57.2707L32.1747 57.2708ZM55.431 57.0484C55.4935 56.9869 56.9698 53.1765 58.7119 48.5808C61.0521 42.4068 61.821 40.188 61.6565 40.0835C61.375 39.9047 57.3614 39.8966 57.1075 40.0743C57.0037 40.147 56.1132 43.0192 55.1287 46.4569C54.1442 49.8947 53.2959 52.7078 53.2436 52.7083C53.1914 52.7088 52.3901 50.0984 51.463 46.9075C50.5358 43.7166 49.672 40.8428 49.5433 40.5213L49.3094 39.9366L47.0965 39.9393C45.8794 39.9408 44.7779 40.0091 44.6487 40.0911C44.4678 40.2058 45.1434 42.186 47.591 48.7145L50.7682 57.189L51.6936 57.2512C52.8535 57.3292 55.2795 57.1976 55.431 57.0484V57.0484ZM83.2646 57.2708L84.3704 57.1552L84.3722 51.9189C84.3722 48.6536 84.4479 46.4133 84.5718 45.9671C84.8733 44.8812 85.8977 43.9572 86.9802 43.7948C88.2977 43.5973 89.2212 43.97 89.678 44.8837C90.0117 45.5511 90.0416 46.0226 90.0898 51.3846L90.1418 57.166L91.3041 57.2905C91.9434 57.359 92.9987 57.358 93.6492 57.2883L94.832 57.1616L94.7685 50.5729C94.7083 44.3292 94.6848 43.9342 94.3185 43.0291C93.7716 41.6776 93.1938 40.9955 92.0833 40.3904C91.28 39.9528 90.8552 39.8515 89.563 39.7893C87.4154 39.6861 86.4303 40.0305 85.0586 41.3644C83.9361 42.456 83.9564 42.4605 83.7406 41.0713C83.6762 40.6565 83.5165 40.2283 83.3858 40.1198C83.24 39.9988 82.4983 39.9427 81.466 39.9746L79.7838 40.0265L79.7371 48.6054L79.6904 57.1844L80.3667 57.2551C81.6033 57.3843 82.15 57.3872 83.2653 57.2707L83.2646 57.2708ZM104.957 57.1988C105.644 57.0995 106.243 56.9812 106.288 56.9359C106.421 56.8026 106.335 54.6457 106.173 54.063L106.024 53.5281L104.568 53.5833C102.833 53.649 102.449 53.4832 101.989 52.4697C101.687 51.8052 101.648 51.2533 101.644 47.633L101.64 43.5462L103.664 43.4953L105.688 43.4444V41.8254V40.2063L103.664 40.1555L101.64 40.1046V37.592C101.64 35.218 101.621 35.0794 101.288 35.0794C101.095 35.0794 100.081 35.5448 99.036 36.1138L97.1357 37.1481L97.1843 45.3333L97.2328 53.5185L97.7058 54.5272C98.7481 56.7501 101.372 57.7168 104.957 57.1987V57.1988ZM113.648 57.2698L114.593 57.1563V48.6324V40.1085L111.22 40.1575L107.847 40.2064V41.8255V43.4445L108.971 43.4981L110.095 43.5516V50.3682V57.1847L110.77 57.2553C111.978 57.3816 112.687 57.3852 113.648 57.2698V57.2698ZM127.474 57.1369C127.485 57.1257 128.932 53.323 130.691 48.6866C133.25 41.9389 133.839 40.2253 133.64 40.0994C133.318 39.8958 129.51 39.894 129.189 40.0973C129.054 40.1827 128.143 43.0285 127.164 46.4215C126.186 49.8144 125.347 52.6287 125.3 52.6755C125.185 52.7905 125.257 53.0212 123.302 46.3228C122.349 43.0578 121.487 40.2851 121.387 40.1615C121.185 39.9126 117.007 39.8364 116.633 40.0747C116.487 40.1672 117.383 42.7579 119.601 48.6619L122.778 57.1164L123.767 57.2133C124.546 57.2896 127.386 57.231 127.474 57.1368V57.1369ZM25.2604 37.1289C25.4969 37.0382 25.545 36.6727 25.545 34.9657V32.9117L25.0503 32.7223C24.4893 32.5076 20.9759 32.5716 20.7474 32.8007C20.6651 32.8832 20.5979 33.8373 20.5979 34.921C20.5979 36.4768 20.6547 36.9273 20.8677 37.062C21.1635 37.249 24.8031 37.3044 25.2604 37.1289V37.1289ZM114.048 37.0653C114.254 36.9347 114.312 36.4645 114.312 34.919C114.312 33.8304 114.247 32.8748 114.167 32.7953C113.976 32.6035 109.628 32.6084 109.436 32.8007C109.353 32.8832 109.286 33.8373 109.286 34.921C109.286 36.4768 109.343 36.9273 109.556 37.062C109.904 37.2821 113.7 37.2849 114.048 37.0653V37.0653Z" fill="#191C2E"></path> </svg> 