<?xml version="1.0" encoding="UTF-8"?> <svg xmlns="http://www.w3.org/2000/svg" width="145" height="29" viewBox="0 0 145 29" fill="none"> <g clip-path="url(#clip0)"> <path d="M65.7596 25.3913H70.9696V14.598C70.9696 8.89921 67.3389 5.86205 62.9755 5.86205C60.0775 5.86205 57.8958 7.11937 56.3165 8.86655H55.6164C54.4279 7.31531 52.3765 5.86205 49.3156 5.86205C46.5478 5.86205 44.3336 7.08671 43.1776 8.50732H42.4775V6.4009H37.6095V25.375H42.7869V15.4634C42.7869 12.0833 43.78 10.924 47.2479 10.924C50.7158 10.924 51.6764 12.0833 51.6764 15.4634V25.3913H56.8864V15.4634C56.8864 12.0833 57.847 10.924 61.3148 10.924C64.7827 10.924 65.7433 12.0833 65.7433 15.4634L65.7596 25.3913ZM16.8673 22.6644C15.9393 21.9949 15.5159 20.9825 15.5159 19.4803C15.5159 17.5861 16.1021 15.2185 17.0627 14.2224C17.7302 13.5529 18.7071 13.2264 20.0258 13.2264C21.8819 13.2264 24.1775 13.7162 25.1381 14.7123C25.7731 15.3491 26.0661 16.2635 26.0661 17.5208C26.0661 19.3333 25.5451 21.8643 24.4217 22.942C23.7868 23.5298 22.9076 23.7748 21.6865 23.7748C20.0095 23.7584 17.9256 23.3666 16.8673 22.6644ZM25.0567 26.665L24.8288 28.4122L29.6806 29.0163L31.9762 10.2055L27.1244 9.61768L26.9128 11.4302H26.3592C25.6265 10.1402 23.6891 8.39302 20.0258 8.39302C14.9135 8.39302 11.1526 12.165 10.4851 17.3249C10.4199 17.8474 10.3874 18.3536 10.3874 18.8435C10.3874 23.7748 13.725 27.8407 18.935 28.4122C19.2281 28.4448 19.5211 28.4448 19.7979 28.4448C21.9796 28.4448 23.624 27.5141 24.4543 26.665H25.0567ZM134.743 21.0968C130.852 21.0968 129.565 19.8069 129.565 15.9043C129.565 12.0017 130.852 10.6791 134.743 10.6791C138.634 10.6791 139.92 12.0017 139.92 15.9043C139.92 19.8069 138.634 21.0968 134.743 21.0968ZM109.816 21.0968C105.925 21.0968 104.639 19.8069 104.639 15.9043C104.639 12.0017 105.925 10.6791 109.816 10.6791C113.708 10.6791 114.994 12.0017 114.994 15.9043C114.994 19.8069 113.708 21.0968 109.816 21.0968ZM85.5249 21.0968C81.6337 21.0968 80.3475 19.8069 80.3475 15.9043C80.3475 12.0017 81.6337 10.6791 85.5249 10.6791C89.4161 10.6791 90.7023 12.0017 90.7023 15.9043C90.7023 19.8069 89.4161 21.0968 85.5249 21.0968ZM3.15854 0L0 25.3423L5.16113 25.9792L8.27083 0.636824L3.15854 0ZM140.148 23.5462V25.375H145V6.4009H140.148V8.22973H139.448C138.683 7.20101 136.713 5.84572 134.075 5.84572C128.296 5.84572 124.339 10.2545 124.339 15.9043C124.339 21.5377 128.296 25.9302 134.075 25.9302C136.713 25.9302 138.667 24.5749 139.448 23.5462H140.148ZM85.5249 5.86205C79.0939 5.86205 75.1213 10.2708 75.1213 15.9206C75.1213 21.5541 79.1102 25.9465 85.5249 25.9465C91.956 25.9465 95.9286 21.5704 95.9286 15.9206C95.9286 10.2708 91.956 5.86205 85.5249 5.86205ZM115.271 23.5462V25.375H120.122V0.212275H114.978V8.22973H114.277C113.512 7.20101 111.77 5.84572 109.133 5.84572C103.353 5.84572 99.3965 10.2545 99.3965 15.9043C99.3965 21.5377 103.353 25.9302 109.133 25.9302C111.77 25.9302 113.822 24.5749 114.571 23.5462H115.271Z" fill="black"></path> </g> <defs> <clipPath id="clip0"> <rect width="145" height="29" fill="white"></rect> </clipPath> </defs> </svg> 