<?xml version="1.0" encoding="UTF-8"?> <svg xmlns="http://www.w3.org/2000/svg" width="177" height="35" viewBox="0 0 177 35" fill="none"> <g clip-path="url(#clip0)"> <path d="M0 18C0 9.19796 7.18599 2.0625 15.988 2.0625V2.0625C24.7901 2.0625 31.976 9.19796 31.976 18V18C31.976 26.802 24.7901 33.9375 15.988 33.9375V33.9375C7.18599 33.9375 0 26.802 0 18V18Z" fill="#FC3F1D"></path> <mask id="mask0" mask-type="alpha" maskUnits="userSpaceOnUse" x="0" y="2" width="32" height="32"> <path d="M0 18C0 9.19796 7.18599 2.0625 15.988 2.0625V2.0625C24.7901 2.0625 31.976 9.19796 31.976 18V18C31.976 26.802 24.7901 33.9375 15.988 33.9375V33.9375C7.18599 33.9375 0 26.802 0 18V18Z" fill="#FC3F1D"></path> </mask> <g mask="url(#mask0)"> <path d="M18.3456 10.9875H16.7276C13.9532 10.9875 12.5665 12.3709 12.5665 14.4449C12.5665 16.7484 13.4917 17.9012 15.5722 19.2835L17.1902 20.4352L12.5665 27.5784H8.86792L13.2593 21.1269C10.7172 19.2835 9.33051 17.6706 9.33051 14.6754C9.33051 10.9886 11.8737 8.45343 16.7276 8.45343H21.5816V27.5784H18.3456V10.9886V10.9875Z" fill="white"></path> </g> <path d="M34.1077 18C34.1077 9.19796 41.2937 2.0625 50.0957 2.0625V2.0625C58.8977 2.0625 66.0837 9.19796 66.0837 18V18C66.0837 26.802 58.8977 33.9375 50.0957 33.9375V33.9375C41.2937 33.9375 34.1077 26.802 34.1077 18V18Z" fill="url(#paint0_linear)"></path> <mask id="mask1" mask-type="alpha" maskUnits="userSpaceOnUse" x="34" y="2" width="33" height="32"> <path d="M34.1077 18C34.1077 9.19796 41.2937 2.0625 50.0957 2.0625V2.0625C58.8977 2.0625 66.0837 9.19796 66.0837 18V18C66.0837 26.802 58.8977 33.9375 50.0957 33.9375V33.9375C41.2937 33.9375 34.1077 26.802 34.1077 18V18Z" fill="url(#paint1_linear)"></path> </mask> <g mask="url(#mask1)"> <path d="M34.1077 29.6684L41.7403 20.5872L39.8708 27.6996L45.6627 29.7906L54.2686 17.5623L52.383 24.5557L57.075 27.2618L66.0837 18.2742V10.8792L59.6949 17.2595L61.1125 9.22909L55.2065 7.07965L46.7116 19.1603L47.5579 13.6778L42.9299 11.0173L34.1077 21.5042V29.6684Z" fill="black"></path> </g> <path d="M83.0918 29.6875H86.5558L91.4759 11.5581V29.6875H95.4249V5.68884H89.9858L85.102 23.3688L80.2864 5.68884H74.7439V29.6875H78.1739V11.5581L83.0918 29.6875ZM111.922 17.8428C111.922 13.63 109.775 12.0415 105.41 12.0415C102.674 12.0415 100.526 12.9053 99.2791 13.63V17.0491C100.388 16.2203 102.812 15.3225 104.925 15.3225C106.9 15.3225 107.801 16.0132 107.801 17.8778V18.8447H107.142C100.837 18.8447 98.0321 20.9166 98.0321 24.4388C98.0321 27.961 100.18 29.9298 103.367 29.9298C105.792 29.9298 106.831 29.135 107.627 28.3063H107.801C107.835 28.7547 107.973 29.3422 108.112 29.6875H112.13C111.992 28.2761 111.923 26.8588 111.922 25.4407V17.8438V17.8428ZM107.801 25.5438C107.281 26.3035 106.311 26.925 104.856 26.925C103.124 26.925 102.258 25.8891 102.258 24.3347C102.258 22.2978 103.678 21.5722 107.211 21.5722H107.801V25.5438ZM119.048 12.3178H115.237V34.694H119.359V27.6497C120.398 29.2041 121.922 30.0328 123.69 30.0328C127.708 30.0328 130.479 26.8209 130.479 20.9857C130.479 15.1844 127.777 11.9735 123.897 11.9735C121.958 11.9735 120.364 12.8713 119.256 14.5628L119.048 12.3178V12.3178ZM122.65 26.7869C120.468 26.7869 119.359 25.0263 119.359 21.0207C119.359 16.98 120.537 15.2195 122.858 15.2195C125.109 15.2195 126.218 16.98 126.218 20.9857C126.218 25.0263 125.04 26.7869 122.65 26.7869V26.7869ZM143.453 29.6875H148.129L141.513 20.329L147.333 12.3178H143.176L137.356 20.329V12.3178H133.233V29.6875H137.356V21.1588L143.453 29.6875ZM161.997 28.5135V25.1645C160.715 26.0272 158.567 26.7869 156.558 26.7869C153.545 26.7869 152.401 25.3717 152.228 22.47H162.17V20.295C162.17 14.2515 159.503 11.9735 155.38 11.9735C150.358 11.9735 147.967 15.806 147.967 21.0547C147.967 27.0982 150.946 30.0328 156.211 30.0328C158.844 30.0328 160.784 29.3422 161.997 28.5135V28.5135ZM155.311 15.2195C157.355 15.2195 157.979 16.911 157.979 19.087V19.4323H152.228C152.332 16.6698 153.337 15.2195 155.311 15.2195ZM176.835 15.5648V12.3178H163.013V15.5648H167.862V29.6875H171.985V15.5637H176.835V15.5648Z" fill="black"></path> </g> <defs> <linearGradient id="paint0_linear" x1="50.0957" y1="-5.52269" x2="50.0957" y2="36.9635" gradientUnits="userSpaceOnUse"> <stop stop-color="#FFE55B"></stop> <stop offset="1" stop-color="#FFCC00"></stop> </linearGradient> <linearGradient id="paint1_linear" x1="50.0957" y1="-5.52269" x2="50.0957" y2="36.9635" gradientUnits="userSpaceOnUse"> <stop stop-color="#FFE55B"></stop> <stop offset="1" stop-color="#FFCC00"></stop> </linearGradient> <clipPath id="clip0"> <rect width="177" height="35" fill="white"></rect> </clipPath> </defs> </svg> 