<?xml version="1.0" encoding="UTF-8"?> <svg xmlns="http://www.w3.org/2000/svg" width="151" height="100" viewBox="0 0 151 100" fill="none"> <path d="M139.782 9.66003C136.731 6.59342 133.103 4.16104 129.107 2.5031C125.112 0.845163 120.828 -0.00554207 116.502 2.71686e-05H32.7917C26.2881 0.0410813 19.9416 2.00298 14.5493 5.63931C9.15712 9.27564 4.95962 14.4242 2.48407 20.4384C0.00851035 26.4526 -0.634711 33.0643 0.635192 39.4428C1.90509 45.8214 5.03149 51.6825 9.62171 56.29C12.6624 59.3455 16.2757 61.7713 20.2549 63.4289C24.2341 65.0865 28.5011 65.9432 32.8117 65.95H116.472C122.986 65.9345 129.351 63.991 134.763 60.3644C140.175 56.7379 144.392 51.5907 146.884 45.5712C149.376 39.5518 150.03 32.9296 148.764 26.539C147.498 20.1484 144.37 14.2754 139.772 9.66003H139.782ZM136.222 52.73C133.631 55.3275 130.553 57.3874 127.163 58.7912C123.774 60.195 120.14 60.9151 116.472 60.91H32.8117C25.3976 60.91 18.2871 57.9648 13.0445 52.7222C7.80196 47.4796 4.85671 40.3692 4.85671 32.955C4.85671 25.5409 7.80196 18.4304 13.0445 13.1879C18.2871 7.94528 25.3976 5.00003 32.8117 5.00003H116.502C122.025 5.00657 127.423 6.6502 132.013 9.72323C136.603 12.7963 140.179 17.1608 142.289 22.2654C144.399 27.37 144.949 32.9855 143.869 38.4025C142.789 43.8196 140.128 48.7949 136.222 52.7V52.73Z" fill="#ED1225"></path> <path d="M54.7616 43.34C54.7616 43.7356 54.6443 44.1223 54.4246 44.4512C54.2048 44.7801 53.8924 45.0364 53.527 45.1878C53.1615 45.3391 52.7594 45.3788 52.3714 45.3016C51.9835 45.2244 51.6271 45.0339 51.3474 44.7542C51.0677 44.4745 50.8772 44.1182 50.8 43.7302C50.7229 43.3422 50.7625 42.9401 50.9139 42.5746C51.0652 42.2092 51.3216 41.8968 51.6505 41.6771C51.9794 41.4573 52.366 41.34 52.7616 41.34C53.292 41.34 53.8008 41.5507 54.1758 41.9258C54.5509 42.3009 54.7616 42.8096 54.7616 43.34ZM78.5016 19.34C80.3016 20.34 73.7516 30.47 63.4216 35.84C62.6716 39.04 63.4916 41.18 64.2016 41.08C66.3616 40.43 65.4616 35.08 65.4616 35.08L69.6516 33.08C71.2016 37.93 68.6516 45.08 63.8016 45.27C57.6016 45.09 57.9616 38 57.9616 38L54.2816 39.13L55.2816 36.33L58.1616 35.58C62.3616 21.4 75.4716 17.69 78.4216 19.33L78.5016 19.34ZM64.4216 33.05C66.8516 32.56 76.3616 22.43 74.4216 22.61C70.4816 23.61 63.6716 32.61 64.4216 33.05ZM72.1116 32.32V34.32C72.1116 34.32 74.7716 32.59 74.9716 32.91C75.0416 33.82 71.6816 41.5 71.6116 42.66C71.5516 43.22 71.8516 45.28 73.6116 45.28C74.3101 45.2675 74.9955 45.0893 75.6116 44.76C77.5463 43.5993 79.3414 42.2202 80.9616 40.65C80.5923 41.6285 80.4654 42.6818 80.5916 43.72C80.8716 45.08 82.3116 45.64 83.8516 45.08C85.4561 44.4437 86.9104 43.4798 88.1216 42.25C88.0116 41.96 87.5816 40.59 87.5816 40.59C87.5816 40.59 86.2116 41.88 85.8716 41.72C85.5316 41.56 89.8716 28.72 89.8716 28.72H85.0316C84.3116 31.97 80.1816 40.45 77.3816 40.82C76.3816 40.75 80.7616 31.07 80.9216 29.98C81.2416 28.55 80.1816 27.89 78.9216 28.18C77.5816 28.64 72.1316 32.28 72.1316 32.28L72.1116 32.32ZM101.342 28.72H105.892L98.5016 51.91H93.9016C93.9016 51.91 96.4916 43.01 97.0316 42.31C93.3716 46.94 90.1116 45.1 89.5416 41.31C89.1991 39.103 89.4977 36.8441 90.4018 34.8019C91.3059 32.7597 92.7775 31.0201 94.6416 29.79C98.4116 27.44 100.242 29.22 100.772 30.13C100.872 29.91 101.332 28.8 101.332 28.8L101.342 28.72ZM99.4316 33.2C99.4316 31.26 98.1116 31.28 97.0316 32.51C96.6216 32.98 94.4016 36.35 94.4716 39.04C94.6216 41.32 95.6316 40.72 96.2816 40.36C97.8016 39.36 99.2816 35.43 99.4316 33.2ZM30.6616 45.29C34.7516 45.29 39.7216 33.47 41.8916 29.01C42.3116 28.14 42.5516 27.5 42.7816 27.48C43.5516 28.3 36.4016 41 40.3716 44.48C40.7601 44.8585 41.2439 45.1246 41.7716 45.25C45.5916 46.02 48.2816 41.18 50.5716 38.62L49.4216 37.47C48.6516 38.36 47.7616 40.54 47.1216 39.39C45.8516 37.39 53.5916 15.89 53.5916 15.89H46.3116C45.5516 17.17 37.4316 35.56 35.8916 35.82C35.6416 35.94 35.5116 35.69 35.5116 35.43C36.4016 28.54 38.2316 22.53 40.4016 15.89H33.1216C28.9116 27.63 28.8716 27.78 25.0416 35.56C23.1316 39.14 20.3116 41.43 22.3516 35.82H15.7216C14.4416 39.26 13.9016 44.95 18.0116 45.33H18.2516C22.7916 45.33 27.7216 33.76 28.2516 33.26C27.8716 37.26 26.0616 41.95 28.3816 44.36C28.9874 44.9821 29.8135 45.3413 30.6816 45.36L30.6616 45.29ZM110.352 41.21C111.982 43.58 116.612 39.13 116.612 39.13L117.682 40.78C117.682 40.78 114.052 45.46 109.832 45.37C109.099 45.3839 108.371 45.2453 107.694 44.9629C107.018 44.6806 106.407 44.2608 105.902 43.73C105.492 44.01 103.972 44.92 103.972 44.92L103.172 42.75C103.172 42.75 104.322 42.13 104.862 41.8C103.622 30.89 114.532 26.91 118.512 29.14C121.212 30.77 119.112 36.61 110.352 41.21V41.21ZM110.062 39.21C114.772 35.47 116.782 31.96 115.792 31.27C114.802 30.58 112.792 32.27 111.512 34.53C110.232 36.79 109.872 38.88 110.062 39.2V39.21ZM119.802 42.57C120.137 43.3653 120.69 44.0494 121.398 44.5432C122.106 45.0369 122.939 45.3201 123.802 45.36C125.227 45.2976 126.609 44.852 127.802 44.07C133.722 40.84 135.182 32.76 135.072 31.24C135.072 27.98 132.762 28.44 132.382 28.56C129.212 29.62 126.442 33.56 126.442 33.56L127.812 34.93C127.812 34.93 129.112 32.45 130.372 32.45C131.632 32.45 129.632 37.29 129.312 38C127.662 41.63 124.672 43.19 123.862 40C122.862 34.73 130.032 29 130.032 29H125.152C125.152 29 116.962 35.38 119.832 42.52" fill="#ED1225"></path> <path fill-rule="evenodd" clip-rule="evenodd" d="M18.5625 83.75C18.975 81.575 18.3375 80.1125 15.7125 80.1125H7.6875L6.975 83.825H13.8C14.2125 83.825 14.3625 84.05 14.2875 84.5375L13.3875 89.1125H9.1875L9.825 85.9625L0 90.65H7.3125L6.675 93.8L13.0875 90.725L12.2625 95.1875C12.1875 95.675 11.925 95.825 11.4375 95.825H4.6125L3.9 99.65H11.925C14.5125 99.65 15.75 98.1125 16.125 96.0125L18.5625 83.75ZM31.8 99.65H27.5625L30.6375 83.825H27.075C26.6625 83.825 26.4375 84.05 26.3625 84.5375L22.2375 99.6125H17.85L22.3875 83.6375C22.8 81.5375 24.075 80 26.7 80H35.625L31.8 99.65ZM45.975 90.575L45.075 95.375C45 95.8625 44.6625 96.0875 44.25 96.0875H40.6875L41.8875 89.8625H45.45C45.975 89.9 46.125 90.0875 45.975 90.575ZM50.2875 90.0875C50.7 87.9125 50.0625 86.375 47.4375 86.375H42.6375L43.875 80.1125H39.675L35.85 99.725H44.85C47.5125 99.725 48.675 98.1875 49.1625 96.0875L50.2875 90.0875ZM64.125 83.825L61.7625 95.825H57.3L60.375 84.5375C60.45 84.05 60.7125 83.825 61.0875 83.825H64.125ZM66 95.825V95.75H67.2L66.4875 99.575H65.2875H51.9H50.3625L51.1875 95.75H52.9875L56.4 83.675C56.8125 81.575 58.0875 80.0375 60.7125 80.0375H69.15L66 95.825ZM80.5875 84.575L78.5625 95.1875C78.4125 95.675 78.15 95.825 77.7375 95.825H74.7375C74.325 95.825 74.175 95.675 74.25 95.1875L76.35 84.575C76.425 84.0875 76.575 83.8625 77.0625 83.8625H80.0625C80.5125 83.825 80.6625 84.0875 80.5875 84.575ZM84.9 83.75C85.3125 81.575 84.675 80.1125 82.05 80.1125H76.6875C74.1 80.1125 72.7875 81.65 72.3 83.75L69.9375 95.975C69.525 98.15 70.1625 99.6125 72.7875 99.6125H78.225C80.8875 99.6125 82.125 98.075 82.5375 95.975L84.9 83.75ZM96.825 84.575L95.85 89.45C95.775 90.0125 95.5125 90.1625 95.025 90.1625H91.4625L92.775 83.825H96.3375C96.75 83.825 96.9 84.0875 96.825 84.575ZM101.1 83.75C101.587 81.575 100.875 80.1125 98.25 80.1125H89.325L85.5 99.725H89.55L90.675 94.0625H95.55C98.1375 94.0625 99.1875 92.525 99.675 90.35L101.1 83.75ZM109.687 85.2125L109.05 92.825H106.125L109.462 85.2125H109.687ZM113.175 99.65H108.375L108.712 96.0125H104.662L103.125 99.65H98.5875L108 80.0375H113.662L113.175 99.65ZM128.662 83.825L126.3 95.825H121.837L124.912 84.5375C124.987 84.05 125.25 83.825 125.625 83.825H128.662ZM130.537 95.825L133.612 80H125.175C122.587 80 121.275 81.5375 120.862 83.6375L117.45 95.7125H115.65L114.825 99.5375H116.287H129.75H131.062L131.775 95.7125H130.575V95.825H130.537ZM145.612 84.575L143.512 95.1875C143.437 95.675 143.175 95.825 142.8 95.825H139.8C139.387 95.825 139.237 95.675 139.312 95.1875L141.337 84.575C141.487 84.0875 141.75 83.8625 142.05 83.8625H145.05C145.462 83.825 145.725 84.0875 145.612 84.575ZM147 80.1125H141.562C138.975 80.1125 137.737 81.65 137.362 83.75L135 95.975C134.587 98.15 135.225 99.6125 137.85 99.6125H143.287C145.875 99.6125 147.112 98.075 147.487 95.975L149.925 83.75C150.262 81.575 149.587 80.1125 147 80.1125Z" fill="#ED1225"></path> </svg> 