<?xml version="1.0" encoding="UTF-8"?> <svg xmlns="http://www.w3.org/2000/svg" width="120" height="26" viewBox="0 0 120 26" fill="none"> <g clip-path="url(#clip0)"> <path fill-rule="evenodd" clip-rule="evenodd" d="M14.4302 0.0737137C7.21529 -0.687382 0.744214 4.49298 0.000412539 11.6375C-0.743389 18.7819 4.46322 25.1653 11.6781 25.9264C18.893 26.6875 25.3393 21.5071 26.1079 14.3627C26.207 13.4788 26.207 12.5704 26.1079 11.6866C25.488 5.54869 20.6037 0.712052 14.4302 0.0737137ZM14.0087 19.8867C10.1657 20.4023 6.64504 17.7262 6.12438 13.9207C5.60372 10.1153 8.3062 6.65351 12.1492 6.13793C15.9921 5.62235 19.5128 8.29846 20.0335 12.0794C20.1079 12.6932 20.1079 13.307 20.0335 13.8962C19.612 17.0142 17.1326 19.4694 14.0087 19.8867ZM33.1244 0.589294C31.4384 0.589294 30.0748 1.96418 30.0748 3.63368C30.0748 3.83009 30.0996 4.05105 30.1492 4.24746C30.4467 5.67145 31.7855 6.65351 33.2483 6.65351H41.7773L28.5128 24.0359C28.2153 24.4288 28.2897 24.9689 28.6864 25.239C28.8351 25.3617 29.0335 25.4108 29.207 25.4108H50.0087C51.4715 25.4108 52.8351 24.4288 53.1078 23.0048C53.455 21.3598 52.3888 19.764 50.7525 19.4203C50.5541 19.3712 50.331 19.3466 50.1326 19.3466H39.7442L53.0087 1.98873C53.3062 1.5959 53.2318 1.05577 52.8351 0.761155C52.6864 0.638397 52.488 0.589294 52.3145 0.589294H33.1244ZM116.281 0.662949C114.868 1.00667 113.876 2.25879 113.901 3.70733V13.798L97.364 0.785706C96.9921 0.491089 96.4219 0.540192 96.1244 0.933015C96.0004 1.08032 95.926 1.27674 95.926 1.47315V22.3173C95.9012 23.7659 96.893 25.018 98.3062 25.3617C99.9674 25.73 101.579 24.6988 101.951 23.0539C102 22.8329 102.025 22.612 102.025 22.391V12.2021L118.562 25.2144C118.934 25.509 119.505 25.4599 119.802 25.0671C119.926 24.9198 120 24.7234 120 24.527V3.60913C120 1.93963 118.637 0.589294 116.951 0.564743C116.703 0.589294 116.505 0.613846 116.281 0.662949ZM73.2401 6.06427C80.2318 6.06427 85.4632 9.72244 85.4632 12.9878C85.4632 16.2531 80.2318 19.9113 73.2401 19.9113C66.2483 19.9113 61.0417 16.2777 61.0417 13.0123C61.0417 9.74699 66.2483 6.06427 73.2401 6.06427ZM73.2401 5.92674e-05C63.1244 5.92674e-05 54.9178 5.81876 54.9178 12.9878C54.9178 20.1568 63.1244 25.9755 73.2401 25.9755C83.3558 25.9755 91.5624 20.1568 91.5624 12.9878C91.5624 5.81876 83.3558 5.92674e-05 73.2401 5.92674e-05Z" fill="#0069FF"></path> </g> <defs> <clipPath id="clip0"> <rect width="120" height="26" fill="white"></rect> </clipPath> </defs> </svg> 