<?xml version="1.0" encoding="UTF-8"?> <svg xmlns="http://www.w3.org/2000/svg" width="200" height="32" viewBox="0 0 200 32" fill="none"> <path d="M0 31.291V0.761108H12.8558C17.1926 0.807382 21.3746 1.03493 24.2788 4.91865C25.092 6.01396 26.2149 8.02718 26.2149 11.4057C26.2149 15.6558 24.3562 18.2128 23.0784 19.4045C20.7938 21.6839 17.7348 21.9153 14.7144 22.0541H9.09971V31.291H0ZM12.5847 14.9731C14.0949 14.9346 15.7986 14.8536 16.8829 13.7544C17.1926 13.4305 17.696 12.7787 17.696 11.7181C17.6573 10.6652 17.1926 10.0095 16.9216 9.68557C15.605 8.26244 13.4753 8.42441 11.7328 8.42441H9.21587V14.9731H12.5847Z" fill="#191C2E"></path> <path d="M40.9681 31.3256L40.6196 29.2931C39.4579 30.1995 37.3282 31.9736 33.4947 31.9736C32.8364 31.9736 29.971 31.8848 27.9961 30.2457C27.1442 29.5091 25.6728 27.735 25.6728 24.8C25.6728 24.1058 25.8664 22.9257 26.9894 21.4563C28.577 19.3389 30.4744 18.7643 32.9139 18.1973L37.0184 17.6882C37.4831 17.5571 37.9865 17.4298 38.5286 17.345C38.6447 17.2987 39.303 17.21 39.6515 16.9516C40 16.6932 40.2711 15.6982 40.2711 15.2199C40.2711 14.356 39.1481 13.6502 37.4056 13.6502C35.8567 13.6502 35.121 14.2095 34.7338 14.7725C34.5402 15.0734 34.4627 15.3318 34.424 16.026L26.6409 15.9797C26.9894 14.2095 27.3379 12.7825 28.6157 11.3131C30.2033 9.53897 32.7202 8.41666 37.638 8.41666C38.5673 8.41666 42.3621 8.02713 45.1501 9.88607C46.273 10.6227 47.0087 11.4905 47.5121 12.6552C48.364 14.4717 48.1317 16.6701 48.1317 18.5753V24.6689C48.0929 28.4716 48.364 29.162 49.061 31.3256H40.9681ZM40.1549 21.5218C39.0319 21.9113 37.8703 22.2584 36.7086 22.648L35.8567 22.9064C35.4308 22.9912 34.1142 23.2766 34.1142 24.9196C34.1142 25.6562 34.5402 26.9945 36.244 26.9945C36.4763 26.9945 37.5218 26.8942 38.0639 26.7207C39.6128 26.2887 39.729 25.286 40.1549 24.8502V21.5218Z" fill="#191C2E"></path> <path d="M64.395 31.3487V20.5345C64.395 21.8226 64.7435 16.3114 63.5818 15.7676C63.1946 15.5786 62.4589 15.2045 61.5682 15.2238C60.5615 15.243 59.4385 15.729 59.0513 16.6199C58.6253 17.7075 58.4705 18.7064 58.5092 20.9703V31.3564H50.1452V8.972H58.0445L58.1607 11.5714C59.2449 10.2486 60.5227 8.54004 65.1694 8.54004C68.577 8.54004 71.1713 9.72406 72.2168 13.1604C72.4492 14.0282 72.5653 14.8689 72.6428 16.6507V31.3487H64.395Z" fill="#191C2E"></path> <path d="M110.862 15.4399C110.707 14.5876 110.087 13.176 107.957 13.176C107.028 13.176 106.331 13.4267 105.983 13.6427C105.789 13.7237 105.479 14.2829 105.479 14.9231C105.479 15.0928 105.634 15.6019 106.137 15.9027C106.447 16.0763 107.183 16.2884 108.035 16.3848L111.326 17.2371C113.65 17.8234 115.663 18.236 117.289 19.8559C118.103 20.6233 118.529 21.6184 118.645 22.0233C119.032 23.1803 118.838 24.0867 118.838 24.4723C118.838 27.1103 117.561 28.6993 116.825 29.382C115.237 30.8321 112.72 31.9274 108.112 31.9274C104.279 31.9274 101.878 30.9247 100.445 30.0955C97.3863 28.3291 97.2314 25.0779 97.0378 24.0558L105.015 24.0288C105.092 24.7963 105.208 25.371 105.828 25.9225C106.331 26.393 106.873 26.717 108.306 26.717C110.01 26.717 110.978 25.8993 111.016 25.155C111.055 25.0663 111.055 24.4685 110.823 24.1715C110.436 23.5313 109.39 23.2613 107.88 22.8757C107.88 22.8757 103.233 21.8806 102.885 21.7148C101.839 21.2366 97.6186 20.2917 97.6186 15.6019C97.6186 12.9639 98.9739 11.5562 99.7483 10.8311C101.181 9.5931 103.543 8.4438 107.764 8.4438C108.693 8.4438 112.643 8.40137 115.586 10.4069C116.399 10.9584 117.057 11.641 117.561 12.4509C118.258 13.6002 118.374 14.9732 118.451 15.4399H110.862Z" fill="#191C2E"></path> <path d="M139.632 28.7879C138.277 30.1571 135.489 31.9543 130.881 31.9543C129.409 31.9543 125.344 31.8694 122.362 28.3598C121.123 26.8634 119.613 24.3797 119.613 19.9252C119.613 19.1538 119.613 17.399 120.349 15.4745C122.014 10.5957 126.544 8.37041 131.307 8.41283C132.585 8.41283 136.573 8.5401 139.439 11.4519C140.871 12.9059 142.691 15.5593 142.652 20.2684C142.652 21.4216 142.575 25.7912 139.632 28.7879ZM133.437 15.2739C132.701 14.5875 131.578 14.4486 131.191 14.4486C130.223 14.4486 129.526 15.0078 129.293 15.1775C128.287 15.9913 127.551 17.2293 127.551 20.01C127.551 22.1929 128.054 25.8452 131.152 25.8452C132.043 25.8452 132.895 25.6138 133.437 24.9736C134.172 24.1598 134.947 22.6904 134.908 20.1218C134.908 19.9946 134.947 16.8128 133.437 15.2739Z" fill="#191C2E"></path> <path d="M168.016 8.89879H176.225V31.3874H168.016V8.89879ZM168.016 0.560547H176.225V6.41121H168.016V0.560547Z" fill="#191C2E"></path> <path d="M192.023 17.4992C191.404 14.7995 190.087 14.6646 188.616 14.6646C187.415 14.6646 187.028 15.0695 186.641 15.405C185.595 16.2921 185.247 17.3913 185.247 20.1334C185.247 20.3417 185.131 24.0055 187.144 25.3978C187.725 25.7796 187.996 25.8028 188.693 25.8028C188.925 25.8028 189.622 25.8259 190.242 25.5328C191.055 25.1549 191.907 24.4606 192.062 22.5593L200 22.4937C199.923 23.0028 199.613 24.7962 198.838 26.2733C196.864 30.1956 192.836 31.8308 188.771 31.8308C187.106 31.8308 185.944 31.5802 185.247 31.4529C182.033 30.6507 179.206 28.4138 177.967 25.2088C177.619 24.2408 177.154 22.7637 177.154 20.3147C177.154 19.3042 177.193 16.6893 178.625 14.0745C178.819 13.6541 179.477 12.5974 180.407 11.6293C183.427 8.67505 187.919 8.59021 189.003 8.59021C193.185 8.59021 195.779 10.1522 197.057 11.3323C197.444 11.7142 198.219 12.7323 198.838 14.1246C199.342 15.2623 199.613 16.2767 199.806 17.4992H192.023Z" fill="#191C2E"></path> <path d="M96.2633 24.7886V18.7065C96.2633 16.8051 96.2633 14.2481 95.4502 12.4354C94.9081 11.2669 94.5208 10.6189 93.3979 9.88615C90.6099 8.02722 86.5053 8.37817 85.576 8.37817C80.6583 8.37817 78.1414 9.67018 76.5537 11.4443C75.2759 12.9137 75.0049 14.3522 74.6564 16.1263H82.4395C82.4782 15.4321 82.5944 15.1737 82.7493 14.8691C83.1752 14.3098 83.7948 13.604 85.3437 13.604C87.0862 13.604 88.2091 14.4872 88.2091 15.3511C88.2091 15.8255 88.1704 16.6007 87.8219 16.8591C87.4734 17.1214 86.5828 17.4299 86.4279 17.4723C86.0407 17.5379 85.5373 17.6536 84.9177 17.8156L80.8519 18.3285C78.4124 18.8916 76.515 19.3853 74.9274 21.5026C73.7657 22.972 73.7657 24.3142 73.7657 25.0045C73.7657 27.9434 75.0436 29.6403 75.8955 30.3769C77.8703 32.0161 80.697 31.9544 81.394 31.9544C85.2275 31.9544 87.2411 30.2767 88.4414 29.3704L88.7899 31.4915H97.1927C96.728 30.0221 96.2246 29.2546 96.2633 24.7886ZM86.002 26.8519C85.4598 27.0255 84.5305 26.9869 84.2982 26.9753C82.9042 26.8828 82.1685 25.6177 82.1685 24.8811C82.1685 23.2381 83.485 22.972 83.911 22.8872L84.8016 22.6404C85.9245 22.2508 87.0862 21.923 88.2091 21.5335L88.2478 24.3913C87.8993 25.0354 87.5121 26.4199 86.002 26.8519Z" fill="#191C2E"></path> <path d="M158.103 31.3064V20.4227C158.103 21.7108 158.49 16.269 157.328 15.7213C156.941 15.5401 156.205 15.1621 155.353 15.1814C154.347 15.2007 153.185 15.6866 152.836 16.5775C152.372 17.6651 152.139 18.4056 152.178 20.6657L152.101 31.3488L143.93 31.3141V8.92963H151.791L151.907 11.5291C152.991 10.2062 154.269 8.49768 158.955 8.49768C162.323 8.49768 164.918 9.92467 165.963 13.361C166.196 14.2288 166.234 14.7957 166.35 16.5775V31.3141L158.103 31.3064Z" fill="#191C2E"></path> </svg> 