<?xml version="1.0" encoding="UTF-8"?> <svg xmlns="http://www.w3.org/2000/svg" width="480" height="481" viewBox="0 0 480 481" fill="none"> <circle cx="240" cy="240.425" r="128" fill="white"></circle> <path d="M5.34692e-09 240.303L0 240.425H120C120 174.151 173.726 120.425 240 120.425L252 60.425L240 0.425049L239.928 0.425049C107.454 0.463791 0.0660916 107.834 5.34692e-09 240.303Z" fill="#27CEAA"></path> <path d="M60 180.425L120 240.425H0L60 180.425Z" fill="#FFAEB6"></path> <path d="M240 480.425L240 360.425C173.726 360.425 120 306.699 120 240.425L60 224L0 240.425C0 372.973 107.452 480.425 240 480.425Z" fill="#FFAEB6"></path> <path d="M180 420.425L240 360.425L240 480.425L180 420.425Z" fill="#EFCE86"></path> <path d="M480 240.425C480 372.973 372.548 480.425 240 480.425L224 420.425L240 360.425C306.274 360.425 359.999 306.699 359.999 240.425L480 240.425Z" fill="#EFCE86"></path> <path d="M420 300.425L360 240.425L480 240.425L420 300.425Z" fill="#4430BF"></path> <path d="M240.122 0.425049L240 0.425049L240 120.425C306.274 120.425 360 174.151 360 240.425L420 253L480 240.425C480 107.918 372.615 0.491161 240.122 0.425049Z" fill="#4430BF"></path> <path d="M300 60.4251L240 120.425L240 0.425046L300 60.4251Z" fill="#27CEAA"></path> <path d="M102.69 92.4248H89.8897V120.425H97.8097V113.105H102.69C110.33 113.105 115.13 109.145 115.13 102.785C115.13 96.3848 110.33 92.4248 102.69 92.4248ZM102.21 106.865H97.8097V98.6648H102.21C105.49 98.6648 107.13 100.185 107.13 102.785C107.13 105.345 105.49 106.865 102.21 106.865Z" fill="white"></path> <path d="M118.991 120.425H126.911V92.4248H118.991V120.425Z" fill="white"></path> <path d="M165.106 120.425L165.026 92.4248H158.506L148.906 108.585L139.066 92.4248H132.546V120.425H139.866V105.985L147.026 117.665H150.546L157.746 105.585L157.826 120.425H165.106Z" fill="white"></path> <path d="M368.747 152.425L368.667 124.425H362.147L352.547 140.585L342.707 124.425H336.187V152.425H343.507V137.985L350.667 149.665H354.187L361.387 137.585L361.467 152.425H368.747Z" fill="white"></path> <path d="M406.911 152.425L406.831 124.425H400.311L390.711 140.585L380.871 124.425H374.351V152.425H381.671V137.985L388.831 149.665H392.351L399.551 137.585L399.631 152.425H406.911Z" fill="white"></path> <path d="M422.355 152.985C430.675 152.985 434.755 148.825 434.755 143.945C434.755 133.625 418.875 136.825 418.875 132.545C418.875 131.145 420.075 130.025 423.395 130.025C425.835 130.025 428.475 130.745 431.155 132.185L433.595 126.305C430.835 124.705 427.075 123.865 423.435 123.865C415.115 123.865 411.035 127.945 411.035 132.945C411.035 143.345 426.955 140.105 426.955 144.545C426.955 145.905 425.675 146.825 422.395 146.825C419.155 146.825 415.635 145.705 413.155 144.065L410.555 149.905C413.195 151.745 417.755 152.985 422.355 152.985Z" fill="white"></path> <path d="M304.975 399.985C313.935 399.985 320.535 393.825 320.535 385.425C320.535 377.025 313.935 370.865 304.975 370.865C296.015 370.865 289.415 377.025 289.415 385.425C289.415 393.825 296.015 399.985 304.975 399.985ZM304.975 393.425C300.735 393.425 297.415 390.265 297.415 385.425C297.415 380.585 300.735 377.425 304.975 377.425C309.215 377.425 312.535 380.585 312.535 385.425C312.535 390.265 309.215 393.425 304.975 393.425Z" fill="white"></path> <path d="M357.243 399.425L357.163 371.425H350.643L341.043 387.585L331.203 371.425H324.683V399.425H332.003V384.985L339.163 396.665H342.683L349.883 384.585L349.963 399.425H357.243Z" fill="white"></path> <path d="M372.687 399.985C381.007 399.985 385.087 395.825 385.087 390.945C385.087 380.625 369.207 383.825 369.207 379.545C369.207 378.145 370.407 377.025 373.727 377.025C376.167 377.025 378.807 377.745 381.487 379.185L383.927 373.305C381.167 371.705 377.407 370.865 373.767 370.865C365.447 370.865 361.367 374.945 361.367 379.945C361.367 390.345 377.287 387.105 377.287 391.545C377.287 392.905 376.007 393.825 372.727 393.825C369.487 393.825 365.967 392.705 363.487 391.065L360.887 396.905C363.527 398.745 368.087 399.985 372.687 399.985Z" fill="white"></path> <path d="M58.1191 355.985C67.0791 355.985 73.6791 349.825 73.6791 341.425C73.6791 333.025 67.0791 326.865 58.1191 326.865C49.1591 326.865 42.5591 333.025 42.5591 341.425C42.5591 349.825 49.1591 355.985 58.1191 355.985ZM58.1191 349.425C53.8791 349.425 50.5591 346.265 50.5591 341.425C50.5591 336.585 53.8791 333.425 58.1191 333.425C62.3591 333.425 65.6791 336.585 65.6791 341.425C65.6791 346.265 62.3591 349.425 58.1191 349.425Z" fill="white"></path> <path d="M95.1472 355.425H103.627L97.5872 346.625C101.067 344.945 103.067 341.905 103.067 337.785C103.067 331.385 98.2672 327.425 90.6272 327.425H77.8272V355.425H85.7472V347.985H90.0672L95.1472 355.425ZM95.0672 337.785C95.0672 340.345 93.4272 341.865 90.1472 341.865H85.7472V333.665H90.1472C93.4272 333.665 95.0672 335.185 95.0672 337.785Z" fill="white"></path> <path d="M139.997 355.425L139.917 327.425H133.397L123.797 343.585L113.957 327.425H107.437V355.425H114.757V340.985L121.917 352.665H125.437L132.637 340.585L132.717 355.425H139.997Z" fill="white"></path> </svg> 