<?xml version="1.0" encoding="UTF-8"?> <svg xmlns="http://www.w3.org/2000/svg" width="401" height="46" viewBox="0 0 401 46" fill="none"> <path fill-rule="evenodd" clip-rule="evenodd" d="M0.3 3.52645C0.4 1.52645 2.4 0.0264524 4.4 0.126452C18.6 0.126452 32.8 0.126452 47 0.126452C49.2 -0.0735476 51.2 1.92645 51.1 4.12645C51.1 12.0265 51.1 19.9264 51.1 27.8264C51.1 29.2264 50.7 30.9265 49.3 31.6265C47.5 32.6265 45.3 32.1264 43.3 32.2264C44.9 34.7264 47 36.8265 48.7 39.1265C49.7 40.5265 51.1 41.7265 51.5 43.4265C51.6 44.9265 50 45.7265 48.7 45.6265C43.9 45.6265 39.2 45.6265 34.5 45.6265C33.6 45.7265 33.1 44.9265 32.6 44.3265C29.4 40.2265 26.1 36.2265 22.8 32.1265C20.7 32.1265 18.6 32.1265 16.4 32.1265C16.4 35.4265 16.4 38.6265 16.4 41.9265C16.4 43.8265 14.7 45.5264 12.8 45.5264C10 45.5264 7.1 45.5264 4.2 45.5264C2.9 45.5264 1.6 45.0265 0.8 43.9265C-0.3 42.5265 0.2 40.6264 0 39.0264C0 28.6264 0 18.2264 0 7.82645C0.2 6.72645 0.3 4.52645 0.3 3.52645ZM352.9 0.126452C365.2 0.0264524 377.5 0.126452 389.8 0.126452C393.4 0.326452 395.6 3.62645 398 5.82645C399.7 7.42645 400.2 9.92645 400.3 12.1265C400.3 19.0265 400.3 25.9265 400.3 32.9265C400.3 35.1265 400.1 37.5264 398.5 39.2264C397.2 40.6264 395.8 41.9265 394.5 43.3265C393 44.8265 391 45.6265 388.9 45.6265C376.9 45.5265 364.9 45.7264 352.9 45.5264C352.9 30.4264 352.8 15.2265 352.9 0.126452ZM242.5 0.626452C243.1 0.226452 243.9 0.126452 244.6 0.126452C257.7 0.0264524 270.8 0.126452 283.8 0.126452C285.9 -0.0735476 287.9 1.92645 287.8 4.02645C287.8 16.5264 287.8 28.9265 287.8 41.4265C288 43.6265 286 45.6264 283.8 45.5264C270.7 45.5264 257.6 45.5264 244.5 45.5264C242.3 45.6264 240.3 43.6265 240.4 41.4265C240.4 28.9265 240.4 16.5264 240.4 4.02645C240.5 2.62645 241.3 1.32645 242.5 0.626452ZM115.8 45.5264C115.7 30.4264 115.7 15.2265 115.8 0.126452C127.8 0.126452 139.9 0.126452 151.9 0.126452C154.4 0.126452 156.7 1.52645 158.4 3.32645C160.3 5.22645 162.7 7.22645 162.9 10.1265C163 18.3265 162.9 26.5264 162.9 34.7264C163 37.1264 161.5 39.1264 159.9 40.7264C158.3 42.2264 156.8 44.0265 154.7 44.9265C153.3 45.6265 151.6 45.4265 150.1 45.4265C138.6 45.5265 127.2 45.5264 115.8 45.5264ZM60.5 0.626452C61.1 0.226452 61.9 0.126452 62.6 0.126452C76.3 0.0264524 90.1 0.126452 103.8 0.126452C105.9 0.0264524 107.8 1.92645 107.6 4.02645C107.6 12.1264 107.6 20.1264 107.6 28.2264C107.7 30.1264 106.2 32.1265 104.2 32.1265C94.6 32.2265 85 32.0264 75.5 32.2264C75.4 32.3264 75.2 32.5264 75.1 32.5264C75 34.3264 74.9 36.1265 75.1 37.8265C75.7 38.4265 76.6 38.1264 77.3 38.2264C86 38.1264 94.6 38.2264 103.3 38.2264C104.8 38.0264 106.3 38.6264 107.1 40.0264C108.3 41.7264 107.4 44.3265 105.5 45.1265C104.4 45.7265 103.1 45.5264 101.8 45.5264C88.7 45.5264 75.6 45.5264 62.5 45.5264C60.5 45.6264 58.5 43.9265 58.6 41.9265C58.6 29.4265 58.6 17.0264 58.6 4.52645C58.5 3.02645 59.2 1.42645 60.5 0.626452ZM16.7 8.22644C16.6 13.6264 16.7 19.0264 16.6 24.5264C17.2 24.8264 17.9 24.9265 18.6 24.9265C23.9 24.9265 29.2 24.9264 34.6 24.8264C34.9 19.6264 34.6 14.4264 34.7 9.22644C34.7 8.62644 34.8 7.32645 33.9 7.32645C28.8 7.22645 23.7 7.32645 18.6 7.32645C17.9 7.32645 16.8 7.32644 16.7 8.22644ZM369.2 8.82645C369.2 17.9264 369.2 27.1264 369.2 36.2264C369.2 36.9264 369.4 37.6265 369.6 38.3265C374.1 38.2265 378.7 38.4264 383.2 38.2264C383.8 37.7264 383.6 36.9265 383.6 36.3265C383.7 26.8265 383.6 17.3264 383.6 7.72644C382.7 7.42644 381.7 7.32645 380.8 7.32645C377.3 7.42645 373.8 7.22645 370.3 7.32645C369.5 7.32645 369.1 8.12645 369.2 8.82645ZM295.7 4.12645C295.7 2.12645 297.4 0.126452 299.4 0.126452C302.4 0.126452 305.4 0.126452 308.4 0.126452C310.5 0.0264524 311.6 2.02646 312.8 3.42646C318 9.62646 322.8 16.0265 328.2 22.1265C328.6 15.9265 328.2 9.62645 328.4 3.32645C328.7 1.62645 330.3 0.126452 332 0.126452C335 0.126452 338 0.126452 341 0.126452C342.9 0.126452 344.6 1.72645 344.6 3.62645C344.6 16.2265 344.6 28.8265 344.6 41.4265C344.7 42.7265 344.1 44.1265 343 44.8265C341.7 45.8265 340.1 45.4264 338.6 45.5264C336.3 45.5264 334 45.6265 331.7 45.4265C330.1 45.2265 328.5 43.9264 328.4 42.2264C328.2 39.4264 328.6 36.6265 328.2 33.9265C324.2 28.5265 319.7 23.4265 315.5 18.1265C314.5 16.8265 313.4 15.5264 312.3 14.3264C312 23.5264 312.3 32.7264 312.1 41.8265C312 43.7265 310.3 45.4265 308.3 45.4265C305.1 45.4265 301.9 45.5265 298.7 45.3265C296.9 44.9265 295.6 43.1265 295.7 41.3265C295.7 29.0265 295.7 16.5265 295.7 4.12645ZM257.3 7.42646C256.9 8.62646 257 9.92644 257 11.2264C257 18.9264 257 26.6265 257 34.3265C257 35.6265 256.9 36.9264 257.3 38.2264C261.6 38.2264 265.9 38.2264 270.2 38.2264C271.1 38.4264 271.4 37.4264 271.3 36.7264C271.3 27.6264 271.3 18.4264 271.3 9.32645C271.2 8.72645 271.5 7.62646 270.6 7.42646C266.2 7.32646 261.7 7.32646 257.3 7.42646ZM170.9 4.02645C170.7 1.92645 172.5 0.0264524 174.6 0.126452C177.6 0.0264524 180.6 0.0264524 183.6 0.126452C185.7 0.126452 186.8 2.12645 188 3.52645C192.6 9.12645 197.1 14.7264 201.7 20.3264C206.4 14.6264 211 8.92645 215.7 3.12645C216.7 1.92645 217.8 0.326452 219.5 0.126452C222 0.0264524 224.6 0.126446 227.1 0.0264463C228.3 0.0264463 229.6 -0.173554 230.6 0.526446C231.8 1.22645 232.6 2.62645 232.6 4.02645C232.6 16.4264 232.6 28.9265 232.6 41.4265C232.7 43.5265 231 45.4264 229 45.5264C226 45.6264 223 45.5264 220 45.5264C218.1 45.5264 216.2 43.9265 216.3 41.9265C216.2 32.6265 216.4 23.4265 216.2 14.1265C212.5 18.4265 209 22.8264 205.5 27.2264C205.3 32.1264 205.5 37.0265 205.4 41.9265C205.4 43.9265 203.5 45.5264 201.6 45.5264C199.8 45.4264 198.2 43.7265 198.2 41.9265C198.2 37.3265 198.2 32.7264 198.2 28.2264C198.3 27.3264 197.6 26.7265 197.1 26.1265C193.8 22.3265 190.8 18.2264 187.5 14.5264C187.2 23.6264 187.5 32.8265 187.3 41.9265C187.2 43.9265 185.5 45.5264 183.5 45.5264C180.5 45.6264 177.6 45.5264 174.6 45.5264C172.7 45.5264 170.9 43.8265 170.9 41.9265C170.9 29.3265 171 16.7264 170.9 4.02645ZM132.1 7.72644C132.1 17.7264 132.1 27.6265 132.1 37.6265C132.2 37.7265 132.4 38.0265 132.5 38.1265C137.1 38.2265 141.6 38.1264 146.2 38.2264C146.4 37.6264 146.5 36.9264 146.5 36.2264C146.5 26.7264 146.5 17.2265 146.5 7.62645C144.1 6.92645 141.6 7.42644 139.1 7.22644C136.8 7.52644 134.4 6.92644 132.1 7.72644ZM75 7.72644C75 12.8264 75 17.9264 75 23.0264C75 23.6264 75.1 24.2264 75.3 24.8264C80.6 24.8264 85.8 24.8264 91.1 24.8264C91.3 24.2264 91.4 23.6264 91.4 23.0264C91.3 18.1264 91.4 13.3265 91.3 8.42646C91.3 7.82646 90.7 7.22645 90.1 7.32645C85.8 7.22645 81.5 7.32645 77.2 7.32645C76.5 7.32645 75.7 7.52644 75 7.72644Z" fill="#191C2E"></path> </svg> 