<?xml version="1.0" encoding="UTF-8"?> <svg xmlns="http://www.w3.org/2000/svg" width="200" height="58" viewBox="0 0 200 58" fill="none"> <path d="M5.75693 45.4652C5.33049 46.5275 5.11727 47.5898 4.90405 48.652C4.90405 49.0769 4.90405 49.7143 4.90405 50.1392C4.90405 50.3517 4.69083 50.7766 4.47761 50.989C4.26439 51.4139 3.83795 51.6264 3.41151 51.6264C3.19829 51.6264 2.98507 51.4139 2.98507 50.989C3.19829 49.7143 3.41151 48.652 3.83795 47.3773C4.05117 46.7399 4.47761 45.4652 4.47761 45.4652C3.83795 45.4652 3.41151 45.2528 3.41151 45.0403C3.41151 44.8279 3.41151 44.4029 3.62473 44.4029C3.83795 44.4029 3.83795 44.6154 4.26439 44.8279C4.47761 44.8279 4.69083 44.8279 4.90405 44.8279L7.03625 38.8791C7.46269 38.4542 8.10235 38.2418 8.742 38.4542C8.52878 39.304 7.03625 42.9158 6.18337 44.8279C8.95522 44.8279 12.1535 42.4909 12.1535 39.9414C12.1535 38.4542 11.0874 37.6044 8.95522 37.6044C6.18337 37.6044 3.62473 38.4542 1.49254 40.1539C1.0661 40.5788 1.49254 41.2161 0.852878 41.2161C0.21322 41.2161 0 41.4286 0 41.0037C0 39.9414 4.90405 36.967 9.59488 36.967C12.58 36.967 13.4328 38.0293 13.4328 39.5165C13.6461 42.4909 9.59488 45.2528 5.75693 45.4652ZM18.5501 50.7766C17.6972 51.4139 16.6311 51.8388 15.565 51.8388C15.1386 51.8388 15.1386 51.4139 15.1386 51.2015C15.3518 50.1392 15.565 49.0769 15.9915 48.2271C16.4179 47.1648 17.2708 45.2528 17.484 44.8279C16.8443 45.0403 16.2047 45.2528 15.565 45.2528C14.9254 45.2528 14.2857 44.8278 14.0725 44.4029L13.8593 44.6154C13.8593 44.4029 13.6461 44.6154 13.6461 44.6154C13.6461 44.6154 13.4328 44.6154 13.4328 44.4029C13.4328 44.1905 13.6461 44.1905 13.6461 43.978L13.8593 43.7656C13.8593 43.1282 13.8593 41.0037 15.1386 41.0037C15.3518 41.0037 15.7783 41.2161 15.7783 41.4286C15.7783 42.0659 15.565 42.7033 15.1386 43.3407C15.1386 43.7656 15.565 44.1905 16.2047 44.1905C16.6311 44.1905 17.2708 44.1905 17.6972 43.7656C17.9104 43.5531 18.3369 43.5531 18.7633 43.3407C18.9765 43.3407 18.9765 43.3407 18.9765 43.5531C18.7633 44.1905 18.7633 44.6154 18.5501 45.2528C18.1237 46.5275 16.8444 49.7143 16.8444 49.9268C16.8444 50.1392 17.0576 50.3517 17.2708 50.3517C18.5501 49.9268 19.6162 49.2894 20.6823 48.652L20.8955 48.8645C20.2559 49.7143 19.403 50.1392 18.5501 50.7766Z" fill="#191C2E"></path> <path d="M24.9467 51.2015C24.7335 51.2015 24.5203 51.2015 24.3071 51.2015C23.6674 51.6264 23.0278 51.6264 22.3881 51.6264C21.322 51.6264 20.4691 50.9891 20.4691 49.5019C20.4691 48.8645 20.6823 48.0147 20.8956 47.3773C21.1088 46.3151 21.7484 45.2528 22.3881 44.1905C22.6013 43.9781 23.0278 43.7656 23.241 43.7656C23.4542 43.7656 23.6674 43.7656 23.6674 43.9781C24.5203 42.9158 25.7996 42.4909 27.0789 42.2784C28.145 42.2784 28.7847 42.9158 28.7847 44.403C28.5715 46.74 27.2921 49.077 25.1599 50.3517C25.3732 50.3517 25.5864 50.3517 25.7996 50.3517C27.2921 50.1393 28.7847 49.5019 30.064 48.6521L30.2772 48.8645C28.7847 50.3517 26.8657 51.2015 24.9467 51.2015ZM22.1749 47.3773C21.9617 47.8023 21.9617 48.4396 21.9617 48.8645C21.7484 50.5642 22.8145 50.7766 23.0278 50.7766H23.241C21.9617 49.9268 22.1749 48.2272 22.1749 47.3773ZM25.7996 43.5532C25.3732 43.5532 24.7335 43.7656 24.3071 43.9781C23.241 45.0403 22.8145 46.3151 22.8145 47.8023C22.8145 48.2272 22.8145 50.1392 24.3071 50.5642C26.0128 49.2894 27.0789 47.3773 27.0789 45.2528C27.0789 44.1905 26.8657 43.5532 25.7996 43.5532Z" fill="#191C2E"></path> <path d="M39.0192 38.0293C38.8059 38.2418 38.8059 38.2418 38.5927 38.4542C38.1663 38.0293 37.7398 37.8168 37.1002 37.8168C36.887 37.8168 36.4605 37.8168 36.2473 38.0293C35.3944 38.6667 34.5415 40.3663 33.6887 43.7656H36.4605C36.6737 43.7656 36.887 43.7656 36.887 43.978C36.887 44.1905 36.6737 44.1905 36.4605 44.4029C35.6076 44.6154 34.5415 44.6154 33.6887 44.6154H33.2622L32.6226 46.315C31.9829 48.652 31.13 50.7766 30.0639 52.9011C29.4243 54.6007 28.145 56.0879 26.8656 57.1502C26.4392 57.5751 25.7995 57.7876 25.1599 57.7876C25.1599 57.7876 24.9467 57.7876 24.9467 57.5751C24.9467 57.3626 24.9467 57.3626 24.9467 57.3626C25.3731 57.1502 26.0128 56.7253 26.4392 56.5128C27.2921 55.8755 28.5714 54.1758 30.4904 48.2271L31.7697 44.4029C31.3432 44.4029 30.9168 44.4029 30.4904 44.4029H30.0639C29.8507 44.4029 29.6375 44.4029 29.6375 44.1905C29.6375 43.978 29.8507 43.7656 30.0639 43.5531C30.2771 43.3407 30.7036 43.3407 31.13 43.3407H32.1961C32.6226 42.0659 33.049 40.7912 33.6887 39.5165C34.1151 38.8791 34.5415 38.2418 35.1812 37.8168C36.0341 37.1795 36.887 36.7546 37.9531 36.7546C38.8059 36.7546 39.0192 36.967 39.0192 37.1795C39.2324 37.6044 39.0192 37.8168 39.0192 38.0293ZM38.3795 51.6264C37.3134 51.8388 36.0341 51.2015 35.8209 49.9267C35.8209 49.7143 35.8209 49.2894 35.8209 49.0769C36.0341 47.3773 36.6737 45.8901 37.7398 44.6154C38.8059 43.1282 40.2985 42.0659 42.2174 41.8535C43.0703 41.8535 43.2835 42.0659 43.2835 42.4908C43.2835 42.9158 42.2175 44.1905 40.9381 45.4652C39.6588 46.7399 37.7398 48.4396 37.7398 48.4396C37.7398 50.1392 38.3795 50.5641 39.6588 50.5641C41.3646 50.3516 42.8571 49.7143 44.1364 48.652C44.1364 48.8645 44.1364 48.8645 44.1364 49.0769C42.4307 50.5641 40.5117 51.4139 38.3795 51.6264ZM40.9381 42.9158C40.0853 42.9158 39.2324 43.5531 38.8059 44.1905C37.9531 45.2527 37.5266 46.5275 37.5266 47.8022C37.5266 47.8022 39.0192 46.5275 39.872 45.6777C40.7249 44.8278 41.3646 43.978 41.3646 43.5531C41.3646 43.1282 41.1514 42.9158 40.9381 42.9158Z" fill="#191C2E"></path> <path d="M49.6802 43.978C49.467 43.3406 48.6141 43.1282 47.9745 43.1282C47.3348 43.1282 46.0555 43.5531 46.0555 44.6153C46.0555 44.8278 46.2687 45.2527 46.4819 45.4651C47.1216 46.1025 48.4009 46.7399 49.0406 47.1648C49.467 47.3772 49.6802 47.8021 49.467 48.4395C49.0406 49.9267 47.9745 51.2014 46.2687 51.6263C45.629 51.8388 44.9894 51.8388 44.3497 51.8388C43.4968 51.8388 42.2175 51.4139 42.2175 50.564C42.2175 50.1391 42.644 49.9267 42.8572 49.7142C43.0704 49.5018 43.2836 49.5018 43.7101 49.2893C43.7101 50.1391 44.5629 50.7765 45.4158 50.7765C46.6951 50.7765 47.7612 49.9267 47.7612 49.0769C47.7612 48.652 47.548 48.2271 47.1216 47.8021C46.2687 47.1648 45.629 46.7399 44.9894 46.315C44.5629 46.1025 44.3497 45.6776 44.3497 45.0402C44.3497 44.4029 44.9894 43.1282 47.3348 42.4908C47.9745 42.2783 48.4009 42.2783 49.0406 42.2783C49.6802 42.2783 50.1067 42.4908 50.7463 42.7032C50.7463 43.3406 50.3199 43.7655 49.6802 43.978ZM57.1429 43.978C56.9297 43.3406 56.0768 43.1282 55.4371 43.1282C54.7975 43.1282 53.5182 43.5531 53.5182 44.6153C53.5182 44.8278 53.7314 45.2527 53.9446 45.4651C54.5843 46.1025 55.8636 46.7399 56.5032 47.1648C56.9297 47.3772 57.1429 47.8021 56.9297 48.4395C56.5032 49.9267 55.4371 51.2014 53.7314 51.6263C53.0917 51.8388 52.4521 51.8388 52.0256 51.8388C50.9595 51.8388 49.8934 51.4139 49.8934 50.564C49.8934 50.1391 50.3199 49.9267 50.5331 49.7142C50.7463 49.5018 50.9595 49.5018 51.386 49.2893C51.386 50.1391 52.2389 50.7765 53.0917 50.7765C54.371 50.7765 55.4371 49.9267 55.4371 49.0769C55.4371 48.652 55.2239 48.2271 54.7975 47.8021C53.9446 47.1648 53.305 46.7399 52.6653 46.315C52.2389 46.1025 52.0256 45.6776 52.0256 45.0402C52.0256 44.4029 52.6653 43.1282 55.0107 42.4908C55.6504 42.2783 56.0768 42.2783 56.7165 42.2783C57.3561 42.2783 57.7826 42.4908 58.4222 42.7032C58.209 43.3406 57.7826 43.7655 57.1429 43.978ZM62.2602 50.3516C61.1941 51.2014 59.9148 51.6263 58.6354 51.8388C57.7826 51.8388 57.7826 51.2014 57.7826 50.7765C57.9958 49.9267 58.209 49.0769 58.4222 48.2271C59.0619 46.315 59.7015 44.4029 60.128 43.1282C60.3412 42.7032 60.5544 42.4908 60.9809 42.4908C61.1941 42.4908 61.4073 42.2783 61.8337 42.2783C62.047 42.2783 62.047 42.2783 62.047 42.4908C62.047 42.7032 61.6205 43.978 61.1941 45.0402C60.5544 46.9523 59.4883 49.5018 59.4883 50.1391C59.4883 50.7765 59.4883 50.7765 59.9148 50.7765C61.8337 50.1391 63.7527 49.0769 65.4585 47.5897V48.0146C64.3924 48.652 63.1131 49.7142 62.2602 50.3516ZM61.6205 40.7912C61.1941 40.7912 60.9809 40.5787 60.9809 39.9413C60.9809 39.304 61.4073 38.6666 62.047 38.4542H62.2602C62.6866 38.4542 62.8998 38.6666 62.8998 39.304C63.1131 40.1538 62.4734 40.7912 61.6205 40.7912C61.6205 40.7912 61.8337 40.7912 61.6205 40.7912Z" fill="#191C2E"></path> <path d="M68.2303 51.2015C68.0171 51.2015 67.8039 51.2015 67.5906 51.2015C66.951 51.6264 66.3113 51.6264 65.6717 51.6264C64.6056 51.6264 63.7527 50.9891 63.7527 49.5019C63.7527 48.8645 63.9659 48.0147 64.1791 47.3773C64.3923 46.3151 65.032 45.2528 65.6717 44.1905C65.8849 43.9781 66.3113 43.7656 66.5245 43.7656C66.7378 43.7656 66.951 43.7656 66.951 43.9781C67.8039 42.9158 69.0832 42.4909 70.3625 42.2784C71.4286 42.2784 72.0682 42.9158 72.0682 44.403C71.855 46.9524 70.3625 49.077 68.4435 50.3517C68.6567 50.3517 68.87 50.3517 69.0832 50.3517C70.5757 50.1393 72.0683 49.5019 73.3476 48.6521L73.5608 48.8645C71.855 50.3517 70.1493 51.2015 68.2303 51.2015ZM65.4584 47.3773C65.2452 47.8023 65.2452 48.4396 65.2452 48.8645C65.032 50.5642 66.0981 50.7766 66.3113 50.7766H66.5245C65.2452 49.9268 65.4584 48.2272 65.4584 47.3773ZM69.0832 43.5532C68.6567 43.5532 68.0171 43.7656 67.5906 43.9781C66.5245 45.0403 66.0981 46.3151 66.0981 47.8023C66.0981 48.2272 66.0981 50.1392 67.5906 50.5642C69.2964 49.2894 70.3625 47.3773 70.3625 45.2528C70.3625 44.1905 70.1493 43.5532 69.0832 43.5532Z" fill="#191C2E"></path> <path d="M80.1705 50.5641C79.3176 51.2014 78.4648 51.6264 77.3987 51.8388C77.1855 51.8388 77.1855 51.6264 77.1855 51.4139C77.3987 50.3516 77.6119 49.0769 78.0383 48.0146C78.4648 46.9524 78.678 45.6776 79.1044 44.6154C79.1044 44.4029 79.1044 44.1905 78.8912 44.1905C77.8251 44.8278 76.759 45.8901 75.9061 46.9524C75.2665 47.5897 74.84 48.4395 74.4136 49.2894C73.5607 50.989 73.3475 50.989 72.9211 50.989C72.4946 50.989 72.7078 50.7765 72.7078 50.5641C72.7078 50.1392 72.9211 49.7143 73.1343 49.2894C73.3475 48.8645 73.5607 48.4395 73.5607 48.2271L74.2004 45.4652C74.4136 44.8278 74.6268 43.7656 74.84 43.3406C75.0533 42.7033 75.9061 42.0659 76.5458 42.0659C76.5458 42.0659 76.759 42.0659 76.759 42.2784C76.759 42.4908 76.5458 43.1282 76.3326 43.7656C75.9061 45.2527 75.6929 45.6776 75.2665 46.5275C76.759 44.6154 78.4648 43.1282 80.597 42.2784C80.8102 42.2784 80.8102 42.4908 80.8102 42.7033C80.597 43.978 80.1705 45.2527 79.7441 46.5275C79.5309 47.1648 78.8912 49.2894 78.8912 49.7143C78.8912 50.1392 78.8912 49.9267 79.1044 49.9267C80.3837 49.5018 81.6631 48.652 82.9424 47.8022L83.1556 48.0146C82.0895 49.0769 81.2366 49.9267 80.1705 50.5641Z" fill="#191C2E"></path> <path d="M86.9935 52.0513C86.5671 52.0513 86.3539 51.6264 86.3539 51.2015C86.3539 50.5641 86.5671 49.9268 86.5671 49.2894C85.7142 50.5641 84.2217 51.4139 82.7291 51.8388C81.663 51.8388 81.4498 51.2015 81.4498 50.1392C81.663 48.2271 82.5159 46.315 83.7952 45.0403C85.0746 43.7656 86.7803 42.9158 88.4861 42.9158C88.9125 42.9158 90.4051 43.1282 90.4051 43.978C90.4051 44.6154 90.1918 44.6154 89.7654 45.2528C89.5522 45.8901 89.339 46.315 88.9125 47.1649C88.4861 48.2271 88.0596 49.2894 87.8464 50.3517C87.8464 50.989 88.0596 50.989 88.2729 50.989C89.339 50.989 90.6183 49.9268 91.8976 48.8645L92.1108 49.0769C90.6183 50.3517 88.9125 51.4139 86.9935 52.0513ZM87.8464 43.3407C86.3539 43.3407 85.501 43.978 84.2217 45.6777C83.582 46.7399 83.1556 48.0147 83.1556 49.2894C83.1556 50.1392 83.582 50.3517 84.0085 50.3517C84.8613 50.3517 86.1407 49.5018 87.2068 47.5898C87.6332 46.7399 87.8464 45.8901 88.0596 45.4652C88.2729 45.0403 88.6993 43.978 89.1257 43.978C89.1257 43.5531 88.2729 43.1282 87.8464 43.3407Z" fill="#191C2E"></path> <path d="M93.8166 47.5898C93.6034 48.2271 93.3902 49.0769 93.3902 49.7143C93.3902 50.1392 93.3902 50.7766 94.0299 50.7766C95.9488 50.7766 98.7207 48.652 100.213 47.5898V48.0147C96.5885 50.7766 94.2431 51.8389 92.7505 51.8389C92.1109 51.8389 91.6844 51.4139 91.6844 50.5641C91.6844 47.1649 95.7356 39.9414 95.7356 39.9414C97.6546 36.9671 99.3604 35.9048 100.64 35.9048C101.493 35.9048 101.493 36.3297 101.493 36.7546C101.493 38.8791 97.6546 44.1905 93.8166 47.5898ZM99.7868 36.7546C99.1471 36.7546 98.7207 37.1795 97.2282 39.729C96.1621 42.066 95.096 44.403 94.2431 46.9524C95.3092 46.1026 100.426 40.3663 100.426 37.6044C100.213 36.9671 100.213 36.7546 99.7868 36.7546Z" fill="#191C2E"></path> <path d="M105.117 43.978C104.904 43.3406 104.051 43.1282 103.412 43.1282C102.772 43.1282 101.493 43.5531 101.493 44.6154C101.493 44.8278 101.706 45.2527 101.919 45.4652C102.559 46.1025 103.838 46.7399 104.478 47.1648C104.904 47.3773 105.117 47.8022 104.904 48.4395C104.478 49.9267 103.412 51.2014 101.706 51.6263C101.066 51.8388 100.426 51.8388 100 51.8388C99.1472 51.8388 97.8679 51.4139 97.8679 50.5641C97.8679 50.1392 98.2943 49.9267 98.5075 49.7143C98.7207 49.5018 98.934 49.5018 99.3604 49.2893C99.3604 50.1392 100.213 50.7765 101.066 50.7765C102.345 50.7765 103.412 49.9267 103.412 49.0769C103.412 48.652 103.198 48.2271 102.772 47.8022C101.919 47.1648 101.279 46.7399 100.64 46.315C100.213 46.1025 100 45.6776 100 45.0403C100 44.4029 100.64 43.1282 102.985 42.4908C103.625 42.2784 104.051 42.2784 104.691 42.2784C105.331 42.2784 105.757 42.4908 106.397 42.7033C106.183 43.3406 105.757 43.7655 105.117 43.978ZM117.058 45.2527C117.271 46.5274 117.91 47.5897 118.55 48.4395C118.977 49.2893 119.616 50.1392 120.256 50.7765C120.469 50.989 120.682 51.2014 120.896 51.6263C120.896 51.8388 120.682 52.0513 120.256 52.0513C118.977 52.0513 117.91 50.7765 117.271 49.5018C116.418 48.4395 115.778 47.1648 115.565 45.8901C115.565 45.6776 115.565 45.4652 115.992 45.2527C116.418 45.0403 120.682 42.2784 120.682 39.9414C120.682 38.6666 119.616 38.0293 117.697 38.0293C115.565 38.0293 113.433 38.8791 111.94 40.3663C111.514 40.7912 111.727 41.641 111.087 41.641C110.448 41.641 110.661 41.641 110.661 41.2161C110.661 40.1538 114.499 37.3919 118.55 37.3919C121.535 37.3919 122.175 38.4542 122.175 39.5164C122.175 42.2784 117.058 43.978 117.058 45.2527ZM113.433 48.652C113.433 48.8644 113.433 49.0769 113.22 49.2893C113.22 49.7143 113.006 50.1392 112.793 50.5641C112.367 50.989 111.94 51.4139 111.301 51.6263C111.087 51.6263 110.874 51.6263 110.874 51.4139C111.087 50.7765 111.301 50.1392 111.514 49.5018C112.154 47.8022 112.58 46.9523 115.352 39.0915C115.778 38.6666 116.418 38.4542 117.058 38.6666C115.565 42.4908 113.859 47.5897 113.433 48.652ZM124.52 51.6263C123.454 51.8388 122.175 51.2014 121.962 49.9267C121.962 49.7143 121.962 49.2893 121.962 49.0769C122.175 47.3773 122.815 45.8901 123.881 44.6154C124.947 43.1282 126.439 42.0659 128.358 41.8534C129.211 41.8534 129.424 42.0659 129.424 42.4908C129.424 42.9157 128.358 44.1904 127.079 45.4652C125.8 46.7399 123.881 48.4395 123.881 48.4395C123.881 50.1392 124.52 50.5641 125.8 50.5641C127.505 50.3516 128.998 49.7143 130.277 48.652C130.277 48.8644 130.277 48.8644 130.277 49.0769C128.571 50.5641 126.653 51.4139 124.52 51.6263ZM127.079 42.9157C126.226 42.9157 125.373 43.5531 124.947 44.1904C124.307 45.2527 123.881 46.5274 123.667 47.8022C123.667 47.8022 125.16 46.5274 126.013 45.6776C126.866 44.8278 127.505 43.978 127.505 43.5531C127.505 43.1282 127.505 42.9157 127.079 42.9157Z" fill="#191C2E"></path> <path d="M131.343 51.6264C130.064 51.6264 129.211 50.989 129.211 49.2894C129.424 47.3773 130.277 45.4652 131.77 44.1905C132.836 42.9158 134.328 42.2784 135.821 41.8535C136.247 41.8535 136.674 41.8535 136.674 42.7033C136.674 43.3407 136.461 43.9781 136.034 44.403C135.821 44.6154 135.394 44.8279 134.968 44.8279C134.968 44.8279 134.755 44.8279 134.755 44.6154L134.968 44.1905C135.181 43.9781 135.181 43.7656 135.181 43.3407C135.181 43.1282 135.181 42.9158 134.755 42.9158C133.049 42.9158 130.917 45.8901 130.917 48.4396C130.917 49.2894 131.13 50.5641 132.409 50.5641C133.049 50.5641 133.902 50.3517 134.542 50.1392C135.394 49.7143 136.247 49.2894 137.1 48.652C137.1 48.652 137.313 48.652 137.313 48.8645C135.821 50.3517 133.689 51.4139 131.343 51.6264Z" fill="#191C2E"></path> <path d="M141.151 51.2015C140.938 51.2015 140.725 51.2015 140.512 51.2015C139.872 51.6264 139.232 51.6264 138.593 51.6264C137.74 51.6264 136.674 50.9891 136.674 49.5019C136.674 48.8645 136.887 48.0147 137.1 47.3773C137.313 46.3151 137.953 45.2528 138.593 44.1905C138.806 43.9781 139.232 43.7656 139.446 43.7656C139.659 43.7656 139.872 43.7656 139.872 43.9781C140.725 42.9158 142.004 42.4909 143.284 42.2784C144.35 42.2784 144.989 42.9158 144.989 44.403C144.776 46.9524 143.284 49.077 141.365 50.3517C141.578 50.3517 141.791 50.3517 142.004 50.3517C143.497 50.1393 144.989 49.5019 146.269 48.6521L146.482 48.8645C144.989 50.3517 143.07 51.2015 141.151 51.2015ZM138.379 47.3773C138.166 47.8023 138.166 48.4396 138.166 48.8645C137.953 50.5642 139.019 50.7766 139.232 50.7766H139.446C138.166 49.9268 138.379 48.2272 138.379 47.3773ZM142.004 43.5532C141.578 43.5532 140.938 43.7656 140.512 43.9781C139.446 45.0403 139.019 46.3151 139.019 47.8023C139.019 48.2272 139.019 50.1392 140.512 50.5642C142.217 49.2894 143.284 47.3773 143.284 45.2528C143.284 44.1905 143.07 43.5532 142.004 43.5532Z" fill="#191C2E"></path> <path d="M156.93 50.564C156.077 51.2014 155.224 51.6263 154.158 51.8388C153.731 51.8388 153.731 51.6263 153.731 51.2014C153.945 50.1391 154.371 49.0769 154.584 48.0146C155.011 46.9523 155.224 45.6776 155.65 44.4029C155.65 44.1904 155.65 44.1904 155.65 44.1904C155.224 44.4029 155.011 44.6153 154.584 44.8278C153.731 45.6776 153.092 46.5274 152.452 47.3772C151.812 48.0146 150.959 49.7142 150.959 49.9267C150.959 50.1391 150.107 50.989 149.68 50.989C149.68 50.564 149.893 49.9267 150.107 49.5018L151.386 45.8901C151.599 45.4652 151.599 45.0402 151.812 44.4029C151.812 44.1904 151.812 44.1904 151.812 44.1904C151.812 44.1904 150.959 44.6153 150.107 45.4651C148.827 46.9523 147.548 48.652 146.695 50.564C146.269 50.989 145.842 51.2014 145.416 51.4139C145.203 51.4139 145.203 51.2014 145.203 51.2014C145.416 50.7765 145.416 50.1391 145.629 49.7142C146.269 48.2271 146.482 47.3772 146.695 46.315C146.908 45.6776 147.335 44.4029 147.335 43.978C147.761 43.3406 148.401 42.9157 149.04 42.7032C149.04 42.7032 149.254 42.7032 149.254 42.9157C149.04 43.3406 149.04 43.978 148.827 44.4029C148.401 45.8901 147.548 48.2271 147.548 48.2271C148.401 46.9523 149.254 45.8901 150.107 44.8278C151.386 43.5531 152.452 42.7032 153.092 42.7032C153.305 42.7032 153.518 42.7032 153.518 43.1282C153.092 44.6153 152.665 45.8901 152.239 47.3772C155.224 43.978 156.93 42.9157 157.569 42.9157C157.782 42.9157 157.782 43.1282 157.782 43.3406C157.569 44.6153 157.143 45.8901 156.716 47.1648C156.503 47.8021 155.863 49.9267 155.863 50.3516C155.863 50.7765 155.863 50.564 156.077 50.564C157.356 50.1391 158.422 49.5018 159.488 48.8644L159.701 49.0769C159.488 48.8644 157.569 49.9267 156.93 50.564Z" fill="#191C2E"></path> <path d="M170.149 50.5641C169.296 51.2015 168.444 51.6264 167.377 51.8388C166.951 51.8388 166.951 51.6264 166.951 51.2015C167.164 50.1392 167.591 49.0769 168.017 48.0147C168.444 46.9524 168.87 45.6777 169.083 44.4029C169.083 44.1905 169.083 44.1905 169.083 44.1905C168.657 44.4029 168.444 44.6154 168.017 44.8279C167.164 45.6777 166.525 46.5275 165.885 47.3773C165.245 48.0147 164.392 49.7143 164.392 49.9268C164.392 50.1392 163.326 50.989 162.9 50.989C162.9 50.5641 163.113 49.9268 163.326 49.5018L164.606 45.8901C164.819 45.4652 164.819 45.0403 165.032 44.4029C165.032 44.1905 165.032 44.1905 165.032 44.1905C165.032 44.1905 164.179 44.6154 163.326 45.6777C162.047 47.1649 160.768 48.8645 159.915 50.7766C159.488 51.2015 159.062 51.4139 158.635 51.6264C158.422 51.6264 158.422 51.4139 158.422 51.4139C158.635 50.989 158.635 50.3517 158.849 49.9268C159.488 48.4396 159.702 47.5898 159.915 46.5275C160.128 45.8901 160.341 44.6154 160.554 44.1905C160.981 43.5531 161.621 43.1282 162.26 42.9158C162.26 42.9158 162.473 42.9158 162.473 43.1282C162.26 43.5531 162.26 44.1905 162.047 44.6154C161.621 46.1026 160.768 48.4396 160.768 48.4396C161.621 47.1649 162.473 46.1026 163.326 45.0403C164.606 43.7656 165.672 42.9158 166.311 42.9158C166.525 42.9158 166.738 42.9158 166.738 43.3407C166.311 44.8279 165.885 46.1026 165.458 47.5898C168.444 44.1905 170.149 43.1282 170.789 43.1282C171.002 43.1282 171.002 43.3407 171.002 43.5531C170.789 44.8279 170.363 46.1026 169.936 47.3773C169.723 48.0147 169.083 50.1392 169.083 50.5641C169.083 50.989 169.083 50.7766 169.296 50.7766C170.363 50.3517 171.429 49.7143 172.282 49.0769L172.495 49.2894C172.495 48.8645 170.789 49.9268 170.149 50.5641Z" fill="#191C2E"></path> <path d="M174.414 51.6264C173.348 51.8389 172.068 51.2015 171.855 49.9268C171.855 49.7143 171.855 49.2894 171.855 49.077C172.068 47.3773 172.708 45.8901 173.774 44.6154C174.84 43.1282 176.333 42.066 178.252 41.8535C179.104 41.8535 179.318 42.066 179.318 42.4909C179.318 42.9158 178.252 44.1905 176.972 45.4652C175.693 46.74 173.774 48.4396 173.774 48.4396C173.774 50.1392 174.414 50.5641 175.693 50.5641C177.399 50.3517 178.891 49.7143 180.171 48.652C180.171 48.8645 180.171 48.8645 180.171 49.077C178.678 50.5641 176.546 51.414 174.414 51.6264ZM177.185 42.9158C176.333 42.9158 175.48 43.5531 175.053 44.1905C174.2 45.2528 173.774 46.5275 173.774 47.8022C173.774 47.8022 175.266 46.5275 176.119 45.6777C176.972 44.8279 177.612 43.9781 177.612 43.5531C177.612 43.1282 177.399 42.9158 177.185 42.9158Z" fill="#191C2E"></path> <path d="M186.993 50.5641C186.141 51.2014 185.288 51.6264 184.222 51.8388C184.008 51.8388 184.008 51.6264 184.008 51.4139C184.222 50.3516 184.435 49.0769 184.861 48.0146C185.288 46.315 185.714 44.8278 185.714 44.6154C185.714 44.4029 185.714 44.1905 185.501 44.1905C184.435 44.8278 183.369 45.8901 182.516 46.9524C181.876 47.5897 181.45 48.4395 181.023 49.2894C180.17 50.989 179.957 50.989 179.531 50.989C179.104 50.989 179.318 50.7765 179.318 50.5641C179.318 50.1392 179.531 49.7143 179.744 49.2894C179.957 48.8645 180.17 48.4395 180.17 48.2271L180.81 45.4652C181.023 44.8278 181.237 43.7656 181.45 43.3406C181.663 42.7033 182.516 42.0659 183.156 42.0659C183.156 42.0659 183.369 42.0659 183.369 42.2784C183.156 42.7033 183.156 43.3406 182.942 43.7656C182.516 45.2527 182.303 45.6776 182.089 46.5275C183.582 44.6154 185.288 43.1282 187.633 42.2784C187.846 42.2784 187.846 42.4908 187.846 42.7033C187.633 43.978 187.207 45.2527 186.78 46.5275C186.567 47.1648 185.927 49.2894 185.927 49.7143C185.927 50.1392 185.927 49.9267 186.141 49.9267C187.42 49.5018 188.699 48.652 189.979 47.8022L190.192 48.0146C188.912 49.0769 187.846 49.9267 186.993 50.5641Z" fill="#191C2E"></path> <path d="M194.883 51.6264C194.243 51.6264 194.03 51.4139 194.03 50.3517C194.03 49.5018 194.243 48.8645 194.456 48.0147C193.817 48.8645 193.177 49.7143 192.324 50.3517C191.684 50.989 191.045 51.4139 190.192 51.6264C189.339 51.6264 188.913 50.989 188.913 49.9267C189.126 48.0147 189.979 46.315 191.471 44.8278C192.537 43.5531 194.03 42.4908 195.736 42.2784H196.375C196.375 42.2784 197.868 38.4542 197.868 37.8169C197.868 37.6044 198.081 37.1795 198.507 37.1795C198.934 36.967 199.147 36.7546 199.574 36.7546C199.574 36.7546 199.787 36.7546 199.787 36.967C199.787 36.967 199.36 38.2418 198.934 39.0916C197.868 41.8535 198.294 41.2161 197.228 43.5531C196.588 45.2527 195.736 47.5897 195.522 48.2271C195.309 48.652 195.309 49.0769 195.309 49.7143C195.309 49.9267 195.522 50.3517 195.736 50.3517C197.015 50.1392 198.294 49.5018 199.36 48.4396L199.574 48.8645C198.507 50.3517 196.802 51.2015 194.883 51.6264ZM195.309 43.3407C193.603 43.5531 192.111 44.8278 191.471 46.5275C191.045 47.3773 190.832 48.4396 190.618 49.5018C190.618 50.1392 190.618 50.3516 191.045 50.5641C191.471 50.7766 191.898 50.5641 192.964 49.0769C193.817 48.2271 194.456 47.3773 194.883 46.315L196.162 43.3407H195.309ZM30.2771 33.3553V28.2564C30.2771 25.0696 28.5714 23.5824 23.8805 23.5824H8.31552V33.5678H0.426392V0H25.7995C32.8358 0 37.7398 2.337 37.7398 11.685C37.953 15.2967 36.0341 18.696 32.8358 20.3956C36.2473 21.4579 38.1663 22.7326 38.1663 26.3443V33.1429L30.2771 33.3553ZM25.1599 6.79854H8.31552V16.9963H25.1599C28.5714 16.9963 29.8507 15.5092 29.8507 11.8974C29.8507 8.28571 28.5714 6.79854 25.1599 6.79854ZM167.804 33.3553H156.077C149.467 33.3553 146.269 29.5311 146.269 24.2198V18.2711C146.269 14.022 149.04 9.56044 156.29 9.56044H167.591C175.48 9.56044 177.825 14.4469 177.825 19.1209V23.1575H154.158V24.0073C154.158 26.1319 154.584 28.2564 157.996 28.2564H167.164C168.443 28.4689 169.723 27.4066 169.936 26.1319C169.936 25.9194 169.936 25.707 169.936 25.4945H177.612C177.825 29.7436 175.906 33.3553 167.804 33.3553ZM165.672 14.4469H158.422C155.224 14.4469 154.371 16.5714 154.371 18.696H170.149C170.362 16.5714 168.657 14.6593 166.524 14.4469C166.311 14.4469 165.885 14.4469 165.672 14.4469ZM143.284 0C138.806 0.424908 135.181 4.24908 135.394 8.71062V13.1722C133.902 10.8352 131.343 9.34799 128.571 9.56044H121.535C114.712 9.56044 110.874 13.1722 110.874 19.1209V24.0073C110.874 29.5311 114.072 33.3553 121.322 33.3553H128.358C130.917 33.3553 133.475 32.293 135.181 30.381V33.3553H143.07V0H143.284ZM135.181 23.37C135.181 25.9194 133.049 27.8315 129.637 27.8315H124.307C120.469 27.8315 118.763 26.3443 118.763 23.37V19.5458C118.763 16.7839 120.256 14.8718 124.307 14.8718H129.637C133.049 14.8718 135.181 16.9963 135.181 19.3333V23.37ZM180.81 33.3553H188.699V0C184.222 0.212454 180.597 4.24908 180.81 8.71062V33.3553ZM191.684 33.3553H199.574V0C195.096 0.212454 191.471 4.24908 191.684 8.71062V33.3553ZM97.2281 9.56044H86.3539C79.3176 9.56044 75.6929 13.1722 75.6929 19.3333V33.3553H83.7953V21.033C83.7953 16.9963 85.2878 15.0842 89.339 15.0842H94.243C98.2942 15.0842 99.7867 16.7839 99.7867 21.033V33.3553H107.889V19.3333C107.889 13.1722 104.264 9.56044 97.2281 9.56044ZM62.2601 33.3553H51.1727C44.5629 33.3553 40.7249 29.5311 40.7249 24.0073V18.9084C40.7249 13.5971 44.1364 9.34799 51.1727 9.34799H62.2601C69.2963 9.34799 72.7078 13.5971 72.7078 18.9084V24.0073C72.7078 29.5311 69.0831 33.3553 62.2601 33.3553ZM64.8187 19.5458C64.8187 16.7839 63.113 14.8718 59.7014 14.8718H54.1577C50.533 14.8718 48.8272 16.359 48.8272 19.5458V23.37C48.8272 26.3443 50.533 27.8315 54.1577 27.8315H59.4882C63.113 27.8315 64.6055 26.5568 64.6055 23.37L64.8187 19.5458Z" fill="#191C2E"></path> <path d="M51.1727 7.22343C52.7035 7.22343 53.9445 6.17712 53.9445 4.88643C53.9445 3.59575 52.7035 2.54944 51.1727 2.54944C49.6418 2.54944 48.4008 3.59575 48.4008 4.88643C48.4008 6.17712 49.6418 7.22343 51.1727 7.22343Z" fill="#191C2E"></path> <path d="M61.8336 7.22343C63.3645 7.22343 64.6055 6.17712 64.6055 4.88643C64.6055 3.59575 63.3645 2.54944 61.8336 2.54944C60.3028 2.54944 59.0618 3.59575 59.0618 4.88643C59.0618 6.17712 60.3028 7.22343 61.8336 7.22343Z" fill="#191C2E"></path> </svg> 