<?xml version="1.0" encoding="UTF-8"?> <svg xmlns="http://www.w3.org/2000/svg" width="247" height="62" viewBox="0 0 247 62" fill="none"> <g clip-path="url(#clip0)"> <path d="M30.1201 6.72357C30.9107 7.7393 31.5801 8.84318 32.1151 10.013L16.9496 21.1317L10.614 17.1809V12.4276L16.9496 16.3783L30.1201 6.72357V6.72357Z" fill="#21A038"></path> <path d="M4.14888 16.8468C4.14888 16.6333 4.15407 16.4214 4.16443 16.2096L0.324702 16.0201C0.205726 18.3318 0.576442 20.6426 1.41271 22.8019C2.24898 24.9612 3.53204 26.9207 5.17834 28.5528L7.90052 25.8454C6.71107 24.6662 5.76726 23.264 5.1234 21.7197C4.47954 20.1753 4.14835 18.5193 4.14888 16.8468V16.8468Z" fill="url(#paint0_linear)"></path> <path d="M16.9479 4.11612C17.162 4.11612 17.3745 4.12301 17.5869 4.13335L17.7787 0.313456C15.4565 0.194055 13.1351 0.562036 10.9645 1.39359C8.79401 2.22515 6.82273 3.50177 5.17822 5.14084L7.9004 7.8499C9.08811 6.66487 10.4986 5.7251 12.0511 5.0844C13.6036 4.4437 15.2676 4.11466 16.9479 4.11612V4.11612Z" fill="url(#paint1_linear)"></path> <path d="M16.9497 29.5775C16.7355 29.5775 16.5231 29.5723 16.3106 29.5602L16.1189 33.3801C18.4411 33.4995 20.7625 33.1315 22.933 32.3C25.1036 31.4684 27.0748 30.1918 28.7194 28.5527L25.9972 25.8454C24.809 27.0297 23.3984 27.9689 21.846 28.6093C20.2936 29.2497 18.6298 29.5787 16.9497 29.5775V29.5775Z" fill="url(#paint2_linear)"></path> <path d="M24.1645 6.33778L27.4015 3.96456C24.442 1.58227 20.7516 0.286 16.948 0.292782V4.11612C19.5234 4.11281 22.0393 4.88737 24.1645 6.33778V6.33778Z" fill="url(#paint3_linear)"></path> <path d="M33.5919 16.8451C33.5919 15.8324 33.5004 14.8421 33.3242 13.8794L29.7435 16.5041L29.7487 16.8434C29.7487 20.5806 28.1199 23.9475 25.5342 26.2794L28.1165 29.1211C29.842 27.5726 31.2214 25.6793 32.1648 23.5642C33.1081 21.4492 33.5944 19.1598 33.5919 16.8451V16.8451Z" fill="#21A038"></path> <path d="M16.9498 29.5757C15.1624 29.5768 13.3947 29.2041 11.7607 28.4818C10.1268 27.7595 8.66288 26.7035 7.46358 25.3821L4.6084 27.9517C6.16882 29.6701 8.07349 31.043 10.1993 31.9816C12.3251 32.9203 14.6248 33.4037 16.9498 33.4008V29.5774V29.5757Z" fill="url(#paint4_linear)"></path> <path d="M8.36514 7.41247L5.78114 4.5708C4.05532 6.1192 2.67571 8.01249 1.73205 10.1275C0.788393 12.2425 0.301814 14.5319 0.303962 16.8468H4.14887C4.14887 13.1096 5.77769 9.74264 8.36514 7.41247Z" fill="url(#paint5_linear)"></path> <path d="M95.9362 10.0096L100.384 6.74941H85.5069V26.3173H100.384V23.0623H89.7508V18.0506H98.8208V14.7905H89.7508V10.0096H95.9362V10.0096ZM74.2728 14.3806H69.1065V10.0079H77.3559L81.8037 6.74769H64.8574V26.3156H73.7235C78.6963 26.3156 81.5463 24.0767 81.5463 20.1672C81.5463 16.4352 78.9623 14.3771 74.2728 14.3771V14.3806ZM73.5335 23.0623H69.1082V17.639H73.5352C76.2298 17.639 77.4838 18.5466 77.4838 20.3532C77.4838 22.1943 76.1538 23.0623 73.5352 23.0623H73.5335ZM112.437 6.74941H104.338V26.3173H108.582V20.7735H112.437C117.608 20.7735 120.818 18.0696 120.818 13.752C120.818 9.43435 117.605 6.74941 112.437 6.74941V6.74941ZM112.345 17.5185H108.582V10.0096H112.345C115.064 10.0096 116.565 11.3426 116.565 13.7657C116.565 16.1855 115.064 17.5202 112.345 17.5202V17.5185ZM57.57 22.0806C56.4818 22.68 55.2158 22.9934 53.9048 22.9934C50.0788 22.9934 47.2962 20.274 47.2962 16.5316C47.2962 12.7892 50.0737 10.0699 53.9048 10.0699C55.3522 10.0699 56.6528 10.4763 57.7652 11.2737L60.8104 9.04169L60.61 8.86946C58.8327 7.31258 56.4594 6.4928 53.7407 6.4928C50.7922 6.4928 48.1167 7.48135 46.2098 9.27419C44.2925 11.0791 43.2319 13.6194 43.2319 16.4266C43.2319 19.2459 44.2856 21.8206 46.1994 23.684C48.1167 25.5492 50.787 26.5774 53.7113 26.5774C56.7686 26.5774 59.4458 25.5147 61.256 23.5824C59.8569 22.5594 58.5097 21.5691 58.5097 21.5691L57.5718 22.0806H57.57Z" fill="#21A038"></path> <path d="M62.3165 40.4154L55.9946 50.8073H54.2259L47.7694 40.5601V55.1111H44.2578V35.5605H48.6969L55.2122 46.2004L61.6705 35.5605H65.8263V55.1111H62.3165V40.4154ZM83.2044 46.643H74.1638V51.8923H84.5551V55.1042H70.6523V35.5553H84.2442V38.7655H74.1638V43.431H83.2044V46.643ZM101.79 38.7672H91.9616V55.1042H88.4535V35.5553H101.792V38.7655L101.79 38.7672ZM119.845 55.1042H116.111L114.231 50.468H105.218L103.365 55.1042H99.8L107.773 35.5553H111.76L119.843 55.1025L119.845 55.1042ZM112.936 47.2561L109.706 39.2391L106.476 47.2561H112.936ZM146.473 40.4137L140.151 50.8056H138.384L131.926 40.5584V55.1077H128.416V35.5605H132.855L139.37 46.1986L145.827 35.5605H149.984V55.1077H146.473V40.4137V40.4137ZM172.503 55.1042H168.772L166.886 50.468H157.874L156.019 55.1042H152.456L160.429 35.5553H164.416L172.504 55.1025L172.503 55.1042ZM165.599 47.2561L162.37 39.2391L159.14 47.2561H165.6H165.599ZM178.515 49.0179V55.1111H175.004V35.5605H181.545C184.652 35.5605 186.905 36.115 188.299 37.2207C189.692 38.3264 190.392 39.9831 190.392 42.1755C190.392 44.4661 189.644 46.1797 188.143 47.3146C186.647 48.4496 184.448 49.0196 181.545 49.0196H178.515V49.0179ZM178.515 38.7655V45.8025H181.802C183.448 45.8025 184.687 45.5184 185.507 44.9535C186.333 44.3834 186.741 43.431 186.741 42.0894C186.741 40.8821 186.357 40.0227 185.59 39.5199C184.822 39.017 183.58 38.7655 181.856 38.7655H178.515ZM197.491 55.1042H193.981V35.5553H197.491V43.7651H200.438L206.756 35.5553H211.024L203.526 44.8553L212.233 55.1025H207.741L200.609 46.643H197.491V55.1042ZM227.287 46.643H218.246V51.8923H228.637V55.1042H214.734V35.5553H228.326V38.7655H218.246V43.431H227.287V46.643V46.643ZM247.135 38.7672H240.507V55.1042H236.996V38.7655H230.48V35.5553H247.129V38.7655H247.135V38.7672Z" fill="#632895"></path> </g> <defs> <linearGradient id="paint0_linear" x1="4.76725" y1="28.074" x2="0.896022" y2="16.8192" gradientUnits="userSpaceOnUse"> <stop offset="0.144" stop-color="#F2E913"></stop> <stop offset="0.304" stop-color="#E7E518"></stop> <stop offset="0.582" stop-color="#CADB26"></stop> <stop offset="0.891" stop-color="#A3CD39"></stop> </linearGradient> <linearGradient id="paint1_linear" x1="6.27677" y1="4.71373" x2="16.2271" y2="0.901977" gradientUnits="userSpaceOnUse"> <stop offset="0.059" stop-color="#0FA8E0"></stop> <stop offset="0.538" stop-color="#0099F9"></stop> <stop offset="0.923" stop-color="#0291EB"></stop> </linearGradient> <linearGradient id="paint2_linear" x1="15.865" y1="30.1647" x2="27.7245" y2="27.47" gradientUnits="userSpaceOnUse"> <stop offset="0.123" stop-color="#A3CD39"></stop> <stop offset="0.285" stop-color="#86C339"></stop> <stop offset="0.869" stop-color="#21A038"></stop> </linearGradient> <linearGradient id="paint3_linear" x1="16.1448" y1="2.71767" x2="26.0059" y2="5.77714" gradientUnits="userSpaceOnUse"> <stop offset="0.057" stop-color="#0291EB"></stop> <stop offset="0.79" stop-color="#0C8ACB"></stop> </linearGradient> <linearGradient id="paint4_linear" x1="5.57222" y1="28.5682" x2="16.1631" y2="32.5463" gradientUnits="userSpaceOnUse"> <stop offset="0.132" stop-color="#F2E913"></stop> <stop offset="0.298" stop-color="#EBE716"></stop> <stop offset="0.531" stop-color="#D9E01F"></stop> <stop offset="0.802" stop-color="#BBD62D"></stop> <stop offset="0.983" stop-color="#A3CD39"></stop> </linearGradient> <linearGradient id="paint5_linear" x1="3.24033" y1="17.3101" x2="7.42825" y2="6.3606" gradientUnits="userSpaceOnUse"> <stop offset="0.07" stop-color="#A3CD39"></stop> <stop offset="0.26" stop-color="#81C55F"></stop> <stop offset="0.922" stop-color="#0FA8E0"></stop> </linearGradient> <clipPath id="clip0"> <rect width="247" height="62" fill="white"></rect> </clipPath> </defs> </svg> 