<?xml version="1.0" encoding="UTF-8"?> <svg xmlns="http://www.w3.org/2000/svg" width="188" height="29" viewBox="0 0 188 29" fill="none"> <path fill-rule="evenodd" clip-rule="evenodd" d="M184.799 23.2573C184.176 23.2573 183.579 23.5042 183.138 23.9436C182.698 24.3831 182.45 24.9791 182.45 25.6006C182.45 26.222 182.698 26.818 183.138 27.2575C183.579 27.6969 184.176 27.9438 184.799 27.9438C185.108 27.9435 185.413 27.8825 185.698 27.7642C185.983 27.6459 186.241 27.4727 186.459 27.2545C186.677 27.0363 186.849 26.7774 186.966 26.4927C187.083 26.208 187.142 25.903 187.141 25.5953C187.141 25.2883 187.081 24.9844 186.963 24.7007C186.846 24.4171 186.673 24.1593 186.456 23.9422C186.238 23.7251 185.98 23.5528 185.696 23.4353C185.412 23.3178 185.107 23.2573 184.799 23.2573V23.2573ZM184.799 27.6621C184.528 27.6623 184.258 27.6091 184.007 27.5053C183.756 27.4015 183.528 27.2493 183.336 27.0573C183.144 26.8654 182.992 26.6375 182.889 26.3868C182.786 26.136 182.733 25.8674 182.734 25.5963C182.734 25.0507 182.951 24.5274 183.338 24.1416C183.725 23.7558 184.249 23.5391 184.796 23.5391C185.343 23.5391 185.868 23.7558 186.254 24.1416C186.641 24.5274 186.858 25.0507 186.858 25.5963C186.86 25.867 186.807 26.1352 186.705 26.3856C186.602 26.6361 186.45 26.8638 186.259 27.0557C186.068 27.2476 185.84 27.4 185.59 27.504C185.339 27.6081 185.071 27.6618 184.799 27.6621V27.6621Z" fill="#191C2E"></path> <path fill-rule="evenodd" clip-rule="evenodd" d="M186.005 24.9808C186.005 24.7607 185.907 24.5278 185.712 24.4183C185.513 24.3003 185.293 24.2876 185.07 24.2876H183.928V26.9062H184.248V25.6995H184.838L185.587 26.9062H185.97L185.177 25.6995C185.642 25.6867 186.005 25.4964 186.005 24.9808V24.9808ZM184.74 25.4486H184.248V24.5225H184.998C185.323 24.5225 185.681 24.5704 185.681 24.9754C185.68 25.5081 185.107 25.4486 184.74 25.4486V25.4486ZM169.233 0.797743C166.485 0.797743 158.76 1.08374 153.667 1.82477V27.3984H161.846V18.1498C162.877 18.4922 168.776 19.0631 170.835 19.0631C172.896 19.0631 187.659 18.4337 187.659 9.70184C187.658 0.340577 171.979 0.797743 169.233 0.797743V0.797743ZM169.689 14.6105C167.058 14.6105 164.021 14.3819 161.846 13.5824V5.70537C164.594 5.47679 168.946 5.30562 170.206 5.30562C171.466 5.30562 177.99 5.59161 178.045 9.81561C178.101 14.2097 172.322 14.6105 169.689 14.6105V14.6105ZM28.6684 12.1014C26.459 11.6092 18.1402 10.2749 15.9649 9.98997C13.1032 9.64763 11.4448 9.13411 11.4448 7.5351C11.4448 5.36622 15.6739 5.74045 19.1133 5.87866C23.3478 6.0509 31.3021 8.67589 33.5904 9.64657L36.2794 3.76719C31.8733 1.59725 23.4043 0.571289 18.0262 0.571289C14.1338 0.627637 1.13294 1.54303 0.97307 8.4473C0.859027 13.357 5.16707 15.1379 10.6433 16.4966C15.335 17.4662 20.5437 17.9234 24.0918 18.6665C28.6364 19.616 28.613 22.8321 25.0073 23.1744C18.7861 23.6273 8.2409 20.5494 3.43405 18.1509L0.34317 24.43C7.03759 27.6844 17.3942 28.4712 20.9444 28.4276C25.5221 28.3691 37.6533 27.913 37.6533 20.6632C37.6512 15.8927 33.5318 13.1859 28.6684 12.1014V12.1014ZM64.9671 11.7591H48.0301V1.8269H39.3309V27.4005H48.0301V16.8974H64.9671V27.4005H73.6652V1.8269H64.9671V11.7591ZM100.468 1.8269H89.7676L74.7183 27.3995H81.4692L84.9597 21.5765H101.939L105.447 27.3995H115.918L100.468 1.8269ZM87.9355 16.4403L93.3158 7.25016L98.8484 16.4403H87.9355ZM151.134 9.30209C151.074 -0.0591769 135.169 0.797743 132.422 0.797743C129.676 0.797743 121.951 1.08374 116.857 1.82477V27.3984H125.158V5.70643C128.133 5.47785 132.365 5.30668 133.622 5.30668C134.882 5.30668 141.349 5.07915 141.406 9.70291C141.46 14.0981 135.398 14.1555 132.765 14.1555C131.105 14.1555 129.732 13.8131 128.301 13.4697L126.757 16.0968L139.573 27.3995H151.87L140.712 17.6108C145.449 16.6625 151.168 14.4532 151.134 9.30209V9.30209Z" fill="#191C2E"></path> </svg> 