<?xml version="1.0" encoding="UTF-8"?> <svg xmlns="http://www.w3.org/2000/svg" width="830" height="406" viewBox="0 0 830 406" fill="none"> <rect opacity="0.05" width="389" height="339" rx="8" fill="#584A6E"></rect> <rect x="260.5" y="22.5" width="569" height="383" rx="7.5" fill="white" stroke="#210E3E"></rect> <g clip-path="url(#clip0)"> <path d="M435.33 102.557L440.16 97.9973C443.1 95.2673 443.67 93.4073 443.67 91.3673C443.67 87.5573 440.55 85.1573 435.87 85.1573C432.09 85.1573 429.15 86.6873 427.53 89.0573L431.07 91.3373C432.09 89.9273 433.62 89.2373 435.42 89.2373C437.64 89.2373 438.78 90.1973 438.78 91.8473C438.78 92.8673 438.45 93.9473 436.59 95.7173L428.49 103.367V106.517H444.36V102.557H435.33ZM456.175 94.0673L460.915 88.6673V85.5173H446.215V89.4173H455.155L450.835 94.3073V97.5173H453.055C455.815 97.5173 456.985 98.5073 456.985 100.097C456.985 101.807 455.485 102.797 453.055 102.797C450.865 102.797 448.645 102.107 447.055 100.907L445.165 104.627C447.205 106.067 450.235 106.877 453.175 106.877C459.145 106.877 461.875 103.637 461.875 100.097C461.875 97.0073 459.955 94.6673 456.175 94.0673ZM471.655 85.5173V89.4173H475.855V106.517H480.715V85.5173H471.655ZM493.363 106.877C498.553 106.877 502.363 102.947 502.363 96.0173C502.363 89.0873 498.553 85.1573 493.363 85.1573C488.203 85.1573 484.363 89.0873 484.363 96.0173C484.363 102.947 488.203 106.877 493.363 106.877ZM493.363 102.767C490.963 102.767 489.283 100.787 489.283 96.0173C489.283 91.2473 490.963 89.2673 493.363 89.2673C495.793 89.2673 497.473 91.2473 497.473 96.0173C497.473 100.787 495.793 102.767 493.363 102.767ZM513.725 106.877C518.915 106.877 522.725 102.947 522.725 96.0173C522.725 89.0873 518.915 85.1573 513.725 85.1573C508.565 85.1573 504.725 89.0873 504.725 96.0173C504.725 102.947 508.565 106.877 513.725 106.877ZM513.725 102.767C511.325 102.767 509.645 100.787 509.645 96.0173C509.645 91.2473 511.325 89.2673 513.725 89.2673C516.155 89.2673 517.835 91.2473 517.835 96.0173C517.835 100.787 516.155 102.767 513.725 102.767Z" fill="#210E3E"></path> <path d="M568.184 94.1193H565.052V91.0593H562.73V94.1193H559.616V96.3153H562.73V99.3753H565.052V96.3153H568.184V94.1193ZM576.114 93.6153C574.8 93.6153 573.738 93.9933 573 94.7313C573.09 92.3193 574.44 91.0773 576.546 91.0773C577.392 91.0773 578.202 91.2393 578.904 91.7073L579.984 89.5653C579.102 89.0073 577.806 88.7013 576.474 88.7013C572.676 88.7013 570.048 91.1313 570.048 95.4873C570.048 99.5553 572.208 101.733 575.682 101.733C578.346 101.733 580.452 100.113 580.452 97.5393C580.452 95.1633 578.544 93.6153 576.114 93.6153ZM575.52 99.5553C574.116 99.5553 573.306 98.7633 573.306 97.6833C573.306 96.5853 574.206 95.7933 575.484 95.7933C576.78 95.7933 577.626 96.5313 577.626 97.6833C577.626 98.8353 576.762 99.5553 575.52 99.5553ZM585.937 88.7013C583.273 88.7013 581.167 90.3213 581.167 92.8953C581.167 95.2713 583.075 96.8193 585.505 96.8193C586.819 96.8193 587.899 96.4233 588.637 95.6853C588.547 98.1153 587.179 99.3573 585.091 99.3573C584.227 99.3573 583.417 99.1953 582.733 98.7273L581.653 100.869C582.535 101.427 583.813 101.733 585.145 101.733C588.961 101.733 591.571 99.3033 591.571 94.9473C591.571 90.8793 589.429 88.7013 585.937 88.7013ZM586.153 94.6413C584.857 94.6413 584.011 93.9033 584.011 92.7513C584.011 91.5993 584.875 90.8793 586.117 90.8793C587.503 90.8793 588.313 91.6713 588.313 92.7513C588.313 93.8493 587.431 94.6413 586.153 94.6413ZM592.288 88.9173V91.2573H594.808V101.517H597.724V88.9173H592.288ZM602.829 95.7213C604.665 95.7213 605.943 94.3893 605.943 92.2473C605.943 90.1053 604.665 88.7733 602.829 88.7733C600.993 88.7733 599.697 90.1233 599.697 92.2473C599.697 94.3713 600.993 95.7213 602.829 95.7213ZM601.731 101.517H603.873L612.477 88.9173H610.335L601.731 101.517ZM602.829 94.2453C602.055 94.2453 601.515 93.5793 601.515 92.2473C601.515 90.9153 602.055 90.2493 602.829 90.2493C603.621 90.2493 604.143 90.8973 604.143 92.2473C604.143 93.5973 603.621 94.2453 602.829 94.2453ZM611.379 101.661C613.215 101.661 614.511 100.311 614.511 98.1873C614.511 96.0633 613.215 94.7133 611.379 94.7133C609.561 94.7133 608.265 96.0633 608.265 98.1873C608.265 100.311 609.561 101.661 611.379 101.661ZM611.379 100.185C610.605 100.185 610.065 99.5373 610.065 98.1873C610.065 96.8373 610.605 96.1893 611.379 96.1893C612.171 96.1893 612.693 96.8553 612.693 98.1873C612.693 99.5193 612.171 100.185 611.379 100.185ZM627.15 91.6893C625.854 91.6893 624.81 92.1033 624.108 92.9493V91.8333H621.426V105.009H624.234V100.491C624.954 101.283 625.944 101.661 627.15 101.661C629.868 101.661 631.974 99.7173 631.974 96.6753C631.974 93.6333 629.868 91.6893 627.15 91.6893ZM626.664 99.3573C625.26 99.3573 624.198 98.3493 624.198 96.6753C624.198 95.0013 625.26 93.9933 626.664 93.9933C628.068 93.9933 629.13 95.0013 629.13 96.6753C629.13 98.3493 628.068 99.3573 626.664 99.3573ZM638.478 101.661C641.556 101.661 643.788 99.5913 643.788 96.6753C643.788 93.7593 641.556 91.6893 638.478 91.6893C635.4 91.6893 633.15 93.7593 633.15 96.6753C633.15 99.5913 635.4 101.661 638.478 101.661ZM638.478 99.3573C637.074 99.3573 635.994 98.3493 635.994 96.6753C635.994 95.0013 637.074 93.9933 638.478 93.9933C639.882 93.9933 640.944 95.0013 640.944 96.6753C640.944 98.3493 639.882 99.3573 638.478 99.3573ZM650.327 101.661C652.361 101.661 653.963 100.761 654.665 99.2133L652.487 98.0253C651.965 98.9613 651.191 99.3573 650.309 99.3573C648.887 99.3573 647.771 98.3673 647.771 96.6753C647.771 94.9833 648.887 93.9933 650.309 93.9933C651.191 93.9933 651.965 94.4073 652.487 95.3253L654.665 94.1553C653.963 92.5713 652.361 91.6893 650.327 91.6893C647.177 91.6893 644.927 93.7593 644.927 96.6753C644.927 99.5913 647.177 101.661 650.327 101.661ZM664.472 91.8333H655.13V94.1373H658.406V101.517H661.196V94.1373H664.472V91.8333Z" fill="#31D773"></path> <path d="M541.5 101.017L551.5 91.0173" stroke="#31D773" stroke-width="2" stroke-linecap="round" stroke-linejoin="round"></path> <path d="M541.5 91.0173H551.5V101.017" stroke="#31D773" stroke-width="2" stroke-linecap="round" stroke-linejoin="round"></path> </g> <path d="M435.284 138.691C438.692 138.691 441.22 136.259 441.22 132.963C441.22 129.667 438.692 127.235 435.284 127.235C431.844 127.235 429.316 129.683 429.316 132.963C429.316 136.243 431.844 138.691 435.284 138.691ZM435.284 137.267C432.772 137.267 430.916 135.443 430.916 132.963C430.916 130.483 432.772 128.659 435.284 128.659C437.764 128.659 439.62 130.483 439.62 132.963C439.62 135.443 437.764 137.267 435.284 137.267ZM443.551 138.563H445.087V135.011H449.919V138.563H451.455V130.083H449.919V133.683H445.087V130.083H443.551V138.563ZM455.209 130.083L455.065 133.219C454.953 135.219 454.889 137.299 453.513 137.299C453.401 137.299 453.273 137.283 453.129 137.251L453.033 138.547C453.385 138.643 453.689 138.691 453.977 138.691C455.897 138.691 456.297 136.307 456.441 133.315L456.537 131.427H460.185V138.563H461.721V130.083H455.209ZM467.715 130.003C466.355 130.003 465.091 130.387 464.211 131.091L464.851 132.243C465.507 131.683 466.531 131.331 467.539 131.331C469.059 131.331 469.811 132.083 469.811 133.379V133.683H467.379C464.851 133.683 463.971 134.803 463.971 136.163C463.971 137.635 465.187 138.659 467.107 138.659C468.435 138.659 469.379 138.211 469.891 137.443V138.563H471.347V133.443C471.347 131.123 470.035 130.003 467.715 130.003ZM467.363 137.475C466.195 137.475 465.491 136.947 465.491 136.099C465.491 135.379 465.923 134.787 467.443 134.787H469.811V135.971C469.427 136.947 468.515 137.475 467.363 137.475ZM478.081 128.979C479.633 128.979 480.577 128.211 480.609 126.771H479.537C479.521 127.571 478.945 128.083 478.065 128.083C477.201 128.083 476.625 127.571 476.609 126.771H475.569C475.585 128.211 476.529 128.979 478.081 128.979ZM474.113 138.563H475.521L480.705 132.387V138.563H482.241V130.083H480.849L475.649 136.259V130.083H474.113V138.563ZM485.222 138.563H486.758V135.011H491.59V138.563H493.126V130.083H491.59V133.683H486.758V130.083H485.222V138.563ZM495.537 134.835H499.841V133.507H495.537V134.835ZM502.238 130.083V138.563H503.774V131.427H508.558V138.563H510.094V130.083H502.238ZM517.562 130.003C516.314 130.003 515.226 130.483 514.538 131.427V130.083H513.066V141.667H514.602V137.283C515.306 138.195 516.362 138.659 517.562 138.659C520.042 138.659 521.85 136.931 521.85 134.323C521.85 131.731 520.042 130.003 517.562 130.003ZM517.434 137.315C515.818 137.315 514.586 136.131 514.586 134.323C514.586 132.531 515.818 131.347 517.434 131.347C519.066 131.347 520.298 132.531 520.298 134.323C520.298 136.131 519.066 137.315 517.434 137.315ZM527.714 138.659C530.258 138.659 532.114 136.851 532.114 134.323C532.114 131.795 530.258 130.003 527.714 130.003C525.17 130.003 523.298 131.795 523.298 134.323C523.298 136.851 525.17 138.659 527.714 138.659ZM527.714 137.315C526.082 137.315 524.85 136.131 524.85 134.323C524.85 132.515 526.082 131.347 527.714 131.347C529.346 131.347 530.562 132.515 530.562 134.323C530.562 136.131 529.346 137.315 527.714 137.315ZM541.597 137.219V130.083H535.021L534.893 132.947C534.781 135.091 534.573 137.155 533.357 137.219H532.909V140.531H534.365V138.563H541.453V140.531H542.893V137.219H541.597ZM536.301 133.059L536.381 131.427H540.061V137.219H535.309C536.077 136.547 536.237 134.819 536.301 133.059ZM547.918 130.003C546.558 130.003 545.294 130.387 544.414 131.091L545.054 132.243C545.71 131.683 546.734 131.331 547.742 131.331C549.262 131.331 550.014 132.083 550.014 133.379V133.683H547.582C545.054 133.683 544.174 134.803 544.174 136.163C544.174 137.635 545.39 138.659 547.31 138.659C548.638 138.659 549.582 138.211 550.094 137.443V138.563H551.55V133.443C551.55 131.123 550.238 130.003 547.918 130.003ZM547.566 137.475C546.398 137.475 545.694 136.947 545.694 136.099C545.694 135.379 546.126 134.787 547.646 134.787H550.014V135.971C549.63 136.947 548.718 137.475 547.566 137.475ZM564.38 138.563H566.204L563.292 134.195L565.98 130.083H564.332L562.044 133.667H560.38V130.083H558.844V133.667H557.18L554.892 130.083H553.26L555.948 134.179L553.036 138.563H554.86L557.196 134.979H558.844V138.563H560.38V134.979H562.028L564.38 138.563ZM567.894 138.563H569.302L574.486 132.387V138.563H576.022V130.083H574.63L569.43 136.259V130.083H567.894V138.563ZM579.356 136.467C578.748 136.467 578.284 136.915 578.284 137.555C578.284 138.035 578.556 138.403 578.956 138.547L578.364 140.931H579.372L580.124 138.707C580.332 138.115 580.396 137.875 580.396 137.555C580.396 136.931 579.964 136.467 579.356 136.467ZM595.262 130.083L591.838 135.811L588.51 130.083H586.926V138.563H588.334V132.355L591.47 137.603H592.142L595.31 132.371V138.563H596.702V130.083H595.262ZM600.459 130.083L600.315 133.219C600.203 135.219 600.139 137.299 598.763 137.299C598.651 137.299 598.523 137.283 598.379 137.251L598.283 138.547C598.635 138.643 598.939 138.691 599.227 138.691C601.147 138.691 601.547 136.307 601.691 133.315L601.787 131.427H605.435V138.563H606.971V130.083H600.459ZM609.941 138.563H611.477V135.011H616.309V138.563H617.845V130.083H616.309V133.683H611.477V130.083H609.941V138.563ZM629.625 130.003C628.377 130.003 627.289 130.483 626.601 131.427V130.083H625.129V141.667H626.665V137.283C627.369 138.195 628.425 138.659 629.625 138.659C632.105 138.659 633.913 136.931 633.913 134.323C633.913 131.731 632.105 130.003 629.625 130.003ZM629.497 137.315C627.881 137.315 626.649 136.131 626.649 134.323C626.649 132.531 627.881 131.347 629.497 131.347C631.129 131.347 632.361 132.531 632.361 134.323C632.361 136.131 631.129 137.315 629.497 137.315ZM641.974 130.083L639.046 136.867L636.086 130.083H634.486L638.23 138.547L637.958 139.139C637.542 140.115 637.078 140.451 636.342 140.451C635.766 140.451 635.238 140.227 634.822 139.827L634.166 140.979C634.694 141.491 635.526 141.763 636.342 141.763C637.638 141.763 638.614 141.203 639.366 139.411L643.478 130.083H641.974ZM649.261 130.371C647.837 130.371 646.637 130.995 645.917 132.083C646.077 129.875 647.117 128.787 649.325 128.307L652.893 127.539L652.669 126.131L648.797 126.995C645.869 127.635 644.445 129.539 644.445 133.043C644.445 136.611 646.061 138.691 648.957 138.691C651.549 138.691 653.341 136.995 653.341 134.499C653.341 132.067 651.661 130.371 649.261 130.371ZM648.989 137.411C647.357 137.411 646.189 136.227 646.189 134.547C646.189 132.867 647.325 131.747 648.989 131.747C650.653 131.747 651.773 132.867 651.773 134.547C651.773 136.227 650.637 137.411 648.989 137.411ZM655.683 138.659C656.259 138.659 656.739 138.195 656.739 137.555C656.739 136.915 656.259 136.467 655.683 136.467C655.091 136.467 654.595 136.915 654.595 137.555C654.595 138.195 655.091 138.659 655.683 138.659Z" fill="#1C1349"></path> <g opacity="0.1"> <path d="M327 102C327 101.448 327.448 101 328 101H374C374.552 101 375 101.448 375 102V127C375 127.552 374.552 128 374 128H328C327.448 128 327 127.552 327 127V102Z" fill="#210E3E"></path> <path d="M334 95C334 94.4477 334.448 94 335 94H381C381.552 94 382 94.4477 382 95V120C382 120.552 381.552 121 381 121H335C334.448 121 334 120.552 334 120V95Z" fill="#210E3E"></path> <path d="M340 89C340 88.4477 340.448 88 341 88H387C387.552 88 388 88.4477 388 89V114C388 114.552 387.552 115 387 115H341C340.448 115 340 114.552 340 114V89Z" fill="#210E3E"></path> </g> <path d="M332 98H378V123H332V98Z" fill="white"></path> <path d="M338 92H384V117H338V92Z" fill="white"></path> <path d="M343 86H389V111H343V86Z" fill="white"></path> <path d="M355.227 119.029C360.062 119.029 363.996 115.095 363.996 110.26C363.996 105.426 360.062 101.492 355.227 101.492C350.393 101.492 346.459 105.426 346.459 110.26C346.459 115.095 350.393 119.029 355.227 119.029ZM355.227 103.382C359.02 103.382 362.106 106.467 362.106 110.26C362.106 114.054 359.021 117.139 355.227 117.139C351.434 117.139 348.348 114.054 348.348 110.26C348.348 106.467 351.434 103.382 355.227 103.382Z" fill="#210E3E"></path> <path d="M337.719 102.437H335.83V118.084H337.719V102.437Z" fill="#210E3E"></path> <path d="M374.328 102.437H372.438V118.084H374.328V102.437Z" fill="#210E3E"></path> <path d="M389.812 85H341.782V90.605H336.616V96.7315H331V123.789H379.03V117.662H384.646V112.057H389.811V85H389.812ZM377.141 121.899H332.89V98.6213H377.141V121.899ZM382.756 115.773H379.03V96.7315H338.505V92.4947H382.757L382.756 115.773ZM387.922 110.168H384.647V90.605H343.671V86.8897H387.922V110.168Z" fill="#210E3E"></path> <g clip-path="url(#clip1)"> <path d="M436.87 196.983H435.16L435.49 192.993H444.25V189.093H431.44L430.36 200.913H435.73C439.54 200.913 440.62 201.993 440.62 203.643C440.62 205.353 439.12 206.373 436.69 206.373C434.5 206.373 432.31 205.683 430.72 204.483L428.8 208.203C430.84 209.643 433.9 210.453 436.81 210.453C442.81 210.453 445.54 207.213 445.54 203.493C445.54 199.773 443.08 196.983 436.87 196.983ZM466.118 196.923C463.928 196.923 462.158 197.553 460.928 198.783C461.078 194.763 463.328 192.693 466.838 192.693C468.248 192.693 469.598 192.963 470.768 193.743L472.568 190.173C471.098 189.243 468.938 188.733 466.718 188.733C460.388 188.733 456.008 192.783 456.008 200.043C456.008 206.823 459.608 210.453 465.398 210.453C469.838 210.453 473.348 207.753 473.348 203.463C473.348 199.503 470.168 196.923 466.118 196.923ZM465.128 206.823C462.788 206.823 461.438 205.503 461.438 203.703C461.438 201.873 462.938 200.553 465.068 200.553C467.228 200.553 468.638 201.783 468.638 203.703C468.638 205.623 467.198 206.823 465.128 206.823ZM481.769 206.133L486.599 201.573C489.539 198.843 490.109 196.983 490.109 194.943C490.109 191.133 486.989 188.733 482.309 188.733C478.529 188.733 475.589 190.263 473.969 192.633L477.509 194.913C478.529 193.503 480.059 192.813 481.859 192.813C484.079 192.813 485.219 193.773 485.219 195.423C485.219 196.443 484.889 197.523 483.029 199.293L474.929 206.943V210.093H490.799V206.133H481.769ZM501.746 210.453C506.936 210.453 510.746 206.523 510.746 199.593C510.746 192.663 506.936 188.733 501.746 188.733C496.586 188.733 492.746 192.663 492.746 199.593C492.746 206.523 496.586 210.453 501.746 210.453ZM501.746 206.343C499.346 206.343 497.666 204.363 497.666 199.593C497.666 194.823 499.346 192.843 501.746 192.843C504.176 192.843 505.856 194.823 505.856 199.593C505.856 204.363 504.176 206.343 501.746 206.343Z" fill="#210E3E"></path> <path d="M556.184 198.195H553.052V195.135H550.73V198.195H547.616V200.391H550.73V203.451H553.052V200.391H556.184V198.195ZM566.599 198.969C567.535 198.393 568.075 197.511 568.075 196.377C568.075 194.163 566.095 192.777 563.197 192.777C560.335 192.777 558.355 194.163 558.355 196.377C558.355 197.511 558.877 198.393 559.813 198.969C558.607 199.581 557.905 200.589 557.905 201.939C557.905 204.315 560.011 205.809 563.197 205.809C566.401 205.809 568.525 204.315 568.525 201.939C568.525 200.589 567.823 199.581 566.599 198.969ZM563.197 194.919C564.385 194.919 565.177 195.513 565.177 196.503C565.177 197.457 564.403 198.051 563.197 198.051C562.009 198.051 561.253 197.457 561.253 196.503C561.253 195.513 562.027 194.919 563.197 194.919ZM563.197 203.667C561.757 203.667 560.857 202.965 560.857 201.849C560.857 200.733 561.757 200.049 563.197 200.049C564.655 200.049 565.573 200.733 565.573 201.849C565.573 202.965 564.655 203.667 563.197 203.667ZM575.26 205.809C578.374 205.809 580.66 203.451 580.66 199.293C580.66 195.135 578.374 192.777 575.26 192.777C572.164 192.777 569.86 195.135 569.86 199.293C569.86 203.451 572.164 205.809 575.26 205.809ZM575.26 203.343C573.82 203.343 572.812 202.155 572.812 199.293C572.812 196.431 573.82 195.243 575.26 195.243C576.718 195.243 577.726 196.431 577.726 199.293C577.726 202.155 576.718 203.343 575.26 203.343ZM588.143 197.691C586.829 197.691 585.767 198.069 585.029 198.807C585.119 196.395 586.469 195.153 588.575 195.153C589.421 195.153 590.231 195.315 590.933 195.783L592.013 193.641C591.131 193.083 589.835 192.777 588.503 192.777C584.705 192.777 582.077 195.207 582.077 199.563C582.077 203.631 584.237 205.809 587.711 205.809C590.375 205.809 592.481 204.189 592.481 201.615C592.481 199.239 590.573 197.691 588.143 197.691ZM587.549 203.631C586.145 203.631 585.335 202.839 585.335 201.759C585.335 200.661 586.235 199.869 587.513 199.869C588.809 199.869 589.655 200.607 589.655 201.759C589.655 202.911 588.791 203.631 587.549 203.631ZM596.102 199.797C597.938 199.797 599.216 198.465 599.216 196.323C599.216 194.181 597.938 192.849 596.102 192.849C594.266 192.849 592.97 194.199 592.97 196.323C592.97 198.447 594.266 199.797 596.102 199.797ZM595.004 205.593H597.146L605.75 192.993H603.608L595.004 205.593ZM596.102 198.321C595.328 198.321 594.788 197.655 594.788 196.323C594.788 194.991 595.328 194.325 596.102 194.325C596.894 194.325 597.416 194.973 597.416 196.323C597.416 197.673 596.894 198.321 596.102 198.321ZM604.652 205.737C606.488 205.737 607.784 204.387 607.784 202.263C607.784 200.139 606.488 198.789 604.652 198.789C602.834 198.789 601.538 200.139 601.538 202.263C601.538 204.387 602.834 205.737 604.652 205.737ZM604.652 204.261C603.878 204.261 603.338 203.613 603.338 202.263C603.338 200.913 603.878 200.265 604.652 200.265C605.444 200.265 605.966 200.931 605.966 202.263C605.966 203.595 605.444 204.261 604.652 204.261ZM620.423 195.765C619.127 195.765 618.083 196.179 617.381 197.025V195.909H614.699V209.085H617.507V204.567C618.227 205.359 619.217 205.737 620.423 205.737C623.141 205.737 625.247 203.793 625.247 200.751C625.247 197.709 623.141 195.765 620.423 195.765ZM619.937 203.433C618.533 203.433 617.471 202.425 617.471 200.751C617.471 199.077 618.533 198.069 619.937 198.069C621.341 198.069 622.403 199.077 622.403 200.751C622.403 202.425 621.341 203.433 619.937 203.433ZM631.751 205.737C634.829 205.737 637.061 203.667 637.061 200.751C637.061 197.835 634.829 195.765 631.751 195.765C628.673 195.765 626.423 197.835 626.423 200.751C626.423 203.667 628.673 205.737 631.751 205.737ZM631.751 203.433C630.347 203.433 629.267 202.425 629.267 200.751C629.267 199.077 630.347 198.069 631.751 198.069C633.155 198.069 634.217 199.077 634.217 200.751C634.217 202.425 633.155 203.433 631.751 203.433ZM643.601 205.737C645.635 205.737 647.237 204.837 647.939 203.289L645.761 202.101C645.239 203.037 644.465 203.433 643.583 203.433C642.161 203.433 641.045 202.443 641.045 200.751C641.045 199.059 642.161 198.069 643.583 198.069C644.465 198.069 645.239 198.483 645.761 199.401L647.939 198.231C647.237 196.647 645.635 195.765 643.601 195.765C640.451 195.765 638.201 197.835 638.201 200.751C638.201 203.667 640.451 205.737 643.601 205.737ZM657.746 195.909H648.404V198.213H651.68V205.593H654.47V198.213H657.746V195.909Z" fill="#31D773"></path> <path d="M529.5 204.593L539.5 194.593" stroke="#31D773" stroke-width="2" stroke-linecap="round" stroke-linejoin="round"></path> <path d="M529.5 194.593H539.5V204.593" stroke="#31D773" stroke-width="2" stroke-linecap="round" stroke-linejoin="round"></path> </g> <path d="M435.604 234.253C436.708 233.837 437.38 232.957 437.38 231.805C437.38 229.853 435.38 228.717 433.044 228.717C431.828 228.717 430.532 229.021 429.364 229.677L429.876 230.989C430.868 230.381 431.988 230.093 432.996 230.093C434.532 230.093 435.764 230.781 435.764 231.997C435.764 233.037 434.916 233.661 433.492 233.661H431.108V234.957H433.604C435.252 234.957 436.228 235.565 436.228 236.717C436.228 238.093 434.772 238.845 433.06 238.845C431.876 238.845 430.58 238.477 429.572 237.693L429.012 238.877C430.26 239.805 431.812 240.221 433.252 240.221C435.684 240.221 437.844 239.021 437.844 236.957C437.844 235.629 436.996 234.637 435.604 234.253ZM443.278 231.533C441.918 231.533 440.654 231.917 439.774 232.621L440.414 233.773C441.07 233.213 442.094 232.861 443.102 232.861C444.622 232.861 445.374 233.613 445.374 234.909V235.213H442.942C440.414 235.213 439.534 236.333 439.534 237.693C439.534 239.165 440.75 240.189 442.67 240.189C443.998 240.189 444.942 239.741 445.454 238.973V240.093H446.91V234.973C446.91 232.653 445.598 231.533 443.278 231.533ZM442.926 239.005C441.758 239.005 441.054 238.477 441.054 237.629C441.054 236.909 441.486 236.317 443.006 236.317H445.374V237.501C444.99 238.477 444.078 239.005 442.926 239.005ZM455.82 240.093H457.628L454.188 235.693L457.404 231.613H455.756L453.004 235.197H451.212V231.613H449.676V240.093H451.212V236.509H452.972L455.82 240.093ZM462.106 231.533C460.746 231.533 459.482 231.917 458.602 232.621L459.242 233.773C459.898 233.213 460.922 232.861 461.93 232.861C463.45 232.861 464.202 233.613 464.202 234.909V235.213H461.77C459.242 235.213 458.362 236.333 458.362 237.693C458.362 239.165 459.578 240.189 461.498 240.189C462.826 240.189 463.77 239.741 464.282 238.973V240.093H465.738V234.973C465.738 232.653 464.426 231.533 462.106 231.533ZM461.754 239.005C460.586 239.005 459.882 238.477 459.882 237.629C459.882 236.909 460.314 236.317 461.834 236.317H464.202V237.501C463.818 238.477 462.906 239.005 461.754 239.005ZM472.955 235.677C473.883 235.341 474.491 234.653 474.491 233.805C474.491 232.429 472.971 231.501 470.907 231.501C469.819 231.501 468.763 231.725 467.659 232.285L468.075 233.469C469.003 233.037 469.883 232.813 470.747 232.813C472.043 232.813 472.907 233.261 472.907 234.029C472.907 234.749 472.187 235.165 471.051 235.165H469.611V236.269H471.163C472.411 236.269 473.147 236.717 473.147 237.501C473.147 238.365 472.203 238.893 470.763 238.893C469.723 238.893 468.603 238.605 467.787 238.077L467.323 239.245C468.267 239.853 469.515 240.205 470.779 240.205C473.035 240.205 474.731 239.165 474.731 237.629C474.731 236.653 474.091 235.965 472.955 235.677ZM480.89 234.493L478.602 234.477V231.613H477.066V240.093L480.634 240.109C482.906 240.125 484.186 239.101 484.186 237.261C484.186 235.517 483.034 234.509 480.89 234.493ZM485.45 240.093H486.986V231.613H485.45V240.093ZM480.522 238.941L478.602 238.925V235.597L480.522 235.629C481.914 235.645 482.634 236.125 482.634 237.245C482.634 238.381 481.898 238.957 480.522 238.941ZM490.324 237.997C489.716 237.997 489.252 238.445 489.252 239.085C489.252 239.565 489.524 239.933 489.924 240.077L489.332 242.461H490.34L491.092 240.237C491.3 239.645 491.364 239.405 491.364 239.085C491.364 238.461 490.932 237.997 490.324 237.997ZM504.214 231.613H496.47V232.957H499.574V240.093H501.11V232.957H504.214V231.613ZM509.609 234.493L507.321 234.477V231.613H505.785V240.093L509.353 240.109C511.625 240.125 512.905 239.101 512.905 237.261C512.905 235.517 511.753 234.509 509.609 234.493ZM514.169 240.093H515.705V231.613H514.169V240.093ZM509.241 238.941L507.321 238.925V235.597L509.241 235.629C510.633 235.645 511.353 236.125 511.353 237.245C511.353 238.381 510.617 238.957 509.241 238.941ZM522.387 240.189C523.907 240.189 525.171 239.549 525.843 238.365L524.675 237.629C524.131 238.461 523.299 238.845 522.371 238.845C520.707 238.845 519.459 237.693 519.459 235.853C519.459 234.045 520.707 232.877 522.371 232.877C523.299 232.877 524.131 233.261 524.675 234.093L525.843 233.341C525.171 232.157 523.907 231.533 522.387 231.533C519.779 231.533 517.907 233.325 517.907 235.853C517.907 238.381 519.779 240.189 522.387 240.189ZM528.48 240.189C529.056 240.189 529.536 239.725 529.536 239.085C529.536 238.445 529.056 237.997 528.48 237.997C527.888 237.997 527.392 238.445 527.392 239.085C527.392 239.725 527.888 240.189 528.48 240.189Z" fill="#1C1349"></path> <rect opacity="0.1" x="338" y="204" width="38" height="43" rx="1" fill="#210E3E"></rect> <rect x="342" y="199" width="38" height="43" rx="2" fill="white"></rect> <path d="M378.94 198.77L371.89 198.692V194.072C371.89 187.966 366.922 183 360.817 183C354.713 183 349.746 187.967 349.746 194.072V198.444L342.952 198.368C342.694 198.374 342.458 198.464 342.279 198.641C342.1 198.818 342 199.059 342 199.31V241.257C342 241.778 342.421 242.199 342.942 242.199H378.931C379.451 242.199 379.872 241.778 379.872 241.257V199.712C379.872 199.196 379.456 198.776 378.94 198.77ZM351.63 194.072C351.63 189.005 355.751 184.883 360.817 184.883C365.884 184.883 370.007 189.005 370.007 194.072V198.67L351.63 198.465V194.072ZM377.988 240.315H343.883V200.262L349.746 200.328V203.148C348.447 203.573 347.499 204.782 347.499 206.222C347.499 208.013 348.956 209.469 350.747 209.469C352.537 209.469 353.994 208.012 353.994 206.222C353.994 204.739 352.989 203.498 351.629 203.111V200.349L370.006 200.554V203.13C368.676 203.537 367.7 204.761 367.7 206.222C367.7 208.013 369.157 209.469 370.948 209.469C372.738 209.469 374.195 208.012 374.195 206.222C374.195 204.761 373.219 203.536 371.889 203.13V200.576L377.988 200.644V240.315H377.988ZM350.747 204.858C351.499 204.858 352.111 205.47 352.111 206.222C352.111 206.974 351.499 207.586 350.747 207.586C349.995 207.586 349.383 206.974 349.383 206.222C349.383 205.47 349.995 204.858 350.747 204.858ZM370.948 204.858C371.7 204.858 372.313 205.47 372.313 206.222C372.313 206.974 371.7 207.586 370.948 207.586C370.196 207.586 369.584 206.974 369.584 206.222C369.584 205.47 370.196 204.858 370.948 204.858Z" fill="#210E3E"></path> <path d="M448.9 305.13H445.48V301.2H440.89V305.13H435.25L444.43 292.5H439.33L429.43 305.82V309.09H440.74V313.5H445.48V309.09H448.9V305.13ZM457.89 292.5V296.4H462.09V313.5H466.95V292.5H457.89ZM469.638 292.5V296.4H473.838V313.5H478.698V292.5H469.638ZM491.346 313.86C496.536 313.86 500.346 309.93 500.346 303C500.346 296.07 496.536 292.14 491.346 292.14C486.186 292.14 482.346 296.07 482.346 303C482.346 309.93 486.186 313.86 491.346 313.86ZM491.346 309.75C488.946 309.75 487.266 307.77 487.266 303C487.266 298.23 488.946 296.25 491.346 296.25C493.776 296.25 495.456 298.23 495.456 303C495.456 307.77 493.776 309.75 491.346 309.75Z" fill="#210E3E"></path> <path d="M537.436 305.058H542.53V302.808H537.436V305.058ZM543.183 296.4V298.74H545.703V309H548.619V296.4H543.183ZM556.693 301.53L559.537 298.29V296.4H550.717V298.74H556.081L553.489 301.674V303.6H554.821C556.477 303.6 557.179 304.194 557.179 305.148C557.179 306.174 556.279 306.768 554.821 306.768C553.507 306.768 552.175 306.354 551.221 305.634L550.087 307.866C551.311 308.73 553.129 309.216 554.893 309.216C558.475 309.216 560.113 307.272 560.113 305.148C560.113 303.294 558.961 301.89 556.693 301.53ZM564.2 303.204C566.036 303.204 567.314 301.872 567.314 299.73C567.314 297.588 566.036 296.256 564.2 296.256C562.364 296.256 561.068 297.606 561.068 299.73C561.068 301.854 562.364 303.204 564.2 303.204ZM563.102 309H565.244L573.848 296.4H571.706L563.102 309ZM564.2 301.728C563.426 301.728 562.886 301.062 562.886 299.73C562.886 298.398 563.426 297.732 564.2 297.732C564.992 297.732 565.514 298.38 565.514 299.73C565.514 301.08 564.992 301.728 564.2 301.728ZM572.75 309.144C574.586 309.144 575.882 307.794 575.882 305.67C575.882 303.546 574.586 302.196 572.75 302.196C570.932 302.196 569.636 303.546 569.636 305.67C569.636 307.794 570.932 309.144 572.75 309.144ZM572.75 307.668C571.976 307.668 571.436 307.02 571.436 305.67C571.436 304.32 571.976 303.672 572.75 303.672C573.542 303.672 574.064 304.338 574.064 305.67C574.064 307.002 573.542 307.668 572.75 307.668ZM588.521 299.172C587.225 299.172 586.181 299.586 585.479 300.432V299.316H582.797V312.492H585.605V307.974C586.325 308.766 587.315 309.144 588.521 309.144C591.239 309.144 593.345 307.2 593.345 304.158C593.345 301.116 591.239 299.172 588.521 299.172ZM588.035 306.84C586.631 306.84 585.569 305.832 585.569 304.158C585.569 302.484 586.631 301.476 588.035 301.476C589.439 301.476 590.501 302.484 590.501 304.158C590.501 305.832 589.439 306.84 588.035 306.84ZM599.849 309.144C602.927 309.144 605.159 307.074 605.159 304.158C605.159 301.242 602.927 299.172 599.849 299.172C596.771 299.172 594.521 301.242 594.521 304.158C594.521 307.074 596.771 309.144 599.849 309.144ZM599.849 306.84C598.445 306.84 597.365 305.832 597.365 304.158C597.365 302.484 598.445 301.476 599.849 301.476C601.253 301.476 602.315 302.484 602.315 304.158C602.315 305.832 601.253 306.84 599.849 306.84ZM611.698 309.144C613.732 309.144 615.334 308.244 616.036 306.696L613.858 305.508C613.336 306.444 612.562 306.84 611.68 306.84C610.258 306.84 609.142 305.85 609.142 304.158C609.142 302.466 610.258 301.476 611.68 301.476C612.562 301.476 613.336 301.89 613.858 302.808L616.036 301.638C615.334 300.054 613.732 299.172 611.698 299.172C608.548 299.172 606.298 301.242 606.298 304.158C606.298 307.074 608.548 309.144 611.698 309.144ZM625.843 299.316H616.501V301.62H619.777V309H622.567V301.62H625.843V299.316Z" fill="#EE6A6A"></path> <path d="M519.5 298L529.5 308" stroke="#EE6A6A" stroke-width="2" stroke-linecap="round" stroke-linejoin="round"></path> <path d="M519.5 308H529.5V298" stroke="#EE6A6A" stroke-width="2" stroke-linecap="round" stroke-linejoin="round"></path> <path d="M435.252 343.628C436.996 343.628 438.5 343.02 439.524 341.868L438.484 340.86C437.62 341.772 436.564 342.204 435.332 342.204C432.804 342.204 430.932 340.38 430.932 337.9C430.932 335.42 432.804 333.596 435.332 333.596C436.564 333.596 437.62 334.012 438.484 334.924L439.524 333.916C438.5 332.764 436.996 332.172 435.268 332.172C431.86 332.172 429.332 334.588 429.332 337.9C429.332 341.212 431.86 343.628 435.252 343.628ZM445.968 334.94C444.72 334.94 443.632 335.42 442.944 336.364V335.02H441.472V346.604H443.008V342.22C443.712 343.132 444.768 343.596 445.968 343.596C448.448 343.596 450.256 341.868 450.256 339.26C450.256 336.668 448.448 334.94 445.968 334.94ZM445.84 342.252C444.224 342.252 442.992 341.068 442.992 339.26C442.992 337.468 444.224 336.284 445.84 336.284C447.472 336.284 448.704 337.468 448.704 339.26C448.704 341.068 447.472 342.252 445.84 342.252ZM460.152 339.308C460.152 336.7 458.408 334.94 455.96 334.94C453.512 334.94 451.704 336.748 451.704 339.26C451.704 341.788 453.528 343.596 456.264 343.596C457.672 343.596 458.84 343.116 459.608 342.22L458.76 341.228C458.136 341.916 457.304 342.252 456.312 342.252C454.632 342.252 453.432 341.26 453.24 339.772H460.12C460.136 339.628 460.152 339.436 460.152 339.308ZM455.96 336.236C457.448 336.236 458.52 337.244 458.68 338.668H453.24C453.4 337.228 454.488 336.236 455.96 336.236ZM469.722 342.156V335.02H463.146L463.018 337.884C462.906 340.028 462.698 342.092 461.482 342.156H461.034V345.468H462.49V343.5H469.578V345.468H471.018V342.156H469.722ZM464.426 337.996L464.506 336.364H468.186V342.156H463.434C464.202 341.484 464.362 339.756 464.426 337.996ZM473.019 343.5H474.555V339.948H479.387V343.5H480.923V335.02H479.387V338.62H474.555V335.02H473.019V343.5ZM483.91 343.5H485.318L490.502 337.324V343.5H492.038V335.02H490.646L485.446 341.196V335.02H483.91V343.5ZM498.987 333.916C500.539 333.916 501.483 333.148 501.515 331.708H500.443C500.427 332.508 499.851 333.02 498.971 333.02C498.107 333.02 497.531 332.508 497.515 331.708H496.475C496.491 333.148 497.435 333.916 498.987 333.916ZM495.019 343.5H496.427L501.611 337.324V343.5H503.147V335.02H501.755L496.555 341.196V335.02H495.019V343.5ZM515.658 335.02V338.892C514.842 339.244 514.01 339.452 513.242 339.452C511.946 339.452 511.146 338.876 511.146 337.676V335.02H509.61V337.772C509.61 339.788 510.858 340.716 512.922 340.716C513.866 340.716 514.794 340.476 515.658 340.076V343.5H517.194V335.02H515.658ZM527.84 339.308C527.84 336.7 526.096 334.94 523.648 334.94C521.2 334.94 519.392 336.748 519.392 339.26C519.392 341.788 521.216 343.596 523.952 343.596C525.36 343.596 526.528 343.116 527.296 342.22L526.448 341.228C525.824 341.916 524.992 342.252 524 342.252C522.32 342.252 521.12 341.26 520.928 339.772H527.808C527.824 339.628 527.84 339.436 527.84 339.308ZM523.648 336.236C525.136 336.236 526.208 337.244 526.368 338.668H520.928C521.088 337.228 522.176 336.236 523.648 336.236ZM536.366 343.5H538.174L534.734 339.1L537.95 335.02H536.302L533.55 338.604H531.758V335.02H530.222V343.5H531.758V339.916H533.518L536.366 343.5Z" fill="#1C1349"></path> <path opacity="0.1" d="M375.487 335.927H385.922C386.054 335.923 386.186 335.946 386.309 335.994C386.432 336.042 386.544 336.115 386.639 336.207C386.734 336.299 386.809 336.41 386.86 336.532C386.912 336.653 386.938 336.784 386.938 336.917C386.917 337.935 386.695 338.939 386.285 339.872C385.876 340.805 385.286 341.648 384.551 342.352C383.815 343.057 382.948 343.61 381.999 343.98C381.049 344.35 380.037 344.529 379.018 344.507H351.391H351.232H351.193C349.16 344.349 347.265 343.422 345.892 341.915C344.52 340.407 343.774 338.433 343.807 336.395V309.461H330.99C330.727 309.461 330.476 309.356 330.29 309.171C330.104 308.985 330 308.733 330 308.471C330 307.452 330.21 306.444 330.618 305.51C331.026 304.577 331.622 303.738 332.369 303.045C333.175 302.296 334.125 301.719 335.161 301.349C336.197 300.979 337.297 300.824 338.395 300.894C338.554 300.907 338.705 300.947 338.857 300.947H367.567C369.668 300.947 371.682 301.781 373.167 303.266C374.653 304.752 375.487 306.766 375.487 308.867V335.927Z" fill="#210E3E"></path> <path d="M379.487 329.927H389.922C390.054 329.923 390.186 329.946 390.309 329.994C390.432 330.042 390.544 330.115 390.639 330.207C390.734 330.299 390.809 330.41 390.86 330.532C390.912 330.653 390.938 330.784 390.938 330.917C390.917 331.935 390.695 332.939 390.285 333.872C389.876 334.805 389.286 335.648 388.551 336.352C387.815 337.057 386.948 337.61 385.999 337.98C385.049 338.35 384.037 338.529 383.018 338.507H355.391H355.232H355.193C353.16 338.349 351.265 337.422 349.892 335.915C348.52 334.407 347.774 332.433 347.807 330.395V303.461H334.99C334.727 303.461 334.476 303.356 334.29 303.171C334.104 302.985 334 302.733 334 302.471C334 301.452 334.21 300.444 334.618 299.51C335.026 298.577 335.622 297.738 336.369 297.045C337.175 296.296 338.125 295.719 339.161 295.349C340.197 294.979 341.297 294.824 342.395 294.894C342.554 294.907 342.705 294.947 342.857 294.947H371.567C373.668 294.947 375.682 295.781 377.167 297.266C378.653 298.752 379.487 300.766 379.487 302.867V329.927Z" fill="white"></path> <path d="M389.922 329.927H379.487V302.867C379.487 300.766 378.653 298.752 377.167 297.266C375.682 295.781 373.668 294.947 371.567 294.947H342.857C342.705 294.947 342.554 294.907 342.395 294.894C341.297 294.824 340.197 294.979 339.161 295.349C338.125 295.719 337.175 296.296 336.369 297.045C335.622 297.738 335.026 298.577 334.618 299.51C334.21 300.444 334 301.452 334 302.471C334 302.733 334.104 302.985 334.29 303.171C334.476 303.356 334.727 303.461 334.99 303.461H347.807V330.395C347.774 332.433 348.52 334.407 349.892 335.915C351.265 337.422 353.16 338.349 355.193 338.507H355.232H355.391H383.018C384.037 338.529 385.049 338.35 385.999 337.98C386.948 337.61 387.815 337.057 388.551 336.352C389.286 335.648 389.876 334.805 390.285 333.872C390.695 332.939 390.917 331.935 390.938 330.917C390.938 330.784 390.912 330.653 390.86 330.532C390.809 330.41 390.734 330.299 390.639 330.207C390.544 330.115 390.432 330.042 390.309 329.994C390.186 329.946 390.054 329.923 389.922 329.927ZM336.072 301.481C336.292 300.333 336.872 299.285 337.729 298.491C338.716 297.589 339.974 297.039 341.306 296.927C341.383 296.936 341.46 296.936 341.537 296.927H342.791C343.958 297.121 345.04 297.658 345.902 298.469C346.763 299.28 347.364 300.328 347.629 301.481H336.072ZM355.311 336.527C353.783 336.399 352.361 335.694 351.335 334.555C350.309 333.416 349.755 331.928 349.787 330.395V302.992C349.791 301.853 349.559 300.726 349.105 299.682C348.65 298.638 347.984 297.7 347.147 296.927H371.567C373.143 296.927 374.653 297.552 375.767 298.666C376.881 299.78 377.507 301.291 377.507 302.867V329.927H362.604C362.342 329.927 362.09 330.031 361.904 330.217C361.719 330.402 361.614 330.654 361.614 330.917C361.61 331.661 361.452 332.397 361.151 333.078C360.851 333.76 360.413 334.372 359.865 334.877C359.259 335.447 358.542 335.888 357.759 336.172C356.976 336.456 356.143 336.576 355.311 336.527ZM383.031 336.527H361.007L361.212 336.342C362.474 335.176 363.293 333.609 363.528 331.907H388.839C388.555 333.232 387.819 334.418 386.757 335.26C385.695 336.103 384.374 336.551 383.018 336.527H383.031Z" fill="#210E3E"></path> <path d="M354.09 309.72H371.91C372.173 309.72 372.424 309.616 372.61 309.43C372.796 309.244 372.9 308.993 372.9 308.73C372.9 308.467 372.796 308.216 372.61 308.03C372.424 307.844 372.173 307.74 371.91 307.74H354.09C353.827 307.74 353.576 307.844 353.39 308.03C353.204 308.216 353.1 308.467 353.1 308.73C353.1 308.993 353.204 309.244 353.39 309.43C353.576 309.616 353.827 309.72 354.09 309.72Z" fill="#210E3E"></path> <path d="M354.09 315.66H371.91C372.173 315.66 372.424 315.556 372.61 315.37C372.796 315.184 372.9 314.933 372.9 314.67C372.9 314.407 372.796 314.156 372.61 313.97C372.424 313.784 372.173 313.68 371.91 313.68H354.09C353.827 313.68 353.576 313.784 353.39 313.97C353.204 314.156 353.1 314.407 353.1 314.67C353.1 314.933 353.204 315.184 353.39 315.37C353.576 315.556 353.827 315.66 354.09 315.66Z" fill="#210E3E"></path> <path d="M364.32 320.61C364.32 320.347 364.216 320.096 364.03 319.91C363.844 319.724 363.593 319.62 363.33 319.62H354.09C353.827 319.62 353.576 319.724 353.39 319.91C353.204 320.096 353.1 320.347 353.1 320.61C353.1 320.873 353.204 321.124 353.39 321.31C353.576 321.496 353.827 321.6 354.09 321.6H363.33C363.593 321.6 363.844 321.496 364.03 321.31C364.216 321.124 364.32 320.873 364.32 320.61Z" fill="#210E3E"></path> <path d="M110.531 306.976L114.339 303.232C115.843 301.76 116.179 300.8 116.179 299.728C116.179 297.856 114.739 296.704 112.467 296.704C110.755 296.704 109.363 297.28 108.499 298.304L109.315 299.008C110.051 298.16 111.059 297.76 112.371 297.76C114.083 297.76 114.995 298.56 114.995 299.856C114.995 300.624 114.755 301.376 113.491 302.624L108.835 307.184V308H116.691V306.976H110.531ZM122.538 308.096C125.13 308.096 127.018 305.968 127.018 302.4C127.018 298.832 125.13 296.704 122.538 296.704C119.946 296.704 118.074 298.832 118.074 302.4C118.074 305.968 119.946 308.096 122.538 308.096ZM122.538 307.04C120.586 307.04 119.242 305.392 119.242 302.4C119.242 299.408 120.586 297.76 122.538 297.76C124.49 297.76 125.834 299.408 125.834 302.4C125.834 305.392 124.49 307.04 122.538 307.04ZM127.949 296.8V297.824H130.589V308H131.741V296.8H127.949ZM137.906 296.704C135.73 296.704 134.082 298.048 134.082 300.144C134.082 302.192 135.634 303.504 137.858 303.504C139.41 303.504 140.722 302.816 141.282 301.584C141.314 301.92 141.33 302.24 141.33 302.496C141.33 305.536 139.778 307.088 137.362 307.088C136.53 307.088 135.762 306.944 135.186 306.56L134.722 307.488C135.426 307.92 136.37 308.096 137.378 308.096C140.418 308.096 142.498 306.112 142.498 302.304C142.498 298.768 140.882 296.704 137.906 296.704ZM138.034 302.528C136.306 302.528 135.218 301.584 135.218 300.112C135.218 298.624 136.338 297.68 137.954 297.68C139.89 297.68 140.914 298.848 140.914 300.08C140.914 301.472 139.746 302.528 138.034 302.528ZM155.091 299.584H149.139V308H150.275V300.592H155.091V299.584ZM156.094 308.08C156.558 308.08 156.958 307.696 156.958 307.2C156.958 306.704 156.558 306.336 156.094 306.336C155.63 306.336 155.246 306.704 155.246 307.2C155.246 307.696 155.63 308.08 156.094 308.08Z" fill="#210E3E"></path> <path d="M79.4215 173.636L76.6495 179.894L73.8775 173.636H72.8415L76.1315 180.986L75.8095 181.7C75.3895 182.624 74.9415 182.932 74.2835 182.932C73.7515 182.932 73.3035 182.736 72.9395 182.372L72.4775 183.114C72.9255 183.562 73.5835 183.786 74.2695 183.786C75.3195 183.786 76.1035 183.324 76.7195 181.882L80.4015 173.636H79.4215ZM81.9501 181H82.9441V177.752H87.5781V181H88.5721V173.636H87.5781V176.898H82.9441V173.636H81.9501V181ZM91.3974 181H92.2934L97.1934 175.148V181H98.1874V173.636H97.3054L92.3914 179.488V173.636H91.3974V181ZM105.726 177.192C106.496 176.912 106.972 176.352 106.972 175.526C106.972 174.308 105.95 173.636 104.284 173.636H101.036V181H104.382C106.3 181 107.224 180.272 107.224 178.998C107.224 178.032 106.748 177.43 105.726 177.192ZM102.002 174.42H104.214C105.348 174.42 105.978 174.826 105.978 175.652C105.978 176.478 105.348 176.912 104.214 176.912H102.002V174.42ZM104.34 180.216H102.002V177.654H104.438C105.684 177.654 106.244 178.06 106.244 178.942C106.244 179.824 105.586 180.216 104.34 180.216ZM116.008 177.318C116.008 175.106 114.51 173.58 112.438 173.58C110.366 173.58 108.84 175.134 108.84 177.318C108.84 179.502 110.408 181.07 112.704 181.07C113.866 181.07 114.888 180.65 115.546 179.866L114.986 179.222C114.426 179.866 113.628 180.188 112.732 180.188C111.122 180.188 109.946 179.166 109.834 177.626H115.994C115.994 177.514 116.008 177.402 116.008 177.318ZM112.438 174.434C113.88 174.434 114.93 175.442 115.056 176.884H109.834C109.96 175.442 111.01 174.434 112.438 174.434ZM122.002 173.58C120.784 173.58 119.762 174.112 119.16 175.092V173.636H118.208V183.716H119.202V179.614C119.818 180.566 120.826 181.07 122.002 181.07C124.102 181.07 125.67 179.558 125.67 177.318C125.67 175.092 124.102 173.58 122.002 173.58ZM121.932 180.188C120.364 180.188 119.188 179.04 119.188 177.318C119.188 175.61 120.364 174.448 121.932 174.448C123.486 174.448 124.676 175.61 124.676 177.318C124.676 179.04 123.486 180.188 121.932 180.188ZM130.886 181.07C132.132 181.07 133.182 180.566 133.77 179.614L133.028 179.11C132.524 179.852 131.74 180.188 130.886 180.188C129.276 180.188 128.1 179.054 128.1 177.318C128.1 175.596 129.276 174.448 130.886 174.448C131.74 174.448 132.524 174.798 133.028 175.54L133.77 175.036C133.182 174.07 132.132 173.58 130.886 173.58C128.688 173.58 127.092 175.12 127.092 177.318C127.092 179.516 128.688 181.07 130.886 181.07ZM138.228 173.58C137.066 173.58 135.974 173.944 135.232 174.574L135.68 175.316C136.282 174.784 137.178 174.448 138.13 174.448C139.502 174.448 140.216 175.134 140.216 176.394V176.842H137.878C135.764 176.842 135.036 177.794 135.036 178.928C135.036 180.202 136.058 181.07 137.724 181.07C138.942 181.07 139.81 180.608 140.258 179.852V181H141.21V176.436C141.21 174.532 140.132 173.58 138.228 173.58ZM137.878 180.286C136.702 180.286 136.016 179.754 136.016 178.9C136.016 178.144 136.478 177.584 137.906 177.584H140.216V178.788C139.824 179.754 138.998 180.286 137.878 180.286ZM144.486 173.636L144.36 176.268C144.262 178.214 144.15 180.188 142.932 180.188C142.834 180.188 142.708 180.16 142.582 180.132L142.512 180.986C142.778 181.056 143.002 181.098 143.226 181.098C144.808 181.098 145.13 178.914 145.256 176.338L145.354 174.518H148.882V181H149.876V173.636H144.486ZM155.866 176.24L153.696 176.212V173.636H152.702V181L155.67 181.014C157.63 181.042 158.694 180.16 158.694 178.592C158.694 177.08 157.714 176.254 155.866 176.24ZM155.614 180.258L153.696 180.23V176.954L155.614 176.982C156.986 176.996 157.686 177.5 157.686 178.592C157.686 179.698 156.972 180.272 155.614 180.258ZM160.591 181H161.585V177.752H166.219V181H167.213V173.636H166.219V176.898H161.585V173.636H160.591V181ZM173.132 176.24L171.032 176.212V173.636H170.038V181L172.95 181.014C174.896 181.042 175.974 180.16 175.974 178.592C175.974 177.08 174.98 176.254 173.132 176.24ZM177.206 181H178.2V173.636H177.206V181ZM172.894 180.258L171.032 180.23V176.954L172.894 176.982C174.266 176.996 174.966 177.5 174.966 178.592C174.966 179.698 174.252 180.272 172.894 180.258ZM187.484 177.318C187.484 175.106 185.986 173.58 183.914 173.58C181.842 173.58 180.316 175.134 180.316 177.318C180.316 179.502 181.884 181.07 184.18 181.07C185.342 181.07 186.364 180.65 187.022 179.866L186.462 179.222C185.902 179.866 185.104 180.188 184.208 180.188C182.598 180.188 181.422 179.166 181.31 177.626H187.47C187.47 177.514 187.484 177.402 187.484 177.318ZM183.914 174.434C185.356 174.434 186.406 175.442 186.532 176.884H181.31C181.436 175.442 182.486 174.434 183.914 174.434ZM103.504 190.636L100.326 195.942L97.2042 190.636H96.1962V198H97.1062V192.162L100.088 197.104H100.536L103.518 192.176V198H104.428V190.636H103.504ZM109.791 190.58C108.629 190.58 107.537 190.944 106.795 191.574L107.243 192.316C107.845 191.784 108.741 191.448 109.693 191.448C111.065 191.448 111.779 192.134 111.779 193.394V193.842H109.441C107.327 193.842 106.599 194.794 106.599 195.928C106.599 197.202 107.621 198.07 109.287 198.07C110.505 198.07 111.373 197.608 111.821 196.852V198H112.773V193.436C112.773 191.532 111.695 190.58 109.791 190.58ZM109.441 197.286C108.265 197.286 107.579 196.754 107.579 195.9C107.579 195.144 108.041 194.584 109.469 194.584H111.779V195.788C111.387 196.754 110.561 197.286 109.441 197.286ZM120.627 190.636H115.419V198H116.413V191.518H120.627V190.636ZM124.597 190.58C123.435 190.58 122.343 190.944 121.601 191.574L122.049 192.316C122.651 191.784 123.547 191.448 124.499 191.448C125.871 191.448 126.585 192.134 126.585 193.394V193.842H124.247C122.133 193.842 121.405 194.794 121.405 195.928C121.405 197.202 122.427 198.07 124.093 198.07C125.311 198.07 126.179 197.608 126.627 196.852V198H127.579V193.436C127.579 191.532 126.501 190.58 124.597 190.58ZM124.247 197.286C123.071 197.286 122.385 196.754 122.385 195.9C122.385 195.144 122.847 194.584 124.275 194.584H126.585V195.788C126.193 196.754 125.367 197.286 124.247 197.286ZM133.659 194.164C134.513 193.884 135.087 193.296 135.087 192.526C135.087 191.322 133.799 190.552 132.119 190.552C131.223 190.552 130.299 190.762 129.389 191.238L129.669 192.008C130.453 191.602 131.265 191.406 132.021 191.406C133.197 191.406 134.065 191.854 134.065 192.666C134.065 193.394 133.309 193.828 132.231 193.828H131.027V194.556H132.287C133.519 194.556 134.275 195.018 134.275 195.802C134.275 196.698 133.281 197.23 131.951 197.23C131.055 197.23 130.103 196.95 129.417 196.432L129.081 197.174C129.865 197.776 130.943 198.084 131.993 198.084C133.827 198.084 135.297 197.216 135.297 195.886C135.297 195.018 134.695 194.402 133.659 194.164ZM137.554 198H138.45L143.35 192.148V198H144.344V190.636H143.462L138.548 196.488V190.636H137.554V198ZM147.192 198H148.186V194.752H152.82V198H153.814V190.636H152.82V193.898H148.186V190.636H147.192V198ZM159.734 193.24L157.634 193.212V190.636H156.64V198L159.552 198.014C161.498 198.042 162.576 197.16 162.576 195.592C162.576 194.08 161.582 193.254 159.734 193.24ZM163.808 198H164.802V190.636H163.808V198ZM159.496 197.258L157.634 197.23V193.954L159.496 193.982C160.868 193.996 161.568 194.5 161.568 195.592C161.568 196.698 160.854 197.272 159.496 197.258Z" fill="#210E3E"></path> <path d="M73.7969 141.8V153H71.2369V150.024H68.8689L66.8849 153H64.1489L66.4849 149.624C65.7276 149.315 65.1463 148.851 64.7409 148.232C64.3356 147.603 64.1329 146.851 64.1329 145.976C64.1329 145.112 64.3303 144.371 64.7249 143.752C65.1196 143.123 65.6796 142.643 66.4049 142.312C67.1303 141.971 67.9836 141.8 68.9649 141.8H73.7969ZM69.0289 143.912C68.2929 143.912 67.7276 144.083 67.3329 144.424C66.9489 144.765 66.7569 145.272 66.7569 145.944C66.7569 146.595 66.9436 147.096 67.3169 147.448C67.6903 147.8 68.2396 147.976 68.9649 147.976H71.2369V143.912H69.0289ZM76.4109 144.392H78.8909V147.752H82.6349V144.392H85.1309V153H82.6349V149.784H78.8909V153H76.4109V144.392ZM97.1683 150.952V154.856H94.8483V153H88.8003V154.856H86.4803V150.952H86.8323C87.3656 150.941 87.7336 150.627 87.9363 150.008C88.139 149.389 88.267 148.509 88.3203 147.368L88.4323 144.392H95.9363V150.952H97.1683ZM90.5763 147.544C90.5443 148.419 90.475 149.133 90.3683 149.688C90.2723 150.243 90.0856 150.664 89.8083 150.952H93.4403V146.44H90.6243L90.5763 147.544ZM107.107 148.728C107.107 148.76 107.091 148.984 107.059 149.4H100.547C100.664 149.933 100.942 150.355 101.379 150.664C101.816 150.973 102.36 151.128 103.011 151.128C103.459 151.128 103.854 151.064 104.195 150.936C104.547 150.797 104.872 150.584 105.171 150.296L106.499 151.736C105.688 152.664 104.504 153.128 102.947 153.128C101.976 153.128 101.118 152.941 100.371 152.568C99.6244 152.184 99.0484 151.656 98.6431 150.984C98.2377 150.312 98.0351 149.549 98.0351 148.696C98.0351 147.853 98.2324 147.096 98.6271 146.424C99.0324 145.741 99.5817 145.213 100.275 144.84C100.979 144.456 101.763 144.264 102.627 144.264C103.47 144.264 104.232 144.445 104.915 144.808C105.598 145.171 106.131 145.693 106.515 146.376C106.91 147.048 107.107 147.832 107.107 148.728ZM102.643 146.152C102.078 146.152 101.603 146.312 101.219 146.632C100.835 146.952 100.6 147.389 100.515 147.944H104.755C104.67 147.4 104.435 146.968 104.051 146.648C103.667 146.317 103.198 146.152 102.643 146.152ZM112.812 149.736H111.516V153H109.02V144.392H111.516V147.736H112.86L115.196 144.392H117.852L114.844 148.52L118.06 153H115.116L112.812 149.736ZM123.116 153.128C122.199 153.128 121.372 152.941 120.636 152.568C119.911 152.184 119.34 151.656 118.924 150.984C118.519 150.312 118.316 149.549 118.316 148.696C118.316 147.843 118.519 147.08 118.924 146.408C119.34 145.736 119.911 145.213 120.636 144.84C121.372 144.456 122.199 144.264 123.116 144.264C124.023 144.264 124.812 144.456 125.484 144.84C126.167 145.213 126.663 145.752 126.972 146.456L125.036 147.496C124.588 146.707 123.943 146.312 123.1 146.312C122.45 146.312 121.911 146.525 121.484 146.952C121.058 147.379 120.844 147.96 120.844 148.696C120.844 149.432 121.058 150.013 121.484 150.44C121.911 150.867 122.45 151.08 123.1 151.08C123.954 151.08 124.599 150.685 125.036 149.896L126.972 150.952C126.663 151.635 126.167 152.168 125.484 152.552C124.812 152.936 124.023 153.128 123.116 153.128ZM143.404 153L143.388 146.296L140.092 151.816H138.94L135.644 146.424V153H133.212V141.8H135.356L139.548 148.76L143.676 141.8H145.82L145.836 153H143.404ZM151.771 144.264C153.104 144.264 154.128 144.584 154.843 145.224C155.557 145.853 155.915 146.808 155.915 148.088V153H153.579V151.928C153.109 152.728 152.235 153.128 150.955 153.128C150.293 153.128 149.717 153.016 149.227 152.792C148.747 152.568 148.379 152.259 148.123 151.864C147.867 151.469 147.739 151.021 147.739 150.52C147.739 149.72 148.037 149.091 148.635 148.632C149.243 148.173 150.176 147.944 151.435 147.944H153.419C153.419 147.4 153.253 146.984 152.923 146.696C152.592 146.397 152.096 146.248 151.435 146.248C150.976 146.248 150.523 146.323 150.075 146.472C149.637 146.611 149.264 146.803 148.955 147.048L148.059 145.304C148.528 144.973 149.088 144.717 149.739 144.536C150.4 144.355 151.077 144.264 151.771 144.264ZM151.579 151.448C152.005 151.448 152.384 151.352 152.715 151.16C153.045 150.957 153.28 150.664 153.419 150.28V149.4H151.707C150.683 149.4 150.171 149.736 150.171 150.408C150.171 150.728 150.293 150.984 150.539 151.176C150.795 151.357 151.141 151.448 151.579 151.448ZM163.155 144.264C163.955 144.264 164.68 144.451 165.331 144.824C165.992 145.187 166.509 145.704 166.883 146.376C167.256 147.037 167.443 147.811 167.443 148.696C167.443 149.581 167.256 150.36 166.883 151.032C166.509 151.693 165.992 152.211 165.331 152.584C164.68 152.947 163.955 153.128 163.155 153.128C162.056 153.128 161.192 152.781 160.563 152.088V156.104H158.067V144.392H160.451V145.384C161.069 144.637 161.971 144.264 163.155 144.264ZM162.723 151.08C163.363 151.08 163.885 150.867 164.291 150.44C164.707 150.003 164.915 149.421 164.915 148.696C164.915 147.971 164.707 147.395 164.291 146.968C163.885 146.531 163.363 146.312 162.723 146.312C162.083 146.312 161.555 146.531 161.139 146.968C160.733 147.395 160.531 147.971 160.531 148.696C160.531 149.421 160.733 150.003 161.139 150.44C161.555 150.867 162.083 151.08 162.723 151.08ZM172.984 149.736H171.688V153H169.192V144.392H171.688V147.736H173.032L175.368 144.392H178.024L175.016 148.52L178.232 153H175.288L172.984 149.736ZM187.56 148.728C187.56 148.76 187.544 148.984 187.512 149.4H181C181.118 149.933 181.395 150.355 181.832 150.664C182.27 150.973 182.814 151.128 183.464 151.128C183.912 151.128 184.307 151.064 184.648 150.936C185 150.797 185.326 150.584 185.624 150.296L186.952 151.736C186.142 152.664 184.958 153.128 183.4 153.128C182.43 153.128 181.571 152.941 180.824 152.568C180.078 152.184 179.502 151.656 179.096 150.984C178.691 150.312 178.488 149.549 178.488 148.696C178.488 147.853 178.686 147.096 179.08 146.424C179.486 145.741 180.035 145.213 180.728 144.84C181.432 144.456 182.216 144.264 183.08 144.264C183.923 144.264 184.686 144.445 185.368 144.808C186.051 145.171 186.584 145.693 186.968 146.376C187.363 147.048 187.56 147.832 187.56 148.728ZM183.096 146.152C182.531 146.152 182.056 146.312 181.672 146.632C181.288 146.952 181.054 147.389 180.968 147.944H185.208C185.123 147.4 184.888 146.968 184.504 146.648C184.12 146.317 183.651 146.152 183.096 146.152ZM196.409 146.44H193.497V153H191.017V146.44H188.105V144.392H196.409V146.44Z" fill="#210E3E"></path> <g clip-path="url(#clip2)"> <path d="M44 71C44 62.198 51.186 55.0625 59.988 55.0625C68.7901 55.0625 75.976 62.198 75.976 71C75.976 79.802 68.7901 86.9375 59.988 86.9375C51.186 86.9375 44 79.802 44 71Z" fill="#FC3F1D"></path> <mask id="mask0" mask-type="alpha" maskUnits="userSpaceOnUse" x="44" y="55" width="32" height="32"> <path d="M44 71C44 62.198 51.186 55.0625 59.988 55.0625C68.7901 55.0625 75.976 62.198 75.976 71C75.976 79.802 68.7901 86.9375 59.988 86.9375C51.186 86.9375 44 79.802 44 71Z" fill="#FC3F1D"></path> </mask> <g mask="url(#mask0)"> <path d="M62.3457 63.9875H60.7278C57.9533 63.9875 56.5666 65.3709 56.5666 67.4449C56.5666 69.7484 57.4918 70.9012 59.5724 72.2835L61.1903 73.4352L56.5666 80.5784H52.868L57.2594 74.1269C54.7173 72.2835 53.3306 70.6706 53.3306 67.6754C53.3306 63.9886 55.8738 61.4534 60.7278 61.4534H65.5817V80.5784H62.3457V63.9886V63.9875Z" fill="white"></path> </g> <path d="M78.1078 71C78.1078 62.198 85.2938 55.0625 94.0958 55.0625C102.898 55.0625 110.084 62.198 110.084 71C110.084 79.802 102.898 86.9375 94.0958 86.9375C85.2938 86.9375 78.1078 79.802 78.1078 71Z" fill="url(#paint0_linear)"></path> <mask id="mask1" mask-type="alpha" maskUnits="userSpaceOnUse" x="78" y="55" width="33" height="32"> <path d="M78.1078 71C78.1078 62.198 85.2938 55.0625 94.0958 55.0625C102.898 55.0625 110.084 62.198 110.084 71C110.084 79.802 102.898 86.9375 94.0958 86.9375C85.2938 86.9375 78.1078 79.802 78.1078 71Z" fill="url(#paint1_linear)"></path> </mask> <g mask="url(#mask1)"> <path d="M78.1078 82.6684L85.7405 73.5872L83.8709 80.6996L89.6629 82.7906L98.2687 70.5623L96.3832 77.5557L101.075 80.2618L110.084 71.2741V63.8792L103.695 70.2595L105.113 62.2291L99.2066 60.0797L90.7117 72.1603L91.558 66.6778L86.93 64.0173L78.1078 74.5042V82.6684Z" fill="black"></path> </g> <path d="M127.092 82.6875H130.556L135.476 64.5581V82.6875H139.425V58.6888H133.986L129.102 76.3688L124.287 58.6888H118.744V82.6875H122.174V64.5581L127.092 82.6875ZM155.923 70.8428C155.923 66.63 153.775 65.0415 149.41 65.0415C146.674 65.0415 144.526 65.9053 143.279 66.63V70.0491C144.388 69.2203 146.813 68.3225 148.925 68.3225C150.9 68.3225 151.801 69.0132 151.801 70.8778V71.8447H151.142C144.838 71.8447 142.032 73.9166 142.032 77.4388C142.032 80.961 144.18 82.9298 147.367 82.9298C149.792 82.9298 150.831 82.135 151.627 81.3063H151.801C151.835 81.7547 151.974 82.3422 152.112 82.6875H156.13C155.992 81.2761 155.923 79.8588 155.923 78.4407V70.8438V70.8428ZM151.801 78.5438C151.281 79.3035 150.311 79.925 148.856 79.925C147.124 79.925 146.258 78.8891 146.258 77.3347C146.258 75.2978 147.678 74.5722 151.211 74.5722H151.801V78.5438ZM163.048 65.3178H159.237V87.694H163.359V80.6497C164.398 82.2041 165.923 83.0328 167.69 83.0328C171.708 83.0328 174.479 79.8209 174.479 73.9857C174.479 68.1844 171.777 64.9735 167.898 64.9735C165.958 64.9735 164.364 65.8713 163.256 67.5628L163.048 65.3178ZM166.651 79.7869C164.468 79.7869 163.359 78.0263 163.359 74.0207C163.359 69.98 164.537 68.2195 166.858 68.2195C169.109 68.2195 170.218 69.98 170.218 73.9857C170.218 78.0263 169.04 79.7869 166.651 79.7869ZM187.453 82.6875H192.129L185.513 73.329L191.333 65.3178H187.176L181.356 73.329V65.3178H177.234V82.6875H181.356V74.1588L187.453 82.6875ZM205.997 81.5135V78.1645C204.715 79.0272 202.567 79.7869 200.558 79.7869C197.545 79.7869 196.401 78.3717 196.228 75.47H206.17V73.295C206.17 67.2515 203.503 64.9735 199.38 64.9735C194.358 64.9735 191.967 68.806 191.967 74.0547C191.967 80.0982 194.946 83.0328 200.212 83.0328C202.844 83.0328 204.784 82.3422 205.997 81.5135ZM199.311 68.2195C201.355 68.2195 201.979 69.911 201.979 72.087V72.4323H196.228C196.332 69.6698 197.337 68.2195 199.311 68.2195ZM220.835 68.5648V65.3178H207.013V68.5648H211.863V82.6875H215.985V68.5637H220.835V68.5648Z" fill="black"></path> </g> <defs> <linearGradient id="paint0_linear" x1="94.0958" y1="47.4773" x2="94.0958" y2="89.9635" gradientUnits="userSpaceOnUse"> <stop stop-color="#FFE55B"></stop> <stop offset="1" stop-color="#FFCC00"></stop> </linearGradient> <linearGradient id="paint1_linear" x1="94.0958" y1="47.4773" x2="94.0958" y2="89.9635" gradientUnits="userSpaceOnUse"> <stop stop-color="#FFE55B"></stop> <stop offset="1" stop-color="#FFCC00"></stop> </linearGradient> <clipPath id="clip0"> <rect width="238" height="37" fill="white" transform="translate(427.5 77.5173)"></rect> </clipPath> <clipPath id="clip1"> <rect width="230" height="37" fill="white" transform="translate(428.5 181.093)"></rect> </clipPath> <clipPath id="clip2"> <rect width="177" height="35" fill="white" transform="translate(44 53)"></rect> </clipPath> </defs> </svg> 