<?xml version="1.0" encoding="UTF-8"?> <svg xmlns="http://www.w3.org/2000/svg" width="167" height="47" viewBox="0 0 167 47" fill="none"> <path d="M166.827 27.1102C166.757 27.604 166.688 28.0979 166.601 28.5747C165.698 33.2747 161.844 37.1232 157.07 38.0939C154.293 38.6559 151.637 38.3493 149.085 37.1573C149.015 37.1232 148.946 37.1062 148.859 37.0892C148.616 37.0551 148.408 36.9019 148.2 36.7827C147.175 36.2207 146.273 35.5055 145.474 34.6711C145.387 34.5859 145.162 34.4838 145.405 34.3305C145.735 34.2794 146.047 34.3135 146.377 34.3135C146.602 34.3135 146.689 34.2283 146.689 34.0069V32.2189C146.689 31.9805 146.602 31.8953 146.359 31.8953H143.877C143.738 31.8953 143.599 31.9124 143.46 31.8613C143.356 31.8272 143.304 31.7421 143.269 31.6569C142.766 30.6182 142.384 29.5453 142.193 28.4044C142.176 28.3363 142.158 28.2511 142.211 28.183C142.315 28.0638 142.454 28.0638 142.575 28.0468C145.005 27.7062 147.158 26.7526 148.998 25.1519C149.05 25.1008 149.102 25.0497 149.189 25.0327C149.293 25.0497 149.345 25.1348 149.397 25.22C149.831 25.8501 150.439 26.2417 151.151 26.5312C151.88 26.8207 152.644 27.008 153.407 27.2124C154.328 27.4508 155.23 27.6722 156.15 27.9106C156.341 27.9616 156.515 28.0298 156.706 28.1149C157.695 28.5066 158.06 29.2729 158.043 30.1243C158.008 31.0609 157.418 31.6399 156.584 31.9805C156.064 32.2019 155.491 32.287 154.918 32.304C154.067 32.3211 153.234 32.287 152.418 31.9805C151.55 31.6569 150.908 31.095 150.613 30.2095C150.491 29.8859 150.491 29.8859 150.161 29.954C149.467 30.0903 148.755 30.2435 148.061 30.3968C147.731 30.4649 147.714 30.499 147.818 30.8055C148.338 32.3381 149.432 33.3428 150.942 33.9388C152.418 34.5178 153.963 34.6711 155.543 34.5348C156.532 34.4497 157.47 34.2113 158.372 33.7685C159.987 32.9682 160.959 31.708 161.133 29.903C161.254 28.5747 160.889 27.3656 159.987 26.3609C159.466 25.7819 158.754 25.4414 158.008 25.1859C156.654 24.7261 155.265 24.4707 153.876 24.1131C153.373 23.9769 152.887 23.7896 152.435 23.5341C151.272 22.87 151.307 21.3203 152.296 20.5711C152.487 20.4178 152.696 20.2816 152.921 20.2135C153.98 19.8559 155.057 19.8388 156.116 20.2305C156.793 20.4689 157.261 20.9627 157.556 21.5928C157.626 21.7631 157.713 21.7972 157.886 21.7631C158.633 21.5758 159.379 21.4055 160.108 21.2182C160.369 21.1501 160.386 21.116 160.282 20.8435C159.865 19.7026 159.015 18.9703 157.938 18.4424C156.879 17.9145 155.716 17.7272 154.553 17.6761C154.154 17.6591 153.772 17.7443 153.373 17.7443C153.269 17.7443 153.13 17.8124 153.06 17.6591C153.06 17.0801 153.13 16.4841 153.13 15.9051C153.112 15.4453 153.078 14.9856 153.026 14.5258C153.008 14.4066 152.956 14.2874 153.043 14.1682C153.633 14.2022 154.241 14.1171 154.831 14.1341C160.542 14.3555 165.316 18.3062 166.497 23.7896C166.618 24.3174 166.67 24.8624 166.757 25.4073C166.827 25.9522 166.827 26.5312 166.827 27.1102Z" fill="#EE409B"></path> <path d="M166.827 6.81178C166.723 7.37374 166.653 7.93569 166.428 8.46359C165.403 10.9158 163.563 12.3292 160.855 12.5335C157.505 12.806 154.571 10.439 154.102 7.15236C153.599 3.74656 156.064 0.562142 159.57 0.10236C159.623 0.10236 159.675 0.102356 159.692 0.0512695H161.168C161.74 0.0853275 162.313 0.204532 162.851 0.425909C164.223 0.970837 165.264 1.87337 166.028 3.11649C166.497 3.88279 166.792 4.68315 166.809 5.58569C166.809 5.61975 166.827 5.63678 166.844 5.67084C166.827 6.04547 166.827 6.42011 166.827 6.81178ZM8.87114 9.17881C8.41979 8.25924 8.17676 7.28859 8.17676 6.26685C8.17676 3.42301 10.1905 0.902719 13.0027 0.221559C13.2805 0.153443 13.5583 0.102356 13.8187 0.0512695H15.2942L16.2316 0.255619C20.7799 1.48171 22.4638 6.89692 19.3911 10.4049C19.339 10.456 19.3043 10.5071 19.2696 10.5582C19.0266 10.9669 18.662 11.2223 18.2801 11.4777C17.1691 12.227 15.9539 12.6187 14.5825 12.6187C13.0722 12.6187 11.7529 12.1589 10.5724 11.2734C9.93009 10.7966 9.4093 10.2005 8.99266 9.50236C8.92322 9.40018 8.85379 9.29801 8.87114 9.17881Z" fill="#EB208A"></path> <path d="M166.826 5.65381C166.705 5.21106 166.67 4.75127 166.496 4.32555C165.593 1.94149 163.858 0.511055 161.288 0.10236C161.236 0.10236 161.201 0.0682985 161.149 0.0512695H166.6C166.774 0.0512695 166.809 0.0853296 166.809 0.255619C166.826 2.04366 166.826 3.84874 166.826 5.65381Z" fill="#FEFEFE"></path> <path d="M8.87034 9.17871C9.2349 9.79175 9.65153 10.3707 10.1897 10.8646C11.1445 11.7501 12.2728 12.295 13.5748 12.4823C15.2934 12.7207 16.8558 12.3802 18.2793 11.3925C18.6265 11.1541 18.9216 10.8305 19.2514 10.5581C20.3277 11.2392 21.2651 12.0566 22.081 13.0273C22.1678 13.1465 22.1331 13.2657 22.0984 13.3849C21.8901 14.3555 21.7512 15.3262 21.7859 16.2968C21.838 17.9146 22.1678 19.4812 22.8449 20.9628C23.4351 22.257 24.251 23.3809 25.2058 24.4196C25.2752 24.4878 25.3447 24.5559 25.3794 24.658C25.3967 24.8965 25.3099 25.1178 25.2405 25.3392C24.876 26.6675 24.5288 28.0128 24.1816 29.341C24.1295 29.5113 24.1468 29.7667 23.9733 29.7838C23.7823 29.7838 23.7997 29.5113 23.7476 29.358C22.8622 26.2247 21.9942 23.0914 21.1263 19.9581C20.97 19.3961 20.7964 18.8341 20.6576 18.2552C20.6055 18.0168 20.484 17.8975 20.2062 17.9146C19.4424 17.9316 18.6786 17.9316 17.9147 17.9146C17.6891 17.9146 17.5849 17.9997 17.5328 18.2211C16.7863 21.2182 16.0225 24.2153 15.2761 27.1954C15.0851 27.9446 14.9115 28.7109 14.7032 29.4602C14.6858 29.5113 14.6685 29.5794 14.6511 29.6305C14.6338 29.6816 14.599 29.7497 14.5296 29.7497C14.4602 29.7497 14.4254 29.6986 14.4081 29.6475C14.3386 29.5113 14.3039 29.3751 14.2692 29.2388C13.4012 25.9693 12.4985 22.6997 11.6132 19.4302C11.509 19.0215 11.3875 18.6128 11.2833 18.2041C11.2313 18.0167 11.1271 17.9316 10.9188 17.9316H8.41899C8.17596 17.9316 8.1586 17.9657 8.22803 18.2381C8.62731 19.7026 9.04394 21.1501 9.44321 22.6146C10.1897 25.2711 10.9188 27.9276 11.6652 30.5841L12.6027 33.9559C12.6721 34.2113 12.7936 34.2964 13.054 34.2964C13.8005 34.2794 14.547 34.2964 15.2934 34.2964C15.6927 34.2964 15.6927 34.2965 15.7968 33.9218C16.7343 30.2436 17.637 26.5483 18.5744 22.87C18.6091 22.7508 18.6265 22.6316 18.6786 22.5124C18.6959 22.4443 18.7306 22.3591 18.8174 22.3591C18.9216 22.3591 18.9389 22.4443 18.9563 22.5124C19.0778 22.9211 19.1993 23.3298 19.3035 23.7385C20.2236 27.1102 21.161 30.482 22.0984 33.8707C22.2199 34.3135 22.2199 34.3135 22.706 34.3135C23.4351 34.3135 24.1816 34.2965 24.9107 34.3135C25.1884 34.3135 25.3099 34.2283 25.3794 33.9559C25.8307 32.2189 26.3168 30.482 26.8029 28.728C26.9765 28.0638 27.1674 27.3827 27.341 26.7186C27.3757 26.5994 27.3931 26.4802 27.5146 26.395C27.6535 26.3269 27.7577 26.412 27.8618 26.4802C29.0249 27.1443 30.2574 27.6041 31.5768 27.8765C31.733 27.9106 31.8893 27.9276 31.9587 28.0979C32.0108 28.2512 31.9934 28.4044 31.9934 28.5577V33.8537C31.9934 34.2624 32.0281 34.2794 32.4274 34.2794H34.1634C34.3022 34.2794 34.4411 34.2794 34.58 34.2964C34.7362 34.3305 34.7536 34.4667 34.7883 34.5859C35.3265 36.374 36.4722 37.6512 38.1735 38.4856C38.2429 38.5196 38.3471 38.5367 38.3297 38.6559C36.9583 41.8233 34.6494 44.1051 31.3858 45.3312C26.2994 47.2555 20.8312 45.8251 17.3419 41.7211C16.8905 41.1932 16.4912 40.6312 16.1614 40.0352C16.0399 39.8138 15.9184 39.7628 15.658 39.7968C12.3596 40.3758 9.21754 38.4004 8.36691 35.216C8.10652 34.2624 8.08916 33.3088 8.29747 32.3551C8.33219 32.1849 8.29747 32.1338 8.14124 32.0657C4.04436 30.4309 1.38833 27.5019 0.468266 23.2446C-0.434437 19.1066 0.693941 15.4283 3.64508 12.3291C5.08594 10.8476 6.85662 9.80878 8.87034 9.17871Z" fill="#8D287F"></path> <path d="M25.345 24.675C24.1125 23.4489 23.1577 22.0355 22.5328 20.4178C22.0988 19.2939 21.8557 18.1359 21.7516 16.9268C21.6474 15.7007 21.7863 14.5257 22.0467 13.3337C22.0641 13.2486 22.0814 13.1464 22.0814 13.0442C22.3592 12.2098 22.6196 11.3754 23.0536 10.6091C25.0326 6.96488 28.0879 4.73408 32.2542 4.10401C38.1218 3.23553 43.6248 6.47104 45.7079 11.9373C45.7253 11.9884 45.76 12.0225 45.7774 12.0565C45.951 12.2609 46.003 12.4993 46.0551 12.7377C46.2982 13.6062 46.4544 14.4917 46.5065 15.4113C46.6801 18.7149 45.6211 21.6098 43.4512 24.1131C43.0519 24.5729 42.6179 24.9986 42.1318 25.3732C42.045 25.4413 41.9409 25.5946 41.8194 25.4073C41.7673 25.254 41.7846 25.0837 41.7846 24.9134V18.4935V18.204C41.7846 18.0337 41.7152 17.9315 41.5243 17.9315H39.0765C38.8856 17.9315 38.7814 18.0167 38.7988 18.204V33.7515C38.7988 34.2623 38.7988 34.2623 39.3196 34.2623H46.5065C46.6627 34.2623 46.8189 34.2453 46.9752 34.2794C47.1661 34.3305 47.1141 34.4837 47.0793 34.6029C46.8537 35.4373 46.437 36.1696 45.8989 36.8337C45.1524 37.7192 44.2324 38.3663 43.1387 38.775C42.9304 38.8602 42.7221 38.9623 42.4964 38.9113C41.0903 39.2348 39.7188 39.1156 38.3648 38.6218C37.7746 38.3323 37.219 38.0087 36.7156 37.583C35.7088 36.6975 34.997 35.6587 34.7019 34.3475C34.8755 34.2283 34.9102 34.041 34.9102 33.8366V30.8055C34.9102 30.6692 34.9102 30.516 34.9276 30.3797C35.3442 29.4091 35.9692 28.5747 36.7677 27.9446C36.4031 28.0127 35.9692 28.1149 35.5178 28.1489C35.3963 28.166 35.2574 28.166 35.1359 28.183C35.0491 28.183 34.9623 28.183 34.9276 28.0638C34.8755 27.8935 34.8929 27.7232 34.8929 27.5529V18.4254C34.8929 17.9145 34.8929 17.9145 34.3721 17.9145H32.4625C32.0285 17.9145 32.0111 17.9315 32.0111 18.3573V27.4337C32.0111 27.621 32.0632 27.8254 31.9243 27.9957C30.6745 27.7573 29.4766 27.3826 28.3483 26.8036C28.0879 26.6674 27.8275 26.5142 27.5497 26.3779C27.4456 26.2417 27.515 26.1225 27.5497 25.9863C27.949 24.5047 28.3483 23.0232 28.7649 21.5417C29.0774 20.4178 29.3725 19.3109 29.685 18.187C29.7544 17.9315 29.7197 17.8975 29.4593 17.8975H27.5497C27.324 17.8975 27.2199 17.9826 27.1678 18.204C26.6817 20.0772 26.1783 21.9504 25.6749 23.8236C25.5881 24.1301 25.5707 24.4366 25.345 24.675Z" fill="#EB208A"></path> <path d="M149.206 25.0326C148.616 25.6626 147.887 26.1224 147.158 26.5481C145.803 27.3485 144.328 27.8253 142.766 28.0808C142.592 28.1148 142.418 28.1318 142.245 28.1489C142.036 28.2851 141.793 28.2851 141.568 28.2851C140.787 28.3192 140.005 28.3021 139.224 28.1829C139.085 28.1659 138.946 28.1489 138.86 28.0297C138.842 27.9956 138.825 27.9786 138.825 27.9445C138.686 27.2804 138.808 27.1271 139.485 27.1271H144.814C144.953 27.1271 145.022 27.042 145.04 26.9058C145.057 26.3097 145.057 25.7137 145.04 25.1177C145.04 24.9815 144.953 24.9134 144.814 24.8963H139.189C138.877 24.8793 138.808 24.8112 138.808 24.5047C138.79 23.2275 138.79 21.9503 138.808 20.6561C138.808 20.3326 138.894 20.2644 139.207 20.2474H146.116C146.55 20.2474 146.567 20.2304 146.567 19.8047V18.3061C146.567 17.9826 146.533 17.9485 146.22 17.9485H136.256C135.926 17.9485 135.908 17.9655 135.908 18.3572V26.4971C135.908 26.6673 135.926 26.8206 135.891 26.9909C135.822 27.2123 135.665 27.1271 135.544 27.059C134.954 26.7865 134.363 26.48 133.825 26.1054C133.287 25.7308 132.766 25.3391 132.298 24.8793C132.211 24.7942 132.107 24.709 132.089 24.5728C132.055 24.4025 132.072 24.2492 132.072 24.0789V18.4764V18.1869C132.072 18.0336 132.003 17.9315 131.829 17.9315H129.451C129.277 17.9315 129.208 18.0166 129.208 18.1869V19.1065C129.208 19.2427 129.225 19.3789 129.173 19.4981C129.138 19.5492 129.103 19.6003 129.034 19.5322C128.982 19.4811 128.947 19.396 128.93 19.3279C128.722 18.5956 128.565 17.8463 128.513 17.0971C128.444 16.1605 128.479 15.2239 128.617 14.2873C128.774 13.1974 129.086 12.1416 129.537 11.1369C129.937 10.2344 130.458 9.39996 131.065 8.61662C131.152 8.51445 131.221 8.39525 131.36 8.36119C132.003 7.62894 132.697 6.96481 133.461 6.38582C133.582 6.45394 133.6 6.59017 133.652 6.69234C134.225 7.93546 135.231 8.56553 136.603 8.56553C138.235 8.56553 139.641 7.16916 139.641 5.56843C139.641 5.14271 139.571 4.75104 139.415 4.35938C139.38 4.2572 139.311 4.15503 139.363 4.03583C141.88 3.74633 144.293 4.12097 146.55 5.27894C150.126 7.1351 152.279 10.03 153.077 13.9126C153.095 13.9808 153.095 14.0659 153.095 14.151C153.285 15.1387 153.32 16.1264 153.216 17.1141C153.199 17.3014 153.268 17.5058 153.147 17.676C153.06 17.7952 152.904 17.7952 152.782 17.8293C151.602 18.0677 150.577 18.5616 149.744 19.43C148.807 20.4177 148.477 21.6097 148.598 22.955C148.65 23.6021 148.841 24.1981 149.154 24.7771C149.189 24.8452 149.258 24.9304 149.206 25.0326Z" fill="#BA3C94"></path> <path d="M79.9938 39.9498C78.0842 40.9716 76.0531 41.4995 73.8832 41.4825C71.6264 41.4654 69.5259 40.8864 67.5816 39.7625C67.4948 39.7114 67.408 39.6604 67.3212 39.6263C66.8178 39.439 66.4185 39.0984 66.0019 38.7748C64.4916 37.5488 63.3458 36.0502 62.5473 34.2962C62.4605 34.0919 62.339 34.0919 62.148 34.143C61.1759 34.4325 60.1864 34.5687 59.1795 34.5176C58.7803 34.5006 58.381 34.4835 57.9991 34.3473C54.2841 35.352 44.7536 18.4763 59.2837 18.0335C59.6135 17.8803 59.9607 17.9314 60.2905 17.9654C61.5404 18.0846 62.7209 18.4252 63.7972 19.0553C64.3353 19.3618 64.8388 19.7024 65.2901 20.1451C65.4811 20.3325 65.6026 20.2984 65.7762 20.1451C66.297 19.6853 66.8699 19.2767 67.4948 18.919C67.599 18.868 67.7031 18.7488 67.8246 18.885C67.8941 19.0382 70.2376 17.9654 70.0988 17.8973C70.012 17.744 70.1508 17.744 70.2376 17.727C70.4807 17.6419 70.7237 17.5738 70.9667 17.5227C71.123 17.4886 71.1577 17.4375 71.0709 17.2843C70.6195 16.5009 70.3418 15.6495 70.255 14.7469C70.1856 14.1339 70.1682 13.5209 70.3939 12.9248L70.6022 12.2607C71.3313 9.92774 73.5186 8.12267 75.949 7.90129C78.8307 7.66289 80.9659 8.80383 82.3894 11.256C82.4936 11.2901 82.5283 11.3752 82.563 11.4774C83.6219 13.9466 83.2921 16.2114 81.5561 18.2719C81.3478 18.5274 81.1221 18.7488 80.8617 18.9361C80.6881 19.0723 80.7055 19.1575 80.8965 19.2767C81.5909 19.7194 82.2158 20.2473 82.7887 20.8263C82.9796 21.0136 83.1185 21.2009 83.1532 21.4734C83.1879 21.6607 83.1706 21.831 83.1706 22.0183V33.7513C83.1706 34.2962 83.1706 34.2792 83.7261 34.2962C84.1601 34.2962 84.5941 34.2792 85.0281 34.3133C85.2017 34.3473 85.1843 34.4495 85.1496 34.5857C85.0801 34.773 84.976 34.9263 84.8892 35.0966C84.1948 36.3738 83.2921 37.4806 82.1984 38.4683C81.5735 39.0303 80.8965 39.5071 80.15 39.9158C80.1153 39.9498 80.0632 39.9839 79.9938 39.9498ZM131.344 8.37811C130.128 9.87666 129.26 11.5285 128.844 13.4017C128.688 14.1339 128.601 14.8661 128.566 15.6154C128.497 16.8756 128.688 18.1187 129 19.3277C129.017 19.4129 129.07 19.498 129.104 19.6002C129.208 19.6854 129.208 19.8046 129.208 19.9238V25.6455C129.208 25.6966 129.208 25.7647 129.191 25.8158C129.104 26.0542 128.861 26.1223 128.688 26.2585C127.525 27.0078 126.275 27.5527 124.938 27.9104C124.539 28.0125 124.139 28.0977 123.723 28.1488C123.636 28.1658 123.549 28.1828 123.462 28.1317C123.271 27.8763 123.185 27.5698 123.08 27.2633C123.011 27.0589 123.185 26.9738 123.341 26.9056C123.757 26.7183 112.994 28.4893 112.994 33.5129C112.994 33.6832 113.012 33.8364 112.96 34.0067C112.838 34.2111 112.717 34.0748 112.63 34.0067C112.213 33.6832 111.849 33.3256 111.519 32.9339C111.154 32.5082 110.894 32.0143 110.651 31.5205C110.286 30.7031 110.095 29.8176 110.113 28.9321C110.147 27.4676 110.616 26.1393 111.588 24.9984C111.762 24.794 111.936 24.5727 112.144 24.4024C112.422 24.181 112.422 24.164 112.179 23.8915C111.519 23.1082 110.963 22.2567 110.529 21.3372C109.922 20.06 109.54 18.7317 109.401 17.3183C109.245 15.8027 109.366 14.3212 109.783 12.8567C109.835 12.6864 109.8 12.5672 109.644 12.4651C109.523 12.3799 109.366 12.3288 109.314 12.1415C109.922 12.1245 110.2 11.818 110.46 11.273C112.283 7.33934 115.39 4.90419 119.747 4.17194C123.705 3.50781 127.195 4.59767 130.181 7.23716C130.597 7.56071 130.962 7.96941 131.344 8.37811Z" fill="#EB208A"></path> <path d="M109.314 12.1076C109.938 12.4993 109.938 12.4993 109.748 13.1974C109.435 14.4065 109.331 15.6496 109.418 16.8927C109.626 19.5833 110.598 21.9674 112.404 24.0108C112.49 24.113 112.49 24.1811 112.386 24.2663C111.188 25.254 110.511 26.5311 110.251 28.0467C110.077 29.1366 110.199 30.1924 110.598 31.2141L110.702 31.5206C110.72 31.6058 110.668 31.6398 110.616 31.6909C110.216 32.0485 109.782 32.338 109.314 32.6275C109.227 32.6786 109.157 32.7467 109.036 32.6786C108.949 32.6105 96.6757 27.7742 96.6583 32.4402C96.6583 32.6105 96.7451 32.8489 96.5715 32.9511C96.3979 33.0362 96.2417 32.8489 96.0855 32.7467C94.0196 31.5206 92.492 29.8177 91.4157 27.7061C91.1727 27.2293 91.2247 27.1612 91.7629 27.1442C91.9365 27.1442 92.1448 27.2293 92.2837 27.059C92.3184 26.3438 92.3531 25.6286 92.2663 24.9134C92.1795 24.8112 92.0754 24.8282 91.9712 24.8282H90.7734C90.5477 24.8282 90.4088 24.7431 90.3568 24.5217C90.1832 23.5681 90.079 22.5974 90.1832 21.6268C90.2179 21.3203 90.2005 21.0137 90.27 20.7072C90.3047 20.571 90.3047 20.4348 90.4088 20.3326C90.5477 20.2474 90.704 20.2645 90.8602 20.2645H93.4468C93.8287 20.2645 93.846 20.2474 93.846 19.8728V18.2891C93.846 18.0507 93.7593 17.9656 93.5162 17.9656H91.624C91.4851 17.9656 91.3289 17.9826 91.19 17.9315C90.9991 17.8463 91.0859 17.7101 91.1379 17.5909C91.381 16.9438 91.7282 16.3478 92.1101 15.7688C94.1238 12.7547 96.9534 10.9326 100.564 10.3025C101.259 10.1833 101.953 10.0641 102.665 10.2003C102.682 10.2003 102.699 10.2174 102.717 10.2174C104.956 10.2174 107.022 10.8134 108.932 11.9203C109.088 11.9884 109.209 12.0395 109.314 12.1076Z" fill="#7B2570"></path> <path d="M102.752 10.2174C101.277 10.1833 99.8359 10.4217 98.4471 10.9156C96.9715 11.4435 95.6522 12.2098 94.4544 13.2315C93.1524 14.3384 92.1629 15.6667 91.4338 17.1822C91.3296 17.4036 91.2428 17.625 91.156 17.8464C91.0172 17.9826 90.8262 17.9485 90.6526 17.9485H83.6219C83.2574 17.9485 83.24 17.9656 83.24 18.3232V20.9457C83.24 21.0989 83.2747 21.2522 83.1185 21.3714C83.0838 21.2011 82.997 21.0819 82.8755 20.9627C82.2505 20.3326 81.5735 19.7536 80.8097 19.2768C80.6708 19.1917 80.584 19.1406 80.775 18.9873C81.7297 18.221 82.4068 17.2674 82.806 16.1265C83.3615 14.4576 83.2227 12.8399 82.4415 11.2732C83.2574 10.7793 84.0559 10.2514 84.9239 9.84275C87.2327 8.71884 89.6805 8.07174 92.2497 7.90145C95.9647 7.68007 99.4713 8.44638 102.752 10.2174ZM41.872 25.4924C43.3475 24.3174 44.4933 22.887 45.2918 21.1841C45.83 20.0261 46.1945 18.817 46.3507 17.5569C46.5764 15.7007 46.3855 13.9127 45.7779 12.1417C45.7605 12.1076 45.7779 12.0906 45.7779 12.0565C49.9095 11.2562 53.555 12.1928 56.7318 14.9004C56.7492 14.9174 56.7665 14.9344 56.7839 14.9685C56.8186 15.1047 56.6971 15.1728 56.6277 15.258C55.8291 15.9902 55.1695 16.8246 54.6139 17.7442C54.5619 17.8293 54.4924 17.9315 54.3709 17.9485C54.1626 17.9826 53.9369 17.9656 53.7286 17.9656H51.6281C51.3156 17.9656 51.2983 17.9996 51.2809 18.3062V33.8366C51.2809 34.0239 51.2983 34.2112 51.2288 34.3815C51.142 34.4837 51.0899 34.3986 51.0726 34.3304C51.0205 34.1942 51.0379 34.0409 51.0379 33.9047V21.9674C51.0379 21.8482 51.0726 21.729 51.0031 21.6098C50.6212 21.8993 50.3088 22.2739 50.0136 22.6315C48.4339 24.5728 47.5312 26.8036 47.3403 29.2728C47.2882 29.9199 47.3055 30.5841 47.3576 31.2312C47.375 31.4696 47.4791 31.5717 47.7395 31.5547C48.0694 31.5377 48.3992 31.5377 48.7464 31.5547C48.8505 31.5547 49.0068 31.5207 49.0068 31.708C48.9026 31.7931 48.7637 31.7761 48.6422 31.7761C48.1735 31.7591 47.6874 31.8101 47.2187 31.7591C47.0451 31.6909 47.0278 31.5206 46.9931 31.3844C46.7153 30.2946 46.1598 29.3409 45.3612 28.5576C44.4933 27.7062 43.469 27.1272 42.2539 26.8717C42.0976 26.8377 41.9067 26.8377 41.8199 26.6674C41.7678 26.3609 41.7852 26.0543 41.8025 25.7478C41.7852 25.6286 41.8025 25.5435 41.872 25.4924Z" fill="#BA3C94"></path> <path d="M54.4746 17.8463C54.7003 17.3524 55.0475 16.9437 55.36 16.501C55.7592 15.922 56.3147 15.4792 56.7834 14.9684C57.9639 13.9637 59.2485 13.1292 60.7067 12.5843C63.9877 11.3923 67.234 11.4944 70.4281 12.9249C70.4281 13.3676 70.324 13.7934 70.3413 14.2361C70.3761 15.326 70.6538 16.3477 71.2093 17.2843C71.3482 17.5227 71.2788 17.5397 71.0531 17.5738C70.7233 17.6419 70.4108 17.7611 70.0983 17.8463C69.9942 17.9655 69.8553 17.9484 69.7164 17.9484H68.2582C67.911 17.9484 67.8936 17.9655 67.8763 18.306C67.8589 18.4934 67.9457 18.6977 67.7721 18.851C67.0256 19.2767 66.3313 19.7705 65.6716 20.3325C65.5501 20.4517 65.4806 20.4176 65.3591 20.3155C64.0919 19.0894 62.5469 18.3912 60.7935 18.1017C60.2901 18.0165 59.7867 17.9995 59.2659 18.0336C59.1964 18.1017 59.1096 18.1017 59.0228 18.0847C57.6514 17.8292 56.28 17.9825 54.9086 17.9484C54.7697 17.9484 54.6135 17.9825 54.4746 17.8463Z" fill="#7B2570"></path> <path d="M68.7442 8.6506C66.9735 8.63357 65.5674 7.22017 65.5674 5.46619C65.5847 3.78032 67.0256 2.36691 68.7268 2.38394C70.5496 2.40097 71.9731 3.76329 71.9731 5.51727C71.9557 7.25423 70.5149 8.66763 68.7442 8.6506Z" fill="#7C2570"></path> <path d="M139.364 4.03583C139.798 4.93836 139.867 5.8409 139.451 6.76046C138.999 7.7822 138.201 8.37821 137.107 8.59959C135.545 8.90611 133.913 7.98655 133.444 6.38582C133.01 4.87024 133.757 3.26952 135.197 2.65648C136.69 2.0264 138.392 2.53727 139.225 3.88256C139.277 3.93365 139.312 3.98474 139.364 4.03583Z" fill="#EB208A"></path> <path d="M92.4225 27.1611C92.2315 27.3144 92.0058 27.1952 91.7975 27.2292C91.6586 27.2463 91.5024 27.2292 91.2941 27.2292C92.4572 29.6984 94.1931 31.5886 96.6061 32.9339V32.5763V18.2209C96.6061 18.1017 96.5541 17.9655 96.6582 17.8633C96.7971 18.0165 96.745 18.2039 96.745 18.3912V33.9386C96.745 34.2452 96.7797 34.2962 97.1096 34.2962H99.1059C99.5399 34.2962 99.5573 34.2792 99.5573 33.8535V28.1658C99.5573 28.0296 99.5573 27.8934 99.5746 27.7571C99.592 27.5868 99.6962 27.5017 99.8524 27.4847C99.8871 27.4847 99.9392 27.4847 99.9739 27.4676H103.654C103.776 27.4676 103.897 27.4676 103.967 27.5868C103.862 27.7401 103.689 27.706 103.533 27.706H100.234C99.8177 27.706 99.8003 27.7231 99.8003 28.1147V33.6321C99.8003 34.0408 99.8003 34.0578 100.234 34.126C102.109 34.4665 103.967 34.4155 105.807 33.9216C105.963 33.8876 106.102 33.8365 106.258 33.8194C106.38 33.8024 106.432 33.8876 106.466 33.9897C106.553 34.2452 106.727 34.3303 106.987 34.2962C107.074 34.2792 107.161 34.2963 107.248 34.3473C107.334 34.4836 107.213 34.5517 107.143 34.6368C106.814 35.0115 106.536 35.4202 106.397 35.897C106.085 37.1231 106.362 38.1959 107.317 39.0814C107.404 39.1495 107.525 39.2006 107.508 39.3539C105.182 41.8231 102.387 43.543 99.1233 44.5477C97.4741 45.0586 95.7902 45.331 94.0716 45.3651C88.8637 45.4843 84.3329 43.8325 80.479 40.4097C80.3054 40.2564 80.1492 40.0861 79.9756 39.9328C80.6526 39.5412 81.2949 39.1155 81.8851 38.6216C82.5795 38.0256 83.2392 37.3955 83.7773 36.6633C84.3155 35.9481 84.8016 35.1988 85.1661 34.3644C85.3224 34.2281 85.496 34.2622 85.6696 34.2622H93.3946C93.9848 34.2622 93.9848 34.2622 93.9848 33.6832V32.2698C93.9848 31.8611 93.9675 31.8441 93.5508 31.8441H86.8674C86.0862 31.8441 86.0515 31.81 86.0341 31.0607C86.0167 29.9198 86.0167 28.7618 86.0341 27.6209C86.0341 27.1952 86.1383 27.093 86.5896 27.093C87.5965 27.093 88.6207 27.076 89.6276 27.093C90.4261 27.11 91.2073 27.0249 92.0058 27.0249C92.1447 27.076 92.3009 27.0419 92.4225 27.1611Z" fill="#BA3C94"></path> <path d="M49.0065 31.6739C48.6246 31.5717 48.2427 31.6568 47.8781 31.6228H47.4962C47.3921 31.6228 47.3226 31.5887 47.3053 31.4695C47.2011 30.7202 47.2185 29.971 47.2705 29.2217C47.34 28.1829 47.5483 27.1442 47.9302 26.1735C48.4684 24.7431 49.1975 23.4148 50.239 22.2568C50.5168 21.9503 50.8119 21.6608 51.1591 21.3032V34.0409C51.1591 34.1601 51.0897 34.2963 51.2285 34.3815C51.3674 34.2793 51.5237 34.2963 51.6799 34.2963C53.0166 34.2963 54.3706 34.2793 55.7073 34.2963C56.3497 34.2963 56.9746 34.2282 57.6169 34.2282C57.7558 34.2282 57.912 34.2112 58.0335 34.2963C58.5022 34.3474 58.9883 34.4326 59.457 34.4326C60.4118 34.4496 61.3319 34.3134 62.2172 34.0239C62.4255 33.9558 62.5297 33.9898 62.6165 34.1942C63.363 35.88 64.4566 37.3275 65.8801 38.5366C66.3488 38.9282 66.8523 39.2518 67.321 39.6094C66.1752 40.4779 64.9253 41.176 63.5539 41.6188C61.8527 42.1808 60.0993 42.3681 58.3113 42.1808C58.1724 42.1637 58.1724 42.0445 58.1203 41.9423C57.6863 40.9036 56.9225 40.2224 55.7941 40.0181C53.4332 39.5924 51.8535 41.5847 52.1139 43.3728C52.1313 43.492 52.166 43.6282 52.0618 43.7304C48.26 45.842 43.6077 43.8666 42.6008 39.7456C42.5314 39.4731 42.4966 39.2007 42.4619 38.9282C43.2778 38.6898 44.0416 38.3492 44.7187 37.8384C45.8297 37.0039 46.5935 35.9311 46.9928 34.6029C47.0101 34.5177 47.0449 34.4326 47.0622 34.3474C47.1664 34.2453 47.3053 34.2623 47.4441 34.2623H48.6072C48.9197 34.2623 48.9544 34.2282 48.9544 33.9387C48.9544 33.3257 49.0065 32.7126 48.9197 32.0996C48.9023 31.9804 48.885 31.8101 49.0065 31.6739Z" fill="#8D287F"></path> <path d="M132.177 24.6748C132.784 25.2368 133.426 25.7647 134.121 26.2074C134.659 26.548 135.215 26.8715 135.822 27.0929C135.961 27.2462 135.926 27.4165 135.926 27.5868V34.0067C135.909 34.194 136.013 34.2962 136.204 34.2791H144.814C144.988 34.2791 145.179 34.2451 145.318 34.3643C146.255 35.4031 147.384 36.2375 148.616 36.9016C148.703 36.9527 148.807 36.9697 148.859 37.0549C146.845 38.7067 144.519 39.6433 141.898 39.8476C140.422 39.9668 138.964 39.8306 137.523 39.4219C137.315 39.3538 137.28 39.4049 137.298 39.6092C137.402 41.227 136.43 42.5552 134.85 42.9299C133.322 43.2875 131.829 42.5382 131.152 41.0567C131.031 41.0056 131.013 40.8864 130.979 40.7672C130.579 39.4049 131.135 37.9404 132.368 37.1741L132.472 37.123C132.715 36.9697 132.715 36.9697 132.506 36.7824C131.795 36.1183 131.135 35.4371 130.614 34.6197C130.545 34.5176 130.354 34.3984 130.614 34.2791C130.909 34.2281 131.204 34.2621 131.5 34.2451C132.072 34.2451 132.072 34.2451 132.072 33.7002V26.6502V25.0324C132.072 24.9473 132.055 24.794 132.177 24.6748Z" fill="#7C2570"></path> <path d="M130.51 34.3983C130.84 34.8922 131.187 35.352 131.586 35.7947C131.968 36.2204 132.385 36.6291 132.854 37.0378C131.916 37.5146 131.274 38.1958 131.013 39.2005C130.84 39.8476 130.909 40.4947 131.152 41.1078C130.562 41.2951 130.024 41.5675 129.416 41.7378C126.795 42.5041 124.174 42.4701 121.587 41.5846C121.5 41.5505 121.414 41.4994 121.309 41.5165C121.24 41.4483 121.275 41.3462 121.275 41.261C121.361 39.5751 120.945 38.0596 119.816 36.7483C119.33 36.1694 118.758 35.6925 118.098 35.3179C117.994 35.2668 117.855 35.2328 117.803 35.0965C117.837 35.0114 117.924 35.0114 118.011 34.9944C119.591 34.6367 120.823 33.7853 121.761 32.5081C121.83 32.423 121.865 32.3208 121.986 32.2867C122.108 32.3549 122.143 32.4911 122.177 32.5933C122.351 33.053 122.542 33.5128 122.716 33.9726C122.802 34.211 122.924 34.3132 123.184 34.2962C123.965 34.2791 124.729 34.2962 125.51 34.2962C125.858 34.2962 125.875 34.2791 125.753 33.9556C125.024 32.1335 124.295 30.3284 123.566 28.5063C123.514 28.3701 123.393 28.2338 123.497 28.0806C124.208 27.9614 124.903 27.8252 125.597 27.6038C126.674 27.2632 127.68 26.7694 128.618 26.1733C128.722 26.2755 128.705 26.4117 128.687 26.5309C128.479 28.0465 128.67 29.528 129.034 30.9925L129.139 31.3502C129.191 32.1165 129.156 32.8828 129.173 33.6491C129.191 34.3643 129.121 34.2791 129.816 34.2962C130.059 34.3132 130.302 34.228 130.51 34.3983Z" fill="#BA3C94"></path> <path d="M117.838 35.0966C119.07 35.7097 120.025 36.6292 120.667 37.8383C121.032 38.5024 121.223 39.2176 121.31 39.9669C121.362 40.4778 121.396 40.9886 121.31 41.5165C121.049 44.0539 118.931 46.3358 116.31 46.8296C112.595 47.5448 109.557 45.2629 108.793 42.2488C108.585 41.4655 108.533 40.6821 108.654 39.8818C108.759 39.7966 108.88 39.8307 108.984 39.8307C110.842 40.0861 112.491 38.6727 112.508 36.8165C112.508 36.2886 112.387 35.7948 112.144 35.318C112.109 35.2499 112.057 35.1647 112.092 35.0796C112.387 34.8241 112.751 34.756 113.116 34.6198C113.289 34.5517 113.498 34.5347 113.671 34.4836C114.991 34.2281 116.275 34.3644 117.508 34.8582C117.647 34.9093 117.786 34.9434 117.838 35.0966Z" fill="#8D287F"></path> <path d="M52.0613 43.7645C51.9745 43.1344 51.9919 42.5044 52.2349 41.8913C52.6689 40.7845 53.832 39.9841 55.0298 39.916C56.5054 39.8479 57.8247 40.7334 58.2587 42.0957L58.3108 42.1979C58.3802 42.6747 58.4497 43.1685 58.3455 43.6624C58.0331 45.0758 56.8352 46.1145 55.3944 46.1826C53.9015 46.2508 52.6168 45.3823 52.1481 43.9689C52.1308 43.9008 52.096 43.8326 52.0613 43.7645ZM112.126 35.0798C112.421 35.6417 112.629 36.2377 112.612 36.8848C112.577 38.3493 111.466 39.6265 109.973 39.8819C109.522 39.95 109.105 39.916 108.671 39.8649C108.272 39.7287 107.89 39.5584 107.543 39.354C107.126 39.0134 106.744 38.6218 106.536 38.1109C106.05 36.9359 106.119 35.8461 106.953 34.8243C107.074 34.6711 107.196 34.5348 107.317 34.3816C107.421 34.2624 107.578 34.2964 107.699 34.2964H109.313C109.661 34.2964 109.678 34.2794 109.574 33.9558C109.539 33.8707 109.504 33.7856 109.522 33.6834C109.557 33.5812 109.643 33.5982 109.713 33.5982C110.737 33.6663 111.518 34.1261 112.126 34.9265V35.0798Z" fill="#EB208A"></path> <path d="M149.206 25.0327C148.703 24.1983 148.46 23.2787 148.495 22.3081C148.564 20.5711 149.397 19.311 150.908 18.4255C151.602 18.0168 152.366 17.8124 153.164 17.6592C154.05 17.557 154.918 17.5229 155.803 17.6762C157.296 17.9146 158.667 18.4255 159.709 19.5664C160.073 19.9581 160.317 20.4349 160.49 20.9458C160.56 21.1331 160.525 21.2012 160.334 21.2352C159.518 21.4226 158.702 21.6269 157.886 21.8313C157.765 21.8653 157.66 21.8823 157.591 21.7121C157.209 20.7925 156.515 20.2816 155.525 20.0943C154.692 19.941 153.859 19.9581 153.06 20.2305C152.192 20.5371 151.706 21.2012 151.689 22.0526C151.671 22.6486 151.984 23.0744 152.453 23.3979C152.939 23.7215 153.494 23.8918 154.05 24.045C155.421 24.4026 156.827 24.6581 158.164 25.1349C159.83 25.7139 160.889 26.8378 161.167 28.5577C161.514 30.7034 160.698 32.6447 158.511 33.7686C156.983 34.5519 155.334 34.7222 153.65 34.603C152.262 34.5008 150.925 34.1432 149.744 33.3769C148.72 32.7128 148.061 31.7592 147.696 30.6012C147.644 30.4309 147.661 30.3798 147.852 30.3287C148.703 30.1584 149.554 29.9711 150.404 29.8008C150.508 29.7838 150.595 29.7497 150.63 29.886C150.994 31.2653 152.001 31.8954 153.338 32.0997C154.362 32.27 155.386 32.2871 156.393 31.9465C156.966 31.7592 157.417 31.4356 157.747 30.9247C158.268 30.0903 157.956 28.6769 156.862 28.2001C156.15 27.8936 155.404 27.7573 154.675 27.553C153.72 27.2976 152.748 27.0932 151.81 26.7867C150.734 26.4802 149.797 25.9863 149.206 25.0327ZM145.3 34.3986C143.946 34.3986 142.592 34.3986 141.238 34.3816H136.117C135.891 34.3816 135.822 34.3305 135.822 34.0921C135.839 31.8784 135.822 29.6816 135.822 27.4678C135.822 27.3486 135.822 27.2124 135.805 27.0932C135.805 26.5483 135.822 26.0204 135.822 25.4755V18.136C135.822 17.8976 135.891 17.8294 136.135 17.8294H146.359C146.62 17.8294 146.689 17.8976 146.672 18.153C146.654 18.766 146.654 19.3791 146.672 20.0092C146.672 20.2646 146.62 20.3327 146.359 20.3327C143.981 20.3157 141.603 20.3327 139.225 20.3157C138.929 20.3157 138.877 20.3838 138.877 20.6563C138.895 21.9334 138.895 23.2106 138.877 24.5048C138.877 24.7262 138.947 24.7773 139.155 24.7773C141.03 24.7773 142.905 24.7773 144.78 24.7602C145.057 24.7602 145.162 24.8113 145.144 25.1008C145.109 25.6798 145.127 26.2588 145.144 26.8378C145.162 27.1102 145.092 27.1954 144.797 27.1954C142.939 27.1784 141.082 27.1954 139.225 27.1784C138.929 27.1784 138.843 27.2635 138.877 27.536C138.895 27.6892 138.895 27.8595 138.895 28.0298C138.999 28.166 138.982 28.3193 138.982 28.4726V31.2994C138.982 31.674 138.999 31.691 139.381 31.691H142.974C143.13 31.691 143.287 31.674 143.426 31.7762C144.45 31.7762 145.491 31.7932 146.516 31.7762C146.741 31.7762 146.793 31.8273 146.793 32.0486C146.776 32.7468 146.776 33.428 146.793 34.1262C146.793 34.3135 146.759 34.3816 146.55 34.3646C146.134 34.3646 145.717 34.3816 145.3 34.3986Z" fill="white"></path> <path d="M143.426 31.7762H139.103C138.964 31.7762 138.877 31.7762 138.895 31.6059C138.912 30.4138 138.912 29.2218 138.912 28.0298C139.884 28.2001 140.874 28.2682 141.846 28.149C141.985 28.132 142.124 28.132 142.263 28.132C142.453 29.307 142.818 30.4309 143.339 31.5037C143.356 31.6059 143.391 31.691 143.426 31.7762Z" fill="#7C2570"></path> <path d="M25.3451 24.6752C25.918 22.5125 26.5082 20.3498 27.0637 18.1701C27.1332 17.9147 27.22 17.8466 27.4977 17.8466C28.2789 17.8636 29.0427 17.8466 29.8586 17.8466C29.633 18.698 29.4073 19.5324 29.1816 20.3498C28.6435 22.3252 28.1053 24.2835 27.5672 26.2589C27.5498 26.31 27.5498 26.361 27.5498 26.3951C27.2373 27.519 26.9249 28.66 26.6124 29.7839C26.2131 31.2313 25.8138 32.6788 25.4319 34.1263C25.3799 34.2966 25.3278 34.3817 25.1195 34.3647C24.2341 34.3476 23.3314 34.3476 22.4461 34.3647C22.2378 34.3647 22.1683 34.3136 22.1162 34.1092C21.0747 30.2947 20.0157 26.4803 18.9568 22.6658C18.9221 22.5636 18.8873 22.4614 18.8005 22.3592C18.5922 23.1596 18.4013 23.96 18.193 24.7774C17.4118 27.8596 16.6479 30.9589 15.8841 34.0411C15.8147 34.2966 15.7105 34.3647 15.4501 34.3647C14.6169 34.3476 13.7836 34.3476 12.9503 34.3647C12.742 34.3647 12.6552 34.2966 12.5858 34.1092C11.7178 30.9418 10.8325 27.7915 9.94711 24.6241C9.33952 22.4614 8.74929 20.2987 8.1417 18.136C8.12434 18.0509 8.08963 17.9487 8.07227 17.8295H11.1449C11.3185 17.8295 11.3185 17.9487 11.3532 18.0509C11.9088 20.0774 12.4469 22.1208 13.0024 24.1473C13.4885 25.9524 13.9746 27.7574 14.478 29.5455C14.4953 29.5966 14.5127 29.6306 14.5648 29.6817C14.6689 29.29 14.7731 28.8984 14.8773 28.5237C15.6758 25.3393 16.4917 22.1379 17.2902 18.9534C17.377 18.6299 17.4638 18.3234 17.5333 17.9998C17.568 17.8636 17.6201 17.8125 17.759 17.8125C18.6617 17.8125 19.5644 17.8295 20.4671 17.8125C20.658 17.8125 20.6927 17.9147 20.7275 18.0509C21.4045 20.469 22.0642 22.8701 22.7412 25.2882C23.1578 26.7697 23.5744 28.2513 24.0258 29.7498C24.4598 28.0639 24.8938 26.3781 25.3451 24.6752ZM34.9971 30.3458C34.9971 31.5889 34.9797 32.8321 34.9971 34.0581C34.9971 34.2966 34.945 34.4158 34.6846 34.3817C33.8687 34.3817 33.0528 34.3647 32.2369 34.3817C31.9939 34.3817 31.9244 34.3136 31.9244 34.0752C31.9418 32.1679 31.9244 30.2607 31.9244 28.3705C31.9244 28.2513 31.9071 28.1491 31.9071 28.0299C31.9071 27.9107 31.9244 27.7915 31.9244 27.6893V18.1871C31.9244 17.9317 31.9939 17.8466 32.2543 17.8466C33.0355 17.8636 33.8166 17.8636 34.6152 17.8466C34.8929 17.8466 34.9971 17.8976 34.9971 18.2042C34.9797 21.4226 34.9971 24.6411 34.9971 27.8426C34.9971 27.9618 34.9971 28.081 35.0145 28.1832C35.0665 28.2513 35.0839 28.3194 35.0839 28.4045C35.0492 29.0516 35.136 29.6987 34.9971 30.3458ZM49.0064 31.6741C49.0758 32.5255 49.0237 33.377 49.0411 34.2284C49.0411 34.4158 48.9022 34.3817 48.798 34.3817C48.2252 34.3817 47.6349 34.3987 47.0621 34.3987C46.9406 34.3987 46.819 34.3817 46.7149 34.3817H39.0072C38.7815 34.3817 38.6947 34.3476 38.6947 34.0922V18.119C38.6947 17.8976 38.7468 17.8466 38.9725 17.8466C39.8578 17.8636 40.7432 17.8636 41.6285 17.8466C41.8542 17.8466 41.9062 17.8976 41.9062 18.119V25.135C41.9062 25.2542 41.9063 25.3734 41.9236 25.4755V26.6846C42.0451 26.8208 42.0104 26.9911 42.0104 27.1614V31.1462C42.0104 31.5549 42.0278 31.5719 42.4444 31.5719H46.7149C46.8711 31.5719 47.0274 31.5549 47.1662 31.64C47.7391 31.6571 48.364 31.6571 49.0064 31.6741Z" fill="white"></path> <path d="M34.9971 30.3459V28.2002C35.622 28.098 36.247 28.064 36.8893 27.9277C36.0734 28.6089 35.4658 29.4263 34.9971 30.3459Z" fill="#8E2880"></path> <path d="M130.51 34.3988C130.111 34.3988 129.729 34.3818 129.329 34.3988C129.138 34.3988 129.086 34.3477 129.086 34.1604V31.3336C129.034 31.0271 129 30.7205 129 30.414V26.3611C129 26.2078 128.982 26.0376 129.086 25.8843V19.6006C129.086 19.1068 129.104 18.5959 129.086 18.102C129.086 17.9147 129.156 17.8636 129.329 17.8636C130.18 17.8807 131.031 17.8807 131.899 17.8636C132.124 17.8636 132.159 17.9488 132.159 18.1361V24.3858C132.159 24.4879 132.159 24.5901 132.176 24.7093C132.176 24.8626 132.159 25.0158 132.159 25.1691V34.0923C132.159 34.3477 132.107 34.4329 131.847 34.4158C131.395 34.3647 130.961 34.3988 130.51 34.3988ZM92.4227 27.1615C91.8846 27.1785 91.3464 27.1955 90.8083 27.1955H86.4857C86.26 27.1955 86.1559 27.2466 86.1559 27.485C86.1732 28.8303 86.1732 30.1586 86.1732 31.5039C86.1732 31.7252 86.2427 31.7934 86.4684 31.7934C88.8987 31.7934 91.3117 31.7934 93.7421 31.7763C94.0198 31.7763 94.0893 31.8444 94.0893 32.1169C94.0719 32.764 94.0719 33.4281 94.0893 34.0752C94.0893 34.3137 94.0198 34.3818 93.7768 34.3818H85.5309C85.4268 34.3818 85.3226 34.3818 85.2011 34.3988C84.6282 34.3988 84.038 34.3818 83.4651 34.3988C83.2047 34.3988 83.1179 34.3307 83.1179 34.0752C83.1353 29.9713 83.1179 25.8673 83.1179 21.7633C83.1179 21.6441 83.1179 21.5079 83.1006 21.3886C83.1006 20.3329 83.1179 19.2771 83.1006 18.2042C83.1006 17.9318 83.1527 17.8466 83.4478 17.8466C85.8955 17.8636 88.3432 17.8466 90.7736 17.8466C90.8951 17.8466 91.0166 17.8466 91.1208 17.8296C91.9714 17.8296 92.8046 17.8466 93.6379 17.8296C93.8636 17.8296 93.9504 17.8636 93.933 18.102C93.9157 18.7321 93.9157 19.3622 93.933 20.0093C93.9504 20.2818 93.8462 20.3158 93.6032 20.3158C92.5442 20.2988 91.4679 20.3158 90.409 20.3158C90.2701 20.418 90.1139 20.401 89.9577 20.401H86.694C86.2774 20.401 86.26 20.418 86.26 20.8267V24.3006C86.26 24.6582 86.2774 24.6752 86.642 24.6752C87.2148 24.6752 87.7877 24.6923 88.3432 24.6752C89.6452 24.6412 90.9472 24.7774 92.2491 24.7434C92.3012 24.7434 92.3533 24.7434 92.388 24.7774C92.4227 25.5948 92.4227 26.3781 92.4227 27.1615Z" fill="white"></path> <path d="M112.872 34.0407C112.82 34.5346 113.202 34.3302 113.428 34.3983C113.497 34.4665 113.671 34.3983 113.671 34.5686C113.15 34.7049 112.629 34.8752 112.143 35.0965C111.622 34.3984 110.963 33.9215 110.095 33.7342C109.921 33.7002 109.713 33.7512 109.556 33.6491C109.296 33.3766 109.157 33.036 109.157 32.6614C109.713 32.3208 110.268 31.9462 110.754 31.5034C111.032 31.9802 111.258 32.4741 111.64 32.8828C111.987 33.3085 112.351 33.7512 112.872 34.0407Z" fill="#BA3C94"></path> <path d="M129.086 25.8843V31.3336C128.878 30.8567 128.774 30.3288 128.705 29.818C128.6 29.0857 128.496 28.3535 128.514 27.6212C128.531 27.1444 128.583 26.6676 128.618 26.1908C128.774 26.0716 128.913 25.9354 129.086 25.8843Z" fill="#7C2570"></path> <path d="M92.4231 24.8112C90.6524 24.8112 88.8817 24.7942 87.1284 24.7942C86.8854 24.7942 86.6597 24.7771 86.4166 24.7942C86.2257 24.8112 86.1562 24.7431 86.1562 24.5558V20.605C86.1562 20.4007 86.2257 20.3496 86.4166 20.3496C87.5797 20.3666 88.7602 20.3496 89.9233 20.3496C90.0969 20.3496 90.2531 20.3496 90.4267 20.3666C90.3052 21.1159 90.2184 21.8652 90.2531 22.6145C90.2879 23.2616 90.3226 23.9087 90.4614 24.5558C90.4962 24.7431 90.583 24.7601 90.7392 24.7601H92.2148C92.3016 24.7431 92.3884 24.709 92.4231 24.8112Z" fill="#BA3C94"></path> <path d="M47.1137 31.6567C45.4298 31.6567 43.7459 31.6567 42.062 31.6737C41.8884 31.6737 41.8711 31.6056 41.8711 31.4693C41.8711 29.8857 41.8711 28.302 41.8884 26.7183C44.5445 27.161 46.6103 29.1023 47.1137 31.6567Z" fill="#EB208A"></path> <path d="M103.967 27.6211L106.363 33.8537C105.894 34.0921 105.356 34.1602 104.853 34.2624C103.95 34.4327 103.03 34.4667 102.11 34.4497C101.363 34.4157 100.634 34.3305 99.9052 34.1602C99.6969 34.1091 99.7489 33.9899 99.7489 33.8707V31.1291V27.9276C99.7489 27.6892 99.8184 27.6211 100.061 27.6211C101.363 27.6381 102.665 27.6211 103.967 27.6211Z" fill="#7C2570"></path> <path d="M113.654 34.5688C113.567 34.5177 113.498 34.4496 113.411 34.3985C114.14 34.3985 114.887 34.3815 115.616 34.3985C115.859 34.3985 115.928 34.3304 115.928 34.092C115.911 32.0315 115.928 29.971 115.911 27.9105C115.911 27.638 115.998 27.5699 116.258 27.5869C117.473 27.6039 118.688 27.5869 119.904 27.5869C120.06 27.5869 120.164 27.6039 120.233 27.7742C120.789 29.2558 121.379 30.7373 121.935 32.2188C121.952 32.2529 121.952 32.2699 121.952 32.3039C121.692 32.7978 121.31 33.2235 120.893 33.5981C120.095 34.2963 119.192 34.8072 118.133 35.0626C118.029 35.0797 117.925 35.0967 117.82 35.0967C116.536 34.5177 115.217 34.2963 113.81 34.5518C113.776 34.5688 113.724 34.5518 113.654 34.5688Z" fill="#EB208A"></path> <path d="M78.8646 26.6503C78.2917 26.1905 77.6147 25.9691 76.8509 25.7989C76.9898 25.7478 77.0766 25.7307 77.1634 25.7137C77.7883 25.5264 78.3612 25.2199 78.8125 24.7431C79.6979 23.8065 79.9409 22.6826 79.7673 21.4565C79.5764 20.026 78.448 18.4594 76.7815 18.1018C76.0871 17.9485 75.3927 17.8634 74.6809 17.8634C73.1533 17.8634 71.643 17.8634 70.1153 17.8463C69.4383 17.8463 68.7439 17.8634 68.0669 17.8463C67.8412 17.8463 67.7891 17.9144 67.7891 18.1188C67.8065 18.3572 67.7891 18.5956 67.7891 18.834C67.7891 18.9532 67.8065 19.0894 67.8065 19.2086V34.0579C67.8065 34.2282 67.7718 34.3815 68.0669 34.3815C70.5493 34.3644 73.0144 34.3644 75.4968 34.3474C76.2607 34.3474 77.0071 34.2452 77.7189 33.9387C79.4201 33.2405 80.236 31.9293 80.3749 30.1753C80.4443 28.796 80.0104 27.5699 78.8646 26.6503ZM70.6709 22.4952V20.4688C70.6709 20.2985 70.6882 20.2134 70.9139 20.2134C72.1117 20.2304 73.3095 20.2133 74.5073 20.2304C75.6357 20.2474 76.5558 20.9115 76.7641 21.8311C77.1287 23.4489 76.0697 24.7771 74.3858 24.7771C73.2401 24.7941 72.1117 24.7771 70.966 24.7771C70.7403 24.7771 70.6709 24.726 70.6882 24.5047C70.6709 23.8405 70.6709 23.1764 70.6709 22.4952ZM75.0976 31.8441C73.6914 31.9293 72.2679 31.8612 70.8618 31.8782C70.6709 31.8782 70.6709 31.759 70.6709 31.6398V29.5282V27.3996C70.6709 27.2293 70.7229 27.1612 70.8965 27.1612C72.2159 27.1782 73.5526 27.1441 74.8719 27.1782C76.035 27.2123 76.9377 27.9104 77.1981 28.9492C77.5626 30.3797 76.6079 31.742 75.0976 31.8441ZM64.4561 22.9039C63.8138 20.9797 62.5986 19.4981 60.7238 18.5445C60.2724 18.3231 59.769 18.1869 59.3003 18.0336C58.5538 17.8974 57.79 17.8293 57.0262 17.8463C56.1755 17.8634 55.3423 17.8463 54.4916 17.8463C53.5021 17.8463 52.53 17.8634 51.5405 17.8463C51.2454 17.8463 51.1586 17.8974 51.1759 18.2039C51.1933 23.4829 51.1933 28.7789 51.1933 34.0579C51.1933 34.1601 51.2107 34.2623 51.2107 34.3815C53.4848 34.3644 55.7589 34.4325 58.033 34.3133C58.0851 34.2963 58.1372 34.2793 58.2066 34.2793C60.5675 33.9898 62.4597 32.934 63.6923 30.9246C65.2373 28.3873 65.3588 25.6626 64.4561 22.9039ZM61.6438 26.8887C61.557 27.9786 61.314 29.0344 60.6543 29.9369C59.7343 31.2141 58.4844 31.9123 56.8699 31.9123C56.1061 31.9123 55.3596 31.8952 54.5958 31.9123C54.3354 31.9123 54.3007 31.8441 54.3007 31.6057C54.318 29.7496 54.3007 27.9104 54.3007 26.0543V20.5028C54.3007 20.2644 54.3528 20.1963 54.5958 20.1963C55.377 20.2134 56.1408 20.2304 56.922 20.1963C58.7448 20.1282 59.9947 20.9967 60.8453 22.5123C61.6091 23.8916 61.7653 25.3731 61.6438 26.8887ZM124.538 30.6862C124.191 29.8177 123.844 28.9492 123.514 28.0807C123.392 27.8083 123.288 27.5528 123.166 27.2804C123.08 27.1101 123.114 27.042 123.305 26.9739C123.982 26.6844 124.573 26.2927 125.059 25.7478C125.944 24.726 126.187 23.517 126.083 22.2398C125.927 20.4007 125.041 19.0384 123.253 18.3231C122.489 18.0166 121.674 17.8634 120.84 17.8634C118.306 17.8463 115.754 17.8634 113.219 17.8463C112.942 17.8463 112.89 17.9144 112.89 18.1869V33.6662C112.89 33.7854 112.89 33.9217 112.872 34.0409C112.785 34.3474 112.837 34.4496 113.15 34.4666C113.237 34.4666 113.324 34.4836 113.41 34.4666C114.192 34.4325 114.955 34.3644 115.737 34.4326C115.91 34.4496 116.014 34.3474 116.032 34.1941C116.049 34.0579 116.049 33.9217 116.049 33.7854V28.0467C116.049 27.672 116.066 27.655 116.448 27.655H119.677C120.094 27.655 120.111 27.672 120.25 28.0467C120.753 29.3579 121.257 30.6521 121.76 31.9633C121.812 32.0826 121.847 32.2188 121.969 32.3039C122.212 32.917 122.455 33.53 122.698 34.1601C122.767 34.3304 122.837 34.3985 123.028 34.3985C123.913 34.3815 124.816 34.3815 125.701 34.3985C125.979 34.3985 125.979 34.3133 125.892 34.109L124.538 30.6862ZM122.785 23.517C122.507 24.4365 121.778 24.8793 120.875 25.0666C120.493 25.1518 120.111 25.1858 119.729 25.1858H116.223C115.997 25.1858 115.91 25.1347 115.928 24.8963C115.945 24.1641 115.928 23.4318 115.928 22.6996V20.5028C115.928 20.2985 115.962 20.2134 116.205 20.2134C117.507 20.2304 118.827 20.1963 120.129 20.2304C120.944 20.2474 121.726 20.4347 122.316 21.0648C122.993 21.78 123.062 22.6315 122.785 23.517ZM109.522 33.6492C109.366 33.3257 109.227 33.0021 109.123 32.6615C109.088 32.5934 109.053 32.5423 109.036 32.4742C108.341 30.7543 107.647 29.0514 106.953 27.3315C106.866 27.1101 106.918 27.042 107.109 26.9568C108.237 26.463 109.123 25.6967 109.574 24.5217C109.904 23.6532 109.973 22.7507 109.817 21.8481C109.574 20.2644 108.741 19.0894 107.23 18.4083C106.397 18.0336 105.512 17.8634 104.609 17.8634C101.97 17.8463 99.3317 17.8463 96.693 17.8463V31.5717C96.693 32.4061 96.693 33.2405 96.6756 34.092C96.6756 34.3304 96.7451 34.3815 96.9707 34.3815C97.7866 34.3644 98.6026 34.3644 99.4185 34.3815C99.6615 34.3815 99.7136 34.3133 99.6962 34.092C99.6789 31.9974 99.6962 29.9028 99.6789 27.8253C99.6789 27.621 99.7483 27.5699 99.9393 27.5699H103.706C103.793 27.5699 103.88 27.5358 103.949 27.621C103.897 27.7231 103.949 27.8253 103.984 27.9275C104.696 29.8007 105.425 31.6739 106.137 33.547C106.189 33.6662 106.206 33.7854 106.328 33.8536C106.414 34.3133 106.71 34.4496 107.144 34.3815C107.178 34.3815 107.213 34.3815 107.265 34.3985C107.317 34.3985 107.369 34.3815 107.404 34.3815H109.522C109.73 34.3815 109.747 34.3304 109.678 34.1601C109.643 33.9898 109.591 33.8195 109.522 33.6492ZM106.553 23.551C106.258 24.4536 105.546 24.8793 104.644 25.0836C104.262 25.1688 103.897 25.2028 103.498 25.2028H99.9393C99.7309 25.2028 99.6789 25.1518 99.6789 24.9474C99.6962 24.1981 99.6789 23.4659 99.6789 22.7166V20.4858C99.6789 20.2815 99.7483 20.2304 99.9393 20.2304C101.259 20.2304 102.561 20.2134 103.88 20.2474C104.713 20.2644 105.494 20.4518 106.085 21.0989C106.779 21.8141 106.848 22.6655 106.553 23.551Z" fill="white"></path> </svg> 