<?xml version="1.0" encoding="UTF-8"?> <svg xmlns="http://www.w3.org/2000/svg" width="386" height="85" viewBox="0 0 386 85" fill="none"> <g clip-path="url(#clip0)"> <path d="M108.785 68.3804L131.305 38.2156L111.475 10.2418H120.658L131.28 25.1119C133.492 28.1946 135.024 30.5555 135.909 32.1945C137.22 30.1648 138.769 27.9993 140.548 25.7148L152.182 10.2418H160.633L140.395 37.8759L162.182 68.3804H152.718L138.02 47.6421C137.178 46.4617 136.378 45.2897 135.629 44.1263C134.326 46.071 133.407 47.4383 132.837 48.2111L118.062 68.3804H108.785ZM170.285 68.3804V10.2418H178.012V68.3889H170.285V68.3804ZM185.204 68.3804L207.554 10.2333H216.03L239.75 68.3804H230.984L224.243 50.7588H199.707L193.383 68.3804H185.204ZM201.97 44.5084H221.826L215.749 28.3899C213.92 23.4898 212.532 19.4475 211.571 16.2543C210.771 20.0419 209.698 23.7616 208.354 27.4473L201.97 44.5084ZM243.52 40.0839C243.52 30.4451 246.125 22.8954 251.316 17.4433C256.508 11.9912 263.214 9.26514 271.427 9.26514C276.815 9.26514 281.657 10.556 285.981 13.1122C290.296 15.6684 293.589 19.2437 295.853 23.8295C298.117 28.4069 299.258 33.6042 299.258 39.413C299.258 45.2982 298.066 50.5805 295.675 55.2173C293.283 59.8711 289.913 63.3954 285.547 65.7733C281.164 68.1681 276.449 69.3571 271.385 69.3571C265.887 69.3571 260.993 68.0322 256.67 65.3911C252.355 62.75 249.069 59.1492 246.848 54.5804C244.627 50.02 243.52 45.1878 243.52 40.0839ZM251.495 40.2198C251.495 47.2175 253.384 52.729 257.146 56.7459C260.916 60.7628 265.648 62.784 271.351 62.784C277.155 62.784 281.913 60.7543 285.674 56.6949C289.419 52.6356 291.292 46.8693 291.292 39.396C291.292 34.6743 290.492 30.547 288.892 27.0227C287.291 23.5068 284.942 20.7723 281.87 18.836C278.781 16.8998 275.317 15.9316 271.478 15.9316C266.023 15.9316 261.333 17.8 257.401 21.5366C253.461 25.2647 251.495 31.4896 251.495 40.2198ZM309.02 68.3804V10.2418H320.577L334.356 51.3957C335.633 55.2258 336.552 58.0962 337.139 60.007C337.803 57.8924 338.85 54.7842 340.254 50.6824L354.28 10.2418H364.604V68.3889H357.199V19.7447L340.195 68.3889H333.25L316.424 18.853V68.3889H309.02V68.3804ZM378.272 68.3804V10.2418H386V68.3889H378.272V68.3804Z" fill="#191C2E"></path> <path fill-rule="evenodd" clip-rule="evenodd" d="M85.253 0H1.78727C0.800018 0 0 0.781297 0 1.75792V83.2506C0 84.2187 0.800018 85.0085 1.78727 85.0085H85.253C86.2403 85.0085 87.0403 84.2187 87.0403 83.2506V1.75792C87.0403 0.781297 86.2403 0 85.253 0ZM77.5251 20.7043H66.793V64.2447H77.5251V20.7043ZM39.5328 37.5022H28.5624V63.888H39.5328V37.5022ZM20.3664 20.8232L9.63428 20.7043V64.2362H20.3579V29.9101C23.7367 29.8676 36.4093 29.7232 41.4052 29.7912C45.2861 29.8506 47.95 32.3728 47.9756 36.2708L48.1713 64.1682L58.5886 64.1258C58.5886 64.1258 58.4779 42.9119 58.4694 32.9843C58.4694 26.7679 53.8736 20.8232 47.0819 20.8232H20.3664Z" fill="#191C2E"></path> </g> <defs> <clipPath id="clip0"> <rect width="386" height="85" fill="white"></rect> </clipPath> </defs> </svg> 