<?xml version="1.0" encoding="UTF-8"?> <svg xmlns="http://www.w3.org/2000/svg" width="309" height="60" viewBox="0 0 309 60" fill="none"> <path d="M159.59 13.4194C159.939 13.4194 160.113 13.5352 160.287 14.0561L168.071 39.8698C168.129 40.1592 168.245 40.2171 168.477 40.2171H168.71C168.884 40.2171 169 40.1592 169.116 39.8698L176.9 16.2555C177.597 14.114 178.701 13.4773 180.444 13.4773H185.207C187.298 13.4773 188.343 14.2297 188.982 16.2555L196.94 39.8698C197.057 40.1592 197.115 40.2171 197.347 40.2171H197.637C197.812 40.2171 197.928 40.1592 198.044 39.8698L205.654 14.0561C205.77 13.5352 206.06 13.4194 206.409 13.4194H212.914C213.437 13.4194 213.495 13.9403 213.321 14.5191L204.085 43.3425C203.156 46.2364 202.226 46.9888 200.368 46.9888H194.733C192.874 46.9888 192.003 46.1786 191.015 43.3425L183.464 20.5963C183.406 20.3648 183.348 20.2491 183.057 20.2491H182.883C182.709 20.2491 182.535 20.3648 182.477 20.5963L174.809 43.3425C173.822 46.1786 173.008 46.9888 171.091 46.9888H165.631C163.482 46.9888 162.494 46.2943 161.565 43.3425L152.736 14.5191C152.562 13.8825 152.62 13.4194 153.142 13.4194H159.59V13.4194Z" fill="#170237"></path> <path d="M242.481 13.4194C244.921 13.4194 246.431 14.1719 248 17.0658L263.916 45.8892C264.264 46.5258 264.09 46.9888 263.335 46.9888H257.235C256.596 46.9888 256.364 46.8731 256.132 46.3522L252.705 40.1592H230.109L226.798 46.3522C226.565 46.8152 226.275 46.9888 225.694 46.9888H219.42C218.607 46.9888 218.433 46.5258 218.782 45.8892L234.581 17.0658C236.15 14.1719 237.602 13.4194 239.635 13.4194H242.481ZM233.187 34.6608H249.742L242.075 20.5963C241.958 20.3648 241.784 20.2491 241.552 20.2491H241.261C241.029 20.2491 240.855 20.3648 240.739 20.5963L233.187 34.6608Z" fill="#170237"></path> <path d="M273.209 13.4194C273.79 13.4194 274.08 13.5352 274.371 13.9982L287.208 31.3038L300.162 13.9982C300.452 13.5931 300.743 13.4194 301.323 13.4194H307.597C308.12 13.4194 308.352 13.9403 308.004 14.4034L290.751 36.7444V45.947C290.751 46.6416 290.403 46.9888 289.706 46.9888H284.536C283.839 46.9888 283.432 46.6416 283.432 45.947V36.7444L266.355 14.4034C266.006 13.9982 266.239 13.4194 266.761 13.4194H273.209V13.4194Z" fill="#170237"></path> <path d="M130.314 25.516L141.061 14.6928C141.467 14.2876 141.467 13.4194 140.596 13.4194H134.323C133.567 13.4194 133.161 13.6509 132.754 14.114L125.609 21.2909L130.314 25.516Z" fill="#27CEAA"></path> <path d="M141.7 45.7736L111.088 14.1721C110.681 13.7669 110.333 13.4775 109.519 13.4775H102.955C102.084 13.4775 102.084 14.2878 102.491 14.7509L116.838 29.3362L101.039 45.7158C100.632 46.1209 100.632 46.9891 101.445 46.9891H107.719C108.532 46.9891 108.88 46.8154 109.287 46.2945L121.195 33.9086L133.103 46.2945C133.51 46.7576 133.858 46.9891 134.671 46.9891H141.235C142.106 46.9891 142.165 46.1788 141.7 45.7736Z" fill="#170237"></path> <g clip-path="url(#clip0)"> <path fill-rule="evenodd" clip-rule="evenodd" d="M16.4571 0.316593C17.9736 0.541255 19.2092 1.72073 19.4901 3.2372C19.5462 3.51802 19.5462 3.79885 19.5462 4.07968C19.4339 5.25915 19.827 6.49479 20.6695 7.33728C21.5682 8.29209 22.7476 9.52773 23.7586 10.5949C24.7696 11.662 26.2299 12.1675 27.634 11.8305C28.2519 11.662 28.982 11.662 29.656 11.7743C31.8465 12.1113 33.5314 13.9086 33.8684 16.0429C33.9807 16.7731 33.9246 17.4471 33.7561 18.121C33.3629 19.5813 33.6999 21.154 34.7109 22.2211L36.115 23.7376C36.5644 24.1869 37.2945 24.3554 37.8562 24.0746C38.7548 23.6253 39.7096 23.4006 40.7768 23.4006C41.8439 23.4006 42.7987 23.6253 43.6974 24.0746C44.259 24.3554 44.9892 24.2431 45.4385 23.7376L46.8426 22.2211C47.8536 21.0978 48.1906 19.5813 47.7974 18.121C47.629 17.4471 47.5728 16.7731 47.6851 16.0429C47.9659 13.8525 49.7071 12.1113 51.8975 11.7743C52.6277 11.662 53.3017 11.7182 53.9195 11.8305C55.3236 12.1675 56.8401 11.662 57.7949 10.5949L60.0977 8.12359C61.2772 6.83179 61.7265 5.59615 61.5018 4.36051C61.4457 3.96735 61.4457 3.57419 61.5018 3.12487C61.7826 1.66456 63.0183 0.48509 64.4786 0.260428C66.7814 -0.0765652 68.8033 1.88923 68.4663 4.24818C68.2417 5.76464 67.006 7.05645 65.4896 7.22495C65.3772 7.22495 65.2649 7.22495 65.1526 7.28111C64.0293 7.33728 62.9621 7.7866 62.1758 8.57292L58.6374 12.336C57.7387 13.2908 57.4017 14.5826 57.6264 15.8744C57.7387 16.3799 57.7387 16.9416 57.6264 17.5032C57.2894 19.6375 55.6044 21.3786 53.5263 21.7156C53.0208 21.828 52.5153 21.828 52.066 21.7718C50.7742 21.6033 49.4262 22.1088 48.5276 23.0636L46.955 24.7486C46.281 25.4787 46.1686 26.2089 46.5056 26.7705C47.0673 27.7253 47.3481 28.8487 47.3481 30.0281C47.3481 31.2076 47.0673 32.3309 46.5056 33.2857C46.1686 33.8474 46.281 34.5775 46.7303 35.0269L48.5276 36.9365C49.4262 37.8913 50.7181 38.3406 52.066 38.2283C52.5153 38.1721 53.0208 38.1721 53.5263 38.2844C55.6606 38.6214 57.3456 40.3626 57.6264 42.4969C57.6826 43.0585 57.6826 43.6202 57.6264 44.1257C57.4017 45.4175 57.7387 46.7093 58.6374 47.6641C59.7045 48.8436 61.1087 50.3039 62.1758 51.4272C62.9621 52.2697 64.0293 52.6628 65.1526 52.719C65.2649 52.719 65.3772 52.719 65.5457 52.7751C67.0622 52.9998 68.2978 54.2916 68.5225 55.8081C68.8033 58.1109 66.8375 60.0767 64.5348 59.7397C63.0745 59.515 61.8388 58.3917 61.558 56.9314C61.5018 56.4821 61.5018 56.0889 61.558 55.6957C61.7826 54.4601 61.3333 53.1683 60.4347 52.2697L57.7949 49.4614C56.7839 48.3942 55.3236 47.8887 53.9195 48.2257C53.3017 48.3942 52.5715 48.3942 51.8975 48.2819C49.7071 47.9449 48.0221 46.1476 47.6851 44.0133C47.5728 43.2832 47.629 42.6092 47.7974 41.9352C48.1906 40.4749 47.8536 38.9023 46.8426 37.8351L45.4385 36.3187C44.9892 35.8693 44.259 35.7008 43.6974 35.9817C42.7987 36.431 41.8439 36.6557 40.7768 36.6557C39.7658 36.6557 38.7548 36.431 37.8562 35.9817C37.2945 35.7008 36.5644 35.8132 36.115 36.3187L34.7109 37.8351C33.6999 38.9584 33.3629 40.4749 33.7561 41.9352C33.9246 42.6092 33.9807 43.2832 33.8684 44.0133C33.5876 46.2038 31.8465 47.9449 29.656 48.2819C28.9258 48.3942 28.2519 48.3381 27.634 48.2257C26.2299 47.8887 24.7134 48.3942 23.7586 49.4614L20.6695 52.719C19.827 53.6176 19.4339 54.7971 19.5462 55.9766C19.5462 56.2574 19.5462 56.5382 19.4901 56.8191C19.2654 58.3355 18.0297 59.5712 16.4571 59.7397C14.1543 60.0205 12.1885 58.0547 12.4694 55.7519C12.6379 54.4039 13.9858 52.9998 15.3338 52.7751C15.5585 52.719 15.7831 52.719 16.0078 52.719C17.2434 52.719 18.4229 52.3258 19.2654 51.4272L22.8038 47.6641C23.7025 46.7093 24.0395 45.4175 23.8148 44.1257C23.7025 43.6202 23.7025 43.0585 23.8148 42.4969C24.1518 40.3626 25.8368 38.6214 27.9149 38.2844C28.4204 38.1721 28.9258 38.1721 29.3752 38.2283C30.667 38.3968 32.0149 37.8913 32.9136 36.9365L34.4862 35.2515C35.1602 34.5214 35.2725 33.7912 34.9356 33.2296C34.3739 32.2747 34.0931 31.1514 34.0931 29.972C34.0931 28.7925 34.3739 27.6692 34.9356 26.7144C35.2725 26.1527 35.1602 25.4226 34.7109 24.9732L32.9136 23.0636C32.0149 22.1088 30.7231 21.6595 29.3752 21.7718C28.9258 21.828 28.4204 21.828 27.9149 21.7156C25.7806 21.3786 24.0956 19.6375 23.8148 17.5032C23.7586 16.9416 23.7586 16.3799 23.8148 15.8744C24.0395 14.5826 23.7025 13.2908 22.8038 12.336C21.7367 11.2127 20.3325 9.69623 19.2654 8.57292C18.4229 7.67427 17.2434 7.28111 16.0078 7.28111C15.7831 7.28111 15.5585 7.28111 15.3338 7.22495C13.9858 7.00028 12.694 5.59615 12.4694 4.24818C12.1324 1.94539 14.0982 -0.0203997 16.4571 0.316593ZM7.18982 16.9416C7.24598 16.2676 7.07748 15.4813 6.62816 14.8073C6.12267 14.021 5.28019 13.4593 4.38154 13.2908C2.13492 12.8415 0.169132 14.5826 0.169132 16.7731C0.169132 16.8854 0.169132 17.0539 0.169132 17.1662C0.393794 18.9074 1.8541 20.3115 3.65139 20.3115H3.70756C4.99936 20.3115 6.235 20.817 7.07748 21.7718L10.7282 25.6472C11.6269 26.602 11.9639 27.95 11.6831 29.2418C11.6269 29.5226 11.6269 29.7473 11.6269 30.0281C11.6269 30.309 11.6269 30.5898 11.6831 30.8144C11.9077 32.1062 11.6269 33.4542 10.7282 34.409L6.90899 38.4529C6.06651 39.3516 4.88703 39.7448 3.65139 39.7448C3.42673 39.7448 3.20207 39.7448 2.97741 39.8009C1.62943 40.0256 0.337629 41.4297 0.112967 42.7777C-0.224026 45.0805 1.74177 47.0463 4.10071 46.7654C5.61718 46.5408 6.85282 45.3613 7.13365 43.8448C7.18982 43.564 7.18982 43.2832 7.18982 43.0024C7.07748 41.8229 7.47064 40.6434 8.31312 39.7448C9.43643 38.5653 10.9529 36.9365 12.0762 35.757C12.9749 34.8022 14.3228 34.409 15.6146 34.5775C16.0078 34.6337 16.401 34.6337 16.7941 34.5775C18.7599 34.2967 20.3887 32.6679 20.6134 30.6459C20.9504 27.95 18.8161 25.6472 16.1763 25.6472C15.9516 25.6472 15.7831 25.6472 15.5585 25.7034C14.2667 25.8719 12.9187 25.3664 12.02 24.4116L8.81861 20.9855C7.58297 19.6375 7.13365 18.458 7.18982 17.1662V16.9416ZM65.6581 34.4652C65.4896 34.4652 65.3772 34.4652 65.2087 34.4652C62.7375 34.4652 60.7155 32.4432 60.7155 29.972C60.7155 27.5007 62.7375 25.4787 65.2087 25.4787H65.2649C65.3772 25.4787 65.5457 25.4787 65.6581 25.4787C67.0622 25.6472 68.4663 25.1417 69.4212 24.0746L73.0157 20.2553C73.8582 19.3567 74.2514 18.1772 74.139 16.9977C74.139 16.7169 74.139 16.4361 74.1952 16.1553C74.4199 14.6388 75.6555 13.4031 77.2281 13.2347C79.5871 12.9538 81.4967 14.9196 81.2159 17.2224C81.0474 18.5704 79.6994 19.9183 78.4076 20.1992C78.183 20.2553 77.9583 20.2553 77.7336 20.2553C76.498 20.2553 75.3185 20.6485 74.476 21.5471C73.3527 22.7266 71.8363 24.3554 70.6568 25.5911C69.7581 26.5459 69.4212 27.8938 69.702 29.1856C69.7581 29.4665 69.7581 29.6911 69.7581 29.972C69.7581 30.2528 69.7581 30.5336 69.702 30.7583C69.4773 32.0501 69.7581 33.3981 70.6568 34.3529L74.476 38.3968C75.3185 39.2954 76.498 39.6886 77.7336 39.6886C77.9583 39.6886 78.183 39.6886 78.4076 39.7448C79.7556 39.9694 81.0474 41.3736 81.2721 42.7215C81.6091 45.0243 79.6433 46.9901 77.2843 46.7093C75.7678 46.4846 74.5322 45.3051 74.2514 43.7887C74.1952 43.5078 74.1952 43.227 74.1952 42.9462C74.3075 41.7667 73.9144 40.5872 73.0719 39.6886C72.0048 38.5091 70.5445 36.9926 69.4773 35.8693C68.5225 34.8022 67.1184 34.2967 65.6581 34.4652Z" fill="#27CEAA"></path> </g> <defs> <clipPath id="clip0"> <rect width="81.0468" height="59.4792" fill="white" transform="translate(0.169189 0.260498)"></rect> </clipPath> </defs> </svg> 