<?xml version="1.0" encoding="UTF-8"?> <svg xmlns="http://www.w3.org/2000/svg" width="213" height="141" viewBox="0 0 213 141" fill="none"> <path d="M109.899 9.27344C110.139 9.27344 110.259 9.35272 110.379 9.70951L115.737 27.3904C115.777 27.5886 115.857 27.6282 116.017 27.6282H116.177C116.296 27.6282 116.376 27.5886 116.456 27.3904L121.814 11.216C122.294 9.74916 123.053 9.31308 124.253 9.31308H127.531C128.971 9.31308 129.691 9.82844 130.13 11.216L135.608 27.3904C135.688 27.5886 135.728 27.6282 135.888 27.6282H136.088C136.208 27.6282 136.288 27.5886 136.368 27.3904L141.605 9.70951C141.685 9.35272 141.885 9.27344 142.125 9.27344H146.603C146.963 9.27344 147.003 9.63023 146.883 10.0267L140.526 29.769C139.886 31.7511 139.246 32.2665 137.967 32.2665H134.089C132.809 32.2665 132.209 31.7115 131.53 29.769L126.332 14.1892C126.292 14.0306 126.252 13.9513 126.052 13.9513H125.932C125.812 13.9513 125.692 14.0306 125.652 14.1892L120.375 29.769C119.695 31.7115 119.135 32.2665 117.816 32.2665H114.057C112.578 32.2665 111.898 31.7908 111.259 29.769L105.181 10.0267C105.061 9.59058 105.101 9.27344 105.461 9.27344H109.899V9.27344Z" fill="white"></path> <path d="M166.954 9.27344C168.633 9.27344 169.673 9.7888 170.752 11.771L181.707 31.5133C181.947 31.9493 181.827 32.2665 181.307 32.2665H177.109C176.67 32.2665 176.51 32.1872 176.35 31.8304L173.991 27.5886H158.438L156.159 31.8304C155.999 32.1476 155.799 32.2665 155.399 32.2665H151.081C150.521 32.2665 150.401 31.9493 150.641 31.5133L161.516 11.771C162.596 9.7888 163.595 9.27344 164.995 9.27344H166.954ZM160.557 23.8225H171.952L166.674 14.1892C166.594 14.0306 166.474 13.9513 166.314 13.9513H166.114C165.954 13.9513 165.834 14.0306 165.754 14.1892L160.557 23.8225Z" fill="white"></path> <path d="M188.104 9.27344C188.504 9.27344 188.704 9.35272 188.904 9.66987L197.74 21.5232L206.656 9.66987C206.856 9.39237 207.056 9.27344 207.456 9.27344H211.774C212.134 9.27344 212.294 9.63023 212.054 9.94737L200.179 25.2497V31.5529C200.179 32.0286 199.939 32.2665 199.459 32.2665H195.901C195.421 32.2665 195.141 32.0286 195.141 31.5529V25.2497L183.387 9.94737C183.147 9.66987 183.307 9.27344 183.666 9.27344H188.104V9.27344Z" fill="white"></path> <path d="M89.7483 17.5589L97.1451 10.1456C97.4249 9.86809 97.4249 9.27344 96.8252 9.27344H92.5071C91.9873 9.27344 91.7075 9.43201 91.4276 9.74916L86.5098 14.6649L89.7483 17.5589Z" fill="#27CEAA"></path> <path d="M97.585 31.4341L76.5144 9.78895C76.2345 9.51145 75.9946 9.31323 75.4348 9.31323H70.9168C70.3171 9.31323 70.3171 9.86824 70.597 10.1854L80.4726 20.1755L69.5974 31.3945C69.3175 31.672 69.3175 32.2666 69.8773 32.2666H74.1954C74.7551 32.2666 74.995 32.1477 75.2749 31.7909L83.4713 23.3073L91.6677 31.7909C91.9475 32.1081 92.1874 32.2666 92.7472 32.2666H97.2652C97.8649 32.2666 97.9049 31.7116 97.585 31.4341Z" fill="white"></path> <g clip-path="url(#clip0)"> <path fill-rule="evenodd" clip-rule="evenodd" d="M11.3794 0.298716C12.4232 0.452596 13.2737 1.26047 13.467 2.29916C13.5056 2.49151 13.5056 2.68386 13.5056 2.87621C13.4283 3.68408 13.6989 4.53042 14.2788 5.10747C14.8974 5.76146 15.7092 6.6078 16.4051 7.33873C17.101 8.06966 18.1061 8.41589 19.0726 8.18507C19.4978 8.06966 20.0004 8.06966 20.4643 8.1466C21.972 8.37742 23.1318 9.60846 23.3638 11.0703C23.4411 11.5704 23.4024 12.0321 23.2864 12.4937C23.0158 13.4939 23.2478 14.5711 23.9436 15.302L24.9101 16.3407C25.2194 16.6485 25.722 16.7639 26.1086 16.5715C26.7271 16.2638 27.3843 16.1099 28.1189 16.1099C28.8534 16.1099 29.5106 16.2638 30.1291 16.5715C30.5157 16.7639 31.0183 16.6869 31.3276 16.3407L32.2941 15.302C32.9899 14.5326 33.2219 13.4939 32.9513 12.4937C32.8353 12.0321 32.7966 11.5704 32.8739 11.0703C33.0672 9.56999 34.2657 8.37742 35.7734 8.1466C36.276 8.06966 36.7399 8.10813 37.1651 8.18507C38.1316 8.41589 39.1754 8.06966 39.8326 7.33873L41.4177 5.64605C42.2295 4.76124 42.5388 3.9149 42.3841 3.06856C42.3455 2.79927 42.3455 2.52998 42.3841 2.22222C42.5774 1.222 43.4279 0.414126 44.4331 0.260246C46.0181 0.029426 47.4099 1.37588 47.1779 2.99162C47.0233 4.03031 46.1728 4.91512 45.129 5.03053C45.0516 5.03053 44.9743 5.03053 44.897 5.069C44.1238 5.10747 43.3893 5.41523 42.8481 5.95381L40.4125 8.5313C39.794 9.18529 39.562 10.0701 39.7166 10.9549C39.794 11.3011 39.794 11.6858 39.7166 12.0705C39.4847 13.5324 38.3249 14.725 36.8945 14.9558C36.5466 15.0327 36.1987 15.0327 35.8894 14.9943C35.0002 14.8789 34.0724 15.2251 33.4538 15.8791L32.3714 17.0332C31.9075 17.5333 31.8301 18.0334 32.0621 18.4181C32.4487 19.0721 32.642 19.8415 32.642 20.6494C32.642 21.4572 32.4487 22.2266 32.0621 22.8806C31.8301 23.2653 31.9075 23.7654 32.2167 24.0732L33.4538 25.3812C34.0724 26.0352 34.9616 26.3429 35.8894 26.266C36.1987 26.2275 36.5466 26.2275 36.8945 26.3045C38.3636 26.5353 39.5234 27.7278 39.7166 29.1897C39.7553 29.5744 39.7553 29.9591 39.7166 30.3053C39.562 31.1901 39.794 32.075 40.4125 32.7289C41.147 33.5368 42.1135 34.537 42.8481 35.3064C43.3893 35.8835 44.1238 36.1528 44.897 36.1912C44.9743 36.1912 45.0516 36.1912 45.1676 36.2297C46.2114 36.3836 47.0619 37.2684 47.2166 38.3071C47.4098 39.8844 46.0568 41.2308 44.4717 41C43.4666 40.8461 42.6161 40.0767 42.4228 39.0765C42.3841 38.7687 42.3841 38.4994 42.4228 38.2302C42.5774 37.3838 42.2682 36.499 41.6496 35.8835L39.8326 33.96C39.1368 33.2291 38.1316 32.8828 37.1651 33.1136C36.7399 33.2291 36.2373 33.2291 35.7734 33.1521C34.2657 32.9213 33.1059 31.6903 32.8739 30.2284C32.7966 29.7283 32.8353 29.2666 32.9513 28.805C33.2219 27.8048 32.9899 26.7276 32.2941 25.9967L31.3276 24.958C31.0183 24.6502 30.5157 24.5348 30.1291 24.7272C29.5106 25.0349 28.8534 25.1888 28.1189 25.1888C27.423 25.1888 26.7271 25.0349 26.1086 24.7272C25.722 24.5348 25.2194 24.6118 24.9101 24.958L23.9436 25.9967C23.2478 26.7661 23.0158 27.8048 23.2864 28.805C23.4024 29.2666 23.4411 29.7283 23.3638 30.2284C23.1705 31.7287 21.972 32.9213 20.4643 33.1521C19.9617 33.2291 19.4978 33.1906 19.0726 33.1136C18.1061 32.8828 17.0623 33.2291 16.4051 33.96L14.2788 36.1912C13.6989 36.8068 13.4283 37.6146 13.5056 38.4225C13.5056 38.6149 13.5056 38.8072 13.467 38.9996C13.3123 40.0382 12.4618 40.8846 11.3794 41C9.79434 41.1924 8.44127 39.8459 8.63456 38.2686C8.75054 37.3453 9.67836 36.3836 10.6062 36.2297C10.7608 36.1912 10.9155 36.1912 11.0701 36.1912C11.9206 36.1912 12.7324 35.922 13.3123 35.3064L15.7479 32.7289C16.3664 32.075 16.5984 31.1901 16.4437 30.3053C16.3664 29.9591 16.3664 29.5744 16.4437 29.1897C16.6757 27.7278 17.8355 26.5353 19.2659 26.3045C19.6138 26.2275 19.9617 26.2275 20.271 26.266C21.1602 26.3814 22.088 26.0352 22.7066 25.3812L23.789 24.2271C24.2529 23.727 24.3302 23.2268 24.0983 22.8421C23.7117 22.1882 23.5184 21.4188 23.5184 20.6109C23.5184 19.803 23.7117 19.0336 24.0983 18.3796C24.3302 17.9949 24.2529 17.4948 23.9436 17.1871L22.7066 15.8791C22.088 15.2251 21.1988 14.9173 20.271 14.9943C19.9617 15.0327 19.6138 15.0327 19.2659 14.9558C17.7968 14.725 16.637 13.5324 16.4437 12.0705C16.4051 11.6858 16.4051 11.3011 16.4437 10.9549C16.5984 10.0701 16.3664 9.18529 15.7479 8.5313C15.0133 7.7619 14.0469 6.72321 13.3123 5.95381C12.7324 5.33829 11.9206 5.069 11.0701 5.069C10.9155 5.069 10.7608 5.069 10.6062 5.03053C9.67836 4.87665 8.7892 3.9149 8.63456 2.99162C8.40261 1.41435 9.75568 0.0678961 11.3794 0.298716ZM5.00059 11.6858C5.03925 11.2242 4.92327 10.6856 4.61399 10.224C4.26606 9.6854 3.68617 9.3007 3.06762 9.18529C1.52125 8.87753 0.168173 10.0701 0.168173 11.5704C0.168173 11.6474 0.168173 11.7628 0.168173 11.8397C0.322811 13.0323 1.32795 13.994 2.56505 13.994H2.60371C3.49287 13.994 4.34338 14.3403 4.92327 14.9943L7.43612 17.6487C8.05467 18.3027 8.28663 19.226 8.09333 20.1108C8.05467 20.3031 8.05467 20.457 8.05467 20.6494C8.05467 20.8417 8.05467 21.0341 8.09333 21.1879C8.24797 22.0727 8.05467 22.996 7.43612 23.65L4.80729 26.4199C4.2274 27.0354 3.41556 27.3047 2.56505 27.3047C2.41041 27.3047 2.25578 27.3047 2.10114 27.3431C1.17332 27.497 0.284151 28.4588 0.129514 29.3821C-0.102442 30.9593 1.25063 32.3058 2.87433 32.1134C3.91813 31.9595 4.76863 31.1517 4.96193 30.113C5.00059 29.9206 5.00059 29.7283 5.00059 29.5359C4.92327 28.7281 5.19388 27.9202 5.77377 27.3047C6.54696 26.4968 7.59076 25.3812 8.36395 24.5733C8.9825 23.9193 9.91032 23.65 10.7995 23.7654C11.0701 23.8039 11.3407 23.8039 11.6113 23.7654C12.9644 23.5731 14.0855 22.4574 14.2402 21.0725C14.4721 19.226 13.0031 17.6487 11.1861 17.6487C11.0314 17.6487 10.9155 17.6487 10.7608 17.6872C9.87166 17.8026 8.94384 17.4563 8.32529 16.8024L6.12171 14.4557C5.2712 13.5324 4.96193 12.7245 5.00059 11.8397V11.6858ZM45.2449 23.6885C45.129 23.6885 45.0516 23.6885 44.9357 23.6885C43.2346 23.6885 41.8429 22.3036 41.8429 20.6109C41.8429 18.9182 43.2346 17.5333 44.9357 17.5333H44.9743C45.0516 17.5333 45.1676 17.5333 45.2449 17.5333C46.2114 17.6487 47.1779 17.3025 47.8351 16.5715L50.3093 13.9556C50.8892 13.3401 51.1598 12.5322 51.0825 11.7243C51.0825 11.532 51.0825 11.3396 51.1211 11.1473C51.2758 10.1086 52.1263 9.26223 53.2087 9.14682C54.8324 8.95447 56.1469 10.3009 55.9536 11.8782C55.8376 12.8015 54.9098 13.7248 54.0206 13.9171C53.866 13.9556 53.7113 13.9556 53.5567 13.9556C52.7062 13.9556 51.8943 14.2249 51.3144 14.8404C50.5413 15.6483 49.4975 16.7639 48.6856 17.6102C48.0671 18.2642 47.8351 19.1875 48.0284 20.0723C48.0671 20.2647 48.0671 20.4185 48.0671 20.6109C48.0671 20.8032 48.0671 20.9956 48.0284 21.1495C47.8738 22.0343 48.0671 22.9576 48.6856 23.6115L51.3144 26.3814C51.8943 26.9969 52.7062 27.2662 53.5567 27.2662C53.7113 27.2662 53.866 27.2662 54.0206 27.3047C54.9484 27.4586 55.8376 28.4203 55.9922 29.3436C56.2242 30.9209 54.8711 32.2673 53.2474 32.075C52.2036 31.9211 51.3531 31.1132 51.1598 30.0745C51.1211 29.8822 51.1211 29.6898 51.1211 29.4975C51.1985 28.6896 50.9278 27.8817 50.348 27.2662C49.6134 26.4583 48.6083 25.4196 47.8738 24.6502C47.2166 23.9193 46.2501 23.5731 45.2449 23.6885Z" fill="#27CEAA"></path> </g> <g clip-path="url(#clip1)"> <path d="M112.068 61H0.168945V141H112.068V61Z" fill="#D3D800"></path> <path d="M26.9031 114.352C28.8207 114.352 33.5584 114.013 37.0552 111.416V113.392H44.1617V104.811L47.151 101.706L53.6371 113.392H62.1536L52.3963 96.681L61.928 86.18H53.1859L44.1617 96.5116V76.6951H37.0552V79.8567C34.8556 77.542 31.3587 75.7354 25.8879 75.7354C14.0437 75.7354 11.7876 82.9619 11.7876 87.0268C11.7876 92.6161 14.7769 95.6648 19.9658 96.9633L27.3543 98.7699C31.2459 99.7297 34.0096 100.464 34.0096 103.343C34.0096 107.182 29.9487 108.085 26.3391 108.085C19.6838 108.085 18.5557 104.19 18.5557 102.101H11.2236C11.28 106.617 13.5925 114.352 26.9031 114.352ZM31.7535 92.4467L22.8422 90.2449C21.3194 89.9061 18.9505 89.2851 18.9505 86.4058C18.9505 83.1313 22.4474 82.0021 25.3802 82.0021C32.0355 82.0021 32.656 85.8977 32.8252 87.5914H37.0552V94.4227C35.5324 93.5194 33.6712 92.9548 31.7535 92.4467Z" fill="#6C6B6A"></path> <path d="M13.5358 124.514C13.5358 125.135 13.8742 126.378 15.9611 126.378C17.0891 126.378 18.3863 126.095 18.3863 124.91C18.3863 124.006 17.5403 123.78 16.2995 123.498L13.987 122.934C12.3514 122.538 11.449 121.579 11.449 119.828C11.449 118.586 12.1258 116.328 15.8483 116.328C19.3451 116.328 20.3039 118.643 20.3039 120.054H17.9915C17.9351 119.546 17.7659 118.304 15.6791 118.304C14.7766 118.304 13.6486 118.643 13.6486 119.659C13.6486 120.562 14.3818 120.732 14.8894 120.845L17.7095 121.522C19.2887 121.917 20.6987 122.538 20.6987 124.627C20.6987 128.071 17.2019 128.41 16.1867 128.41C12.013 128.41 11.2798 125.982 11.2798 124.571H13.5358V124.514Z" fill="#6C6B6A"></path> <path d="M23.6318 122.764L26.4518 119.546H29.2154L26.2262 122.877L29.2718 128.071H26.621L24.5906 124.402L23.6318 125.361V128.071H21.4321V116.611H23.6318V122.764Z" fill="#6C6B6A"></path> <path d="M37.7883 123.781C37.7883 126.829 35.7578 128.297 33.4454 128.297C31.1894 128.297 29.1025 126.886 29.1025 123.837C29.1025 120.788 31.1894 119.377 33.4454 119.377C35.7578 119.32 37.7883 120.732 37.7883 123.781ZM31.415 123.781C31.415 124.853 31.7534 126.378 33.4454 126.378C35.1938 126.378 35.4758 124.853 35.4758 123.781C35.4758 122.708 35.1374 121.184 33.4454 121.184C31.7534 121.24 31.415 122.708 31.415 123.781Z" fill="#6C6B6A"></path> <path d="M40.7211 116.611H38.5215V128.071H40.7211V116.611Z" fill="#6C6B6A"></path> <path d="M44.0492 122.764L46.8693 119.546H49.6329L46.6437 122.877L49.6893 128.071H47.0385L45.0081 124.402L44.0492 125.361V128.071H41.8496V116.611H44.0492V122.764Z" fill="#6C6B6A"></path> <path d="M58.2057 123.781C58.2057 126.829 56.1753 128.297 53.8629 128.297C51.6068 128.297 49.52 126.886 49.52 123.837C49.52 120.788 51.6068 119.377 53.8629 119.377C56.1753 119.32 58.2057 120.732 58.2057 123.781ZM51.8325 123.781C51.8325 124.853 52.1709 126.378 53.8629 126.378C55.6113 126.378 55.8933 124.853 55.8933 123.781C55.8933 122.708 55.5549 121.184 53.8629 121.184C52.1709 121.24 51.8325 122.708 51.8325 123.781Z" fill="#6C6B6A"></path> <path d="M60.5742 119.546L62.379 125.813L64.2402 119.546H66.609L63.5634 128.071H61.1946L58.1489 119.546H60.5742Z" fill="#6C6B6A"></path> <path d="M75.2951 123.781C75.2951 126.829 73.2647 128.297 70.9522 128.297C68.6962 128.297 66.6094 126.886 66.6094 123.837C66.6094 120.788 68.6962 119.377 70.9522 119.377C73.2083 119.32 75.2951 120.732 75.2951 123.781ZM68.9218 123.781C68.9218 124.853 69.2602 126.378 70.9522 126.378C72.7007 126.378 72.9827 124.853 72.9827 123.781C72.9827 122.708 72.6443 121.184 70.9522 121.184C69.2038 121.24 68.9218 122.708 68.9218 123.781Z" fill="#6C6B6A"></path> </g> <defs> <clipPath id="clip0"> <rect width="55.7854" height="40.7397" fill="white" transform="translate(0.167969 0.260254)"></rect> </clipPath> <clipPath id="clip1"> <rect width="111.899" height="80" fill="white" transform="translate(0.168945 61)"></rect> </clipPath> </defs> </svg> 